<svg width="81" height="80" viewBox="0 0 81 80" fill="none" xmlns="http://www.w3.org/2000/svg">
<g clip-path="url(#clip0_0_1225)">
<path d="M23.0333 27.0333L21.9333 20.4666L22.3667 20.0333L21 18.6333C19 16.5999 18.3333 13.6666 19.2 10.9999C19.2333 10.8999 19.2667 10.8333 19.3 10.7333L18.8667 10.6666L16.0667 4.76659C15.6667 3.89992 14.7667 3.33325 13.8 3.33325C12.8333 3.33325 11.9333 3.89992 11.5333 4.76659L8.76667 10.6999L2.6 11.6666C1.7 11.7999 0.933336 12.4666 0.633336 13.3666C0.333336 14.2333 0.566669 15.2333 1.23334 15.8999L5.76667 20.5333L4.7 27.0999C4.56667 28.0666 4.96667 28.9999 5.73334 29.5333C6.16667 29.8333 6.66667 29.9999 7.16667 29.9999C7.6 29.9999 8.03334 29.8999 8.4 29.6999L13.8667 26.6333L19.3667 29.6333C20.2 30.0999 21.2333 30.0333 22.0333 29.4999C22.8 28.9333 23.2 27.9999 23.0333 27.0333Z" fill="url(#paint0_linear_0_1225)"/>
<path d="M80.3667 13.2666C80.0667 12.3666 79.3 11.7333 78.3667 11.5999L72.2 10.6666L69.4 4.76659C69 3.89992 68.1 3.33325 67.1333 3.33325C66.1667 3.33325 65.2667 3.89992 64.8667 4.76659L62.1 10.6999L61.7333 10.7666C61.7333 10.7999 61.7667 10.8333 61.7667 10.8666C62.6667 13.5333 62.0333 16.4666 60.0667 18.4666L58.5667 19.9999L59.1 20.5333L58.0333 27.0999C57.9 28.0666 58.3 28.9999 59.0667 29.5333C59.5 29.8333 60 29.9999 60.5 29.9999C60.9333 29.9999 61.3667 29.8999 61.7333 29.6999L67.2 26.6333L72.7 29.6333C73.5333 30.0999 74.5667 30.0333 75.3667 29.4999C76.1333 28.9333 76.5333 27.9999 76.3667 27.0333L75.2667 20.4666L79.8 15.7999C80.4333 15.1333 80.6667 14.1666 80.3667 13.2666Z" fill="url(#paint1_linear_0_1225)"/>
<path d="M31.8033 33.3333C31.3 33.3333 30.8 33.1833 30.37 32.88C29.5867 32.3333 29.1833 31.3833 29.3333 30.44L30.7733 21.44L24.55 15.1133C23.8933 14.4433 23.6667 13.4633 23.96 12.5733C24.2533 11.6833 25.02 11.0333 25.9467 10.89L34.4133 9.57L38.1967 1.44667C38.6067 0.566667 39.4833 0.00333333 40.4533 0H40.46C41.4267 0 42.3067 0.556667 42.72 1.43L46.56 9.52667L55.0333 10.79C55.96 10.93 56.73 11.5733 57.0333 12.46C57.3333 13.3467 57.11 14.33 56.46 15.0033L50.28 21.3733L51.78 30.36C51.9367 31.3033 51.5433 32.2567 50.76 32.81C49.98 33.3667 48.9533 33.4267 48.1133 32.9633L40.55 28.8233L33.0167 33.0167C32.64 33.23 32.2233 33.3333 31.8033 33.3333Z" fill="url(#paint2_linear_0_1225)"/>
<path d="M13.8334 56.6666C17.5153 56.6666 20.5 53.6818 20.5 49.9999C20.5 46.318 17.5153 43.3333 13.8334 43.3333C10.1515 43.3333 7.16669 46.318 7.16669 49.9999C7.16669 53.6818 10.1515 56.6666 13.8334 56.6666Z" fill="url(#paint3_linear_0_1225)"/>
<path d="M22.7333 61.3333C19.3667 63.8667 17.1667 67.9333 17.1667 72.5V73.3333H3C1.63333 73.3333 0.5 72.2 0.5 70.8333V69.1667C0.5 64.1 4.6 60 9.66667 60H18C19.7333 60 21.3667 60.5 22.7333 61.3333Z" fill="url(#paint4_linear_0_1225)"/>
<path d="M67.1667 56.6666C70.8486 56.6666 73.8333 53.6818 73.8333 49.9999C73.8333 46.318 70.8486 43.3333 67.1667 43.3333C63.4848 43.3333 60.5 46.318 60.5 49.9999C60.5 53.6818 63.4848 56.6666 67.1667 56.6666Z" fill="url(#paint5_linear_0_1225)"/>
<path d="M80.5 69.1667V70.8333C80.5 72.2 79.3667 73.3333 78 73.3333H63.8333V72.5C63.8333 67.9333 61.6333 63.8667 58.2667 61.3333C59.6333 60.5 61.2667 60 63 60H71.3333C76.4 60 80.5 64.1 80.5 69.1667Z" fill="url(#paint6_linear_0_1225)"/>
<path d="M40.5 58.3333C46.0228 58.3333 50.5 53.8561 50.5 48.3333C50.5 42.8104 46.0228 38.3333 40.5 38.3333C34.9772 38.3333 30.5 42.8104 30.5 48.3333C30.5 53.8561 34.9772 58.3333 40.5 58.3333Z" fill="url(#paint7_linear_0_1225)"/>
<path d="M49.6667 63.3333H31.3334C26.2767 63.3333 22.1667 67.4433 22.1667 72.4999V77.4999C22.1667 78.8799 23.2867 79.9999 24.6667 79.9999H56.3334C57.7134 79.9999 58.8334 78.8799 58.8334 77.4999V72.4999C58.8334 67.4433 54.7234 63.3333 49.6667 63.3333Z" fill="url(#paint8_linear_0_1225)"/>
</g>
<defs>
<linearGradient id="paint0_linear_0_1225" x1="11.7876" y1="3.33325" x2="11.7876" y2="29.9999" gradientUnits="userSpaceOnUse">
<stop stop-color="#2E0068"/>
<stop offset="1" stop-color="#50E5FA"/>
</linearGradient>
<linearGradient id="paint1_linear_0_1225" x1="69.2522" y1="3.33325" x2="69.2522" y2="29.9999" gradientUnits="userSpaceOnUse">
<stop stop-color="#2E0068"/>
<stop offset="1" stop-color="#50E5FA"/>
</linearGradient>
<linearGradient id="paint2_linear_0_1225" x1="40.4992" y1="0" x2="40.4992" y2="33.3333" gradientUnits="userSpaceOnUse">
<stop stop-color="#2E0068"/>
<stop offset="1" stop-color="#50E5FA"/>
</linearGradient>
<linearGradient id="paint3_linear_0_1225" x1="13.8334" y1="43.3333" x2="13.8334" y2="56.6666" gradientUnits="userSpaceOnUse">
<stop stop-color="#2E0068"/>
<stop offset="1" stop-color="#50E5FA"/>
</linearGradient>
<linearGradient id="paint4_linear_0_1225" x1="11.6167" y1="60" x2="11.6167" y2="73.3333" gradientUnits="userSpaceOnUse">
<stop stop-color="#2E0068"/>
<stop offset="1" stop-color="#50E5FA"/>
</linearGradient>
<linearGradient id="paint5_linear_0_1225" x1="67.1667" y1="43.3333" x2="67.1667" y2="56.6666" gradientUnits="userSpaceOnUse">
<stop stop-color="#2E0068"/>
<stop offset="1" stop-color="#50E5FA"/>
</linearGradient>
<linearGradient id="paint6_linear_0_1225" x1="69.3833" y1="60" x2="69.3833" y2="73.3333" gradientUnits="userSpaceOnUse">
<stop stop-color="#2E0068"/>
<stop offset="1" stop-color="#50E5FA"/>
</linearGradient>
<linearGradient id="paint7_linear_0_1225" x1="40.5" y1="38.3333" x2="40.5" y2="58.3333" gradientUnits="userSpaceOnUse">
<stop stop-color="#2E0068"/>
<stop offset="1" stop-color="#50E5FA"/>
</linearGradient>
<linearGradient id="paint8_linear_0_1225" x1="40.5" y1="63.3333" x2="40.5" y2="79.9999" gradientUnits="userSpaceOnUse">
<stop stop-color="#2E0068"/>
<stop offset="1" stop-color="#50E5FA"/>
</linearGradient>
<clipPath id="clip0_0_1225">
<rect width="80" height="80" fill="white" transform="translate(0.5)"/>
</clipPath>
</defs>
</svg>
