<svg width="15" height="10" viewBox="0 0 15 10" fill="none" xmlns="http://www.w3.org/2000/svg">
<path id="Vector" fill-rule="evenodd" clip-rule="evenodd" d="M0.495117 5.31606C0.495117 5.18345 0.547796 5.05628 0.641564 4.96251C0.735332 4.86874 0.862509 4.81606 0.995117 4.81606H12.7881L9.64112 1.67006C9.54723 1.57617 9.49449 1.44884 9.49449 1.31606C9.49449 1.18329 9.54723 1.05595 9.64112 0.962061C9.735 0.868175 9.86234 0.81543 9.99512 0.81543C10.1279 0.81543 10.2552 0.868175 10.3491 0.962061L14.3491 4.96206C14.3957 5.00851 14.4326 5.06368 14.4578 5.12443C14.483 5.18517 14.496 5.25029 14.496 5.31606C14.496 5.38183 14.483 5.44695 14.4578 5.50769C14.4326 5.56844 14.3957 5.62362 14.3491 5.67006L10.3491 9.67006C10.2552 9.76395 10.1279 9.81669 9.99512 9.81669C9.86234 9.81669 9.735 9.76395 9.64112 9.67006C9.54723 9.57617 9.49449 9.44884 9.49449 9.31606C9.49449 9.18329 9.54723 9.05595 9.64112 8.96206L12.7881 5.81606H0.995117C0.862509 5.81606 0.735332 5.76338 0.641564 5.66961C0.547796 5.57585 0.495117 5.44867 0.495117 5.31606Z" fill="black"/>
</svg>
