<svg width="136" height="41" viewBox="0 0 136 41" fill="none" xmlns="http://www.w3.org/2000/svg">
<g clip-path="url(#clip0_0_626)">
<path d="M23.4286 34.2108C23.709 34.7762 23.4793 35.466 22.896 35.7069C19.8784 36.9529 16.551 37.283 13.3327 36.6417C9.73975 35.9257 6.48535 34.0392 4.07837 31.2772C1.67138 28.5152 0.247518 25.0334 0.0294058 21.3764C-0.188707 17.7193 0.81123 14.093 2.87287 11.0645C4.9345 8.036 7.94161 5.77608 11.424 4.63808C14.9064 3.50009 18.6677 3.54817 22.1199 4.77481C25.572 6.00145 28.5204 8.3375 30.5039 11.4177C32.2806 14.1768 33.1935 17.3934 33.1407 20.6577C33.1305 21.2888 32.573 21.7554 31.9441 21.7017L25.1377 21.1209C24.5088 21.0672 24.0517 20.5116 24.0087 19.8819C23.9233 18.6321 23.5238 17.4173 22.8389 16.3538C21.9465 14.9682 20.6202 13.9173 19.0673 13.3656C17.5144 12.8138 15.8224 12.7921 14.2559 13.3041C12.6894 13.816 11.3367 14.8325 10.4093 16.1949C9.48185 17.5572 9.03203 19.1884 9.13015 20.8336C9.22826 22.4787 9.86878 24.045 10.9515 25.2874C12.0343 26.5298 13.4983 27.3785 15.1145 27.7005C16.3551 27.9477 17.6318 27.8741 18.8258 27.4953C19.4276 27.3043 20.1119 27.5259 20.3925 28.0914L23.4286 34.2108Z" fill="url(#paint0_linear_0_626)"/>
<path d="M48.5303 33.9168C47.0157 33.9168 45.6077 33.6395 44.3063 33.0848C43.0263 32.5302 41.9169 31.7622 40.9783 30.7808C40.0609 29.7782 39.3889 28.6155 38.9623 27.2928L42.5783 25.7248C43.1543 27.0902 43.9863 28.1675 45.0743 28.9568C46.1623 29.7248 47.3889 30.1088 48.7543 30.1088C49.5223 30.1088 50.1837 29.9915 50.7383 29.7568C51.3143 29.5008 51.7517 29.1595 52.0503 28.7328C52.3703 28.3062 52.5303 27.7942 52.5303 27.1968C52.5303 26.4928 52.3169 25.9168 51.8903 25.4688C51.4849 24.9995 50.8663 24.6368 50.0343 24.3808L45.4583 22.9088C43.6023 22.3328 42.2049 21.4688 41.2663 20.3168C40.3277 19.1648 39.8583 17.8102 39.8583 16.2528C39.8583 14.8875 40.1889 13.6822 40.8503 12.6368C41.5329 11.5915 42.4717 10.7808 43.6663 10.2048C44.8823 9.6075 46.2689 9.30884 47.8263 9.30884C49.2557 9.30884 50.5677 9.56484 51.7623 10.0768C52.9569 10.5675 53.9809 11.2608 54.8343 12.1568C55.7089 13.0315 56.3597 14.0662 56.7863 15.2608L53.2023 16.8608C52.7329 15.6662 52.0289 14.7488 51.0903 14.1088C50.1517 13.4475 49.0637 13.1168 47.8263 13.1168C47.1009 13.1168 46.4609 13.2448 45.9063 13.5008C45.3517 13.7355 44.9143 14.0768 44.5943 14.5248C44.2957 14.9515 44.1463 15.4635 44.1463 16.0608C44.1463 16.7222 44.3597 17.3088 44.7863 17.8208C45.2129 18.3115 45.8637 18.6955 46.7383 18.9728L51.1223 20.3488C53.0209 20.9675 54.4397 21.8208 55.3783 22.9088C56.3383 23.9968 56.8183 25.3408 56.8183 26.9408C56.8183 28.3062 56.4663 29.5115 55.7623 30.5568C55.0583 31.6022 54.0877 32.4235 52.8503 33.0208C51.6129 33.6182 50.1729 33.9168 48.5303 33.9168ZM65.5088 33.9168C64.2928 33.9168 63.2368 33.7142 62.3408 33.3088C61.4448 32.9035 60.7514 32.3275 60.2608 31.5808C59.7702 30.8128 59.5248 29.9275 59.5248 28.9248C59.5248 27.9648 59.7382 27.1115 60.1648 26.3648C60.5914 25.5968 61.2528 24.9568 62.1488 24.4448C63.0448 23.9328 64.1754 23.5702 65.5408 23.3568L71.2368 22.4288V25.6288L66.3408 26.4608C65.5088 26.6102 64.8902 26.8768 64.4848 27.2608C64.0794 27.6448 63.8768 28.1462 63.8768 28.7648C63.8768 29.3622 64.1008 29.8422 64.5488 30.2048C65.0182 30.5462 65.5942 30.7168 66.2768 30.7168C67.1514 30.7168 67.9194 30.5355 68.5808 30.1728C69.2634 29.7888 69.7862 29.2662 70.1488 28.6048C70.5328 27.9435 70.7248 27.2182 70.7248 26.4288V21.9488C70.7248 21.2022 70.4262 20.5835 69.8288 20.0928C69.2528 19.5808 68.4848 19.3248 67.5248 19.3248C66.6288 19.3248 65.8288 19.5702 65.1248 20.0608C64.4422 20.5302 63.9408 21.1595 63.6208 21.9488L60.1968 20.2848C60.5382 19.3675 61.0714 18.5782 61.7968 17.9168C62.5434 17.2342 63.4182 16.7008 64.4208 16.3168C65.4234 15.9328 66.5114 15.7408 67.6848 15.7408C69.1142 15.7408 70.3728 16.0075 71.4608 16.5408C72.5488 17.0528 73.3914 17.7782 73.9888 18.7168C74.6074 19.6342 74.9168 20.7115 74.9168 21.9488V33.5328H70.9488V30.5568L71.8448 30.4928C71.3968 31.2395 70.8634 31.8688 70.2448 32.3808C69.6262 32.8715 68.9222 33.2555 68.1328 33.5328C67.3434 33.7888 66.4688 33.9168 65.5088 33.9168ZM84.0713 33.9168C82.8553 33.9168 81.7993 33.7142 80.9033 33.3088C80.0073 32.9035 79.3139 32.3275 78.8233 31.5808C78.3326 30.8128 78.0873 29.9275 78.0873 28.9248C78.0873 27.9648 78.3006 27.1115 78.7273 26.3648C79.1539 25.5968 79.8153 24.9568 80.7113 24.4448C81.6073 23.9328 82.7379 23.5702 84.1033 23.3568L89.7993 22.4288V25.6288L84.9033 26.4608C84.0713 26.6102 83.4526 26.8768 83.0473 27.2608C82.6419 27.6448 82.4393 28.1462 82.4393 28.7648C82.4393 29.3622 82.6633 29.8422 83.1113 30.2048C83.5806 30.5462 84.1566 30.7168 84.8393 30.7168C85.7139 30.7168 86.4819 30.5355 87.1433 30.1728C87.8259 29.7888 88.3486 29.2662 88.7113 28.6048C89.0953 27.9435 89.2873 27.2182 89.2873 26.4288V21.9488C89.2873 21.2022 88.9886 20.5835 88.3913 20.0928C87.8153 19.5808 87.0473 19.3248 86.0873 19.3248C85.1913 19.3248 84.3913 19.5702 83.6873 20.0608C83.0046 20.5302 82.5033 21.1595 82.1833 21.9488L78.7593 20.2848C79.1006 19.3675 79.6339 18.5782 80.3593 17.9168C81.1059 17.2342 81.9806 16.7008 82.9833 16.3168C83.9859 15.9328 85.0739 15.7408 86.2473 15.7408C87.6766 15.7408 88.9353 16.0075 90.0233 16.5408C91.1113 17.0528 91.9539 17.7782 92.5513 18.7168C93.1699 19.6342 93.4793 20.7115 93.4793 21.9488V33.5328H89.5113V30.5568L90.4073 30.4928C89.9593 31.2395 89.4259 31.8688 88.8073 32.3808C88.1886 32.8715 87.4846 33.2555 86.6953 33.5328C85.9059 33.7888 85.0313 33.9168 84.0713 33.9168ZM97.3538 33.5328V16.1248H101.29V19.5488L100.97 18.9408C101.375 17.8955 102.036 17.1062 102.954 16.5728C103.892 16.0182 104.98 15.7408 106.218 15.7408C107.498 15.7408 108.628 16.0182 109.61 16.5728C110.612 17.1275 111.391 17.9062 111.946 18.9088C112.5 19.8902 112.778 21.0315 112.778 22.3328V33.5328H108.586V23.3248C108.586 22.5568 108.436 21.8955 108.138 21.3408C107.839 20.7862 107.423 20.3595 106.89 20.0608C106.378 19.7408 105.77 19.5808 105.066 19.5808C104.383 19.5808 103.775 19.7408 103.242 20.0608C102.708 20.3595 102.292 20.7862 101.994 21.3408C101.695 21.8955 101.546 22.5568 101.546 23.3248V33.5328H97.3538ZM124.834 33.9168C123.128 33.9168 121.57 33.5222 120.162 32.7328C118.776 31.9435 117.666 30.8662 116.834 29.5008C116.024 28.1355 115.618 26.5782 115.618 24.8288C115.618 23.0795 116.024 21.5222 116.834 20.1568C117.666 18.7915 118.776 17.7142 120.162 16.9248C121.55 16.1355 123.106 15.7408 124.834 15.7408C126.542 15.7408 128.088 16.1355 129.474 16.9248C130.862 17.7142 131.96 18.7915 132.77 20.1568C133.602 21.5008 134.018 23.0582 134.018 24.8288C134.018 26.5782 133.602 28.1355 132.77 29.5008C131.938 30.8662 130.83 31.9435 129.442 32.7328C128.056 33.5222 126.52 33.9168 124.834 33.9168ZM124.834 30.0768C125.774 30.0768 126.594 29.8528 127.298 29.4048C128.024 28.9568 128.59 28.3382 128.994 27.5488C129.422 26.7382 129.634 25.8315 129.634 24.8288C129.634 23.8048 129.422 22.9088 128.994 22.1408C128.59 21.3515 128.024 20.7328 127.298 20.2848C126.594 19.8155 125.774 19.5808 124.834 19.5808C123.874 19.5808 123.032 19.8155 122.306 20.2848C121.582 20.7328 121.006 21.3515 120.578 22.1408C120.174 22.9088 119.97 23.8048 119.97 24.8288C119.97 25.8315 120.174 26.7382 120.578 27.5488C121.006 28.3382 121.582 28.9568 122.306 29.4048C123.032 29.8528 123.874 30.0768 124.834 30.0768Z" fill="#0E021E"/>
</g>
<defs>
<linearGradient id="paint0_linear_0_626" x1="4.32299" y1="10.3028" x2="27.3789" y2="27.5947" gradientUnits="userSpaceOnUse">
<stop stop-color="#2E0068"/>
<stop offset="1" stop-color="#50E5FA"/>
</linearGradient>
<clipPath id="clip0_0_626">
<rect width="136" height="40" fill="white" transform="translate(0 0.389893)"/>
</clipPath>
</defs>
</svg>
