<svg width="26" height="26" viewBox="0 0 26 26" fill="none" xmlns="http://www.w3.org/2000/svg">
<mask id="mask0_0_36" style="mask-type:luminance" maskUnits="userSpaceOnUse" x="0" y="0" width="26" height="26">
<path d="M25.9199 0.800049H0.919922V25.8H25.9199V0.800049Z" fill="white"/>
</mask>
<g mask="url(#mask0_0_36)">
<path d="M23.2185 25.8H3.62132C2.12942 25.8 0.919922 24.5905 0.919922 23.0986V3.50143C0.919922 2.00952 2.12942 0.800049 3.62132 0.800049H23.2185C24.7104 0.800049 25.9199 2.00952 25.9199 3.50143V23.0986C25.9199 24.5905 24.7104 25.8 23.2185 25.8Z" fill="#50E5FA"/>
<path d="M16.0038 13.5195C15.1198 13.55 14.5711 13.7126 14.5711 14.2917C14.5711 14.6676 14.876 15.0741 15.638 15.0741C16.6642 15.0741 17.2027 14.5153 17.2027 13.6008V13.4992C16.8471 13.4992 16.4001 13.5093 16.0038 13.5195ZM18.1782 14.7286C18.1782 15.0131 18.1883 15.2874 18.2087 15.5415H17.3044C17.284 15.3382 17.2739 15.1249 17.2739 14.9318C16.7862 15.5313 16.1969 15.704 15.3942 15.704C14.185 15.704 13.5449 15.0741 13.5449 14.3323C13.5449 13.2655 14.4187 12.8997 15.9326 12.8591C16.3492 12.8489 16.8166 12.8489 17.2027 12.8489V12.7473C17.2027 12.0361 16.7455 11.7414 15.953 11.7414C15.3637 11.7414 14.9369 11.9853 14.8861 12.4019H13.8599C13.9717 11.3553 15.069 11.0911 16.0343 11.0911C17.1926 11.0911 18.168 11.5077 18.168 12.727V14.7287L18.1782 14.7286Z" fill="black"/>
<path d="M7.57085 13.0009C7.53025 12.0864 6.87986 11.7511 6.16866 11.7511C5.41676 11.741 4.80715 12.127 4.70555 13.0009H7.57085ZM4.68515 13.6511C4.73605 14.5351 5.34565 15.0634 6.18895 15.0634C6.76815 15.0634 7.28625 14.8297 7.45905 14.3115H8.46495C8.26175 15.3479 7.15425 15.7036 6.19915 15.7036C4.46165 15.7036 3.68945 14.7485 3.68945 13.458C3.68945 12.0355 4.48205 11.1008 6.20935 11.1008C7.58105 11.1008 8.59705 11.8222 8.59705 13.3869V13.6511H4.68515Z" fill="black"/>
<path d="M11.0964 15.0334C12.0007 15.0334 12.6205 14.3831 12.6205 13.3975C12.6205 12.4119 12.0007 11.7616 11.0964 11.7616C10.1921 11.7616 9.5723 12.4119 9.5723 13.3975C9.5723 14.3831 10.1922 15.0334 11.0964 15.0334ZM8.59691 9.38403H9.5723V11.8328C10.0499 11.2638 10.7103 11.1012 11.3606 11.1012C12.4478 11.1012 13.6569 11.8328 13.6569 13.4178C13.6569 14.7387 12.7018 15.704 11.3504 15.704C10.6392 15.704 9.9787 15.45 9.5621 14.9521C9.5621 15.1553 9.55201 15.3585 9.53171 15.5516H8.56641C8.58671 15.2468 8.59691 14.8606 8.59691 14.5457V9.38403Z" fill="black"/>
<path d="M23.136 11.2639L20.1183 17.1875H19.0311L19.8947 15.5415L17.6289 11.2639H18.7669L20.4332 14.6067L22.0996 11.2639H23.136Z" fill="black"/>
</g>
</svg>
