<svg width="250" height="215" viewBox="0 0 250 215" fill="none" xmlns="http://www.w3.org/2000/svg">
<g clip-path="url(#clip0_9_210)">
<rect width="250" height="215" rx="7" fill="white"/>
<g filter="url(#filter0_f_9_210)">
<path d="M-75.3824 241.713L-78.2113 166.215L130.666 121.561L466.705 205.315L446.4 270.83L150.237 237.547L-75.3824 241.713Z" fill="#50E5FA"/>
</g>
<circle cx="61.5" cy="61.5" r="31.5" fill="#F3F1F4"/>
<path d="M65.0156 65.7969C65.0156 65.1207 65.0156 63.0625 66.9688 63.0625H70.875V60.7188C70.875 59.6418 69.9988 58.7656 68.9219 58.7656H52.125C51.048 58.7656 50.1719 59.6418 50.1719 60.7188V70.875C50.1719 71.952 51.048 72.8281 52.125 72.8281H68.9219C69.9988 72.8281 70.875 71.952 70.875 70.875V68.5312H66.9688C65.0156 68.5312 65.0156 66.473 65.0156 65.7969Z" fill="url(#paint0_linear_9_210)"/>
<path d="M65.7969 57.9846V55.6166C65.7969 55.2131 65.5863 54.8471 65.2336 54.6377C64.868 54.4205 64.4266 54.4131 64.0535 54.6166L57.2992 57.9846H65.7969Z" fill="url(#paint1_linear_9_210)"/>
<path d="M68.1406 66.5781C68.5721 66.5781 68.9219 66.2283 68.9219 65.7969C68.9219 65.3654 68.5721 65.0156 68.1406 65.0156C67.7092 65.0156 67.3594 65.3654 67.3594 65.7969C67.3594 66.2283 67.7092 66.5781 68.1406 66.5781Z" fill="url(#paint2_linear_9_210)"/>
<path d="M62.2813 54.6276V52.9647C62.2813 52.3706 61.9156 51.9932 61.5738 51.8382C61.159 51.6499 60.7043 51.7194 60.3574 52.0237L53.5543 57.9846H55.5488L62.2813 54.6276Z" fill="url(#paint3_linear_9_210)"/>
<path d="M71.6562 63.8438H66.9688C66.2652 63.8438 65.7969 64.1762 65.7969 65.7969C65.7969 67.4176 66.2652 67.75 66.9688 67.75H71.6562C72.3023 67.75 72.8281 67.2242 72.8281 66.5781V65.0156C72.8281 64.3695 72.3023 63.8438 71.6562 63.8438ZM68.1406 67.3594C67.2789 67.3594 66.5781 66.6586 66.5781 65.7969C66.5781 64.9352 67.2789 64.2344 68.1406 64.2344C69.0023 64.2344 69.7031 64.9352 69.7031 65.7969C69.7031 66.6586 69.0023 67.3594 68.1406 67.3594Z" fill="url(#paint4_linear_9_210)"/>
<path d="M73.1324 52.4368L71.3355 50.0196C71.1027 49.7063 70.6332 49.7063 70.4004 50.02L68.6145 52.425C68.4367 52.6028 68.5625 52.9063 68.8137 52.9063H69.6957C69.9344 54.0766 69.4086 55.2704 68.3844 55.8848L68.1406 56.0313L69.7031 57.2032L69.7719 57.1575C71.193 56.2098 72.0469 54.6145 72.0469 52.9063H72.9379C73.1832 52.9063 73.3059 52.6102 73.1324 52.4368Z" fill="url(#paint5_linear_9_210)"/>
<path d="M217.75 33.5C218.716 33.5 219.5 32.7165 219.5 31.75C219.5 30.7835 218.716 30 217.75 30C216.784 30 216 30.7835 216 31.75C216 32.7165 216.784 33.5 217.75 33.5Z" fill="#2E0068" fill-opacity="0.5"/>
<path d="M217.75 40.5C218.716 40.5 219.5 39.7165 219.5 38.75C219.5 37.7835 218.716 37 217.75 37C216.784 37 216 37.7835 216 38.75C216 39.7165 216.784 40.5 217.75 40.5Z" fill="#2E0068" fill-opacity="0.5"/>
<path d="M217.75 47.5C218.716 47.5 219.5 46.7165 219.5 45.75C219.5 44.7835 218.716 44 217.75 44C216.784 44 216 44.7835 216 45.75C216 46.7165 216.784 47.5 217.75 47.5Z" fill="#2E0068" fill-opacity="0.5"/>
<path d="M31.8 149V130.375H44.175V133.375H35.2V138.15H43.675V141.15H35.2V146H44.175V149H31.8ZM45.1682 149L49.9182 142.175L45.1432 135.4H48.9932L52.7182 140.9H50.9932L54.7182 135.4H58.5432L53.7932 142.175L58.5182 149H54.6932L51.0182 143.525H52.6932L49.0182 149H45.1682ZM60.3336 154V135.4H63.4086V138.1L63.1086 137.425C63.5753 136.692 64.2086 136.125 65.0086 135.725C65.8086 135.308 66.7336 135.1 67.7836 135.1C69.0669 135.1 70.2253 135.417 71.2586 136.05C72.2919 136.683 73.1086 137.533 73.7086 138.6C74.3253 139.667 74.6336 140.867 74.6336 142.2C74.6336 143.517 74.3336 144.717 73.7336 145.8C73.1336 146.883 72.3169 147.742 71.2836 148.375C70.2503 148.992 69.0753 149.3 67.7586 149.3C66.7753 149.3 65.8669 149.108 65.0336 148.725C64.2169 148.325 63.5669 147.758 63.0836 147.025L63.6086 146.375V154H60.3336ZM67.3836 146.3C68.1336 146.3 68.8003 146.125 69.3836 145.775C69.9669 145.425 70.4169 144.942 70.7336 144.325C71.0669 143.708 71.2336 143 71.2336 142.2C71.2336 141.4 71.0669 140.7 70.7336 140.1C70.4169 139.483 69.9669 139 69.3836 138.65C68.8003 138.283 68.1336 138.1 67.3836 138.1C66.6669 138.1 66.0169 138.275 65.4336 138.625C64.8669 138.975 64.4169 139.467 64.0836 140.1C63.7669 140.717 63.6086 141.417 63.6086 142.2C63.6086 143 63.7669 143.708 64.0836 144.325C64.4169 144.942 64.8669 145.425 65.4336 145.775C66.0169 146.125 66.6669 146.3 67.3836 146.3ZM83.5805 149.3C82.1805 149.3 80.9555 148.983 79.9055 148.35C78.8555 147.717 78.0388 146.858 77.4555 145.775C76.8721 144.692 76.5805 143.492 76.5805 142.175C76.5805 140.808 76.8721 139.6 77.4555 138.55C78.0555 137.483 78.8638 136.642 79.8805 136.025C80.9138 135.408 82.0638 135.1 83.3305 135.1C84.3971 135.1 85.3305 135.275 86.1305 135.625C86.9471 135.975 87.6388 136.458 88.2055 137.075C88.7721 137.692 89.2055 138.4 89.5055 139.2C89.8055 139.983 89.9555 140.833 89.9555 141.75C89.9555 141.983 89.9388 142.225 89.9055 142.475C89.8888 142.725 89.8471 142.942 89.7805 143.125H79.2805V140.625H87.9305L86.3805 141.8C86.5305 141.033 86.4888 140.35 86.2555 139.75C86.0388 139.15 85.6721 138.675 85.1555 138.325C84.6555 137.975 84.0471 137.8 83.3305 137.8C82.6471 137.8 82.0388 137.975 81.5055 138.325C80.9721 138.658 80.5638 139.158 80.2805 139.825C80.0138 140.475 79.9138 141.267 79.9805 142.2C79.9138 143.033 80.0221 143.775 80.3055 144.425C80.6055 145.058 81.0388 145.55 81.6055 145.9C82.1888 146.25 82.8555 146.425 83.6055 146.425C84.3555 146.425 84.9888 146.267 85.5055 145.95C86.0388 145.633 86.4555 145.208 86.7555 144.675L89.4055 145.975C89.1388 146.625 88.7221 147.2 88.1555 147.7C87.5888 148.2 86.9138 148.592 86.1305 148.875C85.3638 149.158 84.5138 149.3 83.5805 149.3ZM92.4381 149V135.4H95.5131V138.075L95.2631 137.6C95.5798 136.783 96.0964 136.167 96.8131 135.75C97.5464 135.317 98.3964 135.1 99.3631 135.1C100.363 135.1 101.246 135.317 102.013 135.75C102.796 136.183 103.405 136.792 103.838 137.575C104.271 138.342 104.488 139.233 104.488 140.25V149H101.213V141.025C101.213 140.425 101.096 139.908 100.863 139.475C100.63 139.042 100.305 138.708 99.8881 138.475C99.4881 138.225 99.0131 138.1 98.4631 138.1C97.9298 138.1 97.4548 138.225 97.0381 138.475C96.6214 138.708 96.2964 139.042 96.0631 139.475C95.8298 139.908 95.7131 140.425 95.7131 141.025V149H92.4381ZM112.432 149.3C110.982 149.3 109.716 148.958 108.632 148.275C107.566 147.575 106.832 146.633 106.432 145.45L108.882 144.275C109.232 145.042 109.716 145.642 110.332 146.075C110.966 146.508 111.666 146.725 112.432 146.725C113.032 146.725 113.507 146.592 113.857 146.325C114.207 146.058 114.382 145.708 114.382 145.275C114.382 145.008 114.307 144.792 114.157 144.625C114.024 144.442 113.832 144.292 113.582 144.175C113.349 144.042 113.091 143.933 112.807 143.85L110.582 143.225C109.432 142.892 108.557 142.383 107.957 141.7C107.374 141.017 107.082 140.208 107.082 139.275C107.082 138.442 107.291 137.717 107.707 137.1C108.141 136.467 108.732 135.975 109.482 135.625C110.249 135.275 111.124 135.1 112.107 135.1C113.391 135.1 114.524 135.408 115.507 136.025C116.491 136.642 117.191 137.508 117.607 138.625L115.107 139.8C114.874 139.183 114.482 138.692 113.932 138.325C113.382 137.958 112.766 137.775 112.082 137.775C111.532 137.775 111.099 137.9 110.782 138.15C110.466 138.4 110.307 138.725 110.307 139.125C110.307 139.375 110.374 139.592 110.507 139.775C110.641 139.958 110.824 140.108 111.057 140.225C111.307 140.342 111.591 140.45 111.907 140.55L114.082 141.2C115.199 141.533 116.057 142.033 116.657 142.7C117.274 143.367 117.582 144.183 117.582 145.15C117.582 145.967 117.366 146.692 116.932 147.325C116.499 147.942 115.899 148.425 115.132 148.775C114.366 149.125 113.466 149.3 112.432 149.3ZM126.549 149.3C125.149 149.3 123.924 148.983 122.874 148.35C121.824 147.717 121.008 146.858 120.424 145.775C119.841 144.692 119.549 143.492 119.549 142.175C119.549 140.808 119.841 139.6 120.424 138.55C121.024 137.483 121.833 136.642 122.849 136.025C123.883 135.408 125.033 135.1 126.299 135.1C127.366 135.1 128.299 135.275 129.099 135.625C129.916 135.975 130.608 136.458 131.174 137.075C131.741 137.692 132.174 138.4 132.474 139.2C132.774 139.983 132.924 140.833 132.924 141.75C132.924 141.983 132.908 142.225 132.874 142.475C132.858 142.725 132.816 142.942 132.749 143.125H122.249V140.625H130.899L129.349 141.8C129.499 141.033 129.458 140.35 129.224 139.75C129.008 139.15 128.641 138.675 128.124 138.325C127.624 137.975 127.016 137.8 126.299 137.8C125.616 137.8 125.008 137.975 124.474 138.325C123.941 138.658 123.533 139.158 123.249 139.825C122.983 140.475 122.883 141.267 122.949 142.2C122.883 143.033 122.991 143.775 123.274 144.425C123.574 145.058 124.008 145.55 124.574 145.9C125.158 146.25 125.824 146.425 126.574 146.425C127.324 146.425 127.958 146.267 128.474 145.95C129.008 145.633 129.424 145.208 129.724 144.675L132.374 145.975C132.108 146.625 131.691 147.2 131.124 147.7C130.558 148.2 129.883 148.592 129.099 148.875C128.333 149.158 127.483 149.3 126.549 149.3ZM31.525 179V165.4H34.6V168.55L34.25 168.025C34.5 167.042 35 166.308 35.75 165.825C36.5 165.342 37.3833 165.1 38.4 165.1C39.5167 165.1 40.5 165.392 41.35 165.975C42.2 166.558 42.75 167.325 43 168.275L42.075 168.35C42.4917 167.267 43.1167 166.458 43.95 165.925C44.7833 165.375 45.7417 165.1 46.825 165.1C47.7917 165.1 48.65 165.317 49.4 165.75C50.1667 166.183 50.7667 166.792 51.2 167.575C51.6333 168.342 51.85 169.233 51.85 170.25V179H48.575V171.025C48.575 170.425 48.4667 169.908 48.25 169.475C48.0333 169.042 47.7333 168.708 47.35 168.475C46.9667 168.225 46.5 168.1 45.95 168.1C45.4333 168.1 44.975 168.225 44.575 168.475C44.175 168.708 43.8667 169.042 43.65 169.475C43.4333 169.908 43.325 170.425 43.325 171.025V179H40.05V171.025C40.05 170.425 39.9417 169.908 39.725 169.475C39.5083 169.042 39.2 168.708 38.8 168.475C38.4167 168.225 37.9583 168.1 37.425 168.1C36.9083 168.1 36.45 168.225 36.05 168.475C35.65 168.708 35.3417 169.042 35.125 169.475C34.9083 169.908 34.8 170.425 34.8 171.025V179H31.525ZM58.7457 179.3C57.7957 179.3 56.9707 179.142 56.2707 178.825C55.5707 178.508 55.029 178.058 54.6457 177.475C54.2624 176.875 54.0707 176.183 54.0707 175.4C54.0707 174.65 54.2374 173.983 54.5707 173.4C54.904 172.8 55.4207 172.3 56.1207 171.9C56.8207 171.5 57.704 171.217 58.7707 171.05L63.2207 170.325V172.825L59.3957 173.475C58.7457 173.592 58.2624 173.8 57.9457 174.1C57.629 174.4 57.4707 174.792 57.4707 175.275C57.4707 175.742 57.6457 176.117 57.9957 176.4C58.3624 176.667 58.8124 176.8 59.3457 176.8C60.029 176.8 60.629 176.658 61.1457 176.375C61.679 176.075 62.0874 175.667 62.3707 175.15C62.6707 174.633 62.8207 174.067 62.8207 173.45V169.95C62.8207 169.367 62.5874 168.883 62.1207 168.5C61.6707 168.1 61.0707 167.9 60.3207 167.9C59.6207 167.9 58.9957 168.092 58.4457 168.475C57.9124 168.842 57.5207 169.333 57.2707 169.95L54.5957 168.65C54.8624 167.933 55.279 167.317 55.8457 166.8C56.429 166.267 57.1124 165.85 57.8957 165.55C58.679 165.25 59.529 165.1 60.4457 165.1C61.5624 165.1 62.5457 165.308 63.3957 165.725C64.2457 166.125 64.904 166.692 65.3707 167.425C65.854 168.142 66.0957 168.983 66.0957 169.95V179H62.9957V176.675L63.6957 176.625C63.3457 177.208 62.929 177.7 62.4457 178.1C61.9624 178.483 61.4124 178.783 60.7957 179C60.179 179.2 59.4957 179.3 58.7457 179.3ZM69.1227 179V165.4H72.1977V168.075L71.9477 167.6C72.2643 166.783 72.781 166.167 73.4977 165.75C74.231 165.317 75.081 165.1 76.0477 165.1C77.0477 165.1 77.931 165.317 78.6977 165.75C79.481 166.183 80.0893 166.792 80.5227 167.575C80.956 168.342 81.1727 169.233 81.1727 170.25V179H77.8977V171.025C77.8977 170.425 77.781 169.908 77.5477 169.475C77.3143 169.042 76.9893 168.708 76.5727 168.475C76.1727 168.225 75.6977 168.1 75.1477 168.1C74.6143 168.1 74.1393 168.225 73.7227 168.475C73.306 168.708 72.981 169.042 72.7477 169.475C72.5143 169.908 72.3977 170.425 72.3977 171.025V179H69.1227ZM88.067 179.3C87.117 179.3 86.292 179.142 85.592 178.825C84.892 178.508 84.3503 178.058 83.967 177.475C83.5837 176.875 83.392 176.183 83.392 175.4C83.392 174.65 83.5587 173.983 83.892 173.4C84.2253 172.8 84.742 172.3 85.442 171.9C86.142 171.5 87.0253 171.217 88.092 171.05L92.542 170.325V172.825L88.717 173.475C88.067 173.592 87.5837 173.8 87.267 174.1C86.9503 174.4 86.792 174.792 86.792 175.275C86.792 175.742 86.967 176.117 87.317 176.4C87.6837 176.667 88.1337 176.8 88.667 176.8C89.3503 176.8 89.9503 176.658 90.467 176.375C91.0003 176.075 91.4087 175.667 91.692 175.15C91.992 174.633 92.142 174.067 92.142 173.45V169.95C92.142 169.367 91.9087 168.883 91.442 168.5C90.992 168.1 90.392 167.9 89.642 167.9C88.942 167.9 88.317 168.092 87.767 168.475C87.2337 168.842 86.842 169.333 86.592 169.95L83.917 168.65C84.1837 167.933 84.6003 167.317 85.167 166.8C85.7503 166.267 86.4337 165.85 87.217 165.55C88.0003 165.25 88.8503 165.1 89.767 165.1C90.8837 165.1 91.867 165.308 92.717 165.725C93.567 166.125 94.2253 166.692 94.692 167.425C95.1753 168.142 95.417 168.983 95.417 169.95V179H92.317V176.675L93.017 176.625C92.667 177.208 92.2503 177.7 91.767 178.1C91.2837 178.483 90.7337 178.783 90.117 179C89.5003 179.2 88.817 179.3 88.067 179.3ZM105.044 184.5C104.027 184.5 103.086 184.333 102.219 184C101.352 183.667 100.602 183.2 99.9689 182.6C99.3523 182.017 98.9023 181.325 98.6189 180.525L101.669 179.375C101.869 180.008 102.261 180.517 102.844 180.9C103.444 181.3 104.177 181.5 105.044 181.5C105.711 181.5 106.294 181.375 106.794 181.125C107.311 180.875 107.711 180.508 107.994 180.025C108.277 179.558 108.419 178.992 108.419 178.325V175.225L109.044 175.975C108.577 176.792 107.952 177.408 107.169 177.825C106.386 178.242 105.494 178.45 104.494 178.45C103.227 178.45 102.094 178.158 101.094 177.575C100.094 176.992 99.3106 176.192 98.7439 175.175C98.1773 174.158 97.8939 173.017 97.8939 171.75C97.8939 170.467 98.1773 169.325 98.7439 168.325C99.3106 167.325 100.086 166.542 101.069 165.975C102.052 165.392 103.169 165.1 104.419 165.1C105.436 165.1 106.327 165.317 107.094 165.75C107.877 166.167 108.527 166.775 109.044 167.575L108.594 168.4V165.4H111.694V178.325C111.694 179.508 111.402 180.567 110.819 181.5C110.252 182.433 109.469 183.167 108.469 183.7C107.486 184.233 106.344 184.5 105.044 184.5ZM104.894 175.425C105.594 175.425 106.202 175.275 106.719 174.975C107.252 174.658 107.669 174.225 107.969 173.675C108.269 173.125 108.419 172.492 108.419 171.775C108.419 171.075 108.261 170.45 107.944 169.9C107.644 169.333 107.227 168.892 106.694 168.575C106.177 168.258 105.577 168.1 104.894 168.1C104.211 168.1 103.594 168.258 103.044 168.575C102.494 168.892 102.061 169.333 101.744 169.9C101.444 170.45 101.294 171.075 101.294 171.775C101.294 172.475 101.444 173.1 101.744 173.65C102.061 174.2 102.486 174.633 103.019 174.95C103.569 175.267 104.194 175.425 104.894 175.425ZM121.203 179.3C119.803 179.3 118.578 178.983 117.528 178.35C116.478 177.717 115.661 176.858 115.078 175.775C114.494 174.692 114.203 173.492 114.203 172.175C114.203 170.808 114.494 169.6 115.078 168.55C115.678 167.483 116.486 166.642 117.503 166.025C118.536 165.408 119.686 165.1 120.953 165.1C122.019 165.1 122.953 165.275 123.753 165.625C124.569 165.975 125.261 166.458 125.828 167.075C126.394 167.692 126.828 168.4 127.128 169.2C127.428 169.983 127.578 170.833 127.578 171.75C127.578 171.983 127.561 172.225 127.528 172.475C127.511 172.725 127.469 172.942 127.403 173.125H116.903V170.625H125.553L124.003 171.8C124.153 171.033 124.111 170.35 123.878 169.75C123.661 169.15 123.294 168.675 122.778 168.325C122.278 167.975 121.669 167.8 120.953 167.8C120.269 167.8 119.661 167.975 119.128 168.325C118.594 168.658 118.186 169.158 117.903 169.825C117.636 170.475 117.536 171.267 117.603 172.2C117.536 173.033 117.644 173.775 117.928 174.425C118.228 175.058 118.661 175.55 119.228 175.9C119.811 176.25 120.478 176.425 121.228 176.425C121.978 176.425 122.611 176.267 123.128 175.95C123.661 175.633 124.078 175.208 124.378 174.675L127.028 175.975C126.761 176.625 126.344 177.2 125.778 177.7C125.211 178.2 124.536 178.592 123.753 178.875C122.986 179.158 122.136 179.3 121.203 179.3ZM130.06 179V165.4H133.135V168.55L132.785 168.025C133.035 167.042 133.535 166.308 134.285 165.825C135.035 165.342 135.918 165.1 136.935 165.1C138.052 165.1 139.035 165.392 139.885 165.975C140.735 166.558 141.285 167.325 141.535 168.275L140.61 168.35C141.027 167.267 141.652 166.458 142.485 165.925C143.318 165.375 144.277 165.1 145.36 165.1C146.327 165.1 147.185 165.317 147.935 165.75C148.702 166.183 149.302 166.792 149.735 167.575C150.168 168.342 150.385 169.233 150.385 170.25V179H147.11V171.025C147.11 170.425 147.002 169.908 146.785 169.475C146.568 169.042 146.268 168.708 145.885 168.475C145.502 168.225 145.035 168.1 144.485 168.1C143.968 168.1 143.51 168.225 143.11 168.475C142.71 168.708 142.402 169.042 142.185 169.475C141.968 169.908 141.86 170.425 141.86 171.025V179H138.585V171.025C138.585 170.425 138.477 169.908 138.26 169.475C138.043 169.042 137.735 168.708 137.335 168.475C136.952 168.225 136.493 168.1 135.96 168.1C135.443 168.1 134.985 168.225 134.585 168.475C134.185 168.708 133.877 169.042 133.66 169.475C133.443 169.908 133.335 170.425 133.335 171.025V179H130.06ZM159.606 179.3C158.206 179.3 156.981 178.983 155.931 178.35C154.881 177.717 154.064 176.858 153.481 175.775C152.898 174.692 152.606 173.492 152.606 172.175C152.606 170.808 152.898 169.6 153.481 168.55C154.081 167.483 154.889 166.642 155.906 166.025C156.939 165.408 158.089 165.1 159.356 165.1C160.423 165.1 161.356 165.275 162.156 165.625C162.973 165.975 163.664 166.458 164.231 167.075C164.798 167.692 165.231 168.4 165.531 169.2C165.831 169.983 165.981 170.833 165.981 171.75C165.981 171.983 165.964 172.225 165.931 172.475C165.914 172.725 165.873 172.942 165.806 173.125H155.306V170.625H163.956L162.406 171.8C162.556 171.033 162.514 170.35 162.281 169.75C162.064 169.15 161.698 168.675 161.181 168.325C160.681 167.975 160.073 167.8 159.356 167.8C158.673 167.8 158.064 167.975 157.531 168.325C156.998 168.658 156.589 169.158 156.306 169.825C156.039 170.475 155.939 171.267 156.006 172.2C155.939 173.033 156.048 173.775 156.331 174.425C156.631 175.058 157.064 175.55 157.631 175.9C158.214 176.25 158.881 176.425 159.631 176.425C160.381 176.425 161.014 176.267 161.531 175.95C162.064 175.633 162.481 175.208 162.781 174.675L165.431 175.975C165.164 176.625 164.748 177.2 164.181 177.7C163.614 178.2 162.939 178.592 162.156 178.875C161.389 179.158 160.539 179.3 159.606 179.3ZM168.463 179V165.4H171.538V168.075L171.288 167.6C171.605 166.783 172.122 166.167 172.838 165.75C173.572 165.317 174.422 165.1 175.388 165.1C176.388 165.1 177.272 165.317 178.038 165.75C178.822 166.183 179.43 166.792 179.863 167.575C180.297 168.342 180.513 169.233 180.513 170.25V179H177.238V171.025C177.238 170.425 177.122 169.908 176.888 169.475C176.655 169.042 176.33 168.708 175.913 168.475C175.513 168.225 175.038 168.1 174.488 168.1C173.955 168.1 173.48 168.225 173.063 168.475C172.647 168.708 172.322 169.042 172.088 169.475C171.855 169.908 171.738 170.425 171.738 171.025V179H168.463ZM189.483 179.15C187.949 179.15 186.758 178.733 185.908 177.9C185.074 177.05 184.658 175.858 184.658 174.325V168.325H182.308V165.4H182.558C183.224 165.4 183.741 165.225 184.108 164.875C184.474 164.525 184.658 164.017 184.658 163.35V162.3H187.933V165.4H191.058V168.325H187.933V174.15C187.933 174.6 188.008 174.983 188.158 175.3C188.324 175.617 188.574 175.858 188.908 176.025C189.258 176.192 189.699 176.275 190.233 176.275C190.349 176.275 190.483 176.267 190.633 176.25C190.799 176.233 190.958 176.217 191.108 176.2V179C190.874 179.033 190.608 179.067 190.308 179.1C190.008 179.133 189.733 179.15 189.483 179.15Z" fill="#2E0068" fill-opacity="0.8"/>
<g filter="url(#filter1_f_9_210)">
<path d="M-55.1523 226.679L-54.9118 216.214L124.956 187.337L297.492 218.712L297.252 229.177L121.05 227.928L-55.1523 226.679Z" fill="#2E0068"/>
</g>
</g>
<defs>
<filter id="filter0_f_9_210" x="-168.211" y="31.561" width="724.916" height="329.269" filterUnits="userSpaceOnUse" color-interpolation-filters="sRGB">
<feFlood flood-opacity="0" result="BackgroundImageFix"/>
<feBlend mode="normal" in="SourceGraphic" in2="BackgroundImageFix" result="shape"/>
<feGaussianBlur stdDeviation="45" result="effect1_foregroundBlur_9_210"/>
</filter>
<filter id="filter1_f_9_210" x="-95.1523" y="147.336" width="432.645" height="121.84" filterUnits="userSpaceOnUse" color-interpolation-filters="sRGB">
<feFlood flood-opacity="0" result="BackgroundImageFix"/>
<feBlend mode="normal" in="SourceGraphic" in2="BackgroundImageFix" result="shape"/>
<feGaussianBlur stdDeviation="20" result="effect1_foregroundBlur_9_210"/>
</filter>
<linearGradient id="paint0_linear_9_210" x1="60.5234" y1="58.7656" x2="60.5234" y2="72.8281" gradientUnits="userSpaceOnUse">
<stop stop-color="#2E0068"/>
<stop offset="1" stop-color="#50E5FA"/>
</linearGradient>
<linearGradient id="paint1_linear_9_210" x1="61.548" y1="54.4692" x2="61.548" y2="57.9846" gradientUnits="userSpaceOnUse">
<stop stop-color="#2E0068"/>
<stop offset="1" stop-color="#50E5FA"/>
</linearGradient>
<linearGradient id="paint2_linear_9_210" x1="68.1406" y1="65.0156" x2="68.1406" y2="66.5781" gradientUnits="userSpaceOnUse">
<stop stop-color="#2E0068"/>
<stop offset="1" stop-color="#50E5FA"/>
</linearGradient>
<linearGradient id="paint3_linear_9_210" x1="57.9178" y1="51.7339" x2="57.9178" y2="57.9846" gradientUnits="userSpaceOnUse">
<stop stop-color="#2E0068"/>
<stop offset="1" stop-color="#50E5FA"/>
</linearGradient>
<linearGradient id="paint4_linear_9_210" x1="69.3125" y1="63.8438" x2="69.3125" y2="67.75" gradientUnits="userSpaceOnUse">
<stop stop-color="#2E0068"/>
<stop offset="1" stop-color="#50E5FA"/>
</linearGradient>
<linearGradient id="paint5_linear_9_210" x1="70.6771" y1="49.7847" x2="70.6771" y2="57.2032" gradientUnits="userSpaceOnUse">
<stop stop-color="#2E0068"/>
<stop offset="1" stop-color="#50E5FA"/>
</linearGradient>
<clipPath id="clip0_9_210">
<rect width="250" height="215" rx="7" fill="white"/>
</clipPath>
</defs>
</svg>
