<svg width="81" height="80" viewBox="0 0 81 80" fill="none" xmlns="http://www.w3.org/2000/svg">
<g clip-path="url(#clip0_0_1201)">
<path d="M35.5 24.9988V19.9988H5.5C2.745 19.9988 0.5 22.2438 0.5 24.9988V34.9988H36.555C35.86 31.9438 35.5 28.6538 35.5 24.9988Z" fill="url(#paint0_linear_0_1201)"/>
<path d="M80.295 44.9988C76.885 50.2538 71.685 54.7238 64.235 59.0038C63.09 59.6588 61.8 59.9988 60.5 59.9988C59.2 59.9988 57.91 59.6588 56.78 59.0138C49.33 54.7238 44.13 50.2488 40.715 44.9988H0.5V69.9988C0.5 72.7588 2.745 74.9988 5.5 74.9988H75.5C78.26 74.9988 80.5 72.7588 80.5 69.9988V44.9988H80.295ZM23 59.9988H13C11.62 59.9988 10.5 58.8788 10.5 57.4988C10.5 56.1188 11.62 54.9988 13 54.9988H23C24.38 54.9988 25.5 56.1188 25.5 57.4988C25.5 58.8788 24.38 59.9988 23 59.9988Z" fill="url(#paint1_linear_0_1201)"/>
<path d="M78.985 12.7037L61.485 5.20372C60.85 4.93372 60.145 4.93372 59.51 5.20372L42.01 12.7037C41.095 13.0937 40.5 13.9987 40.5 14.9987V24.9987C40.5 38.7537 45.585 46.7937 59.255 54.6687C59.64 54.8887 60.07 54.9987 60.5 54.9987C60.93 54.9987 61.36 54.8887 61.745 54.6687C75.415 46.8137 80.5 38.7737 80.5 24.9987V14.9987C80.5 13.9987 79.905 13.0937 78.985 12.7037ZM69.955 24.0637L59.955 36.5637C59.475 37.1537 58.755 37.4987 58 37.4987C57.965 37.4987 57.925 37.4987 57.895 37.4987C57.1 37.4637 56.365 37.0537 55.92 36.3887L50.92 28.8887C50.155 27.7387 50.465 26.1887 51.615 25.4237C52.755 24.6637 54.31 24.9637 55.08 26.1187L58.185 30.7737L66.045 20.9437C66.91 19.8687 68.485 19.6987 69.56 20.5537C70.64 21.4087 70.81 22.9837 69.955 24.0637Z" fill="url(#paint2_linear_0_1201)"/>
</g>
<defs>
<linearGradient id="paint0_linear_0_1201" x1="18.5275" y1="19.9988" x2="18.5275" y2="34.9988" gradientUnits="userSpaceOnUse">
<stop stop-color="#2E0068"/>
<stop offset="1" stop-color="#50E5FA"/>
</linearGradient>
<linearGradient id="paint1_linear_0_1201" x1="40.5" y1="44.9988" x2="40.5" y2="74.9988" gradientUnits="userSpaceOnUse">
<stop stop-color="#2E0068"/>
<stop offset="1" stop-color="#50E5FA"/>
</linearGradient>
<linearGradient id="paint2_linear_0_1201" x1="60.5" y1="5.00122" x2="60.5" y2="54.9987" gradientUnits="userSpaceOnUse">
<stop stop-color="#2E0068"/>
<stop offset="1" stop-color="#50E5FA"/>
</linearGradient>
<clipPath id="clip0_0_1201">
<rect width="80" height="80" fill="white" transform="translate(0.5)"/>
</clipPath>
</defs>
</svg>
