<svg width="137" height="41" viewBox="0 0 137 41" fill="none" xmlns="http://www.w3.org/2000/svg">
<g id="64a90be9944d79396c5f1b02_saano-light.svg" clip-path="url(#clip0_805_602)">
<path id="Vector" d="M23.5438 34.4471C23.8243 35.0125 23.5946 35.7023 23.0112 35.9433C19.9936 37.1892 16.6662 37.5194 13.4479 36.878C9.85498 36.162 6.60058 34.2755 4.1936 31.5135C1.78662 28.7515 0.362753 25.2698 0.14464 21.6127C-0.0734726 17.9556 0.926465 14.3293 2.9881 11.3008C5.04974 8.27233 8.05685 6.01241 11.5392 4.87441C15.0216 3.73642 18.7829 3.7845 22.2351 5.01114C25.6872 6.23778 28.6356 8.57383 30.6191 11.654C32.3958 14.4131 33.3087 17.6298 33.2559 20.894C33.2458 21.5251 32.6883 21.9917 32.0594 21.938L25.253 21.3572C24.624 21.3035 24.1669 20.7479 24.1239 20.1182C24.0386 18.8684 23.639 17.6537 22.9541 16.5901C22.0618 15.2045 20.7355 14.1537 19.1826 13.6019C17.6296 13.0501 15.9376 13.0284 14.3711 13.5404C12.8046 14.0523 11.4519 15.0689 10.5245 16.4313C9.59709 17.7935 9.14727 19.4247 9.24538 21.0699C9.3435 22.715 9.98401 24.2813 11.0668 25.5237C12.1495 26.7661 13.6135 27.6148 15.2298 27.9369C16.4703 28.1841 17.747 28.1105 18.9411 27.7316C19.5428 27.5406 20.2271 27.7622 20.5077 28.3277L23.5438 34.4471Z" fill="url(#paint0_linear_805_602)"/>
<path id="Vector_2" d="M48.6452 34.1529C47.1305 34.1529 45.7225 33.8756 44.4212 33.3209C43.1412 32.7663 42.0318 31.9983 41.0931 31.0169C40.1758 30.0143 39.5038 28.8516 39.0771 27.5289L42.6931 25.9609C43.2691 27.3263 44.1011 28.4036 45.1891 29.1929C46.2771 29.9609 47.5038 30.3449 48.8691 30.3449C49.6371 30.3449 50.2985 30.2275 50.8531 29.9929C51.4291 29.7369 51.8665 29.3955 52.1651 28.9689C52.4851 28.5423 52.6451 28.0303 52.6451 27.4329C52.6451 26.7289 52.4318 26.1529 52.0051 25.7049C51.5998 25.2356 50.9811 24.8729 50.1491 24.6169L45.5732 23.1449C43.7172 22.5689 42.3198 21.7049 41.3812 20.5529C40.4425 19.4009 39.9731 18.0463 39.9731 16.4889C39.9731 15.1236 40.3038 13.9183 40.9651 12.8729C41.6478 11.8276 42.5865 11.0169 43.7811 10.4409C44.9971 9.84359 46.3838 9.54492 47.9411 9.54492C49.3705 9.54492 50.6825 9.80092 51.8771 10.3129C53.0718 10.8036 54.0958 11.4969 54.9491 12.3929C55.8238 13.2676 56.4745 14.3023 56.9011 15.4969L53.3171 17.0969C52.8478 15.9023 52.1438 14.9849 51.2051 14.3449C50.2665 13.6836 49.1785 13.3529 47.9411 13.3529C47.2158 13.3529 46.5758 13.4809 46.0211 13.7369C45.4665 13.9716 45.0291 14.3129 44.7091 14.7609C44.4105 15.1876 44.2611 15.6996 44.2611 16.2969C44.2611 16.9583 44.4745 17.5449 44.9011 18.0569C45.3278 18.5476 45.9785 18.9316 46.8531 19.2089L51.2371 20.5849C53.1358 21.2036 54.5545 22.0569 55.4932 23.1449C56.4531 24.2329 56.9331 25.5769 56.9331 27.1769C56.9331 28.5423 56.5811 29.7476 55.8771 30.7929C55.1731 31.8383 54.2025 32.6596 52.9651 33.2569C51.7278 33.8543 50.2878 34.1529 48.6452 34.1529ZM65.6237 34.1529C64.4077 34.1529 63.3517 33.9503 62.4557 33.5449C61.5597 33.1396 60.8663 32.5636 60.3757 31.8169C59.885 31.0489 59.6397 30.1636 59.6397 29.1609C59.6397 28.2009 59.853 27.3476 60.2797 26.6009C60.7063 25.8329 61.3677 25.1929 62.2637 24.6809C63.1597 24.1689 64.2903 23.8063 65.6557 23.5929L71.3517 22.6649V25.8649L66.4557 26.6969C65.6237 26.8463 65.005 27.1129 64.5997 27.4969C64.1943 27.8809 63.9917 28.3823 63.9917 29.0009C63.9917 29.5983 64.2157 30.0783 64.6637 30.4409C65.133 30.7823 65.709 30.9529 66.3917 30.9529C67.2663 30.9529 68.0343 30.7716 68.6957 30.4089C69.3783 30.0249 69.901 29.5023 70.2637 28.8409C70.6477 28.1796 70.8397 27.4543 70.8397 26.6649V22.1849C70.8397 21.4383 70.541 20.8196 69.9437 20.3289C69.3677 19.8169 68.5997 19.5609 67.6397 19.5609C66.7437 19.5609 65.9437 19.8063 65.2397 20.2969C64.557 20.7663 64.0557 21.3956 63.7357 22.1849L60.3117 20.5209C60.653 19.6036 61.1863 18.8143 61.9117 18.1529C62.6583 17.4703 63.533 16.9369 64.5357 16.5529C65.5383 16.1689 66.6263 15.9769 67.7997 15.9769C69.229 15.9769 70.4877 16.2436 71.5757 16.7769C72.6637 17.2889 73.5063 18.0143 74.1037 18.9529C74.7223 19.8703 75.0317 20.9476 75.0317 22.1849V33.7689H71.0637V30.7929L71.9597 30.7289C71.5117 31.4755 70.9783 32.1049 70.3597 32.6169C69.741 33.1076 69.037 33.4916 68.2477 33.7689C67.4583 34.0249 66.5837 34.1529 65.6237 34.1529ZM84.1862 34.1529C82.9702 34.1529 81.9142 33.9503 81.0182 33.5449C80.1222 33.1396 79.4288 32.5636 78.9382 31.8169C78.4474 31.0489 78.2022 30.1636 78.2022 29.1609C78.2022 28.2009 78.4154 27.3476 78.8422 26.6009C79.2688 25.8329 79.9302 25.1929 80.8262 24.6809C81.7222 24.1689 82.8528 23.8063 84.2182 23.5929L89.9142 22.6649V25.8649L85.0182 26.6969C84.1862 26.8463 83.5674 27.1129 83.1622 27.4969C82.7568 27.8809 82.5542 28.3823 82.5542 29.0009C82.5542 29.5983 82.7782 30.0783 83.2262 30.4409C83.6954 30.7823 84.2714 30.9529 84.9542 30.9529C85.8288 30.9529 86.5968 30.7716 87.2582 30.4089C87.9408 30.0249 88.4634 29.5023 88.8262 28.8409C89.2102 28.1796 89.4022 27.4543 89.4022 26.6649V22.1849C89.4022 21.4383 89.1034 20.8196 88.5062 20.3289C87.9302 19.8169 87.1622 19.5609 86.2022 19.5609C85.3062 19.5609 84.5062 19.8063 83.8022 20.2969C83.1194 20.7663 82.6182 21.3956 82.2982 22.1849L78.8742 20.5209C79.2154 19.6036 79.7488 18.8143 80.4742 18.1529C81.2208 17.4703 82.0954 16.9369 83.0982 16.5529C84.1008 16.1689 85.1888 15.9769 86.3622 15.9769C87.7914 15.9769 89.0502 16.2436 90.1382 16.7769C91.2262 17.2889 92.0688 18.0143 92.6662 18.9529C93.2848 19.8703 93.5942 20.9476 93.5942 22.1849V33.7689H89.6262V30.7929L90.5222 30.7289C90.0742 31.4755 89.5408 32.1049 88.9222 32.6169C88.3034 33.1076 87.5994 33.4916 86.8102 33.7689C86.0208 34.0249 85.1462 34.1529 84.1862 34.1529ZM97.4687 33.7689V16.3609H101.405V19.7849L101.085 19.1769C101.49 18.1316 102.151 17.3423 103.069 16.8089C104.007 16.2543 105.095 15.9769 106.333 15.9769C107.613 15.9769 108.743 16.2543 109.725 16.8089C110.727 17.3636 111.506 18.1423 112.061 19.1449C112.615 20.1263 112.893 21.2676 112.893 22.5689V33.7689H108.701V23.5609C108.701 22.7929 108.551 22.1316 108.253 21.5769C107.954 21.0223 107.538 20.5956 107.005 20.2969C106.493 19.9769 105.885 19.8169 105.181 19.8169C104.498 19.8169 103.89 19.9769 103.357 20.2969C102.823 20.5956 102.407 21.0223 102.109 21.5769C101.81 22.1316 101.661 22.7929 101.661 23.5609V33.7689H97.4687ZM124.949 34.1529C123.243 34.1529 121.685 33.7583 120.277 32.9689C118.891 32.1796 117.781 31.1023 116.949 29.7369C116.139 28.3715 115.733 26.8143 115.733 25.0649C115.733 23.3156 116.139 21.7583 116.949 20.3929C117.781 19.0276 118.891 17.9503 120.277 17.1609C121.665 16.3716 123.221 15.9769 124.949 15.9769C126.657 15.9769 128.203 16.3716 129.589 17.1609C130.977 17.9503 132.075 19.0276 132.885 20.3929C133.717 21.7369 134.133 23.2943 134.133 25.0649C134.133 26.8143 133.717 28.3715 132.885 29.7369C132.053 31.1023 130.945 32.1796 129.557 32.9689C128.171 33.7583 126.635 34.1529 124.949 34.1529ZM124.949 30.3129C125.889 30.3129 126.709 30.0889 127.413 29.6409C128.139 29.1929 128.705 28.5743 129.109 27.7849C129.537 26.9743 129.749 26.0676 129.749 25.0649C129.749 24.0409 129.537 23.1449 129.109 22.3769C128.705 21.5876 128.139 20.9689 127.413 20.5209C126.709 20.0516 125.889 19.8169 124.949 19.8169C123.989 19.8169 123.147 20.0516 122.421 20.5209C121.697 20.9689 121.121 21.5876 120.693 22.3769C120.289 23.1449 120.085 24.0409 120.085 25.0649C120.085 26.0676 120.289 26.9743 120.693 27.7849C121.121 28.5743 121.697 29.1929 122.421 29.6409C123.147 30.0889 123.989 30.3129 124.949 30.3129Z" fill="white"/>
</g>
<defs>
<linearGradient id="paint0_linear_805_602" x1="4.43823" y1="10.5392" x2="27.4941" y2="27.831" gradientUnits="userSpaceOnUse">
<stop stop-color="#2E0068"/>
<stop offset="1" stop-color="#50E5FA"/>
</linearGradient>
<clipPath id="clip0_805_602">
<rect width="136" height="40" fill="white" transform="translate(0.115234 0.625977)"/>
</clipPath>
</defs>
</svg>
