<svg width="136" height="41" viewBox="0 0 136 41" fill="none" xmlns="http://www.w3.org/2000/svg">
<g clip-path="url(#clip0_0_524)">
<path d="M23.4286 34.3209C23.709 34.8863 23.4793 35.5761 22.896 35.817C19.8784 37.063 16.551 37.3931 13.3327 36.7518C9.73975 36.0358 6.48535 34.1493 4.07837 31.3873C1.67138 28.6253 0.247518 25.1436 0.0294058 21.4865C-0.188707 17.8294 0.81123 14.2031 2.87287 11.1746C4.9345 8.14611 7.94161 5.88619 11.424 4.74819C14.9064 3.6102 18.6677 3.65828 22.1199 4.88492C25.572 6.11156 28.5204 8.44761 30.5039 11.5278C32.2806 14.2869 33.1935 17.5036 33.1407 20.7678C33.1305 21.3989 32.573 21.8655 31.9441 21.8118L25.1377 21.231C24.5088 21.1773 24.0517 20.6217 24.0087 19.992C23.9233 18.7422 23.5238 17.5274 22.8389 16.4639C21.9465 15.0783 20.6202 14.0274 19.0673 13.4757C17.5144 12.9239 15.8224 12.9022 14.2559 13.4142C12.6894 13.9261 11.3367 14.9426 10.4093 16.305C9.48185 17.6673 9.03203 19.2985 9.13015 20.9437C9.22826 22.5888 9.86878 24.1551 10.9515 25.3975C12.0343 26.6399 13.4983 27.4886 15.1145 27.8106C16.3551 28.0578 17.6318 27.9842 18.8258 27.6054C19.4276 27.4144 20.1119 27.636 20.3925 28.2015L23.4286 34.3209Z" fill="url(#paint0_linear_0_524)"/>
<path d="M48.5304 34.0269C47.0158 34.0269 45.6078 33.7496 44.3064 33.1949C43.0264 32.6403 41.917 31.8723 40.9784 30.8909C40.061 29.8883 39.389 28.7256 38.9624 27.4029L42.5784 25.8349C43.1544 27.2003 43.9864 28.2776 45.0744 29.0669C46.1624 29.8349 47.389 30.2189 48.7544 30.2189C49.5224 30.2189 50.1838 30.1016 50.7384 29.8669C51.3144 29.6109 51.7518 29.2696 52.0504 28.8429C52.3704 28.4163 52.5304 27.9043 52.5304 27.3069C52.5304 26.6029 52.317 26.0269 51.8904 25.5789C51.485 25.1096 50.8664 24.7469 50.0344 24.4909L45.4584 23.0189C43.6024 22.4429 42.205 21.5789 41.2664 20.4269C40.3278 19.2749 39.8584 17.9203 39.8584 16.3629C39.8584 14.9976 40.189 13.7923 40.8504 12.7469C41.533 11.7016 42.4718 10.8909 43.6664 10.3149C44.8824 9.71761 46.269 9.41895 47.8264 9.41895C49.2558 9.41895 50.5678 9.67495 51.7624 10.1869C52.957 10.6776 53.981 11.3709 54.8344 12.2669C55.709 13.1416 56.3598 14.1763 56.7864 15.3709L53.2024 16.9709C52.733 15.7763 52.029 14.8589 51.0904 14.2189C50.1518 13.5576 49.0638 13.2269 47.8264 13.2269C47.101 13.2269 46.461 13.3549 45.9064 13.6109C45.3518 13.8456 44.9144 14.1869 44.5944 14.6349C44.2958 15.0616 44.1464 15.5736 44.1464 16.1709C44.1464 16.8323 44.3598 17.4189 44.7864 17.9309C45.213 18.4216 45.8638 18.8056 46.7384 19.0829L51.1224 20.4589C53.021 21.0776 54.4398 21.9309 55.3784 23.0189C56.3384 24.1069 56.8184 25.4509 56.8184 27.0509C56.8184 28.4163 56.4664 29.6216 55.7624 30.6669C55.0584 31.7123 54.0878 32.5336 52.8504 33.1309C51.613 33.7283 50.173 34.0269 48.5304 34.0269ZM65.5089 34.0269C64.2929 34.0269 63.2369 33.8243 62.3409 33.4189C61.4449 33.0136 60.7515 32.4376 60.2609 31.6909C59.7703 30.9229 59.5249 30.0376 59.5249 29.0349C59.5249 28.0749 59.7383 27.2216 60.1649 26.4749C60.5915 25.7069 61.2529 25.0669 62.1489 24.5549C63.0449 24.0429 64.1755 23.6803 65.5409 23.4669L71.2369 22.5389V25.7389L66.3409 26.5709C65.5089 26.7203 64.8903 26.9869 64.4849 27.3709C64.0795 27.7549 63.8769 28.2563 63.8769 28.8749C63.8769 29.4723 64.1009 29.9523 64.5489 30.3149C65.0183 30.6563 65.5943 30.8269 66.2769 30.8269C67.1515 30.8269 67.9195 30.6456 68.5809 30.2829C69.2635 29.8989 69.7863 29.3763 70.1489 28.7149C70.5329 28.0536 70.7249 27.3283 70.7249 26.5389V22.0589C70.7249 21.3123 70.4263 20.6936 69.8289 20.2029C69.2529 19.6909 68.4849 19.4349 67.5249 19.4349C66.6289 19.4349 65.8289 19.6803 65.1249 20.1709C64.4423 20.6403 63.9409 21.2696 63.6209 22.0589L60.1969 20.3949C60.5383 19.4776 61.0715 18.6883 61.7969 18.0269C62.5435 17.3443 63.4183 16.8109 64.4209 16.4269C65.4235 16.0429 66.5115 15.8509 67.6849 15.8509C69.1143 15.8509 70.3729 16.1176 71.4609 16.6509C72.5489 17.1629 73.3915 17.8883 73.9889 18.8269C74.6075 19.7443 74.9169 20.8216 74.9169 22.0589V33.6429H70.9489V30.6669L71.8449 30.6029C71.3969 31.3496 70.8635 31.9789 70.2449 32.4909C69.6263 32.9816 68.9223 33.3656 68.1329 33.6429C67.3435 33.8989 66.4689 34.0269 65.5089 34.0269ZM84.0714 34.0269C82.8554 34.0269 81.7994 33.8243 80.9034 33.4189C80.0074 33.0136 79.3141 32.4376 78.8234 31.6909C78.3327 30.9229 78.0874 30.0376 78.0874 29.0349C78.0874 28.0749 78.3007 27.2216 78.7274 26.4749C79.1541 25.7069 79.8154 25.0669 80.7114 24.5549C81.6074 24.0429 82.7381 23.6803 84.1034 23.4669L89.7994 22.5389V25.7389L84.9034 26.5709C84.0714 26.7203 83.4527 26.9869 83.0474 27.3709C82.6421 27.7549 82.4394 28.2563 82.4394 28.8749C82.4394 29.4723 82.6634 29.9523 83.1114 30.3149C83.5807 30.6563 84.1567 30.8269 84.8394 30.8269C85.7141 30.8269 86.4821 30.6456 87.1434 30.2829C87.8261 29.8989 88.3487 29.3763 88.7114 28.7149C89.0954 28.0536 89.2874 27.3283 89.2874 26.5389V22.0589C89.2874 21.3123 88.9887 20.6936 88.3914 20.2029C87.8154 19.6909 87.0474 19.4349 86.0874 19.4349C85.1914 19.4349 84.3914 19.6803 83.6874 20.1709C83.0047 20.6403 82.5034 21.2696 82.1834 22.0589L78.7594 20.3949C79.1007 19.4776 79.6341 18.6883 80.3594 18.0269C81.1061 17.3443 81.9807 16.8109 82.9834 16.4269C83.9861 16.0429 85.0741 15.8509 86.2474 15.8509C87.6767 15.8509 88.9354 16.1176 90.0234 16.6509C91.1114 17.1629 91.9541 17.8883 92.5514 18.8269C93.1701 19.7443 93.4794 20.8216 93.4794 22.0589V33.6429H89.5114V30.6669L90.4074 30.6029C89.9594 31.3496 89.4261 31.9789 88.8074 32.4909C88.1887 32.9816 87.4847 33.3656 86.6954 33.6429C85.9061 33.8989 85.0314 34.0269 84.0714 34.0269ZM97.3539 33.6429V16.2349H101.29V19.6589L100.97 19.0509C101.375 18.0056 102.037 17.2163 102.954 16.6829C103.893 16.1283 104.981 15.8509 106.218 15.8509C107.498 15.8509 108.629 16.1283 109.61 16.6829C110.613 17.2376 111.391 18.0163 111.946 19.0189C112.501 20.0003 112.778 21.1416 112.778 22.4429V33.6429H108.586V23.4349C108.586 22.6669 108.437 22.0056 108.138 21.4509C107.839 20.8963 107.423 20.4696 106.89 20.1709C106.378 19.8509 105.77 19.6909 105.066 19.6909C104.383 19.6909 103.775 19.8509 103.242 20.1709C102.709 20.4696 102.293 20.8963 101.994 21.4509C101.695 22.0056 101.546 22.6669 101.546 23.4349V33.6429H97.3539ZM124.834 34.0269C123.128 34.0269 121.57 33.6323 120.162 32.8429C118.776 32.0536 117.666 30.9763 116.834 29.6109C116.024 28.2456 115.618 26.6883 115.618 24.9389C115.618 23.1896 116.024 21.6323 116.834 20.2669C117.666 18.9016 118.776 17.8243 120.162 17.0349C121.55 16.2456 123.106 15.8509 124.834 15.8509C126.542 15.8509 128.088 16.2456 129.474 17.0349C130.862 17.8243 131.96 18.9016 132.77 20.2669C133.602 21.6109 134.018 23.1683 134.018 24.9389C134.018 26.6883 133.602 28.2456 132.77 29.6109C131.938 30.9763 130.83 32.0536 129.442 32.8429C128.056 33.6323 126.52 34.0269 124.834 34.0269ZM124.834 30.1869C125.774 30.1869 126.594 29.9629 127.298 29.5149C128.024 29.0669 128.59 28.4483 128.994 27.6589C129.422 26.8483 129.634 25.9416 129.634 24.9389C129.634 23.9149 129.422 23.0189 128.994 22.2509C128.59 21.4616 128.024 20.8429 127.298 20.3949C126.594 19.9256 125.774 19.6909 124.834 19.6909C123.874 19.6909 123.032 19.9256 122.306 20.3949C121.582 20.8429 121.006 21.4616 120.578 22.2509C120.174 23.0189 119.97 23.9149 119.97 24.9389C119.97 25.9416 120.174 26.8483 120.578 27.6589C121.006 28.4483 121.582 29.0669 122.306 29.5149C123.032 29.9629 123.874 30.1869 124.834 30.1869Z" fill="white"/>
</g>
<defs>
<linearGradient id="paint0_linear_0_524" x1="4.32299" y1="10.4129" x2="27.3789" y2="27.7048" gradientUnits="userSpaceOnUse">
<stop stop-color="#2E0068"/>
<stop offset="1" stop-color="#50E5FA"/>
</linearGradient>
<clipPath id="clip0_0_524">
<rect width="136" height="40" fill="white" transform="translate(0 0.5)"/>
</clipPath>
</defs>
</svg>
