<svg width="229" height="265" viewBox="0 0 229 265" fill="none" xmlns="http://www.w3.org/2000/svg">
<g clip-path="url(#clip0_0_1455)">
<rect width="229" height="265" rx="7" fill="white"/>
<g filter="url(#filter0_f_0_1455)">
<rect x="-9" y="-20" width="102" height="296" fill="#2E0068"/>
</g>
<path d="M36.1484 45V34.8984H32.375V33.5469H41.4531V34.8984H37.6641V45H36.1484ZM40.5312 40.8516C40.5312 39.3151 40.9583 38.1771 41.8125 37.4375C42.526 36.8229 43.3958 36.5156 44.4219 36.5156C45.5625 36.5156 46.4948 36.8906 47.2188 37.6406C47.9427 38.3854 48.3047 39.4167 48.3047 40.7344C48.3047 41.8021 48.1432 42.6432 47.8203 43.2578C47.5026 43.8672 47.0365 44.3411 46.4219 44.6797C45.8125 45.0182 45.1458 45.1875 44.4219 45.1875C43.2604 45.1875 42.3203 44.8151 41.6016 44.0703C40.888 43.3255 40.5312 42.2526 40.5312 40.8516ZM41.9766 40.8516C41.9766 41.9141 42.2083 42.7109 42.6719 43.2422C43.1354 43.7682 43.7188 44.0312 44.4219 44.0312C45.1198 44.0312 45.7005 43.7656 46.1641 43.2344C46.6276 42.7031 46.8594 41.8932 46.8594 40.8047C46.8594 39.7786 46.625 39.0026 46.1562 38.4766C45.6927 37.9453 45.1146 37.6797 44.4219 37.6797C43.7188 37.6797 43.1354 37.9427 42.6719 38.4688C42.2083 38.9948 41.9766 39.7891 41.9766 40.8516ZM53.0312 43.7422L53.2344 44.9844C52.8385 45.0677 52.4844 45.1094 52.1719 45.1094C51.6615 45.1094 51.2656 45.0286 50.9844 44.8672C50.7031 44.7057 50.5052 44.4948 50.3906 44.2344C50.276 43.9688 50.2188 43.4141 50.2188 42.5703V37.7969H49.1875V36.7031H50.2188V34.6484L51.6172 33.8047V36.7031H53.0312V37.7969H51.6172V42.6484C51.6172 43.0495 51.6406 43.3073 51.6875 43.4219C51.7396 43.5365 51.8203 43.6276 51.9297 43.6953C52.0443 43.763 52.2057 43.7969 52.4141 43.7969C52.5703 43.7969 52.776 43.7786 53.0312 43.7422ZM59.8281 43.9766C59.3073 44.4193 58.8047 44.7318 58.3203 44.9141C57.8411 45.0964 57.3255 45.1875 56.7734 45.1875C55.862 45.1875 55.1615 44.9661 54.6719 44.5234C54.1823 44.0755 53.9375 43.5052 53.9375 42.8125C53.9375 42.4062 54.0286 42.0365 54.2109 41.7031C54.3984 41.3646 54.6406 41.0938 54.9375 40.8906C55.2396 40.6875 55.5781 40.5339 55.9531 40.4297C56.2292 40.3568 56.6458 40.2865 57.2031 40.2188C58.3385 40.0833 59.1745 39.9219 59.7109 39.7344C59.7161 39.5417 59.7188 39.4193 59.7188 39.3672C59.7188 38.7943 59.5859 38.3906 59.3203 38.1562C58.9609 37.8385 58.4271 37.6797 57.7188 37.6797C57.0573 37.6797 56.5677 37.7969 56.25 38.0312C55.9375 38.2604 55.7057 38.6693 55.5547 39.2578L54.1797 39.0703C54.3047 38.4818 54.5104 38.0078 54.7969 37.6484C55.0833 37.2839 55.4974 37.0052 56.0391 36.8125C56.5807 36.6146 57.2083 36.5156 57.9219 36.5156C58.6302 36.5156 59.2057 36.599 59.6484 36.7656C60.0911 36.9323 60.4167 37.1432 60.625 37.3984C60.8333 37.6484 60.9792 37.9661 61.0625 38.3516C61.1094 38.5911 61.1328 39.0234 61.1328 39.6484V41.5234C61.1328 42.8307 61.1615 43.6589 61.2188 44.0078C61.2812 44.3516 61.401 44.6823 61.5781 45H60.1094C59.9635 44.7083 59.8698 44.3672 59.8281 43.9766ZM59.7109 40.8359C59.2005 41.0443 58.4349 41.2214 57.4141 41.3672C56.8359 41.4505 56.4271 41.5443 56.1875 41.6484C55.9479 41.7526 55.763 41.9062 55.6328 42.1094C55.5026 42.3073 55.4375 42.5286 55.4375 42.7734C55.4375 43.1484 55.5781 43.4609 55.8594 43.7109C56.1458 43.9609 56.5625 44.0859 57.1094 44.0859C57.651 44.0859 58.1328 43.9688 58.5547 43.7344C58.9766 43.4948 59.2865 43.1693 59.4844 42.7578C59.6354 42.4401 59.7109 41.9714 59.7109 41.3516V40.8359ZM63.2891 45V33.5469H64.6953V45H63.2891ZM72.6328 45H71.3281V33.5469H72.7344V37.6328C73.3281 36.888 74.0859 36.5156 75.0078 36.5156C75.5182 36.5156 76 36.6198 76.4531 36.8281C76.9115 37.0312 77.2865 37.3203 77.5781 37.6953C77.875 38.0651 78.1068 38.513 78.2734 39.0391C78.4401 39.5651 78.5234 40.1276 78.5234 40.7266C78.5234 42.1484 78.1719 43.2474 77.4688 44.0234C76.7656 44.7995 75.9219 45.1875 74.9375 45.1875C73.9583 45.1875 73.1901 44.7786 72.6328 43.9609V45ZM72.6172 40.7891C72.6172 41.7839 72.7526 42.5026 73.0234 42.9453C73.4661 43.6693 74.0651 44.0312 74.8203 44.0312C75.4349 44.0312 75.9661 43.7656 76.4141 43.2344C76.862 42.6979 77.0859 41.901 77.0859 40.8438C77.0859 39.7604 76.8698 38.9609 76.4375 38.4453C76.0104 37.9297 75.4922 37.6719 74.8828 37.6719C74.2682 37.6719 73.737 37.9401 73.2891 38.4766C72.8411 39.0078 72.6172 39.7786 72.6172 40.7891ZM85.6562 43.9766C85.1354 44.4193 84.6328 44.7318 84.1484 44.9141C83.6693 45.0964 83.1536 45.1875 82.6016 45.1875C81.6901 45.1875 80.9896 44.9661 80.5 44.5234C80.0104 44.0755 79.7656 43.5052 79.7656 42.8125C79.7656 42.4062 79.8568 42.0365 80.0391 41.7031C80.2266 41.3646 80.4688 41.0938 80.7656 40.8906C81.0677 40.6875 81.4062 40.5339 81.7812 40.4297C82.0573 40.3568 82.474 40.2865 83.0312 40.2188C84.1667 40.0833 85.0026 39.9219 85.5391 39.7344C85.5443 39.5417 85.5469 39.4193 85.5469 39.3672C85.5469 38.7943 85.4141 38.3906 85.1484 38.1562C84.7891 37.8385 84.2552 37.6797 83.5469 37.6797C82.8854 37.6797 82.3958 37.7969 82.0781 38.0312C81.7656 38.2604 81.5339 38.6693 81.3828 39.2578L80.0078 39.0703C80.1328 38.4818 80.3385 38.0078 80.625 37.6484C80.9115 37.2839 81.3255 37.0052 81.8672 36.8125C82.4089 36.6146 83.0365 36.5156 83.75 36.5156C84.4583 36.5156 85.0339 36.599 85.4766 36.7656C85.9193 36.9323 86.2448 37.1432 86.4531 37.3984C86.6615 37.6484 86.8073 37.9661 86.8906 38.3516C86.9375 38.5911 86.9609 39.0234 86.9609 39.6484V41.5234C86.9609 42.8307 86.9896 43.6589 87.0469 44.0078C87.1094 44.3516 87.2292 44.6823 87.4062 45H85.9375C85.7917 44.7083 85.6979 44.3672 85.6562 43.9766ZM85.5391 40.8359C85.0286 41.0443 84.263 41.2214 83.2422 41.3672C82.6641 41.4505 82.2552 41.5443 82.0156 41.6484C81.776 41.7526 81.5911 41.9062 81.4609 42.1094C81.3307 42.3073 81.2656 42.5286 81.2656 42.7734C81.2656 43.1484 81.4062 43.4609 81.6875 43.7109C81.974 43.9609 82.3906 44.0859 82.9375 44.0859C83.4792 44.0859 83.9609 43.9688 84.3828 43.7344C84.8047 43.4948 85.1146 43.1693 85.3125 42.7578C85.4635 42.4401 85.5391 41.9714 85.5391 41.3516V40.8359ZM89.1172 45V33.5469H90.5234V45H89.1172ZM98.125 43.9766C97.6042 44.4193 97.1016 44.7318 96.6172 44.9141C96.138 45.0964 95.6224 45.1875 95.0703 45.1875C94.1589 45.1875 93.4583 44.9661 92.9688 44.5234C92.4792 44.0755 92.2344 43.5052 92.2344 42.8125C92.2344 42.4062 92.3255 42.0365 92.5078 41.7031C92.6953 41.3646 92.9375 41.0938 93.2344 40.8906C93.5365 40.6875 93.875 40.5339 94.25 40.4297C94.526 40.3568 94.9427 40.2865 95.5 40.2188C96.6354 40.0833 97.4714 39.9219 98.0078 39.7344C98.013 39.5417 98.0156 39.4193 98.0156 39.3672C98.0156 38.7943 97.8828 38.3906 97.6172 38.1562C97.2578 37.8385 96.724 37.6797 96.0156 37.6797C95.3542 37.6797 94.8646 37.7969 94.5469 38.0312C94.2344 38.2604 94.0026 38.6693 93.8516 39.2578L92.4766 39.0703C92.6016 38.4818 92.8073 38.0078 93.0938 37.6484C93.3802 37.2839 93.7943 37.0052 94.3359 36.8125C94.8776 36.6146 95.5052 36.5156 96.2188 36.5156C96.9271 36.5156 97.5026 36.599 97.9453 36.7656C98.388 36.9323 98.7135 37.1432 98.9219 37.3984C99.1302 37.6484 99.276 37.9661 99.3594 38.3516C99.4062 38.5911 99.4297 39.0234 99.4297 39.6484V41.5234C99.4297 42.8307 99.4583 43.6589 99.5156 44.0078C99.5781 44.3516 99.6979 44.6823 99.875 45H98.4062C98.2604 44.7083 98.1667 44.3672 98.125 43.9766ZM98.0078 40.8359C97.4974 41.0443 96.7318 41.2214 95.7109 41.3672C95.1328 41.4505 94.724 41.5443 94.4844 41.6484C94.2448 41.7526 94.0599 41.9062 93.9297 42.1094C93.7995 42.3073 93.7344 42.5286 93.7344 42.7734C93.7344 43.1484 93.875 43.4609 94.1562 43.7109C94.4427 43.9609 94.8594 44.0859 95.4062 44.0859C95.9479 44.0859 96.4297 43.9688 96.8516 43.7344C97.2734 43.4948 97.5833 43.1693 97.7812 42.7578C97.9323 42.4401 98.0078 41.9714 98.0078 41.3516V40.8359ZM101.617 45V36.7031H102.883V37.8828C103.492 36.9714 104.372 36.5156 105.523 36.5156C106.023 36.5156 106.482 36.6068 106.898 36.7891C107.32 36.9661 107.635 37.2005 107.844 37.4922C108.052 37.7839 108.198 38.1302 108.281 38.5312C108.333 38.7917 108.359 39.2474 108.359 39.8984V45H106.953V39.9531C106.953 39.3802 106.898 38.9531 106.789 38.6719C106.68 38.3854 106.484 38.1589 106.203 37.9922C105.927 37.8203 105.602 37.7344 105.227 37.7344C104.628 37.7344 104.109 37.9245 103.672 38.3047C103.24 38.6849 103.023 39.4062 103.023 40.4688V45H101.617ZM115.938 41.9609L117.32 42.1406C117.169 43.0938 116.781 43.8411 116.156 44.3828C115.536 44.9193 114.773 45.1875 113.867 45.1875C112.732 45.1875 111.818 44.8177 111.125 44.0781C110.438 43.3333 110.094 42.2682 110.094 40.8828C110.094 39.987 110.242 39.2031 110.539 38.5312C110.836 37.8594 111.286 37.3568 111.891 37.0234C112.5 36.6849 113.161 36.5156 113.875 36.5156C114.776 36.5156 115.513 36.7448 116.086 37.2031C116.659 37.6562 117.026 38.3021 117.188 39.1406L115.82 39.3516C115.69 38.7943 115.458 38.375 115.125 38.0938C114.797 37.8125 114.398 37.6719 113.93 37.6719C113.221 37.6719 112.646 37.9271 112.203 38.4375C111.76 38.9427 111.539 39.7448 111.539 40.8438C111.539 41.9583 111.753 42.7682 112.18 43.2734C112.607 43.7786 113.164 44.0312 113.852 44.0312C114.404 44.0312 114.865 43.862 115.234 43.5234C115.604 43.1849 115.839 42.6641 115.938 41.9609ZM124.203 42.3281L125.656 42.5078C125.427 43.3568 125.003 44.0156 124.383 44.4844C123.763 44.9531 122.971 45.1875 122.008 45.1875C120.794 45.1875 119.831 44.8151 119.117 44.0703C118.409 43.3203 118.055 42.2708 118.055 40.9219C118.055 39.526 118.414 38.4427 119.133 37.6719C119.852 36.901 120.784 36.5156 121.93 36.5156C123.039 36.5156 123.945 36.8932 124.648 37.6484C125.352 38.4036 125.703 39.4661 125.703 40.8359C125.703 40.9193 125.701 41.0443 125.695 41.2109H119.508C119.56 42.1224 119.818 42.8203 120.281 43.3047C120.745 43.7891 121.323 44.0312 122.016 44.0312C122.531 44.0312 122.971 43.8958 123.336 43.625C123.701 43.3542 123.99 42.9219 124.203 42.3281ZM119.586 40.0547H124.219C124.156 39.3568 123.979 38.8333 123.688 38.4844C123.24 37.9427 122.659 37.6719 121.945 37.6719C121.299 37.6719 120.755 37.888 120.312 38.3203C119.875 38.7526 119.633 39.3307 119.586 40.0547Z" fill="black"/>
<path d="M36.2256 85.5757V83.3784C35.127 83.2401 34.2318 82.9959 33.54 82.646C32.8564 82.2879 32.2624 81.7142 31.7578 80.9248C31.2614 80.1354 30.9725 79.1711 30.8911 78.0317L33.1006 77.6167C33.2715 78.7967 33.5726 79.6634 34.0039 80.2168C34.6224 80.998 35.363 81.4334 36.2256 81.5229V74.5283C35.3223 74.3574 34.3986 74.0075 33.4546 73.4785C32.7547 73.0879 32.2135 72.5467 31.8311 71.855C31.4567 71.1632 31.2695 70.3779 31.2695 69.499C31.2695 67.9365 31.8229 66.6711 32.9297 65.7026C33.6702 65.0516 34.7689 64.6528 36.2256 64.5063V63.4565H37.5195V64.5063C38.7972 64.6284 39.8104 65.0028 40.5591 65.6294C41.5194 66.4269 42.0972 67.5215 42.2925 68.9131L40.022 69.2549C39.8918 68.3923 39.6191 67.7331 39.2041 67.2773C38.7972 66.8135 38.2357 66.5083 37.5195 66.3618V72.6973C38.6263 72.974 39.3587 73.1896 39.7168 73.3442C40.4004 73.6453 40.9578 74.0116 41.3892 74.4429C41.8205 74.8742 42.1501 75.3869 42.3779 75.981C42.6139 76.575 42.7319 77.2179 42.7319 77.9097C42.7319 79.4315 42.2477 80.701 41.2793 81.7183C40.3109 82.7355 39.0576 83.2808 37.5195 83.354V85.5757H36.2256ZM36.2256 66.3374C35.3711 66.4676 34.6956 66.8094 34.1992 67.3628C33.7109 67.9162 33.4668 68.5713 33.4668 69.3281C33.4668 70.0768 33.6743 70.7035 34.0894 71.208C34.5125 71.7126 35.2246 72.1154 36.2256 72.4165V66.3374ZM37.5195 81.5229C38.374 81.4172 39.078 81.0469 39.6313 80.4121C40.1929 79.7773 40.4736 78.992 40.4736 78.0562C40.4736 77.2586 40.2743 76.6198 39.8755 76.1396C39.4849 75.6514 38.6995 75.216 37.5195 74.8335V81.5229ZM51.9116 78.3125L54.2188 78.1172C54.3896 79.2402 54.7843 80.0866 55.4028 80.6562C56.0295 81.2178 56.7822 81.4985 57.6611 81.4985C58.7191 81.4985 59.6143 81.0998 60.3467 80.3022C61.0791 79.5047 61.4453 78.4468 61.4453 77.1284C61.4453 75.8752 61.0913 74.8864 60.3833 74.1621C59.6834 73.4378 58.7638 73.0757 57.6245 73.0757C56.9165 73.0757 56.2777 73.2384 55.708 73.564C55.1383 73.8813 54.6908 74.2964 54.3652 74.8091L52.3022 74.5405L54.0356 65.3486H62.9346V67.4482H55.7935L54.8291 72.2578C55.9033 71.5091 57.0304 71.1348 58.2104 71.1348C59.7729 71.1348 61.0913 71.6759 62.1655 72.7583C63.2397 73.8407 63.7769 75.2323 63.7769 76.9331C63.7769 78.5526 63.3049 79.9523 62.3608 81.1323C61.2134 82.5809 59.6468 83.3052 57.6611 83.3052C56.0335 83.3052 54.703 82.8494 53.6694 81.938C52.644 81.0265 52.0581 79.818 51.9116 78.3125ZM65.8276 74.1743C65.8276 72.0584 66.0433 70.3576 66.4746 69.0718C66.9141 67.7778 67.561 66.7809 68.4155 66.0811C69.2782 65.3812 70.3605 65.0312 71.6626 65.0312C72.6229 65.0312 73.4652 65.2266 74.1895 65.6172C74.9137 65.9997 75.5119 66.5571 75.9839 67.2896C76.4559 68.0138 76.8262 68.9009 77.0947 69.9507C77.3633 70.9924 77.4976 72.4002 77.4976 74.1743C77.4976 76.2739 77.2819 77.9707 76.8506 79.2646C76.4193 80.5505 75.7723 81.5474 74.9097 82.2554C74.0552 82.9552 72.9728 83.3052 71.6626 83.3052C69.9373 83.3052 68.5824 82.6867 67.5977 81.4497C66.4176 79.9604 65.8276 77.5353 65.8276 74.1743ZM68.0859 74.1743C68.0859 77.1121 68.4277 79.0693 69.1113 80.0459C69.8031 81.0143 70.6535 81.4985 71.6626 81.4985C72.6717 81.4985 73.5181 81.0103 74.2017 80.0337C74.8934 79.0571 75.2393 77.104 75.2393 74.1743C75.2393 71.2284 74.8934 69.2712 74.2017 68.3027C73.5181 67.3343 72.6636 66.8501 71.6382 66.8501C70.6291 66.8501 69.8234 67.2773 69.2212 68.1318C68.4644 69.2223 68.0859 71.2365 68.0859 74.1743ZM79.7437 74.1743C79.7437 72.0584 79.9593 70.3576 80.3906 69.0718C80.8301 67.7778 81.4771 66.7809 82.3315 66.0811C83.1942 65.3812 84.2765 65.0312 85.5786 65.0312C86.5389 65.0312 87.3812 65.2266 88.1055 65.6172C88.8298 65.9997 89.4279 66.5571 89.8999 67.2896C90.3719 68.0138 90.7422 68.9009 91.0107 69.9507C91.2793 70.9924 91.4136 72.4002 91.4136 74.1743C91.4136 76.2739 91.1979 77.9707 90.7666 79.2646C90.3353 80.5505 89.6883 81.5474 88.8257 82.2554C87.9712 82.9552 86.8888 83.3052 85.5786 83.3052C83.8534 83.3052 82.4984 82.6867 81.5137 81.4497C80.3337 79.9604 79.7437 77.5353 79.7437 74.1743ZM82.002 74.1743C82.002 77.1121 82.3438 79.0693 83.0273 80.0459C83.7191 81.0143 84.5695 81.4985 85.5786 81.4985C86.5877 81.4985 87.4341 81.0103 88.1177 80.0337C88.8094 79.0571 89.1553 77.104 89.1553 74.1743C89.1553 71.2284 88.8094 69.2712 88.1177 68.3027C87.4341 67.3343 86.5796 66.8501 85.5542 66.8501C84.5451 66.8501 83.7394 67.2773 83.1372 68.1318C82.3804 69.2223 82.002 71.2365 82.002 74.1743ZM94.8926 83V80.4976H97.395V83H94.8926ZM100.618 74.1743C100.618 72.0584 100.833 70.3576 101.265 69.0718C101.704 67.7778 102.351 66.7809 103.206 66.0811C104.068 65.3812 105.151 65.0312 106.453 65.0312C107.413 65.0312 108.255 65.2266 108.979 65.6172C109.704 65.9997 110.302 66.5571 110.774 67.2896C111.246 68.0138 111.616 68.9009 111.885 69.9507C112.153 70.9924 112.288 72.4002 112.288 74.1743C112.288 76.2739 112.072 77.9707 111.641 79.2646C111.209 80.5505 110.562 81.5474 109.7 82.2554C108.845 82.9552 107.763 83.3052 106.453 83.3052C104.727 83.3052 103.372 82.6867 102.388 81.4497C101.208 79.9604 100.618 77.5353 100.618 74.1743ZM102.876 74.1743C102.876 77.1121 103.218 79.0693 103.901 80.0459C104.593 81.0143 105.444 81.4985 106.453 81.4985C107.462 81.4985 108.308 81.0103 108.992 80.0337C109.683 79.0571 110.029 77.104 110.029 74.1743C110.029 71.2284 109.683 69.2712 108.992 68.3027C108.308 67.3343 107.454 66.8501 106.428 66.8501C105.419 66.8501 104.613 67.2773 104.011 68.1318C103.254 69.2223 102.876 71.2365 102.876 74.1743ZM114.534 74.1743C114.534 72.0584 114.749 70.3576 115.181 69.0718C115.62 67.7778 116.267 66.7809 117.122 66.0811C117.984 65.3812 119.067 65.0312 120.369 65.0312C121.329 65.0312 122.171 65.2266 122.896 65.6172C123.62 65.9997 124.218 66.5571 124.69 67.2896C125.162 68.0138 125.532 68.9009 125.801 69.9507C126.069 70.9924 126.204 72.4002 126.204 74.1743C126.204 76.2739 125.988 77.9707 125.557 79.2646C125.125 80.5505 124.478 81.5474 123.616 82.2554C122.761 82.9552 121.679 83.3052 120.369 83.3052C118.643 83.3052 117.288 82.6867 116.304 81.4497C115.124 79.9604 114.534 77.5353 114.534 74.1743ZM116.792 74.1743C116.792 77.1121 117.134 79.0693 117.817 80.0459C118.509 81.0143 119.36 81.4985 120.369 81.4985C121.378 81.4985 122.224 81.0103 122.908 80.0337C123.599 79.0571 123.945 77.104 123.945 74.1743C123.945 71.2284 123.599 69.2712 122.908 68.3027C122.224 67.3343 121.37 66.8501 120.344 66.8501C119.335 66.8501 118.529 67.2773 117.927 68.1318C117.17 69.2223 116.792 71.2365 116.792 74.1743ZM148.042 65.1045H150.41V75.4438C150.41 77.2424 150.207 78.6706 149.8 79.7285C149.393 80.7865 148.656 81.6491 147.59 82.3164C146.532 82.9756 145.141 83.3052 143.416 83.3052C141.739 83.3052 140.368 83.0163 139.302 82.4385C138.236 81.8607 137.475 81.0265 137.019 79.936C136.563 78.8374 136.335 77.34 136.335 75.4438V65.1045H138.704V75.4316C138.704 76.986 138.846 78.1335 139.131 78.874C139.424 79.6064 139.92 80.172 140.62 80.5708C141.328 80.9696 142.191 81.1689 143.208 81.1689C144.95 81.1689 146.191 80.7743 146.931 79.9849C147.672 79.1955 148.042 77.6777 148.042 75.4316V65.1045ZM153.56 77.2505L155.793 77.0552C155.899 77.9504 156.143 78.6868 156.526 79.2646C156.917 79.8343 157.519 80.2982 158.333 80.6562C159.146 81.0062 160.062 81.1812 161.079 81.1812C161.982 81.1812 162.78 81.0469 163.472 80.7783C164.163 80.5098 164.676 80.1436 165.01 79.6797C165.352 79.2077 165.522 78.695 165.522 78.1416C165.522 77.5801 165.36 77.0918 165.034 76.6768C164.709 76.2536 164.172 75.8996 163.423 75.6147C162.943 75.4276 161.881 75.1387 160.237 74.748C158.593 74.3493 157.441 73.9749 156.782 73.625C155.928 73.1774 155.289 72.624 154.866 71.9648C154.451 71.2975 154.243 70.5529 154.243 69.731C154.243 68.8276 154.5 67.9854 155.012 67.2041C155.525 66.4147 156.274 65.8166 157.258 65.4097C158.243 65.0028 159.338 64.7993 160.542 64.7993C161.868 64.7993 163.036 65.015 164.045 65.4463C165.063 65.8695 165.844 66.4961 166.389 67.3262C166.934 68.1562 167.227 69.0962 167.268 70.146L164.998 70.3169C164.875 69.1857 164.46 68.3312 163.752 67.7534C163.053 67.1756 162.015 66.8867 160.64 66.8867C159.207 66.8867 158.162 67.1512 157.502 67.6802C156.851 68.201 156.526 68.8317 156.526 69.5723C156.526 70.2152 156.758 70.7441 157.222 71.1592C157.677 71.5742 158.866 72.0015 160.786 72.4409C162.715 72.8722 164.037 73.2507 164.753 73.5762C165.795 74.0563 166.564 74.6667 167.061 75.4072C167.557 76.1396 167.805 76.986 167.805 77.9463C167.805 78.8984 167.533 79.7977 166.987 80.644C166.442 81.4823 165.657 82.1374 164.631 82.6094C163.614 83.0732 162.467 83.3052 161.189 83.3052C159.569 83.3052 158.21 83.0692 157.112 82.5972C156.021 82.1252 155.163 81.4172 154.536 80.4731C153.918 79.521 153.592 78.4468 153.56 77.2505ZM171.04 83V65.1045H177.205C178.596 65.1045 179.658 65.1899 180.391 65.3608C181.416 65.5968 182.291 66.0241 183.015 66.6426C183.959 67.4401 184.663 68.4614 185.127 69.7065C185.599 70.9435 185.835 72.3595 185.835 73.9546C185.835 75.3136 185.676 76.5181 185.359 77.5679C185.042 78.6177 184.635 79.4884 184.138 80.1802C183.642 80.8638 183.097 81.4049 182.502 81.8037C181.917 82.1943 181.204 82.4914 180.366 82.6948C179.536 82.8983 178.58 83 177.498 83H171.04ZM173.408 80.8882H177.229C178.409 80.8882 179.333 80.7783 180 80.5586C180.675 80.3389 181.213 80.0296 181.611 79.6309C182.173 79.0693 182.608 78.3166 182.917 77.3726C183.235 76.4204 183.394 75.2689 183.394 73.918C183.394 72.0462 183.084 70.6099 182.466 69.6089C181.855 68.5998 181.111 67.9243 180.232 67.5825C179.597 67.3384 178.576 67.2163 177.168 67.2163H173.408V80.8882Z" fill="black"/>
<g clip-path="url(#clip1_0_1455)">
<path d="M32.9375 150.375H35.4375C35.5204 150.375 35.5999 150.342 35.6585 150.284C35.7171 150.225 35.75 150.145 35.75 150.063V149.719L37.9869 149.494C38.3384 149.458 38.6935 149.49 39.0331 149.588L40.2206 149.929C40.5265 150.017 40.8431 150.061 41.1613 150.061H42.8516C43.3404 150.062 43.8235 149.957 44.2678 149.753L47.3372 148.35C47.8234 148.127 48.2508 147.794 48.5856 147.377L51.1697 144.153C51.3209 143.965 51.3938 143.725 51.3734 143.485C51.3529 143.244 51.2406 143.02 51.0597 142.86L50.9866 142.796C50.8156 142.644 50.595 142.561 50.3667 142.562C50.1384 142.562 49.9182 142.646 49.7478 142.798L46.8319 145.399C46.5912 145.614 46.3149 145.786 46.0153 145.907L43.7891 146.802C43.733 146.825 43.6715 146.83 43.6123 146.818C43.5531 146.806 43.4988 146.776 43.4563 146.734L43.1397 146.415L45.125 145.576C45.1382 145.57 45.151 145.564 45.1634 145.557C45.4618 145.378 45.7106 145.128 45.8872 144.829C45.9796 144.675 46.0258 144.497 46.0204 144.318C46.015 144.138 45.9582 143.964 45.8567 143.816C45.7553 143.668 45.6134 143.552 45.448 143.482C45.2826 143.413 45.1007 143.392 44.9237 143.422L41.5756 144.016C41.1427 144.093 40.7288 144.253 40.3569 144.487L39.1381 145.254C38.6945 145.534 38.1808 145.682 37.6562 145.683H35.75V145.375C35.75 145.292 35.7171 145.213 35.6585 145.154C35.5999 145.095 35.5204 145.063 35.4375 145.063H32.9375C32.8546 145.063 32.7751 145.095 32.7165 145.154C32.6579 145.213 32.625 145.292 32.625 145.375V150.063C32.625 150.145 32.6579 150.225 32.7165 150.284C32.7751 150.342 32.8546 150.375 32.9375 150.375ZM35.75 146.308H37.6562C38.2984 146.308 38.9275 146.126 39.4709 145.784L40.6897 145.018C40.9937 144.826 41.3321 144.695 41.6859 144.633L45.0341 144.039C45.0921 144.028 45.1521 144.035 45.2065 144.058C45.261 144.08 45.3076 144.119 45.3406 144.168C45.3757 144.218 45.3954 144.277 45.3972 144.338C45.3989 144.399 45.3828 144.459 45.3506 144.511C45.2309 144.715 45.0631 144.887 44.8619 145.011L42.4688 146.02C42.4217 146.04 42.3802 146.071 42.348 146.111C42.3158 146.151 42.2938 146.198 42.284 146.248C42.2741 146.298 42.2767 146.35 42.2916 146.399C42.3064 146.448 42.333 146.492 42.3691 146.529L43.0119 147.175C43.1408 147.305 43.3055 147.395 43.4851 147.432C43.6646 147.469 43.8512 147.452 44.0212 147.384L46.2475 146.488C46.6143 146.34 46.9527 146.13 47.2475 145.867L50.1631 143.266C50.2195 143.216 50.2922 143.188 50.3675 143.188C50.4428 143.188 50.5155 143.216 50.5719 143.266L50.6447 143.33C50.7053 143.384 50.743 143.459 50.7498 143.539C50.7567 143.62 50.7323 143.7 50.6816 143.764L48.0969 146.987C47.823 147.327 47.4735 147.599 47.0763 147.781L44.0069 149.184C43.6442 149.351 43.2497 149.437 42.8506 149.436H41.16C40.9003 149.436 40.6418 149.4 40.3922 149.328L39.2047 148.987C38.7888 148.867 38.354 148.828 37.9234 148.872L35.7491 149.09L35.75 146.308ZM33.25 145.688H35.125V149.75H33.25V145.688Z" fill="black"/>
<path d="M33.875 148.5H34.5V149.125H33.875V148.5Z" fill="black"/>
<path d="M40.4375 135.375H41.0625C41.2283 135.375 41.3872 135.441 41.5044 135.558C41.6217 135.675 41.6875 135.834 41.6875 136H42.3125C42.3125 135.668 42.1808 135.351 41.9464 135.116C41.712 134.882 41.394 134.75 41.0625 134.75V134.125H40.4375V134.75C40.106 134.75 39.788 134.882 39.5536 135.116C39.3192 135.351 39.1875 135.668 39.1875 136C39.1875 136.332 39.3192 136.649 39.5536 136.884C39.788 137.118 40.106 137.25 40.4375 137.25H41.0625C41.2283 137.25 41.3872 137.316 41.5044 137.433C41.6217 137.55 41.6875 137.709 41.6875 137.875C41.6875 138.041 41.6217 138.2 41.5044 138.317C41.3872 138.434 41.2283 138.5 41.0625 138.5H40.4375C40.2717 138.5 40.1128 138.434 39.9956 138.317C39.8783 138.2 39.8125 138.041 39.8125 137.875H39.1875C39.1875 138.207 39.3192 138.524 39.5536 138.759C39.788 138.993 40.106 139.125 40.4375 139.125V139.75H41.0625V139.125C41.394 139.125 41.712 138.993 41.9464 138.759C42.1808 138.524 42.3125 138.207 42.3125 137.875C42.3125 137.543 42.1808 137.226 41.9464 136.991C41.712 136.757 41.394 136.625 41.0625 136.625H40.4375C40.2717 136.625 40.1128 136.559 39.9956 136.442C39.8783 136.325 39.8125 136.166 39.8125 136C39.8125 135.834 39.8783 135.675 39.9956 135.558C40.1128 135.441 40.2717 135.375 40.4375 135.375Z" fill="black"/>
<path d="M45.7505 138.291C45.7506 138.241 45.7389 138.193 45.7164 138.149C45.6939 138.105 45.6613 138.066 45.6212 138.038L44.0968 136.935L45.6209 135.835C45.661 135.806 45.6937 135.768 45.7162 135.724C45.7388 135.68 45.7505 135.631 45.7505 135.581C45.7505 135.532 45.7388 135.483 45.7162 135.439C45.6937 135.395 45.661 135.357 45.6209 135.328L44.0971 134.228L44.6427 133.835C44.6784 133.809 44.7083 133.776 44.7303 133.738C44.7524 133.7 44.7662 133.658 44.7708 133.614C44.7754 133.57 44.7707 133.526 44.757 133.484C44.7434 133.442 44.721 133.404 44.6915 133.371C43.9711 132.576 43.0268 132.017 41.9828 131.769C40.9388 131.521 39.8441 131.595 38.8428 131.981C37.8416 132.367 36.9807 133.047 36.3735 133.932C35.7664 134.816 35.4414 135.864 35.4414 136.938C35.4414 138.011 35.7664 139.059 36.3735 139.943C36.9807 140.828 37.8416 141.508 38.8428 141.894C39.8441 142.28 40.9388 142.354 41.9828 142.106C43.0268 141.858 43.9711 141.299 44.6915 140.504C44.721 140.471 44.7433 140.433 44.7569 140.391C44.7706 140.349 44.7753 140.305 44.7707 140.262C44.7662 140.218 44.7525 140.176 44.7306 140.138C44.7086 140.1 44.6789 140.067 44.6434 140.041L44.0965 139.644L45.6209 138.544C45.661 138.515 45.6936 138.477 45.7162 138.433C45.7387 138.389 45.7505 138.34 45.7505 138.291ZM43.3802 139.39C43.3402 139.419 43.3075 139.457 43.285 139.501C43.2625 139.545 43.2508 139.594 43.2508 139.644C43.2508 139.693 43.2625 139.742 43.285 139.786C43.3075 139.83 43.3402 139.868 43.3802 139.897L43.984 140.334C43.3194 140.966 42.4841 141.389 41.5814 141.551C40.6788 141.713 39.7485 141.606 38.9058 141.245C38.0631 140.883 37.3449 140.282 36.8403 139.517C36.3356 138.751 36.0667 137.854 36.0667 136.937C36.0667 136.02 36.3356 135.123 36.8403 134.358C37.3449 133.592 38.0631 132.991 38.9058 132.629C39.7485 132.268 40.6788 132.161 41.5814 132.323C42.4841 132.485 43.3194 132.908 43.984 133.54L43.3802 133.975C43.3401 134.004 43.3074 134.042 43.2849 134.086C43.2623 134.13 43.2506 134.179 43.2506 134.228C43.2506 134.278 43.2623 134.326 43.2849 134.37C43.3074 134.415 43.3401 134.453 43.3802 134.482L44.904 135.581L43.3802 136.681C43.3402 136.71 43.3075 136.748 43.285 136.792C43.2625 136.836 43.2508 136.885 43.2508 136.934C43.2508 136.984 43.2625 137.032 43.285 137.076C43.3075 137.12 43.3402 137.159 43.3802 137.188L44.9046 138.29L43.3802 139.39Z" fill="black"/>
<path d="M46.375 134.438H47V135.062H46.375V134.438Z" fill="black"/>
<path d="M47.625 135.688H48.25V136.312H47.625V135.688Z" fill="black"/>
<path d="M45.4375 133.188H46.0625V133.812H45.4375V133.188Z" fill="black"/>
<path d="M46.0625 136.625H46.6875V137.25H46.0625V136.625Z" fill="black"/>
<path d="M47.9375 137.25H48.5625V137.875H47.9375V137.25Z" fill="black"/>
<path d="M46.6875 138.5H47.3125V139.125H46.6875V138.5Z" fill="black"/>
<path d="M45.75 139.75H46.375V140.375H45.75V139.75Z" fill="black"/>
</g>
<path d="M64.0938 146V134.547H66.4062V146H64.0938ZM76.1484 146H73.9531V141.766C73.9531 140.87 73.9062 140.292 73.8125 140.031C73.7188 139.766 73.5651 139.56 73.3516 139.414C73.1432 139.268 72.8906 139.195 72.5938 139.195C72.2135 139.195 71.8724 139.299 71.5703 139.508C71.2682 139.716 71.0599 139.992 70.9453 140.336C70.8359 140.68 70.7812 141.315 70.7812 142.242V146H68.5859V137.703H70.625V138.922C71.349 137.984 72.2604 137.516 73.3594 137.516C73.8438 137.516 74.2865 137.604 74.6875 137.781C75.0885 137.953 75.3906 138.174 75.5938 138.445C75.8021 138.716 75.9453 139.023 76.0234 139.367C76.1068 139.711 76.1484 140.203 76.1484 140.844V146ZM85.6172 140.156L83.4531 140.547C83.3802 140.115 83.2135 139.789 82.9531 139.57C82.6979 139.352 82.3646 139.242 81.9531 139.242C81.4062 139.242 80.9688 139.432 80.6406 139.812C80.3177 140.188 80.1562 140.818 80.1562 141.703C80.1562 142.688 80.3203 143.383 80.6484 143.789C80.9818 144.195 81.4271 144.398 81.9844 144.398C82.401 144.398 82.7422 144.281 83.0078 144.047C83.2734 143.807 83.4609 143.398 83.5703 142.82L85.7266 143.188C85.5026 144.177 85.0729 144.924 84.4375 145.43C83.8021 145.935 82.9505 146.188 81.8828 146.188C80.6693 146.188 79.7005 145.805 78.9766 145.039C78.2578 144.273 77.8984 143.214 77.8984 141.859C77.8984 140.49 78.2604 139.424 78.9844 138.664C79.7083 137.898 80.6875 137.516 81.9219 137.516C82.9323 137.516 83.7344 137.734 84.3281 138.172C84.9271 138.604 85.3568 139.266 85.6172 140.156ZM86.7812 141.734C86.7812 141.005 86.9609 140.299 87.3203 139.617C87.6797 138.935 88.1875 138.414 88.8438 138.055C89.5052 137.695 90.2422 137.516 91.0547 137.516C92.3099 137.516 93.3385 137.924 94.1406 138.742C94.9427 139.555 95.3438 140.583 95.3438 141.828C95.3438 143.083 94.9375 144.125 94.125 144.953C93.3177 145.776 92.2995 146.188 91.0703 146.188C90.3099 146.188 89.5833 146.016 88.8906 145.672C88.2031 145.328 87.6797 144.826 87.3203 144.164C86.9609 143.497 86.7812 142.688 86.7812 141.734ZM89.0312 141.852C89.0312 142.674 89.2266 143.305 89.6172 143.742C90.0078 144.18 90.4896 144.398 91.0625 144.398C91.6354 144.398 92.1146 144.18 92.5 143.742C92.8906 143.305 93.0859 142.669 93.0859 141.836C93.0859 141.023 92.8906 140.398 92.5 139.961C92.1146 139.523 91.6354 139.305 91.0625 139.305C90.4896 139.305 90.0078 139.523 89.6172 139.961C89.2266 140.398 89.0312 141.029 89.0312 141.852ZM96.9062 137.703H98.9297V138.836C99.6536 137.956 100.516 137.516 101.516 137.516C102.047 137.516 102.508 137.625 102.898 137.844C103.289 138.062 103.609 138.393 103.859 138.836C104.224 138.393 104.617 138.062 105.039 137.844C105.461 137.625 105.911 137.516 106.391 137.516C107 137.516 107.516 137.641 107.938 137.891C108.359 138.135 108.674 138.497 108.883 138.977C109.034 139.331 109.109 139.904 109.109 140.695V146H106.914V141.258C106.914 140.435 106.839 139.904 106.688 139.664C106.484 139.352 106.172 139.195 105.75 139.195C105.443 139.195 105.154 139.289 104.883 139.477C104.612 139.664 104.417 139.94 104.297 140.305C104.177 140.664 104.117 141.234 104.117 142.016V146H101.922V141.453C101.922 140.646 101.883 140.125 101.805 139.891C101.727 139.656 101.604 139.482 101.438 139.367C101.276 139.253 101.055 139.195 100.773 139.195C100.435 139.195 100.13 139.286 99.8594 139.469C99.5885 139.651 99.3932 139.914 99.2734 140.258C99.1589 140.602 99.1016 141.172 99.1016 141.969V146H96.9062V137.703ZM116.109 143.359L118.297 143.727C118.016 144.529 117.57 145.141 116.961 145.562C116.357 145.979 115.599 146.188 114.688 146.188C113.245 146.188 112.177 145.716 111.484 144.773C110.938 144.018 110.664 143.065 110.664 141.914C110.664 140.539 111.023 139.464 111.742 138.688C112.461 137.906 113.37 137.516 114.469 137.516C115.703 137.516 116.677 137.924 117.391 138.742C118.104 139.555 118.445 140.802 118.414 142.484H112.914C112.93 143.135 113.107 143.643 113.445 144.008C113.784 144.367 114.206 144.547 114.711 144.547C115.055 144.547 115.344 144.453 115.578 144.266C115.812 144.078 115.99 143.776 116.109 143.359ZM116.234 141.141C116.219 140.505 116.055 140.023 115.742 139.695C115.43 139.362 115.049 139.195 114.602 139.195C114.122 139.195 113.727 139.37 113.414 139.719C113.102 140.068 112.948 140.542 112.953 141.141H116.234Z" fill="black"/>
<path d="M66.9844 167.648V166.242C66.2812 166.154 65.7083 165.997 65.2656 165.773C64.8281 165.544 64.4479 165.177 64.125 164.672C63.8073 164.167 63.6224 163.549 63.5703 162.82L64.9844 162.555C65.0938 163.31 65.2865 163.865 65.5625 164.219C65.9583 164.719 66.4323 164.997 66.9844 165.055V160.578C66.4062 160.469 65.8151 160.245 65.2109 159.906C64.763 159.656 64.4167 159.31 64.1719 158.867C63.9323 158.424 63.8125 157.922 63.8125 157.359C63.8125 156.359 64.1667 155.549 64.875 154.93C65.349 154.513 66.0521 154.258 66.9844 154.164V153.492H67.8125V154.164C68.6302 154.242 69.2786 154.482 69.7578 154.883C70.3724 155.393 70.7422 156.094 70.8672 156.984L69.4141 157.203C69.3307 156.651 69.1562 156.229 68.8906 155.938C68.6302 155.641 68.2708 155.445 67.8125 155.352V159.406C68.5208 159.583 68.9896 159.721 69.2188 159.82C69.6562 160.013 70.013 160.247 70.2891 160.523C70.5651 160.799 70.776 161.128 70.9219 161.508C71.0729 161.888 71.1484 162.299 71.1484 162.742C71.1484 163.716 70.8385 164.529 70.2188 165.18C69.599 165.831 68.7969 166.18 67.8125 166.227V167.648H66.9844ZM66.9844 155.336C66.4375 155.419 66.0052 155.638 65.6875 155.992C65.375 156.346 65.2188 156.766 65.2188 157.25C65.2188 157.729 65.3516 158.13 65.6172 158.453C65.888 158.776 66.3438 159.034 66.9844 159.227V155.336ZM67.8125 165.055C68.3594 164.987 68.8099 164.75 69.1641 164.344C69.5234 163.938 69.7031 163.435 69.7031 162.836C69.7031 162.326 69.5755 161.917 69.3203 161.609C69.0703 161.297 68.5677 161.018 67.8125 160.773V165.055ZM84.4141 164.648V166H76.8438C76.8333 165.661 76.888 165.336 77.0078 165.023C77.2005 164.508 77.5078 164 77.9297 163.5C78.3568 163 78.9714 162.422 79.7734 161.766C81.0182 160.745 81.8594 159.938 82.2969 159.344C82.7344 158.745 82.9531 158.18 82.9531 157.648C82.9531 157.091 82.7526 156.622 82.3516 156.242C81.9557 155.857 81.4375 155.664 80.7969 155.664C80.1198 155.664 79.5781 155.867 79.1719 156.273C78.7656 156.68 78.5599 157.242 78.5547 157.961L77.1094 157.812C77.2083 156.734 77.5807 155.914 78.2266 155.352C78.8724 154.784 79.7396 154.5 80.8281 154.5C81.9271 154.5 82.7969 154.805 83.4375 155.414C84.0781 156.023 84.3984 156.779 84.3984 157.68C84.3984 158.138 84.3047 158.589 84.1172 159.031C83.9297 159.474 83.6172 159.94 83.1797 160.43C82.7474 160.919 82.026 161.591 81.0156 162.445C80.1719 163.154 79.6302 163.635 79.3906 163.891C79.151 164.141 78.9531 164.393 78.7969 164.648H84.4141ZM85.9297 160.352C85.9297 158.997 86.0677 157.909 86.3438 157.086C86.625 156.258 87.0391 155.62 87.5859 155.172C88.138 154.724 88.8307 154.5 89.6641 154.5C90.2786 154.5 90.8177 154.625 91.2812 154.875C91.7448 155.12 92.1276 155.477 92.4297 155.945C92.7318 156.409 92.9688 156.977 93.1406 157.648C93.3125 158.315 93.3984 159.216 93.3984 160.352C93.3984 161.695 93.2604 162.781 92.9844 163.609C92.7083 164.432 92.2943 165.07 91.7422 165.523C91.1953 165.971 90.5026 166.195 89.6641 166.195C88.5599 166.195 87.6927 165.799 87.0625 165.008C86.3073 164.055 85.9297 162.503 85.9297 160.352ZM87.375 160.352C87.375 162.232 87.5938 163.484 88.0312 164.109C88.474 164.729 89.0182 165.039 89.6641 165.039C90.3099 165.039 90.8516 164.727 91.2891 164.102C91.7318 163.477 91.9531 162.227 91.9531 160.352C91.9531 158.466 91.7318 157.214 91.2891 156.594C90.8516 155.974 90.3047 155.664 89.6484 155.664C89.0026 155.664 88.487 155.938 88.1016 156.484C87.6172 157.182 87.375 158.471 87.375 160.352ZM95.625 166V164.398H97.2266V166H95.625ZM99.2891 160.352C99.2891 158.997 99.4271 157.909 99.7031 157.086C99.9844 156.258 100.398 155.62 100.945 155.172C101.497 154.724 102.19 154.5 103.023 154.5C103.638 154.5 104.177 154.625 104.641 154.875C105.104 155.12 105.487 155.477 105.789 155.945C106.091 156.409 106.328 156.977 106.5 157.648C106.672 158.315 106.758 159.216 106.758 160.352C106.758 161.695 106.62 162.781 106.344 163.609C106.068 164.432 105.654 165.07 105.102 165.523C104.555 165.971 103.862 166.195 103.023 166.195C101.919 166.195 101.052 165.799 100.422 165.008C99.6667 164.055 99.2891 162.503 99.2891 160.352ZM100.734 160.352C100.734 162.232 100.953 163.484 101.391 164.109C101.833 164.729 102.378 165.039 103.023 165.039C103.669 165.039 104.211 164.727 104.648 164.102C105.091 163.477 105.312 162.227 105.312 160.352C105.312 158.466 105.091 157.214 104.648 156.594C104.211 155.974 103.664 155.664 103.008 155.664C102.362 155.664 101.846 155.938 101.461 156.484C100.977 157.182 100.734 158.471 100.734 160.352ZM108.195 160.352C108.195 158.997 108.333 157.909 108.609 157.086C108.891 156.258 109.305 155.62 109.852 155.172C110.404 154.724 111.096 154.5 111.93 154.5C112.544 154.5 113.083 154.625 113.547 154.875C114.01 155.12 114.393 155.477 114.695 155.945C114.997 156.409 115.234 156.977 115.406 157.648C115.578 158.315 115.664 159.216 115.664 160.352C115.664 161.695 115.526 162.781 115.25 163.609C114.974 164.432 114.56 165.07 114.008 165.523C113.461 165.971 112.768 166.195 111.93 166.195C110.826 166.195 109.958 165.799 109.328 165.008C108.573 164.055 108.195 162.503 108.195 160.352ZM109.641 160.352C109.641 162.232 109.859 163.484 110.297 164.109C110.74 164.729 111.284 165.039 111.93 165.039C112.576 165.039 113.117 164.727 113.555 164.102C113.997 163.477 114.219 162.227 114.219 160.352C114.219 158.466 113.997 157.214 113.555 156.594C113.117 155.974 112.57 155.664 111.914 155.664C111.268 155.664 110.753 155.938 110.367 156.484C109.883 157.182 109.641 158.471 109.641 160.352Z" fill="black"/>
<g clip-path="url(#clip2_0_1455)">
<path d="M45.0628 200.069L45.0655 200.058C45.0974 199.933 45.2249 199.857 45.3503 199.889C45.4758 199.921 45.5517 200.048 45.5198 200.174L45.5171 200.185C45.4901 200.291 45.3947 200.361 45.2901 200.361C45.271 200.361 45.2516 200.359 45.2322 200.354C45.1068 200.322 45.0309 200.195 45.0628 200.069ZM44.3581 209.524V207.973C44.0844 207.889 43.7993 207.782 43.5878 207.58C43.1481 207.161 43.0962 206.487 43.4669 206.012C43.6669 205.756 43.9944 205.59 44.3581 205.538V204.994C44.3581 204.865 44.4631 204.76 44.5925 204.76C44.7219 204.76 44.8269 204.865 44.8269 204.994V205.537C44.8892 205.545 44.9514 205.556 45.0132 205.571C45.5478 205.702 45.9199 206.066 46.0087 206.546C46.0322 206.673 45.9481 206.796 45.8208 206.819C45.6935 206.843 45.5713 206.759 45.5477 206.631C45.4695 206.209 45.0699 206.067 44.9017 206.026C44.8769 206.02 44.8519 206.015 44.8269 206.01V207.623C44.8754 207.638 44.9235 207.653 44.9701 207.669C45.7844 207.954 46.1435 208.486 45.9814 209.168C45.8685 209.643 45.4162 209.969 44.8269 210.02V210.554C44.8269 210.683 44.7219 210.788 44.5925 210.788C44.4631 210.788 44.3581 210.683 44.3581 210.554V210.001C43.818 209.908 43.2906 209.565 43.17 208.929C43.1459 208.802 43.2294 208.679 43.3566 208.655C43.4836 208.631 43.6064 208.715 43.6306 208.842C43.7067 209.243 44.0297 209.449 44.3581 209.524ZM44.8269 208.116V209.547C45.1437 209.507 45.4556 209.353 45.5253 209.06C45.5631 208.901 45.6775 208.418 44.8269 208.116ZM44.3581 207.48V206.013C44.1402 206.055 43.95 206.155 43.8363 206.301C43.6431 206.548 43.6068 206.95 43.9113 207.241C44.0225 207.347 44.1828 207.42 44.3581 207.48V207.48ZM51.679 212.464L45.9827 215.461C44.6449 216.152 43.4659 216.498 42.332 216.498C41.1922 216.498 40.098 216.149 38.9322 215.45C38.1914 215.028 37.4433 214.912 36.5067 215.072C36.0536 215.15 35.5205 215.289 34.9222 215.484C35.0206 216.066 34.5406 216.505 34.0197 216.593C33.9542 216.605 33.8902 216.61 33.828 216.61C33.3643 216.61 33.0043 216.31 32.9233 215.832L32.2116 211.628C32.1469 211.246 32.2771 210.888 32.5689 210.647C32.8756 210.394 33.3146 210.311 33.6611 210.44C33.8523 210.512 33.9992 210.638 34.0924 210.808C34.2372 210.733 34.3793 210.658 34.5179 210.584C35.9312 209.836 37.1556 209.188 38.9185 210.035C38.8865 209.437 38.9715 208.753 39.1761 207.959C39.6894 205.969 41.0072 203.439 42.7839 202.165C42.6015 202.065 42.4776 201.87 42.4776 201.648C42.4776 201.34 42.7136 201.087 43.014 201.059C41.9324 199.301 42.0651 198.142 42.5386 197.668C42.9137 197.293 43.4967 197.298 44.0602 197.681C44.1596 197.749 44.2472 197.809 44.3251 197.863C44.7531 198.157 44.8488 198.219 44.9965 198.235C45.1831 198.255 45.3797 198.171 45.6519 198.055C45.8348 197.976 46.0421 197.888 46.298 197.808C46.8257 197.644 47.0812 197.805 47.2027 197.968C47.3905 198.221 47.3691 198.633 47.1372 199.227C46.9455 199.718 46.6099 200.333 46.1388 201.057C46.4543 201.069 46.7075 201.329 46.7075 201.648C46.7075 201.87 46.5836 202.065 46.4013 202.165C48.178 203.439 49.4958 205.969 50.009 207.959C50.3269 209.192 50.3581 210.179 50.1028 210.96C50.35 210.965 50.5859 211.018 50.8049 211.121C51.2175 211.314 51.5649 211.683 51.783 212.159C51.8349 212.272 51.7892 212.406 51.679 212.464L51.679 212.464ZM43.5687 201.056H43.9894L43.6383 199.674C43.6065 199.548 43.6823 199.421 43.8078 199.389C43.9333 199.357 44.0608 199.433 44.0926 199.558L44.473 201.056H44.8121L44.9292 200.595C44.9611 200.469 45.0887 200.393 45.2141 200.425C45.3396 200.457 45.4154 200.585 45.3836 200.71L45.2957 201.056H45.5779C47.1412 198.724 46.8399 198.266 46.8262 198.248C46.7848 198.192 46.6321 198.195 46.4372 198.256C46.2042 198.328 46.0085 198.412 45.8359 198.486C45.5241 198.619 45.2547 198.734 44.9468 198.701C44.676 198.672 44.5081 198.557 44.0597 198.249C43.9823 198.196 43.8953 198.136 43.7966 198.069C43.4255 197.817 43.079 197.791 42.87 198C42.4828 198.387 42.5433 199.504 43.5686 201.056L43.5687 201.056ZM42.9463 201.648C42.9463 201.714 43.0025 201.77 43.069 201.77H46.116C46.1825 201.77 46.2387 201.714 46.2387 201.648C46.2387 201.581 46.1825 201.525 46.116 201.525H43.069C43.0025 201.525 42.9463 201.581 42.9463 201.648ZM39.4093 210.271C40.1495 210.602 40.9384 210.827 41.7606 210.939C42.0258 210.975 42.3335 210.993 42.6592 211.012C43.7075 211.073 44.8956 211.142 45.4547 211.865C45.6256 212.085 45.7243 212.353 45.7503 212.665L49.1271 211.174C49.2797 211.106 49.4307 211.055 49.5793 211.02C49.8879 210.302 49.8802 209.338 49.555 208.076C48.9988 205.919 47.4787 203.235 45.6389 202.239H45.5292C45.6851 202.475 45.8074 202.727 45.8597 202.933C45.8916 203.058 45.8157 203.186 45.6903 203.217C45.6709 203.222 45.6515 203.225 45.6324 203.225C45.5277 203.225 45.4324 203.154 45.4054 203.048C45.3474 202.82 45.1542 202.483 44.9427 202.239H44.7473C44.3938 202.584 44.0706 203.04 43.8607 203.489C43.8209 203.574 43.7364 203.624 43.6482 203.624C43.615 203.624 43.5813 203.617 43.5492 203.602C43.4319 203.548 43.3812 203.408 43.436 203.291C43.6413 202.851 43.8942 202.497 44.1102 202.239H43.5462C41.7064 203.235 40.1862 205.919 39.6301 208.076C39.4092 208.933 39.3353 209.67 39.4094 210.271H39.4093ZM34.46 215.562L34.4264 215.363C34.4264 215.363 34.4264 215.363 34.4264 215.362L33.7304 211.179C33.7053 211.029 33.6269 210.928 33.497 210.879C33.4399 210.858 33.3769 210.848 33.3118 210.848C33.1582 210.848 32.9931 210.905 32.8674 211.009C32.7533 211.103 32.627 211.273 32.6738 211.549L33.3855 215.753C33.4556 216.168 33.7977 216.156 33.9415 216.131C34.1897 216.089 34.5147 215.885 34.46 215.561L34.46 215.562ZM51.2527 212.159C51.0061 211.753 50.4183 211.116 49.3164 211.603L45.7319 213.185C45.7239 213.243 45.7139 213.301 45.7021 213.361C45.6824 213.46 45.6019 213.535 45.5019 213.548C43.7925 213.767 42.4183 213.821 40.8516 213.416C40.7263 213.383 40.651 213.255 40.6834 213.13C40.7158 213.005 40.8438 212.929 40.969 212.962C42.4107 213.335 43.6953 213.298 45.2699 213.105C45.3252 212.697 45.2639 212.384 45.0839 212.151C44.6554 211.598 43.5804 211.535 42.6319 211.48C42.2969 211.46 41.9804 211.442 41.6973 211.403C40.6801 211.265 39.7105 210.963 38.8153 210.507C37.21 209.689 36.1188 210.267 34.7371 210.998C34.5699 211.087 34.3974 211.178 34.2204 211.269L34.8438 215.016C35.4368 214.826 35.9692 214.689 36.4274 214.61C37.4794 214.43 38.3242 214.564 39.1665 215.045L39.1708 215.047C41.3665 216.363 43.2156 216.363 45.766 215.045L51.2526 212.159L51.2527 212.159Z" fill="black"/>
</g>
<path d="M62.1641 212V200.547H70.6562V202.484H64.4766V205.023H70.2266V206.953H64.4766V210.07H70.875V212H62.1641ZM71.7656 212L74.7578 207.727L71.8906 203.703H74.5703L76.0391 205.984L77.5859 203.703H80.1641L77.3516 207.633L80.4219 212H77.7266L76.0391 209.43L74.3359 212H71.7656ZM81.6641 203.703H83.7109V204.922C83.9766 204.505 84.3359 204.167 84.7891 203.906C85.2422 203.646 85.7448 203.516 86.2969 203.516C87.2604 203.516 88.0781 203.893 88.75 204.648C89.4219 205.404 89.7578 206.456 89.7578 207.805C89.7578 209.19 89.4193 210.268 88.7422 211.039C88.0651 211.805 87.2448 212.188 86.2812 212.188C85.8229 212.188 85.4062 212.096 85.0312 211.914C84.6615 211.732 84.2708 211.419 83.8594 210.977V215.156H81.6641V203.703ZM83.8359 207.711C83.8359 208.643 84.0208 209.333 84.3906 209.781C84.7604 210.224 85.2109 210.445 85.7422 210.445C86.2526 210.445 86.6771 210.242 87.0156 209.836C87.3542 209.424 87.5234 208.753 87.5234 207.82C87.5234 206.951 87.349 206.305 87 205.883C86.651 205.461 86.2188 205.25 85.7031 205.25C85.1667 205.25 84.7214 205.458 84.3672 205.875C84.013 206.286 83.8359 206.898 83.8359 207.711ZM96.3125 209.359L98.5 209.727C98.2188 210.529 97.7734 211.141 97.1641 211.562C96.5599 211.979 95.8021 212.188 94.8906 212.188C93.4479 212.188 92.3802 211.716 91.6875 210.773C91.1406 210.018 90.8672 209.065 90.8672 207.914C90.8672 206.539 91.2266 205.464 91.9453 204.688C92.6641 203.906 93.5729 203.516 94.6719 203.516C95.9062 203.516 96.8802 203.924 97.5938 204.742C98.3073 205.555 98.6484 206.802 98.6172 208.484H93.1172C93.1328 209.135 93.3099 209.643 93.6484 210.008C93.987 210.367 94.4089 210.547 94.9141 210.547C95.2578 210.547 95.5469 210.453 95.7812 210.266C96.0156 210.078 96.1927 209.776 96.3125 209.359ZM96.4375 207.141C96.4219 206.505 96.2578 206.023 95.9453 205.695C95.6328 205.362 95.2526 205.195 94.8047 205.195C94.3255 205.195 93.9297 205.37 93.6172 205.719C93.3047 206.068 93.151 206.542 93.1562 207.141H96.4375ZM107.961 212H105.766V207.766C105.766 206.87 105.719 206.292 105.625 206.031C105.531 205.766 105.378 205.56 105.164 205.414C104.956 205.268 104.703 205.195 104.406 205.195C104.026 205.195 103.685 205.299 103.383 205.508C103.081 205.716 102.872 205.992 102.758 206.336C102.648 206.68 102.594 207.315 102.594 208.242V212H100.398V203.703H102.438V204.922C103.161 203.984 104.073 203.516 105.172 203.516C105.656 203.516 106.099 203.604 106.5 203.781C106.901 203.953 107.203 204.174 107.406 204.445C107.615 204.716 107.758 205.023 107.836 205.367C107.919 205.711 107.961 206.203 107.961 206.844V212ZM109.422 209.633L111.625 209.297C111.719 209.724 111.909 210.049 112.195 210.273C112.482 210.492 112.883 210.602 113.398 210.602C113.966 210.602 114.393 210.497 114.68 210.289C114.872 210.143 114.969 209.948 114.969 209.703C114.969 209.536 114.917 209.398 114.812 209.289C114.703 209.185 114.458 209.089 114.078 209C112.307 208.609 111.185 208.253 110.711 207.93C110.055 207.482 109.727 206.859 109.727 206.062C109.727 205.344 110.01 204.74 110.578 204.25C111.146 203.76 112.026 203.516 113.219 203.516C114.354 203.516 115.198 203.701 115.75 204.07C116.302 204.44 116.682 204.987 116.891 205.711L114.82 206.094C114.732 205.771 114.562 205.523 114.312 205.352C114.068 205.18 113.716 205.094 113.258 205.094C112.68 205.094 112.266 205.174 112.016 205.336C111.849 205.451 111.766 205.599 111.766 205.781C111.766 205.938 111.839 206.07 111.984 206.18C112.182 206.326 112.865 206.531 114.031 206.797C115.203 207.062 116.021 207.388 116.484 207.773C116.943 208.164 117.172 208.708 117.172 209.406C117.172 210.167 116.854 210.82 116.219 211.367C115.583 211.914 114.643 212.188 113.398 212.188C112.268 212.188 111.372 211.958 110.711 211.5C110.055 211.042 109.625 210.419 109.422 209.633ZM123.906 209.359L126.094 209.727C125.812 210.529 125.367 211.141 124.758 211.562C124.154 211.979 123.396 212.188 122.484 212.188C121.042 212.188 119.974 211.716 119.281 210.773C118.734 210.018 118.461 209.065 118.461 207.914C118.461 206.539 118.82 205.464 119.539 204.688C120.258 203.906 121.167 203.516 122.266 203.516C123.5 203.516 124.474 203.924 125.188 204.742C125.901 205.555 126.242 206.802 126.211 208.484H120.711C120.727 209.135 120.904 209.643 121.242 210.008C121.581 210.367 122.003 210.547 122.508 210.547C122.852 210.547 123.141 210.453 123.375 210.266C123.609 210.078 123.786 209.776 123.906 209.359ZM124.031 207.141C124.016 206.505 123.852 206.023 123.539 205.695C123.227 205.362 122.846 205.195 122.398 205.195C121.919 205.195 121.523 205.37 121.211 205.719C120.898 206.068 120.745 206.542 120.75 207.141H124.031Z" fill="black"/>
<path d="M64.9844 233.648V232.242C64.2812 232.154 63.7083 231.997 63.2656 231.773C62.8281 231.544 62.4479 231.177 62.125 230.672C61.8073 230.167 61.6224 229.549 61.5703 228.82L62.9844 228.555C63.0938 229.31 63.2865 229.865 63.5625 230.219C63.9583 230.719 64.4323 230.997 64.9844 231.055V226.578C64.4062 226.469 63.8151 226.245 63.2109 225.906C62.763 225.656 62.4167 225.31 62.1719 224.867C61.9323 224.424 61.8125 223.922 61.8125 223.359C61.8125 222.359 62.1667 221.549 62.875 220.93C63.349 220.513 64.0521 220.258 64.9844 220.164V219.492H65.8125V220.164C66.6302 220.242 67.2786 220.482 67.7578 220.883C68.3724 221.393 68.7422 222.094 68.8672 222.984L67.4141 223.203C67.3307 222.651 67.1562 222.229 66.8906 221.938C66.6302 221.641 66.2708 221.445 65.8125 221.352V225.406C66.5208 225.583 66.9896 225.721 67.2188 225.82C67.6562 226.013 68.013 226.247 68.2891 226.523C68.5651 226.799 68.776 227.128 68.9219 227.508C69.0729 227.888 69.1484 228.299 69.1484 228.742C69.1484 229.716 68.8385 230.529 68.2188 231.18C67.599 231.831 66.7969 232.18 65.8125 232.227V233.648H64.9844ZM64.9844 221.336C64.4375 221.419 64.0052 221.638 63.6875 221.992C63.375 222.346 63.2188 222.766 63.2188 223.25C63.2188 223.729 63.3516 224.13 63.6172 224.453C63.888 224.776 64.3438 225.034 64.9844 225.227V221.336ZM65.8125 231.055C66.3594 230.987 66.8099 230.75 67.1641 230.344C67.5234 229.938 67.7031 229.435 67.7031 228.836C67.7031 228.326 67.5755 227.917 67.3203 227.609C67.0703 227.297 66.5677 227.018 65.8125 226.773V231.055ZM80.3203 232H78.9141V223.039C78.5755 223.362 78.1302 223.685 77.5781 224.008C77.0312 224.331 76.5391 224.573 76.1016 224.734V223.375C76.888 223.005 77.5755 222.557 78.1641 222.031C78.7526 221.505 79.1693 220.995 79.4141 220.5H80.3203V232ZM83.9297 226.352C83.9297 224.997 84.0677 223.909 84.3438 223.086C84.625 222.258 85.0391 221.62 85.5859 221.172C86.138 220.724 86.8307 220.5 87.6641 220.5C88.2786 220.5 88.8177 220.625 89.2812 220.875C89.7448 221.12 90.1276 221.477 90.4297 221.945C90.7318 222.409 90.9688 222.977 91.1406 223.648C91.3125 224.315 91.3984 225.216 91.3984 226.352C91.3984 227.695 91.2604 228.781 90.9844 229.609C90.7083 230.432 90.2943 231.07 89.7422 231.523C89.1953 231.971 88.5026 232.195 87.6641 232.195C86.5599 232.195 85.6927 231.799 85.0625 231.008C84.3073 230.055 83.9297 228.503 83.9297 226.352ZM85.375 226.352C85.375 228.232 85.5938 229.484 86.0312 230.109C86.474 230.729 87.0182 231.039 87.6641 231.039C88.3099 231.039 88.8516 230.727 89.2891 230.102C89.7318 229.477 89.9531 228.227 89.9531 226.352C89.9531 224.466 89.7318 223.214 89.2891 222.594C88.8516 221.974 88.3047 221.664 87.6484 221.664C87.0026 221.664 86.487 221.938 86.1016 222.484C85.6172 223.182 85.375 224.471 85.375 226.352ZM93.625 232V230.398H95.2266V232H93.625ZM97.2891 226.352C97.2891 224.997 97.4271 223.909 97.7031 223.086C97.9844 222.258 98.3984 221.62 98.9453 221.172C99.4974 220.724 100.19 220.5 101.023 220.5C101.638 220.5 102.177 220.625 102.641 220.875C103.104 221.12 103.487 221.477 103.789 221.945C104.091 222.409 104.328 222.977 104.5 223.648C104.672 224.315 104.758 225.216 104.758 226.352C104.758 227.695 104.62 228.781 104.344 229.609C104.068 230.432 103.654 231.07 103.102 231.523C102.555 231.971 101.862 232.195 101.023 232.195C99.9193 232.195 99.0521 231.799 98.4219 231.008C97.6667 230.055 97.2891 228.503 97.2891 226.352ZM98.7344 226.352C98.7344 228.232 98.9531 229.484 99.3906 230.109C99.8333 230.729 100.378 231.039 101.023 231.039C101.669 231.039 102.211 230.727 102.648 230.102C103.091 229.477 103.312 228.227 103.312 226.352C103.312 224.466 103.091 223.214 102.648 222.594C102.211 221.974 101.664 221.664 101.008 221.664C100.362 221.664 99.8464 221.938 99.4609 222.484C98.9766 223.182 98.7344 224.471 98.7344 226.352ZM106.195 226.352C106.195 224.997 106.333 223.909 106.609 223.086C106.891 222.258 107.305 221.62 107.852 221.172C108.404 220.724 109.096 220.5 109.93 220.5C110.544 220.5 111.083 220.625 111.547 220.875C112.01 221.12 112.393 221.477 112.695 221.945C112.997 222.409 113.234 222.977 113.406 223.648C113.578 224.315 113.664 225.216 113.664 226.352C113.664 227.695 113.526 228.781 113.25 229.609C112.974 230.432 112.56 231.07 112.008 231.523C111.461 231.971 110.768 232.195 109.93 232.195C108.826 232.195 107.958 231.799 107.328 231.008C106.573 230.055 106.195 228.503 106.195 226.352ZM107.641 226.352C107.641 228.232 107.859 229.484 108.297 230.109C108.74 230.729 109.284 231.039 109.93 231.039C110.576 231.039 111.117 230.727 111.555 230.102C111.997 229.477 112.219 228.227 112.219 226.352C112.219 224.466 111.997 223.214 111.555 222.594C111.117 221.974 110.57 221.664 109.914 221.664C109.268 221.664 108.753 221.938 108.367 222.484C107.883 223.182 107.641 224.471 107.641 226.352Z" fill="black"/>
<line x1="-3" y1="105.75" x2="229" y2="105.75" stroke="white" stroke-opacity="0.2" stroke-width="0.5"/>
</g>
<defs>
<filter id="filter0_f_0_1455" x="-259" y="-270" width="602" height="796" filterUnits="userSpaceOnUse" color-interpolation-filters="sRGB">
<feFlood flood-opacity="0" result="BackgroundImageFix"/>
<feBlend mode="normal" in="SourceGraphic" in2="BackgroundImageFix" result="shape"/>
<feGaussianBlur stdDeviation="125" result="effect1_foregroundBlur_0_1455"/>
</filter>
<clipPath id="clip0_0_1455">
<rect width="229" height="265" rx="7" fill="white"/>
</clipPath>
<clipPath id="clip1_0_1455">
<rect width="20" height="20" fill="white" transform="translate(32 131)"/>
</clipPath>
<clipPath id="clip2_0_1455">
<rect width="20" height="20" fill="white" transform="translate(32 197)"/>
</clipPath>
</defs>
</svg>
