<svg width="21" height="23" viewBox="0 0 21 23" fill="none" xmlns="http://www.w3.org/2000/svg">
<g clip-path="url(#clip0_805_614)">
<mask id="mask0_805_614" style="mask-type:luminance" maskUnits="userSpaceOnUse" x="0" y="2" width="21" height="21">
<path d="M20.1152 2.26562H0.115234V22.2656H20.1152V2.26562Z" fill="white"/>
</mask>
<g mask="url(#mask0_805_614)">
<path d="M11.873 12.2656C11.873 13.2364 11.086 14.0234 10.1152 14.0234C9.14447 14.0234 8.35742 13.2364 8.35742 12.2656C8.35742 11.2949 9.14447 10.5078 10.1152 10.5078C11.086 10.5078 11.873 11.2949 11.873 12.2656Z" fill="white"/>
<path d="M13.084 6.95312H7.14648C5.85406 6.95312 4.80273 8.00445 4.80273 9.29688V15.2344C4.80273 16.5268 5.85406 17.5781 7.14648 17.5781H13.084C14.3764 17.5781 15.4277 16.5268 15.4277 15.2344V9.29688C15.4277 8.00445 14.3764 6.95312 13.084 6.95312ZM10.1152 15.1953C8.49978 15.1953 7.18554 13.881 7.18554 12.2656C7.18554 10.6502 8.49978 9.33594 10.1152 9.33594C11.7306 9.33594 13.0449 10.6502 13.0449 12.2656C13.0449 13.881 11.7306 15.1953 10.1152 15.1953ZM13.4746 9.49219C13.1509 9.49219 12.8886 9.22989 12.8886 8.90625C12.8886 8.58262 13.1509 8.32031 13.4746 8.32031C13.7982 8.32031 14.0605 8.58262 14.0605 8.90625C14.0605 9.22989 13.7982 9.49219 13.4746 9.49219Z" fill="white"/>
<path d="M14.8418 2.26562H5.38867C2.48095 2.26562 0.115234 4.63134 0.115234 7.53906V16.9922C0.115234 19.8999 2.48095 22.2656 5.38867 22.2656H14.8418C17.7495 22.2656 20.1152 19.8999 20.1152 16.9922V7.53906C20.1152 4.63134 17.7495 2.26562 14.8418 2.26562ZM16.5996 15.2344C16.5996 17.1728 15.0224 18.75 13.084 18.75H7.14648C5.208 18.75 3.63085 17.1728 3.63085 15.2344V9.29688C3.63085 7.3584 5.208 5.78124 7.14648 5.78124H13.084C15.0224 5.78124 16.5996 7.3584 16.5996 9.29688V15.2344Z" fill="white"/>
</g>
</g>
<defs>
<clipPath id="clip0_805_614">
<rect width="20" height="20" fill="white" transform="translate(0.115234 2.26562)"/>
</clipPath>
</defs>
</svg>
