<svg width="20" height="21" viewBox="0 0 20 21" fill="none" xmlns="http://www.w3.org/2000/svg">
<g clip-path="url(#clip0_0_538)">
<mask id="mask0_0_538" style="mask-type:luminance" maskUnits="userSpaceOnUse" x="0" y="0" width="20" height="21">
<path d="M20 0.139893H0V20.1399H20V0.139893Z" fill="white"/>
</mask>
<g mask="url(#mask0_0_538)">
<path d="M11.7578 10.1399C11.7578 11.1107 10.9708 11.8977 10 11.8977C9.02924 11.8977 8.24219 11.1107 8.24219 10.1399C8.24219 9.16913 9.02924 8.38208 10 8.38208C10.9708 8.38208 11.7578 9.16913 11.7578 10.1399Z" fill="white"/>
<path d="M12.9688 4.82739H7.03125C5.73883 4.82739 4.6875 5.87872 4.6875 7.17114V13.1087C4.6875 14.4011 5.73883 15.4524 7.03125 15.4524H12.9688C14.2612 15.4524 15.3125 14.4011 15.3125 13.1087V7.17114C15.3125 5.87872 14.2612 4.82739 12.9688 4.82739ZM10 13.0696C8.38455 13.0696 7.07031 11.7553 7.07031 10.1399C7.07031 8.52444 8.38455 7.2102 10 7.2102C11.6154 7.2102 12.9297 8.52444 12.9297 10.1399C12.9297 11.7553 11.6154 13.0696 10 13.0696ZM13.3594 7.36645C13.0357 7.36645 12.7734 7.10415 12.7734 6.78051C12.7734 6.45688 13.0357 6.19458 13.3594 6.19458C13.683 6.19458 13.9453 6.45688 13.9453 6.78051C13.9453 7.10415 13.683 7.36645 13.3594 7.36645Z" fill="white"/>
<path d="M14.7266 0.139893H5.27344C2.36572 0.139893 0 2.50561 0 5.41333V14.8665C0 17.7742 2.36572 20.1399 5.27344 20.1399H14.7266C17.6343 20.1399 20 17.7742 20 14.8665V5.41333C20 2.50561 17.6343 0.139893 14.7266 0.139893ZM16.4844 13.1087C16.4844 15.0471 14.9072 16.6243 12.9688 16.6243H7.03125C5.09277 16.6243 3.51562 15.0471 3.51562 13.1087V7.17114C3.51562 5.23266 5.09277 3.65551 7.03125 3.65551H12.9688C14.9072 3.65551 16.4844 5.23266 16.4844 7.17114V13.1087Z" fill="white"/>
</g>
</g>
<defs>
<clipPath id="clip0_0_538">
<rect width="20" height="20" fill="white" transform="translate(0 0.139893)"/>
</clipPath>
</defs>
</svg>
