<svg width="20" height="21" viewBox="0 0 20 21" fill="none" xmlns="http://www.w3.org/2000/svg">
<g clip-path="url(#clip0_0_548)">
<mask id="mask0_0_548" style="mask-type:luminance" maskUnits="userSpaceOnUse" x="0" y="0" width="20" height="21">
<path d="M20 0.139893H0V20.1399H20V0.139893Z" fill="white"/>
</mask>
<g mask="url(#mask0_0_548)">
<path d="M17.2727 0.139893H2.72727C2.00396 0.139893 1.31026 0.42723 0.7988 0.938693C0.287337 1.45015 0 2.14385 0 2.86716V17.4126C0 18.1359 0.287337 18.8296 0.7988 19.3411C1.31026 19.8526 2.00396 20.1399 2.72727 20.1399H17.2727C17.996 20.1399 18.6897 19.8526 19.2012 19.3411C19.7127 18.8296 20 18.1359 20 17.4126V2.86716C20 2.14385 19.7127 1.45015 19.2012 0.938693C18.6897 0.42723 17.996 0.139893 17.2727 0.139893ZM6.81818 15.9672C6.81833 16.0226 6.80754 16.0776 6.78642 16.1289C6.7653 16.1801 6.73427 16.2267 6.6951 16.266C6.65594 16.3053 6.60941 16.3364 6.55819 16.3577C6.50697 16.379 6.45205 16.3899 6.39659 16.3899H4.6C4.54444 16.3901 4.48941 16.3792 4.43805 16.358C4.3867 16.3368 4.34004 16.3057 4.30075 16.2664C4.26147 16.2271 4.23034 16.1805 4.20915 16.1291C4.18795 16.0778 4.17712 16.0227 4.17727 15.9672V8.43534C4.17727 8.32323 4.22181 8.21571 4.30109 8.13643C4.38036 8.05715 4.48789 8.01262 4.6 8.01262H6.39659C6.50851 8.01292 6.61574 8.05759 6.69477 8.13683C6.7738 8.21608 6.81818 8.32343 6.81818 8.43534V15.9672ZM5.49773 7.29898C5.1606 7.29898 4.83104 7.19901 4.55073 7.01171C4.27042 6.82442 4.05195 6.5582 3.92293 6.24674C3.79392 5.93527 3.76016 5.59254 3.82593 5.2619C3.8917 4.93125 4.05405 4.62752 4.29243 4.38914C4.53082 4.15075 4.83454 3.98841 5.16519 3.92264C5.49584 3.85687 5.83856 3.89063 6.15003 4.01964C6.46149 4.14865 6.72771 4.36713 6.91501 4.64744C7.1023 4.92775 7.20227 5.25731 7.20227 5.59444C7.20227 6.04651 7.02269 6.48007 6.70302 6.79973C6.38336 7.1194 5.9498 7.29898 5.49773 7.29898ZM16.2091 15.9967C16.2092 16.0478 16.1993 16.0984 16.1798 16.1456C16.1603 16.1928 16.1317 16.2357 16.0956 16.2719C16.0595 16.308 16.0166 16.3366 15.9694 16.3561C15.9221 16.3756 15.8715 16.3855 15.8205 16.3854H13.8886C13.8376 16.3855 13.787 16.3756 13.7397 16.3561C13.6925 16.3366 13.6496 16.308 13.6135 16.2719C13.5774 16.2357 13.5488 16.1928 13.5293 16.1456C13.5098 16.0984 13.4999 16.0478 13.5 15.9967V12.4683C13.5 11.941 13.6545 10.1592 12.1216 10.1592C10.9341 10.1592 10.692 11.3785 10.6443 11.9263V16.0013C10.6443 16.1034 10.6042 16.2014 10.5325 16.2741C10.4608 16.3468 10.3634 16.3884 10.2614 16.3899H8.39545C8.34447 16.3899 8.29399 16.3798 8.2469 16.3603C8.19981 16.3407 8.15705 16.3121 8.12105 16.276C8.08505 16.2399 8.05653 16.197 8.03712 16.1499C8.01772 16.1028 8.00781 16.0522 8.00795 16.0013V8.40239C8.00781 8.35141 8.01772 8.3009 8.03712 8.25375C8.05653 8.20661 8.08505 8.16375 8.12105 8.12765C8.15705 8.09155 8.19981 8.0629 8.2469 8.04336C8.29399 8.02381 8.34447 8.01375 8.39545 8.01375H10.2614C10.3644 8.01375 10.4633 8.0547 10.5362 8.12758C10.6091 8.20047 10.65 8.29932 10.65 8.40239V9.05921C11.0909 8.39671 11.7443 7.88762 13.1386 7.88762C16.2273 7.88762 16.2068 10.7717 16.2068 12.3558L16.2091 15.9967Z" fill="white"/>
</g>
</g>
<defs>
<clipPath id="clip0_0_548">
<rect width="20" height="20" fill="white" transform="translate(0 0.139893)"/>
</clipPath>
</defs>
</svg>
