<svg width="21" height="21" viewBox="0 0 21 21" fill="none" xmlns="http://www.w3.org/2000/svg">
<g clip-path="url(#clip0_805_625)">
<mask id="mask0_805_625" style="mask-type:luminance" maskUnits="userSpaceOnUse" x="0" y="0" width="21" height="21">
<path d="M20.1152 0.265625H0.115234V20.2656H20.1152V0.265625Z" fill="white"/>
</mask>
<g mask="url(#mask0_805_625)">
<path d="M17.3879 0.265625H2.8425C2.11919 0.265625 1.42549 0.552962 0.914034 1.06442C0.402571 1.57589 0.115234 2.26958 0.115234 2.99289V17.5383C0.115234 18.2616 0.402571 18.9553 0.914034 19.4668C1.42549 19.9783 2.11919 20.2656 2.8425 20.2656H17.3879C18.1112 20.2656 18.8049 19.9783 19.3164 19.4668C19.8279 18.9553 20.1152 18.2616 20.1152 17.5383V2.99289C20.1152 2.26958 19.8279 1.57589 19.3164 1.06442C18.8049 0.552962 18.1112 0.265625 17.3879 0.265625ZM6.93341 16.0929C6.93356 16.1483 6.92277 16.2033 6.90165 16.2546C6.88053 16.3058 6.8495 16.3524 6.81033 16.3917C6.77117 16.431 6.72464 16.4621 6.67342 16.4834C6.6222 16.5047 6.56728 16.5156 6.51182 16.5156H4.71523C4.65967 16.5158 4.60464 16.5049 4.55328 16.4837C4.50193 16.4625 4.45527 16.4314 4.41598 16.3921C4.3767 16.3528 4.34557 16.3062 4.32438 16.2548C4.30318 16.2035 4.29235 16.1484 4.2925 16.0929V8.56108C4.2925 8.44897 4.33704 8.34144 4.41632 8.26217C4.49559 8.18289 4.60312 8.13835 4.71523 8.13835H6.51182C6.62374 8.13865 6.73097 8.18333 6.81 8.26257C6.88903 8.34181 6.93341 8.44917 6.93341 8.56108V16.0929ZM5.61296 7.42472C5.27583 7.42472 4.94627 7.32475 4.66596 7.13744C4.38565 6.95015 4.16718 6.68394 4.03816 6.37248C3.90915 6.06101 3.87539 5.71828 3.94116 5.38764C4.00693 5.05699 4.16928 4.75325 4.40766 4.51487C4.64605 4.27648 4.94977 4.11414 5.28042 4.04837C5.61107 3.9826 5.95379 4.01637 6.26526 4.14538C6.57672 4.27438 6.84294 4.49286 7.03024 4.77317C7.21753 5.05348 7.3175 5.38304 7.3175 5.72017C7.3175 6.17225 7.13792 6.6058 6.81825 6.92547C6.49859 7.24514 6.06503 7.42472 5.61296 7.42472ZM16.3243 16.1224C16.3244 16.1735 16.3145 16.2241 16.295 16.2713C16.2755 16.3185 16.2469 16.3614 16.2108 16.3976C16.1747 16.4337 16.1318 16.4623 16.0846 16.4818C16.0373 16.5013 15.9867 16.5112 15.9357 16.5111H14.0038C13.9528 16.5112 13.9022 16.5013 13.8549 16.4818C13.8077 16.4623 13.7648 16.4337 13.7287 16.3976C13.6926 16.3614 13.664 16.3185 13.6445 16.2713C13.625 16.2241 13.6151 16.1735 13.6152 16.1224V12.594C13.6152 12.0667 13.7697 10.2849 12.2368 10.2849C11.0493 10.2849 10.8072 11.5042 10.7595 12.052V16.127C10.7595 16.2291 10.7194 16.3271 10.6477 16.3998C10.576 16.4725 10.4786 16.5141 10.3766 16.5156H8.51068C8.4597 16.5156 8.40922 16.5055 8.36213 16.486C8.31504 16.4664 8.27228 16.4378 8.23628 16.4017C8.20028 16.3656 8.17176 16.3227 8.15235 16.2756C8.13295 16.2285 8.12304 16.1779 8.12318 16.127V8.52812C8.12304 8.47715 8.13295 8.42663 8.15235 8.37949C8.17176 8.33235 8.20028 8.28948 8.23628 8.25339C8.27228 8.21729 8.31504 8.18863 8.36213 8.1691C8.40922 8.14955 8.4597 8.13948 8.51068 8.13948H10.3766C10.4796 8.13948 10.5785 8.18044 10.6514 8.25331C10.7243 8.32621 10.7652 8.42505 10.7652 8.52812V9.18495C11.2061 8.52244 11.8595 8.01335 13.2538 8.01335C16.3425 8.01335 16.322 10.8974 16.322 12.4815L16.3243 16.1224Z" fill="white"/>
</g>
</g>
<defs>
<clipPath id="clip0_805_625">
<rect width="20" height="20" fill="white" transform="translate(0.115234 0.265625)"/>
</clipPath>
</defs>
</svg>
