<svg width="250" height="215" viewBox="0 0 250 215" fill="none" xmlns="http://www.w3.org/2000/svg">
<g clip-path="url(#clip0_15_93)">
<rect width="250" height="215" rx="7" fill="white"/>
<rect width="250" height="215" rx="7" fill="url(#paint0_linear_15_93)" fill-opacity="0.3"/>
<rect width="250" height="215" rx="7" fill="url(#paint1_radial_15_93)" fill-opacity="0.2"/>
<circle cx="61.5" cy="61.5" r="31.5" fill="#F3F1F4"/>
<path d="M56.6381 59.2826C60.8555 59.2826 64.2763 55.8619 64.2763 51.6445C64.2763 47.427 60.8555 44 56.6381 44C52.4207 44 49 47.4207 49 51.6381C49 55.8555 52.4207 59.2826 56.6381 59.2826ZM53.9698 54.6605C54.0394 54.4076 54.1089 54.161 54.1848 53.9081C54.2733 53.6172 54.3555 53.5856 54.6211 53.7247C55.0764 53.9587 55.5569 54.0914 56.0627 54.1547C56.3852 54.1926 56.7077 54.161 57.0049 54.0282C57.5676 53.7816 57.6561 53.1303 57.1819 52.7383C57.0175 52.6055 56.8341 52.5044 56.6445 52.4222C56.1513 52.2072 55.6391 52.0428 55.1712 51.7646C54.4188 51.3157 53.9382 50.6897 53.9951 49.7729C54.0584 48.7359 54.6464 48.0846 55.5948 47.7432C55.9869 47.5978 55.9869 47.6041 55.9932 47.1931C55.9932 47.054 55.9932 46.9149 55.9932 46.7758C55.9995 46.466 56.0564 46.4154 56.3599 46.4027C56.4548 46.4027 56.5496 46.4027 56.6445 46.4027C57.302 46.4027 57.302 46.4027 57.302 47.0603C57.302 47.5219 57.302 47.5282 57.7636 47.5978C58.1177 47.6547 58.4528 47.7558 58.7816 47.9013C58.965 47.9835 59.0282 48.1099 58.9776 48.2996C58.8954 48.5841 58.8196 48.8687 58.7247 49.1469C58.6362 49.4125 58.554 49.4504 58.3011 49.3303C57.7889 49.0837 57.2515 48.9762 56.6824 49.0078C56.5306 49.0141 56.3915 49.0331 56.2524 49.0963C55.7656 49.3113 55.6834 49.8487 56.1007 50.1839C56.3093 50.3546 56.5496 50.4747 56.8025 50.5759C57.2325 50.7529 57.6688 50.93 58.0861 51.1576C59.3949 51.8847 59.749 53.5287 58.8259 54.6479C58.4908 55.0525 58.0608 55.3244 57.5486 55.4635C57.3273 55.5268 57.2262 55.6406 57.2388 55.8682C57.2515 56.0958 57.2388 56.3171 57.2388 56.5447C57.2388 56.7471 57.1376 56.8546 56.9353 56.8609C56.695 56.8672 56.4484 56.8672 56.2082 56.8609C55.9932 56.8546 55.892 56.7344 55.892 56.5258C55.892 56.3614 55.892 56.197 55.8857 56.0326C55.8794 55.6722 55.8731 55.6532 55.519 55.5963C55.07 55.5267 54.6338 55.4256 54.2228 55.2232C53.9129 55.0778 53.8813 54.9956 53.9698 54.6605Z" fill="url(#paint2_linear_15_93)"/>
<path d="M73.7733 59.9212H72.8817C72.2937 58.1191 71.1429 56.5194 69.6065 55.2801C69.6065 55.2232 69.5938 55.16 69.5812 55.1031C69.2587 53.9713 69.657 52.9406 70.1186 52.2009C70.4411 51.6824 70.0238 51.0185 69.4168 51.0943C68.0573 51.2651 67.1215 51.7646 66.4766 52.3273C66.034 52.713 65.7178 53.2315 65.5787 53.8069C64.605 57.8409 60.9693 60.8443 56.6381 60.8443C54.5325 60.8443 52.5977 60.1362 51.0486 58.9475C50.5111 60.1109 50.2203 61.3818 50.2203 62.7159C50.2203 63.4368 50.3088 64.1386 50.4732 64.8152C50.4732 64.8152 50.4732 64.8278 50.4795 64.8468C50.6502 65.5486 50.9095 66.2252 51.2383 66.8638C51.6746 67.8059 52.3068 68.9061 53.1794 69.7976C54.4377 71.0939 54.6527 72.6999 54.6843 73.3954V73.6926C54.6843 73.7052 54.6843 73.7179 54.6843 73.7305C54.6843 73.7369 54.6843 73.7369 54.6843 73.7369C54.7096 74.0783 54.9941 74.3502 55.3419 74.3502H59.338C59.6984 74.3502 59.9956 74.0593 59.9956 73.6926V72.7062C60.5773 72.7821 61.1716 72.8263 61.7723 72.8263C62.2465 72.8263 62.7081 72.8011 63.1697 72.7505V73.6926C63.1697 74.053 63.4605 74.3502 63.8273 74.3502H67.836C68.1964 74.3502 68.4936 74.0593 68.4936 73.6926V72.7062C68.4999 72.3774 68.6138 71.0686 69.8531 69.9494C69.8973 69.9115 69.9416 69.8735 69.9858 69.8356C69.9985 69.8229 70.0111 69.8166 70.0238 69.804C71.4022 68.5773 72.4202 67.0472 72.945 65.34H73.7859C74.4562 65.34 74.9999 64.7962 74.9999 64.126V61.1352C74.9873 60.465 74.4435 59.9212 73.7733 59.9212ZM68.7718 60.1362C68.2217 60.1362 67.7791 59.6936 67.7791 59.1435C67.7791 58.5934 68.2217 58.1508 68.7718 58.1508C69.3219 58.1508 69.7645 58.5934 69.7645 59.1435C69.7645 59.6936 69.3219 60.1362 68.7718 60.1362Z" fill="url(#paint3_linear_15_93)"/>
<path d="M217.75 33.5C218.716 33.5 219.5 32.7165 219.5 31.75C219.5 30.7835 218.716 30 217.75 30C216.784 30 216 30.7835 216 31.75C216 32.7165 216.784 33.5 217.75 33.5Z" fill="#2E0068" fill-opacity="0.5"/>
<path d="M217.75 40.5C218.716 40.5 219.5 39.7165 219.5 38.75C219.5 37.7835 218.716 37 217.75 37C216.784 37 216 37.7835 216 38.75C216 39.7165 216.784 40.5 217.75 40.5Z" fill="#2E0068" fill-opacity="0.5"/>
<path d="M217.75 47.5C218.716 47.5 219.5 46.7165 219.5 45.75C219.5 44.7835 218.716 44 217.75 44C216.784 44 216 44.7835 216 45.75C216 46.7165 216.784 47.5 217.75 47.5Z" fill="#2E0068" fill-opacity="0.5"/>
<g filter="url(#filter0_f_15_93)">
<path d="M27.8922 236.555L28.0439 228.08L127.152 204.367L222.113 229.456L221.962 237.93L124.927 237.242L27.8922 236.555Z" fill="#50E5FA"/>
</g>
<path d="M27.5852 126.909H29.4773L33.9261 137.776H34.0795L38.5284 126.909H40.4205V140H38.9375V130.054H38.8097L34.7188 140H33.2869L29.196 130.054H29.0682V140H27.5852V126.909ZM47.383 140.205C46.4966 140.205 45.7189 139.994 45.0499 139.572C44.3851 139.15 43.8652 138.56 43.4902 137.801C43.1195 137.043 42.9341 136.156 42.9341 135.142C42.9341 134.119 43.1195 133.227 43.4902 132.464C43.8652 131.701 44.3851 131.109 45.0499 130.687C45.7189 130.265 46.4966 130.054 47.383 130.054C48.2694 130.054 49.0449 130.265 49.7097 130.687C50.3787 131.109 50.8986 131.701 51.2694 132.464C51.6444 133.227 51.8319 134.119 51.8319 135.142C51.8319 136.156 51.6444 137.043 51.2694 137.801C50.8986 138.56 50.3787 139.15 49.7097 139.572C49.0449 139.994 48.2694 140.205 47.383 140.205ZM47.383 138.849C48.0563 138.849 48.6103 138.677 49.0449 138.332C49.4796 137.987 49.8013 137.533 50.0101 136.97C50.2189 136.408 50.3233 135.798 50.3233 135.142C50.3233 134.486 50.2189 133.874 50.0101 133.308C49.8013 132.741 49.4796 132.283 49.0449 131.933C48.6103 131.584 48.0563 131.409 47.383 131.409C46.7097 131.409 46.1557 131.584 45.7211 131.933C45.2864 132.283 44.9647 132.741 44.7559 133.308C44.5471 133.874 44.4426 134.486 44.4426 135.142C44.4426 135.798 44.5471 136.408 44.7559 136.97C44.9647 137.533 45.2864 137.987 45.7211 138.332C46.1557 138.677 46.7097 138.849 47.383 138.849ZM55.6431 134.094V140H54.1346V130.182H55.592V131.716H55.7198C55.9499 131.217 56.2994 130.817 56.7681 130.514C57.2369 130.207 57.842 130.054 58.5835 130.054C59.2482 130.054 59.8299 130.19 60.3285 130.463C60.8271 130.732 61.2148 131.141 61.4918 131.69C61.7688 132.236 61.9073 132.926 61.9073 133.761V140H60.3988V133.864C60.3988 133.092 60.1985 132.491 59.7979 132.061C59.3974 131.626 58.8477 131.409 58.1488 131.409C57.6673 131.409 57.2369 131.513 56.8576 131.722C56.4826 131.931 56.1864 132.236 55.9691 132.636C55.7518 133.037 55.6431 133.523 55.6431 134.094ZM68.7804 140.205C67.8343 140.205 67.0183 139.996 66.3322 139.578C65.6504 139.156 65.1241 138.568 64.7534 137.814C64.3869 137.055 64.2037 136.173 64.2037 135.168C64.2037 134.162 64.3869 133.276 64.7534 132.509C65.1241 131.737 65.6397 131.136 66.3002 130.706C66.965 130.271 67.7406 130.054 68.627 130.054C69.1383 130.054 69.6433 130.139 70.1419 130.31C70.6404 130.48 71.0943 130.757 71.5034 131.141C71.9125 131.52 72.2385 132.023 72.4814 132.649C72.7243 133.276 72.8457 134.047 72.8457 134.963V135.602H65.2775V134.298H71.3116C71.3116 133.744 71.2008 133.25 70.9792 132.815C70.7619 132.381 70.4508 132.038 70.046 131.786C69.6454 131.535 69.1724 131.409 68.627 131.409C68.0261 131.409 67.5062 131.558 67.0673 131.857C66.6326 132.151 66.2981 132.534 66.0637 133.007C65.8294 133.48 65.7122 133.987 65.7122 134.528V135.398C65.7122 136.139 65.84 136.768 66.0957 137.283C66.3556 137.795 66.7157 138.185 67.176 138.453C67.6362 138.717 68.171 138.849 68.7804 138.849C69.1767 138.849 69.5346 138.794 69.8542 138.683C70.1781 138.568 70.4572 138.398 70.6916 138.172C70.926 137.942 71.1071 137.656 71.2349 137.315L72.6923 137.724C72.5389 138.219 72.2811 138.653 71.9189 139.028C71.5566 139.399 71.1092 139.689 70.5765 139.898C70.0439 140.102 69.4451 140.205 68.7804 140.205ZM75.8132 143.682C75.5575 143.682 75.3295 143.661 75.1293 143.618C74.929 143.58 74.7905 143.541 74.7138 143.503L75.0973 142.173C75.4638 142.267 75.7876 142.301 76.0689 142.276C76.3501 142.25 76.5994 142.124 76.8168 141.898C77.0384 141.677 77.2408 141.317 77.424 140.818L77.7053 140.051L74.0746 130.182H75.7109L78.4212 138.006H78.5234L81.2337 130.182H82.87L78.7024 141.432C78.5149 141.939 78.2827 142.359 78.0057 142.691C77.7287 143.028 77.407 143.277 77.0405 143.439C76.6783 143.601 76.2692 143.682 75.8132 143.682ZM96.8782 132.381L95.5231 132.764C95.4379 132.538 95.3121 132.319 95.146 132.106C94.984 131.888 94.7624 131.71 94.4812 131.569C94.1999 131.428 93.8398 131.358 93.4009 131.358C92.8001 131.358 92.2994 131.496 91.8988 131.773C91.5025 132.046 91.3043 132.393 91.3043 132.815C91.3043 133.19 91.4407 133.487 91.7134 133.704C91.9862 133.921 92.4123 134.102 92.9918 134.247L94.4492 134.605C95.3271 134.818 95.9812 135.144 96.4116 135.583C96.842 136.018 97.0572 136.578 97.0572 137.264C97.0572 137.827 96.8952 138.33 96.5714 138.773C96.2518 139.216 95.8043 139.565 95.229 139.821C94.6538 140.077 93.9847 140.205 93.2219 140.205C92.2205 140.205 91.3917 139.987 90.7354 139.553C90.0792 139.118 89.6637 138.483 89.489 137.648L90.9208 137.29C91.0572 137.818 91.315 138.214 91.6942 138.479C92.0778 138.743 92.5785 138.875 93.1964 138.875C93.8995 138.875 94.4577 138.726 94.8711 138.428C95.2887 138.125 95.4975 137.763 95.4975 137.341C95.4975 137 95.3782 136.714 95.1396 136.484C94.9009 136.25 94.5344 136.075 94.0401 135.96L92.4038 135.577C91.5046 135.364 90.8441 135.033 90.4222 134.586C90.0046 134.134 89.7958 133.57 89.7958 132.892C89.7958 132.338 89.9513 131.848 90.2624 131.422C90.5778 130.996 91.006 130.661 91.5472 130.418C92.0927 130.175 92.7106 130.054 93.4009 130.054C94.3725 130.054 95.1353 130.267 95.6893 130.693C96.2475 131.119 96.6438 131.682 96.8782 132.381ZM102.217 140.23C101.595 140.23 101.03 140.113 100.523 139.879C100.016 139.64 99.6135 139.297 99.3152 138.849C99.0169 138.398 98.8677 137.852 98.8677 137.213C98.8677 136.651 98.9785 136.195 99.2001 135.845C99.4217 135.491 99.7179 135.214 100.089 135.014C100.459 134.814 100.868 134.665 101.316 134.567C101.768 134.464 102.221 134.384 102.677 134.324C103.274 134.247 103.758 134.19 104.128 134.151C104.503 134.109 104.776 134.038 104.947 133.94C105.121 133.842 105.209 133.672 105.209 133.429V133.378C105.209 132.747 105.036 132.257 104.691 131.908C104.35 131.558 103.832 131.384 103.138 131.384C102.417 131.384 101.853 131.541 101.444 131.857C101.035 132.172 100.747 132.509 100.581 132.866L99.149 132.355C99.4047 131.759 99.7456 131.294 100.172 130.962C100.602 130.625 101.071 130.391 101.578 130.259C102.089 130.122 102.592 130.054 103.086 130.054C103.402 130.054 103.764 130.092 104.173 130.169C104.586 130.241 104.985 130.393 105.368 130.623C105.756 130.853 106.078 131.2 106.334 131.665C106.589 132.129 106.717 132.751 106.717 133.531V140H105.209V138.67H105.132C105.03 138.884 104.859 139.112 104.621 139.354C104.382 139.597 104.064 139.804 103.668 139.974C103.272 140.145 102.788 140.23 102.217 140.23ZM102.447 138.875C103.044 138.875 103.547 138.758 103.956 138.523C104.369 138.289 104.68 137.987 104.889 137.616C105.102 137.245 105.209 136.855 105.209 136.446V135.065C105.145 135.142 105.004 135.212 104.787 135.276C104.574 135.336 104.327 135.389 104.045 135.436C103.768 135.479 103.498 135.517 103.233 135.551C102.974 135.581 102.763 135.607 102.601 135.628C102.209 135.679 101.842 135.762 101.501 135.877C101.165 135.988 100.892 136.156 100.683 136.382C100.479 136.604 100.376 136.906 100.376 137.29C100.376 137.814 100.57 138.21 100.958 138.479C101.35 138.743 101.846 138.875 102.447 138.875ZM117.147 130.182L113.517 140H111.983L108.352 130.182H109.988L112.699 138.006H112.801L115.511 130.182H117.147ZM122.903 140.205C121.957 140.205 121.141 139.996 120.455 139.578C119.773 139.156 119.247 138.568 118.876 137.814C118.51 137.055 118.327 136.173 118.327 135.168C118.327 134.162 118.51 133.276 118.876 132.509C119.247 131.737 119.763 131.136 120.423 130.706C121.088 130.271 121.864 130.054 122.75 130.054C123.261 130.054 123.766 130.139 124.265 130.31C124.763 130.48 125.217 130.757 125.626 131.141C126.036 131.52 126.362 132.023 126.604 132.649C126.847 133.276 126.969 134.047 126.969 134.963V135.602H119.401V134.298H125.435C125.435 133.744 125.324 133.25 125.102 132.815C124.885 132.381 124.574 132.038 124.169 131.786C123.768 131.535 123.295 131.409 122.75 131.409C122.149 131.409 121.629 131.558 121.19 131.857C120.756 132.151 120.421 132.534 120.187 133.007C119.952 133.48 119.835 133.987 119.835 134.528V135.398C119.835 136.139 119.963 136.768 120.219 137.283C120.479 137.795 120.839 138.185 121.299 138.453C121.759 138.717 122.294 138.849 122.903 138.849C123.3 138.849 123.658 138.794 123.977 138.683C124.301 138.568 124.58 138.398 124.815 138.172C125.049 137.942 125.23 137.656 125.358 137.315L126.815 137.724C126.662 138.219 126.404 138.653 126.042 139.028C125.68 139.399 125.232 139.689 124.7 139.898C124.167 140.102 123.568 140.205 122.903 140.205ZM132.971 140.205C132.153 140.205 131.43 139.998 130.804 139.585C130.178 139.167 129.688 138.579 129.334 137.82C128.98 137.058 128.803 136.156 128.803 135.116C128.803 134.085 128.98 133.19 129.334 132.432C129.688 131.673 130.18 131.087 130.81 130.674C131.441 130.261 132.17 130.054 132.996 130.054C133.636 130.054 134.141 130.161 134.511 130.374C134.886 130.582 135.172 130.821 135.368 131.089C135.568 131.354 135.724 131.571 135.835 131.741H135.962V126.909H137.471V140H136.013V138.491H135.835C135.724 138.67 135.566 138.896 135.362 139.169C135.157 139.437 134.865 139.678 134.486 139.891C134.107 140.1 133.602 140.205 132.971 140.205ZM133.175 138.849C133.781 138.849 134.292 138.692 134.71 138.376C135.127 138.057 135.445 137.616 135.662 137.053C135.879 136.487 135.988 135.832 135.988 135.091C135.988 134.358 135.881 133.717 135.668 133.167C135.455 132.613 135.14 132.183 134.722 131.876C134.305 131.565 133.789 131.409 133.175 131.409C132.536 131.409 132.004 131.573 131.577 131.901C131.156 132.225 130.838 132.666 130.625 133.224C130.416 133.778 130.312 134.401 130.312 135.091C130.312 135.79 130.418 136.425 130.631 136.996C130.849 137.562 131.168 138.014 131.59 138.351C132.016 138.683 132.545 138.849 133.175 138.849Z" fill="#2E0068" fill-opacity="0.5"/>
<path d="M39.856 159.456C39.856 160.203 39.6107 160.8 39.12 161.248C38.6293 161.675 37.9893 161.824 37.2 161.696C37.2 160.48 36.944 159.584 36.432 159.008C35.92 158.411 35.1627 158.112 34.16 158.112C33.1787 158.112 32.432 158.347 31.92 158.816C31.4293 159.264 31.184 159.787 31.184 160.384C31.184 160.96 31.2587 161.419 31.408 161.76C31.5787 162.08 31.8987 162.389 32.368 162.688C33.008 163.115 34.16 163.701 35.824 164.448C37.5093 165.195 38.7253 165.952 39.472 166.72C40.24 167.467 40.624 168.619 40.624 170.176C40.624 171.733 40.1013 173.099 39.056 174.272C38.0107 175.424 36.6027 176.128 34.832 176.384L35.152 179.68C34.832 179.851 34.3413 179.936 33.68 179.936C33.0187 179.936 32.5493 179.851 32.272 179.68L32.56 176.448C31.152 176.32 29.9467 175.957 28.944 175.36C27.9413 174.741 27.44 173.888 27.44 172.8C27.44 172.032 27.6853 171.424 28.176 170.976C28.6667 170.507 29.424 170.272 30.448 170.272C30.448 171.659 30.7253 172.651 31.28 173.248C31.856 173.824 32.7627 174.112 34 174.112C36.2827 174.112 37.424 173.28 37.424 171.616C37.424 170.549 37.0613 169.707 36.336 169.088C35.632 168.448 34.8107 167.936 33.872 167.552C32.9547 167.147 32.3573 166.88 32.08 166.752C31.8027 166.624 31.3973 166.421 30.864 166.144C30.3307 165.867 29.936 165.611 29.68 165.376C29.4453 165.12 29.1787 164.821 28.88 164.48C28.3253 163.819 28.048 162.955 28.048 161.888C28.048 160.352 28.464 159.104 29.296 158.144C30.128 157.184 31.2267 156.523 32.592 156.16L32.272 152.704C32.5493 152.533 33.0187 152.448 33.68 152.448C34.3413 152.448 34.832 152.533 35.152 152.704L34.864 155.872C36.144 155.872 37.296 156.16 38.32 156.736C39.344 157.291 39.856 158.197 39.856 159.456ZM49.8385 163.616C51.6945 163.616 53.2412 164.096 54.4785 165.056C55.7372 166.016 56.3665 167.52 56.3665 169.568C56.3665 171.616 55.6305 173.28 54.1585 174.56C52.6865 175.84 50.8412 176.48 48.6225 176.48C47.0652 176.48 45.7958 176.171 44.8145 175.552C43.8332 174.933 43.3425 174.112 43.3425 173.088C43.3425 172.469 43.5345 171.979 43.9185 171.616C44.3025 171.232 44.7932 171.04 45.3905 171.04C45.7105 173.088 46.8092 174.112 48.6865 174.112C49.8172 174.112 50.7345 173.749 51.4385 173.024C52.1425 172.299 52.4945 171.349 52.4945 170.176C52.4945 169.003 52.1425 168.149 51.4385 167.616C50.7345 167.061 49.9132 166.784 48.9745 166.784C48.0358 166.784 46.8838 166.976 45.5185 167.36L45.0705 167.136L45.5185 156.16H55.1185L54.7985 159.2H47.7585L47.5665 163.84C48.3772 163.691 49.1345 163.616 49.8385 163.616ZM65.9883 158.4C63.3216 158.4 61.9883 161.099 61.9883 166.496C61.9883 169.184 62.3189 171.104 62.9803 172.256C63.6416 173.387 64.6336 173.952 65.9563 173.952C67.3003 173.952 68.2389 173.355 68.7723 172.16C69.3269 170.944 69.6043 168.992 69.6043 166.304C69.6043 163.616 69.3163 161.632 68.7403 160.352C68.1643 159.051 67.2469 158.4 65.9883 158.4ZM65.9243 155.84C70.8523 155.669 73.3162 159.093 73.3162 166.112C73.3162 169.483 72.6869 172.053 71.4283 173.824C70.1696 175.595 68.3136 176.48 65.8603 176.48C63.4069 176.48 61.5296 175.595 60.2283 173.824C58.9269 172.032 58.2763 169.525 58.2763 166.304C58.2763 163.061 58.9269 160.533 60.2283 158.72C61.5509 156.885 63.4496 155.925 65.9243 155.84ZM85.0615 176H76.0695V175.744C76.0695 174.848 76.3148 174.251 76.8055 173.952C76.9975 173.845 77.2215 173.792 77.4775 173.792L79.4295 173.728V160.16L77.5415 160.736C76.9655 160.928 76.4535 160.779 76.0055 160.288C75.5788 159.776 75.3762 159.36 75.3975 159.04L80.3895 156.224C80.8375 155.968 81.3708 155.84 81.9895 155.84C82.8428 155.84 83.2695 156.395 83.2695 157.504V173.664L86.5015 173.856C86.5655 173.984 86.5548 174.283 86.4695 174.752C86.2775 175.584 85.8082 176 85.0615 176ZM93.42 175.744C92.9293 176.235 92.332 176.48 91.628 176.48C90.924 176.48 90.3267 176.235 89.836 175.744C89.3453 175.253 89.1 174.656 89.1 173.952C89.1 173.248 89.3453 172.651 89.836 172.16C90.3267 171.669 90.924 171.424 91.628 171.424C92.332 171.424 92.9293 171.669 93.42 172.16C93.9107 172.651 94.156 173.248 94.156 173.952C94.156 174.656 93.9107 175.253 93.42 175.744ZM104.582 158.4C101.915 158.4 100.582 161.099 100.582 166.496C100.582 169.184 100.913 171.104 101.574 172.256C102.235 173.387 103.227 173.952 104.55 173.952C105.894 173.952 106.833 173.355 107.366 172.16C107.921 170.944 108.198 168.992 108.198 166.304C108.198 163.616 107.91 161.632 107.334 160.352C106.758 159.051 105.841 158.4 104.582 158.4ZM104.518 155.84C109.446 155.669 111.91 159.093 111.91 166.112C111.91 169.483 111.281 172.053 110.022 173.824C108.763 175.595 106.907 176.48 104.454 176.48C102.001 176.48 100.123 175.595 98.822 173.824C97.5207 172.032 96.87 169.525 96.87 166.304C96.87 163.061 97.5207 160.533 98.822 158.72C100.145 156.885 102.043 155.925 104.518 155.84ZM113.991 156.16H125.767C126.045 156.693 126.183 157.344 126.183 158.112L118.311 176.544L114.567 175.264L122.791 159.456H116.231L116.071 160.8C116.029 161.205 115.709 161.493 115.111 161.664C114.535 161.835 114.162 161.845 113.991 161.696V156.16ZM141.956 169.696V172.256H139.108V176L135.268 176.32V172.256H127.908C127.417 171.616 127.108 170.891 126.98 170.08L136.26 156.128C137.305 155.872 138.255 155.787 139.108 155.872V169.696H141.956ZM135.268 169.696V161.696L130.02 169.696H135.268Z" fill="#2E0068"/>
</g>
<defs>
<filter id="filter0_f_15_93" x="-2.10778" y="174.367" width="254.221" height="93.5635" filterUnits="userSpaceOnUse" color-interpolation-filters="sRGB">
<feFlood flood-opacity="0" result="BackgroundImageFix"/>
<feBlend mode="normal" in="SourceGraphic" in2="BackgroundImageFix" result="shape"/>
<feGaussianBlur stdDeviation="15" result="effect1_foregroundBlur_15_93"/>
</filter>
<linearGradient id="paint0_linear_15_93" x1="125" y1="0" x2="125" y2="172" gradientUnits="userSpaceOnUse">
<stop stop-color="white"/>
<stop offset="0.607301" stop-color="white" stop-opacity="0.25"/>
<stop offset="0.872267" stop-color="#2E0068" stop-opacity="0.65"/>
<stop offset="0.949479" stop-color="#2E0068" stop-opacity="0.94"/>
<stop offset="1" stop-color="#2E0068"/>
</linearGradient>
<radialGradient id="paint1_radial_15_93" cx="0" cy="0" r="1" gradientUnits="userSpaceOnUse" gradientTransform="translate(125 163.5) rotate(90) scale(51.5 59.8837)">
<stop stop-color="#2E0068" stop-opacity="0.5"/>
<stop offset="1" stop-opacity="0"/>
</radialGradient>
<linearGradient id="paint2_linear_15_93" x1="56.6381" y1="44" x2="56.6381" y2="59.2826" gradientUnits="userSpaceOnUse">
<stop stop-color="#2E0068"/>
<stop offset="1" stop-color="#50E5FA"/>
</linearGradient>
<linearGradient id="paint3_linear_15_93" x1="62.6101" y1="51.0884" x2="62.6101" y2="74.3502" gradientUnits="userSpaceOnUse">
<stop stop-color="#2E0068"/>
<stop offset="1" stop-color="#50E5FA"/>
</linearGradient>
<clipPath id="clip0_15_93">
<rect width="250" height="215" rx="7" fill="white"/>
</clipPath>
</defs>
</svg>
