<svg width="26" height="26" viewBox="0 0 26 26" fill="none" xmlns="http://www.w3.org/2000/svg">
<mask id="mask0_0_45" style="mask-type:luminance" maskUnits="userSpaceOnUse" x="0" y="0" width="26" height="26">
<path d="M25.9199 0.800049H0.919922V25.8H25.9199V0.800049Z" fill="white"/>
</mask>
<g mask="url(#mask0_0_45)">
<path d="M23.2189 25.8H3.62132C2.12942 25.8 0.919922 24.5905 0.919922 23.0986V3.50143C0.919922 2.00952 2.12942 0.800049 3.62132 0.800049H23.2189C24.7109 0.800049 25.9199 2.00952 25.9199 3.50143V23.0986C25.9199 24.5905 24.7109 25.8 23.2189 25.8Z" fill="#2E0068"/>
<path d="M7.562 10.3353C7.7837 10.058 7.93421 9.68554 7.89461 9.30493C7.56991 9.32108 7.1738 9.51909 6.9444 9.79669C6.7385 10.0344 6.5563 10.4224 6.6038 10.787C6.9681 10.8187 7.3322 10.6049 7.562 10.3353Z" fill="white"/>
<path d="M7.89042 10.8578C7.36122 10.8263 6.91132 11.1581 6.65862 11.1581C6.40572 11.1581 6.01872 10.8736 5.60012 10.8813C5.05532 10.8893 4.54982 11.1974 4.27342 11.6873C3.70472 12.6673 4.12332 14.1211 4.67622 14.9193C4.94482 15.3142 5.26842 15.7491 5.69482 15.7334C6.09772 15.7176 6.25572 15.4725 6.74542 15.4725C7.23482 15.4725 7.37702 15.7334 7.80352 15.7255C8.24592 15.7176 8.52232 15.3304 8.79092 14.9351C9.09892 14.485 9.22502 14.0503 9.23302 14.0264C9.22502 14.0185 8.38012 13.6944 8.37232 12.7225C8.36432 11.9087 9.03562 11.5216 9.06722 11.4976C8.68812 10.9369 8.09572 10.8737 7.89042 10.8578Z" fill="white"/>
<path d="M12.4978 9.75684C13.6488 9.75684 14.4488 10.5497 14.4488 11.704C14.4488 12.8624 13.6318 13.6594 12.4688 13.6594H11.1958V15.6846H10.2756V9.75684H12.4978ZM11.1958 12.8871H12.2518C13.0528 12.8871 13.5088 12.4558 13.5088 11.7081C13.5088 10.9605 13.0528 10.5333 12.2558 10.5333H11.1958V12.8871Z" fill="white"/>
<path d="M14.6899 14.4562C14.6899 13.7003 15.2689 13.2361 16.2959 13.1786L17.4789 13.1089V12.7761C17.4789 12.2955 17.1549 12.0079 16.6129 12.0079C16.0989 12.0079 15.7779 12.2544 15.6999 12.6406H14.8619C14.9119 11.86 15.5769 11.2849 16.6449 11.2849C17.6929 11.2849 18.3619 11.8394 18.3619 12.7062V15.6845H17.5119V14.9738H17.4919C17.2409 15.4544 16.6949 15.7584 16.1279 15.7584C15.2809 15.7584 14.6899 15.2326 14.6899 14.4562ZM17.4789 14.066V13.7251L16.4149 13.7908C15.8849 13.8278 15.5849 14.0619 15.5849 14.4316C15.5849 14.8095 15.8979 15.056 16.3739 15.056C16.9939 15.056 17.4789 14.6288 17.4789 14.066Z" fill="white"/>
<path d="M19.166 17.2748V16.5559C19.232 16.5723 19.379 16.5723 19.453 16.5723C19.864 16.5723 20.086 16.3998 20.222 15.9561C20.222 15.9479 20.3 15.6932 20.3 15.6891L18.739 11.3633H19.7L20.793 14.8798H20.809L21.902 11.3633H22.839L21.22 15.9108C20.85 16.9584 20.423 17.2953 19.528 17.2953C19.453 17.2954 19.232 17.2871 19.166 17.2748Z" fill="white"/>
</g>
</svg>
