<svg width="326" height="323" viewBox="0 0 326 323" fill="none" xmlns="http://www.w3.org/2000/svg">
<g clip-path="url(#clip0_0_277)">
<rect width="326" height="323" rx="7" fill="white"/>
<g filter="url(#filter0_f_0_277)">
<rect x="-46" width="227" height="316" fill="#50E5FA"/>
</g>
<path d="M74.598 49V34.4545H79.7827C80.9143 34.4545 81.8518 34.6605 82.5952 35.0724C83.3385 35.4844 83.8949 36.0478 84.2642 36.7628C84.6335 37.473 84.8182 38.2732 84.8182 39.1634C84.8182 40.0582 84.6312 40.8632 84.2571 41.5781C83.8878 42.2884 83.3291 42.8518 82.581 43.2685C81.8376 43.6804 80.9025 43.8864 79.7756 43.8864H76.2102V42.0256H79.5767C80.2917 42.0256 80.8717 41.9025 81.3168 41.6562C81.7618 41.4053 82.0885 41.0644 82.2969 40.6335C82.5052 40.2027 82.6094 39.7126 82.6094 39.1634C82.6094 38.6141 82.5052 38.1264 82.2969 37.7003C82.0885 37.2741 81.7595 36.9403 81.3097 36.6989C80.8646 36.4574 80.2775 36.3366 79.5483 36.3366H76.7926V49H74.598ZM90.2976 49.2415C89.6063 49.2415 88.9813 49.1136 88.4226 48.858C87.8639 48.5975 87.4212 48.2211 87.0945 47.7287C86.7725 47.2363 86.6115 46.6326 86.6115 45.9176C86.6115 45.3021 86.7299 44.7955 86.9666 44.3977C87.2034 44 87.523 43.6851 87.9254 43.4531C88.3279 43.2211 88.7777 43.0459 89.2749 42.9276C89.772 42.8092 90.2786 42.7192 90.7947 42.6577C91.4482 42.5819 91.9785 42.5204 92.3857 42.473C92.7929 42.4209 93.0888 42.3381 93.2734 42.2244C93.4581 42.1108 93.5504 41.9261 93.5504 41.6705V41.6207C93.5504 41.0005 93.3752 40.5199 93.0249 40.179C92.6792 39.8381 92.1631 39.6676 91.4766 39.6676C90.7616 39.6676 90.1982 39.8262 89.7862 40.1435C89.379 40.456 89.0973 40.804 88.9411 41.1875L86.9453 40.733C87.1821 40.0701 87.5277 39.535 87.9822 39.1278C88.4415 38.7159 88.9695 38.4176 89.5661 38.233C90.1626 38.0436 90.79 37.9489 91.4482 37.9489C91.8838 37.9489 92.3454 38.0009 92.8331 38.1051C93.3255 38.2045 93.7848 38.3892 94.2109 38.6591C94.6418 38.929 94.9946 39.3149 95.2692 39.8168C95.5438 40.3139 95.6811 40.9602 95.6811 41.7557V49H93.6072V47.5085H93.522C93.3847 47.7831 93.1787 48.053 92.9041 48.3182C92.6295 48.5833 92.2768 48.8035 91.8459 48.9787C91.415 49.1539 90.8989 49.2415 90.2976 49.2415ZM90.7592 47.5369C91.3464 47.5369 91.8482 47.4209 92.2649 47.1889C92.6863 46.9569 93.0059 46.6539 93.2237 46.2798C93.4463 45.901 93.5575 45.4962 93.5575 45.0653V43.6591C93.4818 43.7348 93.335 43.8059 93.1172 43.8722C92.9041 43.9337 92.6603 43.9882 92.3857 44.0355C92.111 44.0781 91.8435 44.1184 91.5831 44.1562C91.3227 44.1894 91.1049 44.2178 90.9297 44.2415C90.5178 44.2936 90.1413 44.3812 89.8004 44.5043C89.4643 44.6274 89.1944 44.8049 88.9908 45.0369C88.7919 45.2642 88.6925 45.5672 88.6925 45.946C88.6925 46.4716 88.8866 46.8693 89.2749 47.1392C89.6631 47.4044 90.1579 47.5369 90.7592 47.5369ZM99.4613 53.0909C99.1441 53.0909 98.8552 53.0649 98.5948 53.0128C98.3344 52.9654 98.1403 52.9134 98.0124 52.8565L98.5238 51.1165C98.9121 51.2206 99.2577 51.2656 99.5607 51.2514C99.8638 51.2372 100.131 51.1236 100.363 50.9105C100.6 50.6974 100.808 50.3494 100.988 49.8665L101.251 49.142L97.2596 38.0909H99.5323L102.295 46.5568H102.409L105.172 38.0909H107.451L102.956 50.456C102.747 51.0241 102.482 51.5047 102.16 51.8977C101.838 52.2955 101.455 52.5938 101.01 52.7926C100.565 52.9915 100.048 53.0909 99.4613 53.0909ZM109.447 49V38.0909H111.485V39.8665H111.62C111.848 39.2652 112.219 38.7964 112.735 38.4602C113.252 38.1193 113.869 37.9489 114.589 37.9489C115.318 37.9489 115.929 38.1193 116.422 38.4602C116.919 38.8011 117.286 39.2699 117.522 39.8665H117.636C117.896 39.2841 118.311 38.8201 118.879 38.4744C119.447 38.1241 120.124 37.9489 120.91 37.9489C121.9 37.9489 122.707 38.259 123.332 38.8793C123.962 39.4995 124.277 40.4347 124.277 41.6847V49H122.153V41.8835C122.153 41.1449 121.952 40.6098 121.549 40.2784C121.147 39.947 120.666 39.7812 120.108 39.7812C119.416 39.7812 118.879 39.9943 118.495 40.4205C118.112 40.8419 117.92 41.384 117.92 42.0469V49H115.804V41.7486C115.804 41.1567 115.619 40.6809 115.25 40.321C114.88 39.9612 114.4 39.7812 113.808 39.7812C113.405 39.7812 113.034 39.8878 112.693 40.1009C112.357 40.3092 112.084 40.6004 111.876 40.9744C111.672 41.3485 111.571 41.7817 111.571 42.2741V49H109.447ZM131.825 49.2202C130.75 49.2202 129.824 48.9905 129.048 48.5312C128.276 48.0672 127.679 47.4162 127.258 46.5781C126.841 45.7353 126.633 44.7481 126.633 43.6165C126.633 42.4991 126.841 41.5142 127.258 40.6619C127.679 39.8097 128.266 39.1444 129.019 38.6662C129.777 38.188 130.662 37.9489 131.675 37.9489C132.291 37.9489 132.888 38.0507 133.465 38.2543C134.043 38.4579 134.561 38.7775 135.021 39.2131C135.48 39.6487 135.842 40.2145 136.107 40.9105C136.372 41.6018 136.505 42.4422 136.505 43.4318V44.1847H127.833V42.5938H134.424C134.424 42.035 134.31 41.5402 134.083 41.1094C133.856 40.6738 133.536 40.3305 133.124 40.0795C132.717 39.8286 132.239 39.7031 131.69 39.7031C131.093 39.7031 130.572 39.8499 130.127 40.1435C129.687 40.4323 129.346 40.8111 129.104 41.2798C128.868 41.7438 128.749 42.2481 128.749 42.7926V44.0355C128.749 44.7647 128.877 45.3849 129.133 45.8963C129.393 46.4077 129.755 46.7983 130.219 47.0682C130.683 47.3333 131.226 47.4659 131.846 47.4659C132.248 47.4659 132.615 47.4091 132.947 47.2955C133.278 47.1771 133.565 47.0019 133.806 46.7699C134.048 46.5379 134.232 46.2514 134.36 45.9105L136.37 46.2727C136.209 46.8646 135.92 47.383 135.504 47.8281C135.092 48.2685 134.573 48.6117 133.948 48.858C133.328 49.0994 132.62 49.2202 131.825 49.2202ZM140.985 42.5227V49H138.861V38.0909H140.9V39.8665H141.034C141.285 39.2888 141.678 38.8248 142.213 38.4744C142.753 38.1241 143.433 37.9489 144.252 37.9489C144.995 37.9489 145.646 38.1051 146.205 38.4176C146.764 38.7254 147.197 39.1847 147.505 39.7955C147.812 40.4062 147.966 41.1615 147.966 42.0611V49H145.843V42.3168C145.843 41.526 145.637 40.9081 145.225 40.4631C144.813 40.0133 144.247 39.7884 143.527 39.7884C143.035 39.7884 142.597 39.8949 142.213 40.108C141.835 40.321 141.534 40.6335 141.311 41.0455C141.094 41.4527 140.985 41.9451 140.985 42.5227ZM155.907 38.0909V39.7955H149.948V38.0909H155.907ZM151.546 35.4773H153.669V45.7969C153.669 46.2088 153.731 46.5189 153.854 46.7273C153.977 46.9309 154.136 47.0705 154.33 47.1463C154.529 47.2173 154.744 47.2528 154.976 47.2528C155.147 47.2528 155.296 47.241 155.424 47.2173C155.551 47.1937 155.651 47.1747 155.722 47.1605L156.105 48.9148C155.982 48.9621 155.807 49.0095 155.58 49.0568C155.353 49.1089 155.069 49.1373 154.728 49.142C154.169 49.1515 153.648 49.0521 153.165 48.8438C152.682 48.6354 152.292 48.3134 151.993 47.8778C151.695 47.4422 151.546 46.8954 151.546 46.2372V35.4773ZM171.652 38.2756C171.577 37.6032 171.264 37.0824 170.715 36.7131C170.166 36.339 169.474 36.152 168.641 36.152C168.044 36.152 167.528 36.2467 167.093 36.4361C166.657 36.6207 166.319 36.8764 166.077 37.2031C165.84 37.5251 165.722 37.892 165.722 38.304C165.722 38.6496 165.802 38.9479 165.963 39.1989C166.129 39.4498 166.345 39.6605 166.61 39.831C166.88 39.9967 167.168 40.1364 167.476 40.25C167.784 40.3589 168.08 40.4489 168.364 40.5199L169.784 40.8892C170.248 41.0028 170.724 41.1567 171.212 41.3509C171.7 41.545 172.152 41.8007 172.569 42.1179C172.985 42.4351 173.321 42.8281 173.577 43.2969C173.837 43.7656 173.968 44.3267 173.968 44.9801C173.968 45.804 173.755 46.5355 173.328 47.1747C172.907 47.8139 172.294 48.3182 171.489 48.6875C170.689 49.0568 169.721 49.2415 168.584 49.2415C167.495 49.2415 166.553 49.0687 165.757 48.723C164.962 48.3774 164.339 47.8873 163.89 47.2528C163.44 46.6136 163.191 45.8561 163.144 44.9801H165.346C165.388 45.5057 165.559 45.9437 165.857 46.294C166.16 46.6397 166.546 46.8977 167.015 47.0682C167.488 47.2339 168.007 47.3168 168.57 47.3168C169.19 47.3168 169.742 47.2197 170.225 47.0256C170.712 46.8267 171.096 46.5521 171.375 46.2017C171.655 45.8466 171.794 45.4323 171.794 44.9588C171.794 44.5279 171.671 44.1752 171.425 43.9006C171.184 43.6259 170.855 43.3987 170.438 43.2188C170.026 43.0388 169.56 42.8802 169.039 42.7429L167.32 42.2741C166.155 41.9569 165.232 41.4905 164.55 40.875C163.873 40.2595 163.534 39.4451 163.534 38.4318C163.534 37.5937 163.762 36.8622 164.216 36.2372C164.671 35.6122 165.286 35.1269 166.063 34.7812C166.839 34.4309 167.715 34.2557 168.691 34.2557C169.676 34.2557 170.544 34.4285 171.297 34.7741C172.055 35.1198 172.651 35.5956 173.087 36.2017C173.523 36.803 173.75 37.4943 173.769 38.2756H171.652ZM183.33 44.4759V38.0909H185.461V49H183.373V47.1108H183.259C183.008 47.6932 182.606 48.1785 182.052 48.5668C181.503 48.9503 180.818 49.142 179.999 49.142C179.299 49.142 178.678 48.9882 178.138 48.6804C177.603 48.3679 177.182 47.9062 176.874 47.2955C176.571 46.6847 176.42 45.9295 176.42 45.0298V38.0909H178.543V44.7741C178.543 45.5175 178.749 46.1094 179.161 46.5497C179.573 46.9901 180.108 47.2102 180.766 47.2102C181.164 47.2102 181.559 47.1108 181.952 46.9119C182.35 46.7131 182.679 46.4124 182.94 46.0099C183.205 45.6075 183.335 45.0961 183.33 44.4759ZM188.314 49V38.0909H190.353V39.8665H190.488C190.715 39.2652 191.087 38.7964 191.603 38.4602C192.119 38.1193 192.737 37.9489 193.456 37.9489C194.185 37.9489 194.796 38.1193 195.289 38.4602C195.786 38.8011 196.153 39.2699 196.39 39.8665H196.503C196.764 39.2841 197.178 38.8201 197.746 38.4744C198.314 38.1241 198.991 37.9489 199.777 37.9489C200.767 37.9489 201.574 38.259 202.199 38.8793C202.829 39.4995 203.144 40.4347 203.144 41.6847V49H201.02V41.8835C201.02 41.1449 200.819 40.6098 200.417 40.2784C200.014 39.947 199.533 39.7812 198.975 39.7812C198.283 39.7812 197.746 39.9943 197.363 40.4205C196.979 40.8419 196.787 41.384 196.787 42.0469V49H194.671V41.7486C194.671 41.1567 194.486 40.6809 194.117 40.321C193.748 39.9612 193.267 39.7812 192.675 39.7812C192.273 39.7812 191.901 39.8878 191.56 40.1009C191.224 40.3092 190.952 40.6004 190.743 40.9744C190.54 41.3485 190.438 41.7817 190.438 42.2741V49H188.314ZM205.99 49V38.0909H208.028V39.8665H208.163C208.391 39.2652 208.762 38.7964 209.278 38.4602C209.795 38.1193 210.412 37.9489 211.132 37.9489C211.861 37.9489 212.472 38.1193 212.964 38.4602C213.462 38.8011 213.829 39.2699 214.065 39.8665H214.179C214.439 39.2841 214.854 38.8201 215.422 38.4744C215.99 38.1241 216.667 37.9489 217.453 37.9489C218.443 37.9489 219.25 38.259 219.875 38.8793C220.505 39.4995 220.82 40.4347 220.82 41.6847V49H218.696V41.8835C218.696 41.1449 218.495 40.6098 218.092 40.2784C217.69 39.947 217.209 39.7812 216.651 39.7812C215.959 39.7812 215.422 39.9943 215.038 40.4205C214.655 40.8419 214.463 41.384 214.463 42.0469V49H212.347V41.7486C212.347 41.1567 212.162 40.6809 211.793 40.321C211.423 39.9612 210.943 39.7812 210.351 39.7812C209.948 39.7812 209.577 39.8878 209.236 40.1009C208.9 40.3092 208.627 40.6004 208.419 40.9744C208.215 41.3485 208.114 41.7817 208.114 42.2741V49H205.99ZM226.841 49.2415C226.149 49.2415 225.524 49.1136 224.966 48.858C224.407 48.5975 223.964 48.2211 223.637 47.7287C223.315 47.2363 223.154 46.6326 223.154 45.9176C223.154 45.3021 223.273 44.7955 223.51 44.3977C223.746 44 224.066 43.6851 224.468 43.4531C224.871 43.2211 225.321 43.0459 225.818 42.9276C226.315 42.8092 226.822 42.7192 227.338 42.6577C227.991 42.5819 228.521 42.5204 228.929 42.473C229.336 42.4209 229.632 42.3381 229.816 42.2244C230.001 42.1108 230.093 41.9261 230.093 41.6705V41.6207C230.093 41.0005 229.918 40.5199 229.568 40.179C229.222 39.8381 228.706 39.6676 228.02 39.6676C227.305 39.6676 226.741 39.8262 226.329 40.1435C225.922 40.456 225.64 40.804 225.484 41.1875L223.488 40.733C223.725 40.0701 224.071 39.535 224.525 39.1278C224.984 38.7159 225.512 38.4176 226.109 38.233C226.706 38.0436 227.333 37.9489 227.991 37.9489C228.427 37.9489 228.888 38.0009 229.376 38.1051C229.868 38.2045 230.328 38.3892 230.754 38.6591C231.185 38.929 231.538 39.3149 231.812 39.8168C232.087 40.3139 232.224 40.9602 232.224 41.7557V49H230.15V47.5085H230.065C229.928 47.7831 229.722 48.053 229.447 48.3182C229.172 48.5833 228.82 48.8035 228.389 48.9787C227.958 49.1539 227.442 49.2415 226.841 49.2415ZM227.302 47.5369C227.889 47.5369 228.391 47.4209 228.808 47.1889C229.229 46.9569 229.549 46.6539 229.767 46.2798C229.989 45.901 230.1 45.4962 230.1 45.0653V43.6591C230.025 43.7348 229.878 43.8059 229.66 43.8722C229.447 43.9337 229.203 43.9882 228.929 44.0355C228.654 44.0781 228.386 44.1184 228.126 44.1562C227.866 44.1894 227.648 44.2178 227.473 44.2415C227.061 44.2936 226.684 44.3812 226.343 44.5043C226.007 44.6274 225.737 44.8049 225.534 45.0369C225.335 45.2642 225.235 45.5672 225.235 45.946C225.235 46.4716 225.43 46.8693 225.818 47.1392C226.206 47.4044 226.701 47.5369 227.302 47.5369ZM235.053 49V38.0909H237.105V39.8239H237.219C237.418 39.2367 237.768 38.7751 238.27 38.4389C238.777 38.098 239.349 37.9276 239.989 37.9276C240.121 37.9276 240.277 37.9323 240.457 37.9418C240.642 37.9512 240.786 37.9631 240.891 37.9773V40.0085C240.805 39.9848 240.654 39.9588 240.436 39.9304C240.218 39.8973 240 39.8807 239.783 39.8807C239.281 39.8807 238.833 39.9872 238.44 40.2003C238.052 40.4086 237.744 40.6998 237.517 41.0739C237.29 41.4432 237.176 41.8646 237.176 42.3381V49H235.053ZM244.403 53.0909C244.085 53.0909 243.797 53.0649 243.536 53.0128C243.276 52.9654 243.082 52.9134 242.954 52.8565L243.465 51.1165C243.853 51.2206 244.199 51.2656 244.502 51.2514C244.805 51.2372 245.073 51.1236 245.305 50.9105C245.541 50.6974 245.75 50.3494 245.93 49.8665L246.192 49.142L242.201 38.0909H244.474L247.237 46.5568H247.35L250.113 38.0909H252.393L247.897 50.456C247.689 51.0241 247.424 51.5047 247.102 51.8977C246.78 52.2955 246.396 52.5938 245.951 52.7926C245.506 52.9915 244.99 53.0909 244.403 53.0909Z" fill="black"/>
<path d="M31.233 109V98.8182H34.6733C35.4721 98.8182 36.125 98.9624 36.6321 99.2507C37.1425 99.5357 37.5204 99.9219 37.7656 100.409C38.0109 100.896 38.1335 101.44 38.1335 102.04C38.1335 102.64 38.0109 103.185 37.7656 103.675C37.5237 104.166 37.1491 104.557 36.642 104.849C36.1349 105.137 35.4853 105.281 34.6932 105.281H32.2273V104.188H34.6534C35.2003 104.188 35.6394 104.093 35.9709 103.904C36.3023 103.715 36.5426 103.46 36.6918 103.138C36.8442 102.814 36.9205 102.447 36.9205 102.04C36.9205 101.632 36.8442 101.268 36.6918 100.946C36.5426 100.625 36.3007 100.373 35.9659 100.19C35.6312 100.005 35.187 99.9119 34.6335 99.9119H32.4659V109H31.233ZM39.9606 109V101.364H41.0941V102.517H41.1737C41.3129 102.139 41.5647 101.833 41.9293 101.597C42.2939 101.362 42.7049 101.244 43.1623 101.244C43.2485 101.244 43.3562 101.246 43.4854 101.249C43.6147 101.253 43.7125 101.258 43.7788 101.264V102.457C43.739 102.447 43.6478 102.433 43.5053 102.413C43.3661 102.389 43.2186 102.378 43.0629 102.378C42.6916 102.378 42.3602 102.456 42.0685 102.612C41.7802 102.764 41.5515 102.976 41.3825 103.248C41.2167 103.516 41.1339 103.823 41.1339 104.168V109H39.9606ZM45.1696 109V101.364H46.3429V109H45.1696ZM45.7662 100.091C45.5375 100.091 45.3403 100.013 45.1745 99.8572C45.0121 99.7015 44.9309 99.5142 44.9309 99.2955C44.9309 99.0767 45.0121 98.8894 45.1745 98.7337C45.3403 98.5779 45.5375 98.5 45.7662 98.5C45.9949 98.5 46.1904 98.5779 46.3528 98.7337C46.5185 98.8894 46.6014 99.0767 46.6014 99.2955C46.6014 99.5142 46.5185 99.7015 46.3528 99.8572C46.1904 100.013 45.9949 100.091 45.7662 100.091ZM51.5941 109.159C50.8782 109.159 50.2617 108.99 49.7447 108.652C49.2276 108.314 48.8299 107.848 48.5515 107.255C48.2731 106.662 48.1339 105.984 48.1339 105.222C48.1339 104.446 48.2764 103.762 48.5614 103.168C48.8498 102.572 49.2508 102.106 49.7646 101.771C50.2816 101.433 50.8848 101.264 51.5742 101.264C52.1112 101.264 52.5951 101.364 53.0259 101.562C53.4568 101.761 53.8098 102.04 54.0849 102.398C54.36 102.756 54.5307 103.173 54.5969 103.651H53.4237C53.3342 103.303 53.1353 102.994 52.8271 102.726C52.5221 102.454 52.1112 102.318 51.5941 102.318C51.1367 102.318 50.7357 102.437 50.391 102.676C50.0496 102.911 49.7828 103.245 49.5906 103.675C49.4016 104.103 49.3072 104.605 49.3072 105.182C49.3072 105.772 49.4 106.286 49.5856 106.723C49.7745 107.161 50.0397 107.5 50.381 107.742C50.7257 107.984 51.1301 108.105 51.5941 108.105C51.899 108.105 52.1758 108.052 52.4244 107.946C52.6729 107.84 52.8834 107.688 53.0558 107.489C53.2281 107.29 53.3507 107.051 53.4237 106.773H54.5969C54.5307 107.223 54.3666 107.629 54.1048 107.991C53.8462 108.349 53.5032 108.634 53.0756 108.846C52.6514 109.055 52.1576 109.159 51.5941 109.159ZM59.5138 109.159C58.7781 109.159 58.1433 108.997 57.6097 108.672C57.0794 108.344 56.6701 107.886 56.3817 107.3C56.0967 106.71 55.9542 106.024 55.9542 105.241C55.9542 104.459 56.0967 103.77 56.3817 103.173C56.6701 102.573 57.0711 102.106 57.5849 101.771C58.1019 101.433 58.7051 101.264 59.3945 101.264C59.7923 101.264 60.185 101.33 60.5728 101.463C60.9606 101.596 61.3136 101.811 61.6317 102.109C61.9499 102.404 62.2035 102.795 62.3924 103.283C62.5813 103.77 62.6758 104.37 62.6758 105.082V105.58H56.7894V104.565H61.4826C61.4826 104.134 61.3964 103.75 61.2241 103.412C61.055 103.074 60.8131 102.807 60.4982 102.612C60.1867 102.416 59.8188 102.318 59.3945 102.318C58.9272 102.318 58.5228 102.434 58.1815 102.666C57.8434 102.895 57.5832 103.193 57.4009 103.561C57.2186 103.929 57.1275 104.323 57.1275 104.744V105.42C57.1275 105.997 57.2269 106.486 57.4258 106.887C57.628 107.285 57.908 107.588 58.266 107.797C58.6239 108.002 59.0399 108.105 59.5138 108.105C59.8221 108.105 60.1005 108.062 60.3491 107.976C60.601 107.886 60.8181 107.754 61.0004 107.578C61.1826 107.399 61.3235 107.177 61.4229 106.912L62.5565 107.23C62.4371 107.615 62.2366 107.953 61.9549 108.244C61.6732 108.533 61.3252 108.758 60.9109 108.92C60.4966 109.08 60.0309 109.159 59.5138 109.159Z" fill="black"/>
<path d="M240.236 109.139C239.652 109.139 239.127 109.023 238.66 108.791C238.192 108.559 237.818 108.241 237.536 107.837C237.254 107.432 237.1 106.972 237.074 106.455H238.267C238.313 106.915 238.522 107.296 238.893 107.598C239.268 107.896 239.715 108.045 240.236 108.045C240.653 108.045 241.025 107.948 241.349 107.752C241.678 107.557 241.934 107.288 242.12 106.947C242.309 106.602 242.403 106.213 242.403 105.778C242.403 105.334 242.306 104.938 242.11 104.59C241.918 104.239 241.653 103.962 241.315 103.76C240.977 103.558 240.59 103.455 240.156 103.452C239.845 103.448 239.525 103.496 239.197 103.596C238.869 103.692 238.598 103.816 238.386 103.969L237.233 103.83L237.849 98.8182H243.139V99.9119H238.884L238.526 102.915H238.585C238.794 102.749 239.056 102.612 239.371 102.502C239.686 102.393 240.014 102.338 240.355 102.338C240.978 102.338 241.533 102.487 242.021 102.786C242.511 103.08 242.896 103.485 243.174 103.999C243.456 104.512 243.597 105.099 243.597 105.759C243.597 106.408 243.451 106.988 243.159 107.499C242.871 108.006 242.473 108.407 241.966 108.702C241.459 108.993 240.882 109.139 240.236 109.139ZM248.893 109.139C248.144 109.139 247.506 108.935 246.979 108.528C246.452 108.117 246.049 107.522 245.77 106.743C245.492 105.961 245.353 105.016 245.353 103.909C245.353 102.809 245.492 101.869 245.77 101.09C246.052 100.308 246.456 99.7114 246.983 99.3004C247.514 98.8861 248.15 98.679 248.893 98.679C249.635 98.679 250.27 98.8861 250.797 99.3004C251.327 99.7114 251.731 100.308 252.01 101.09C252.291 101.869 252.432 102.809 252.432 103.909C252.432 105.016 252.293 105.961 252.015 106.743C251.736 107.522 251.334 108.117 250.807 108.528C250.28 108.935 249.642 109.139 248.893 109.139ZM248.893 108.045C249.635 108.045 250.212 107.687 250.623 106.972C251.034 106.256 251.239 105.235 251.239 103.909C251.239 103.027 251.145 102.277 250.956 101.657C250.77 101.037 250.502 100.565 250.15 100.24C249.802 99.9152 249.383 99.7528 248.893 99.7528C248.157 99.7528 247.582 100.116 247.167 100.842C246.753 101.564 246.546 102.587 246.546 103.909C246.546 104.791 246.639 105.54 246.824 106.156C247.01 106.773 247.277 107.242 247.625 107.563C247.976 107.885 248.399 108.045 248.893 108.045ZM257.643 109.139C256.894 109.139 256.256 108.935 255.729 108.528C255.202 108.117 254.799 107.522 254.52 106.743C254.242 105.961 254.103 105.016 254.103 103.909C254.103 102.809 254.242 101.869 254.52 101.09C254.802 100.308 255.206 99.7114 255.733 99.3004C256.264 98.8861 256.9 98.679 257.643 98.679C258.385 98.679 259.02 98.8861 259.547 99.3004C260.077 99.7114 260.481 100.308 260.76 101.09C261.041 101.869 261.182 102.809 261.182 103.909C261.182 105.016 261.043 105.961 260.765 106.743C260.486 107.522 260.084 108.117 259.557 108.528C259.03 108.935 258.392 109.139 257.643 109.139ZM257.643 108.045C258.385 108.045 258.962 107.687 259.373 106.972C259.784 106.256 259.989 105.235 259.989 103.909C259.989 103.027 259.895 102.277 259.706 101.657C259.52 101.037 259.252 100.565 258.9 100.24C258.552 99.9152 258.133 99.7528 257.643 99.7528C256.907 99.7528 256.332 100.116 255.917 100.842C255.503 101.564 255.296 102.587 255.296 103.909C255.296 104.791 255.389 105.54 255.574 106.156C255.76 106.773 256.027 107.242 256.375 107.563C256.726 107.885 257.149 108.045 257.643 108.045ZM263.591 109.08C263.346 109.08 263.135 108.992 262.96 108.816C262.784 108.64 262.696 108.43 262.696 108.185C262.696 107.939 262.784 107.729 262.96 107.553C263.135 107.378 263.346 107.29 263.591 107.29C263.836 107.29 264.047 107.378 264.222 107.553C264.398 107.729 264.486 107.939 264.486 108.185C264.486 108.347 264.445 108.496 264.362 108.632C264.282 108.768 264.174 108.877 264.039 108.96C263.906 109.04 263.757 109.08 263.591 109.08ZM269.537 109.139C268.788 109.139 268.15 108.935 267.623 108.528C267.096 108.117 266.693 107.522 266.415 106.743C266.137 105.961 265.997 105.016 265.997 103.909C265.997 102.809 266.137 101.869 266.415 101.09C266.697 100.308 267.101 99.7114 267.628 99.3004C268.158 98.8861 268.795 98.679 269.537 98.679C270.28 98.679 270.914 98.8861 271.441 99.3004C271.972 99.7114 272.376 100.308 272.654 101.09C272.936 101.869 273.077 102.809 273.077 103.909C273.077 105.016 272.938 105.961 272.659 106.743C272.381 107.522 271.978 108.117 271.451 108.528C270.924 108.935 270.286 109.139 269.537 109.139ZM269.537 108.045C270.28 108.045 270.856 107.687 271.267 106.972C271.678 106.256 271.884 105.235 271.884 103.909C271.884 103.027 271.789 102.277 271.6 101.657C271.415 101.037 271.146 100.565 270.795 100.24C270.447 99.9152 270.028 99.7528 269.537 99.7528C268.801 99.7528 268.226 100.116 267.812 100.842C267.398 101.564 267.191 102.587 267.191 103.909C267.191 104.791 267.283 105.54 267.469 106.156C267.655 106.773 267.921 107.242 268.269 107.563C268.621 107.885 269.043 108.045 269.537 108.045ZM278.287 109.139C277.538 109.139 276.9 108.935 276.373 108.528C275.846 108.117 275.443 107.522 275.165 106.743C274.887 105.961 274.747 105.016 274.747 103.909C274.747 102.809 274.887 101.869 275.165 101.09C275.447 100.308 275.851 99.7114 276.378 99.3004C276.908 98.8861 277.545 98.679 278.287 98.679C279.03 98.679 279.664 98.8861 280.191 99.3004C280.722 99.7114 281.126 100.308 281.404 101.09C281.686 101.869 281.827 102.809 281.827 103.909C281.827 105.016 281.688 105.961 281.409 106.743C281.131 107.522 280.728 108.117 280.201 108.528C279.674 108.935 279.036 109.139 278.287 109.139ZM278.287 108.045C279.03 108.045 279.606 107.687 280.017 106.972C280.428 106.256 280.634 105.235 280.634 103.909C280.634 103.027 280.539 102.277 280.35 101.657C280.165 101.037 279.896 100.565 279.545 100.24C279.197 99.9152 278.778 99.7528 278.287 99.7528C277.551 99.7528 276.976 100.116 276.562 100.842C276.148 101.564 275.941 102.587 275.941 103.909C275.941 104.791 276.033 105.54 276.219 106.156C276.405 106.773 276.671 107.242 277.019 107.563C277.371 107.885 277.793 108.045 278.287 108.045ZM290.656 110.273V97.5455H291.472V110.273H290.656ZM293.401 101.364C293.341 100.86 293.099 100.469 292.675 100.19C292.251 99.9119 291.73 99.7727 291.114 99.7727C290.663 99.7727 290.269 99.8456 289.931 99.9915C289.596 100.137 289.334 100.338 289.145 100.593C288.959 100.848 288.867 101.138 288.867 101.463C288.867 101.735 288.931 101.969 289.061 102.164C289.193 102.356 289.362 102.517 289.568 102.646C289.773 102.772 289.989 102.877 290.214 102.96C290.439 103.039 290.646 103.104 290.835 103.153L291.869 103.432C292.135 103.501 292.43 103.598 292.754 103.72C293.083 103.843 293.396 104.01 293.694 104.222C293.996 104.431 294.244 104.7 294.44 105.028C294.635 105.356 294.733 105.759 294.733 106.236C294.733 106.786 294.589 107.283 294.301 107.727C294.016 108.171 293.598 108.524 293.048 108.786C292.501 109.048 291.836 109.179 291.054 109.179C290.325 109.179 289.694 109.061 289.16 108.826C288.63 108.591 288.212 108.263 287.907 107.842C287.606 107.421 287.435 106.932 287.395 106.375H288.668C288.701 106.759 288.83 107.078 289.056 107.33C289.284 107.578 289.573 107.764 289.921 107.886C290.272 108.006 290.65 108.065 291.054 108.065C291.525 108.065 291.947 107.989 292.322 107.837C292.696 107.681 292.993 107.465 293.212 107.19C293.431 106.912 293.54 106.587 293.54 106.216C293.54 105.878 293.445 105.603 293.257 105.391C293.068 105.179 292.819 105.006 292.511 104.874C292.203 104.741 291.869 104.625 291.512 104.526L290.259 104.168C289.463 103.939 288.834 103.612 288.369 103.188C287.905 102.764 287.673 102.209 287.673 101.523C287.673 100.953 287.828 100.455 288.136 100.031C288.447 99.6037 288.865 99.2723 289.389 99.0369C289.916 98.7983 290.504 98.679 291.154 98.679C291.81 98.679 292.393 98.7966 292.904 99.032C293.414 99.264 293.818 99.5821 294.117 99.9865C294.418 100.391 294.577 100.85 294.594 101.364H293.401Z" fill="black"/>
<path d="M34.375 153H31.233V142.818H34.5142C35.5019 142.818 36.3471 143.022 37.0497 143.43C37.7524 143.834 38.291 144.416 38.6655 145.175C39.04 145.93 39.2273 146.835 39.2273 147.889C39.2273 148.95 39.0384 149.863 38.6605 150.629C38.2827 151.391 37.7325 151.978 37.0099 152.388C36.2874 152.796 35.4091 153 34.375 153ZM32.4659 151.906H34.2955C35.1373 151.906 35.835 151.744 36.3885 151.419C36.942 151.094 37.3546 150.632 37.6264 150.032C37.8982 149.432 38.0341 148.718 38.0341 147.889C38.0341 147.067 37.8999 146.36 37.6314 145.766C37.3629 145.17 36.9619 144.712 36.4283 144.394C35.8946 144.073 35.2301 143.912 34.4347 143.912H32.4659V151.906ZM44.3381 153.159C43.6023 153.159 42.9676 152.997 42.4339 152.672C41.9036 152.344 41.4943 151.886 41.206 151.3C40.9209 150.71 40.7784 150.024 40.7784 149.241C40.7784 148.459 40.9209 147.77 41.206 147.173C41.4943 146.573 41.8954 146.106 42.4091 145.771C42.9261 145.433 43.5294 145.264 44.2188 145.264C44.6165 145.264 45.0092 145.33 45.397 145.463C45.7848 145.596 46.1378 145.811 46.456 146.109C46.7741 146.404 47.0277 146.795 47.2166 147.283C47.4055 147.77 47.5 148.37 47.5 149.082V149.58H41.6136V148.565H46.3068C46.3068 148.134 46.2206 147.75 46.0483 147.412C45.8793 147.074 45.6373 146.807 45.3224 146.612C45.0109 146.416 44.643 146.318 44.2188 146.318C43.7514 146.318 43.3471 146.434 43.0057 146.666C42.6676 146.895 42.4074 147.193 42.2251 147.561C42.0429 147.929 41.9517 148.323 41.9517 148.744V149.42C41.9517 149.997 42.0511 150.486 42.25 150.887C42.4522 151.285 42.7322 151.588 43.0902 151.797C43.4482 152.002 43.8641 152.105 44.3381 152.105C44.6463 152.105 44.9247 152.062 45.1733 151.976C45.4252 151.886 45.6423 151.754 45.8246 151.578C46.0069 151.399 46.1477 151.177 46.2472 150.912L47.3807 151.23C47.2614 151.615 47.0608 151.953 46.7791 152.244C46.4974 152.533 46.1494 152.758 45.7351 152.92C45.3208 153.08 44.8551 153.159 44.3381 153.159ZM50.4581 142.818V153H49.2848V142.818H50.4581ZM52.6071 153V145.364H53.7804V153H52.6071ZM53.2037 144.091C52.975 144.091 52.7778 144.013 52.612 143.857C52.4496 143.701 52.3684 143.514 52.3684 143.295C52.3684 143.077 52.4496 142.889 52.612 142.734C52.7778 142.578 52.975 142.5 53.2037 142.5C53.4324 142.5 53.6279 142.578 53.7903 142.734C53.956 142.889 54.0389 143.077 54.0389 143.295C54.0389 143.514 53.956 143.701 53.7903 143.857C53.6279 144.013 53.4324 144.091 53.2037 144.091ZM62.1737 145.364L59.3498 153H58.1566L55.3327 145.364H56.6055L58.7134 151.449H58.793L60.9009 145.364H62.1737ZM66.6506 153.159C65.9148 153.159 65.2801 152.997 64.7464 152.672C64.2161 152.344 63.8068 151.886 63.5185 151.3C63.2334 150.71 63.0909 150.024 63.0909 149.241C63.0909 148.459 63.2334 147.77 63.5185 147.173C63.8068 146.573 64.2079 146.106 64.7216 145.771C65.2386 145.433 65.8419 145.264 66.5312 145.264C66.929 145.264 67.3217 145.33 67.7095 145.463C68.0973 145.596 68.4503 145.811 68.7685 146.109C69.0866 146.404 69.3402 146.795 69.5291 147.283C69.718 147.77 69.8125 148.37 69.8125 149.082V149.58H63.9261V148.565H68.6193C68.6193 148.134 68.5331 147.75 68.3608 147.412C68.1918 147.074 67.9498 146.807 67.6349 146.612C67.3234 146.416 66.9555 146.318 66.5312 146.318C66.0639 146.318 65.6596 146.434 65.3182 146.666C64.9801 146.895 64.7199 147.193 64.5376 147.561C64.3554 147.929 64.2642 148.323 64.2642 148.744V149.42C64.2642 149.997 64.3636 150.486 64.5625 150.887C64.7647 151.285 65.0447 151.588 65.4027 151.797C65.7607 152.002 66.1766 152.105 66.6506 152.105C66.9588 152.105 67.2372 152.062 67.4858 151.976C67.7377 151.886 67.9548 151.754 68.1371 151.578C68.3194 151.399 68.4602 151.177 68.5597 150.912L69.6932 151.23C69.5739 151.615 69.3733 151.953 69.0916 152.244C68.8099 152.533 68.4619 152.758 68.0476 152.92C67.6333 153.08 67.1676 153.159 66.6506 153.159ZM71.5973 153V145.364H72.7308V146.517H72.8104C72.9496 146.139 73.2015 145.833 73.5661 145.597C73.9306 145.362 74.3416 145.244 74.799 145.244C74.8852 145.244 74.9929 145.246 75.1222 145.249C75.2514 145.253 75.3492 145.258 75.4155 145.264V146.457C75.3757 146.447 75.2846 146.433 75.142 146.413C75.0028 146.389 74.8554 146.378 74.6996 146.378C74.3284 146.378 73.9969 146.456 73.7053 146.612C73.4169 146.764 73.1882 146.976 73.0192 147.248C72.8535 147.516 72.7706 147.823 72.7706 148.168V153H71.5973ZM77.7944 155.864C77.5955 155.864 77.4182 155.847 77.2624 155.814C77.1067 155.784 76.9989 155.754 76.9393 155.724L77.2376 154.69C77.5226 154.763 77.7745 154.79 77.9933 154.77C78.212 154.75 78.4059 154.652 78.5749 154.477C78.7473 154.304 78.9047 154.024 79.0472 153.636L79.266 153.04L76.4421 145.364H77.7148L79.8228 151.449H79.9023L82.0103 145.364H83.283L80.0415 154.114C79.8957 154.508 79.7151 154.835 79.4996 155.093C79.2842 155.355 79.034 155.549 78.7489 155.675C78.4672 155.801 78.149 155.864 77.7944 155.864ZM92.1697 145.364V146.358H88.0533V145.364H92.1697ZM89.2862 153V144.31C89.2862 143.872 89.389 143.508 89.5945 143.216C89.8 142.924 90.0668 142.705 90.3949 142.56C90.723 142.414 91.0694 142.341 91.4339 142.341C91.7223 142.341 91.9576 142.364 92.1399 142.411C92.3222 142.457 92.4581 142.5 92.5476 142.54L92.2095 143.554C92.1499 143.534 92.067 143.509 91.9609 143.479C91.8582 143.45 91.7223 143.435 91.5533 143.435C91.1655 143.435 90.8854 143.532 90.7131 143.728C90.544 143.924 90.4595 144.21 90.4595 144.588V153H89.2862ZM96.7013 153.159C95.9656 153.159 95.3308 152.997 94.7972 152.672C94.2669 152.344 93.8576 151.886 93.5692 151.3C93.2842 150.71 93.1417 150.024 93.1417 149.241C93.1417 148.459 93.2842 147.77 93.5692 147.173C93.8576 146.573 94.2586 146.106 94.7724 145.771C95.2894 145.433 95.8926 145.264 96.582 145.264C96.9798 145.264 97.3725 145.33 97.7603 145.463C98.1481 145.596 98.5011 145.811 98.8192 146.109C99.1374 146.404 99.391 146.795 99.5799 147.283C99.7688 147.77 99.8633 148.37 99.8633 149.082V149.58H93.9769V148.565H98.6701C98.6701 148.134 98.5839 147.75 98.4116 147.412C98.2425 147.074 98.0006 146.807 97.6857 146.612C97.3742 146.416 97.0063 146.318 96.582 146.318C96.1147 146.318 95.7103 146.434 95.369 146.666C95.0309 146.895 94.7707 147.193 94.5884 147.561C94.4061 147.929 94.315 148.323 94.315 148.744V149.42C94.315 149.997 94.4144 150.486 94.6133 150.887C94.8155 151.285 95.0955 151.588 95.4535 151.797C95.8114 152.002 96.2274 152.105 96.7013 152.105C97.0096 152.105 97.288 152.062 97.5366 151.976C97.7885 151.886 98.0056 151.754 98.1879 151.578C98.3701 151.399 98.511 151.177 98.6104 150.912L99.744 151.23C99.6246 151.615 99.4241 151.953 99.1424 152.244C98.8607 152.533 98.5127 152.758 98.0984 152.92C97.6841 153.08 97.2184 153.159 96.7013 153.159ZM104.85 153.159C104.114 153.159 103.479 152.997 102.946 152.672C102.415 152.344 102.006 151.886 101.718 151.3C101.433 150.71 101.29 150.024 101.29 149.241C101.29 148.459 101.433 147.77 101.718 147.173C102.006 146.573 102.407 146.106 102.921 145.771C103.438 145.433 104.041 145.264 104.73 145.264C105.128 145.264 105.521 145.33 105.909 145.463C106.297 145.596 106.65 145.811 106.968 146.109C107.286 146.404 107.539 146.795 107.728 147.283C107.917 147.77 108.012 148.37 108.012 149.082V149.58H102.125V148.565H106.819C106.819 148.134 106.732 147.75 106.56 147.412C106.391 147.074 106.149 146.807 105.834 146.612C105.523 146.416 105.155 146.318 104.73 146.318C104.263 146.318 103.859 146.434 103.517 146.666C103.179 146.895 102.919 147.193 102.737 147.561C102.555 147.929 102.463 148.323 102.463 148.744V149.42C102.463 149.997 102.563 150.486 102.762 150.887C102.964 151.285 103.244 151.588 103.602 151.797C103.96 152.002 104.376 152.105 104.85 152.105C105.158 152.105 105.436 152.062 105.685 151.976C105.937 151.886 106.154 151.754 106.336 151.578C106.519 151.399 106.659 151.177 106.759 150.912L107.892 151.23C107.773 151.615 107.573 151.953 107.291 152.244C107.009 152.533 106.661 152.758 106.247 152.92C105.833 153.08 105.367 153.159 104.85 153.159Z" fill="black"/>
<path d="M242.634 142.818V153H241.401V144.111H241.341L238.855 145.761V144.509L241.401 142.818H242.634ZM248.883 153.139C248.134 153.139 247.496 152.935 246.969 152.528C246.442 152.117 246.039 151.522 245.761 150.743C245.482 149.961 245.343 149.016 245.343 147.909C245.343 146.809 245.482 145.869 245.761 145.09C246.042 144.308 246.447 143.711 246.974 143.3C247.504 142.886 248.14 142.679 248.883 142.679C249.625 142.679 250.26 142.886 250.787 143.3C251.317 143.711 251.722 144.308 252 145.09C252.282 145.869 252.423 146.809 252.423 147.909C252.423 149.016 252.283 149.961 252.005 150.743C251.727 151.522 251.324 152.117 250.797 152.528C250.27 152.935 249.632 153.139 248.883 153.139ZM248.883 152.045C249.625 152.045 250.202 151.687 250.613 150.972C251.024 150.256 251.229 149.235 251.229 147.909C251.229 147.027 251.135 146.277 250.946 145.657C250.76 145.037 250.492 144.565 250.141 144.24C249.793 143.915 249.373 143.753 248.883 143.753C248.147 143.753 247.572 144.116 247.158 144.842C246.743 145.564 246.536 146.587 246.536 147.909C246.536 148.791 246.629 149.54 246.815 150.156C247 150.773 247.267 151.242 247.615 151.563C247.966 151.885 248.389 152.045 248.883 152.045ZM257.633 153.139C256.884 153.139 256.246 152.935 255.719 152.528C255.192 152.117 254.789 151.522 254.511 150.743C254.232 149.961 254.093 149.016 254.093 147.909C254.093 146.809 254.232 145.869 254.511 145.09C254.792 144.308 255.197 143.711 255.724 143.3C256.254 142.886 256.89 142.679 257.633 142.679C258.375 142.679 259.01 142.886 259.537 143.3C260.067 143.711 260.472 144.308 260.75 145.09C261.032 145.869 261.173 146.809 261.173 147.909C261.173 149.016 261.033 149.961 260.755 150.743C260.477 151.522 260.074 152.117 259.547 152.528C259.02 152.935 258.382 153.139 257.633 153.139ZM257.633 152.045C258.375 152.045 258.952 151.687 259.363 150.972C259.774 150.256 259.979 149.235 259.979 147.909C259.979 147.027 259.885 146.277 259.696 145.657C259.51 145.037 259.242 144.565 258.891 144.24C258.543 143.915 258.123 143.753 257.633 143.753C256.897 143.753 256.322 144.116 255.908 144.842C255.493 145.564 255.286 146.587 255.286 147.909C255.286 148.791 255.379 149.54 255.565 150.156C255.75 150.773 256.017 151.242 256.365 151.563C256.716 151.885 257.139 152.045 257.633 152.045ZM263.581 153.08C263.336 153.08 263.126 152.992 262.95 152.816C262.774 152.64 262.686 152.43 262.686 152.185C262.686 151.939 262.774 151.729 262.95 151.553C263.126 151.378 263.336 151.29 263.581 151.29C263.827 151.29 264.037 151.378 264.213 151.553C264.388 151.729 264.476 151.939 264.476 152.185C264.476 152.347 264.435 152.496 264.352 152.632C264.272 152.768 264.165 152.877 264.029 152.96C263.896 153.04 263.747 153.08 263.581 153.08ZM269.527 153.139C268.778 153.139 268.14 152.935 267.613 152.528C267.086 152.117 266.684 151.522 266.405 150.743C266.127 149.961 265.988 149.016 265.988 147.909C265.988 146.809 266.127 145.869 266.405 145.09C266.687 144.308 267.091 143.711 267.618 143.3C268.149 142.886 268.785 142.679 269.527 142.679C270.27 142.679 270.904 142.886 271.431 143.3C271.962 143.711 272.366 144.308 272.645 145.09C272.926 145.869 273.067 146.809 273.067 147.909C273.067 149.016 272.928 149.961 272.65 150.743C272.371 151.522 271.968 152.117 271.441 152.528C270.914 152.935 270.276 153.139 269.527 153.139ZM269.527 152.045C270.27 152.045 270.846 151.687 271.257 150.972C271.668 150.256 271.874 149.235 271.874 147.909C271.874 147.027 271.779 146.277 271.591 145.657C271.405 145.037 271.136 144.565 270.785 144.24C270.437 143.915 270.018 143.753 269.527 143.753C268.792 143.753 268.217 144.116 267.802 144.842C267.388 145.564 267.181 146.587 267.181 147.909C267.181 148.791 267.274 149.54 267.459 150.156C267.645 150.773 267.912 151.242 268.26 151.563C268.611 151.885 269.033 152.045 269.527 152.045ZM278.277 153.139C277.528 153.139 276.89 152.935 276.363 152.528C275.836 152.117 275.434 151.522 275.155 150.743C274.877 149.961 274.738 149.016 274.738 147.909C274.738 146.809 274.877 145.869 275.155 145.09C275.437 144.308 275.841 143.711 276.368 143.3C276.899 142.886 277.535 142.679 278.277 142.679C279.02 142.679 279.654 142.886 280.181 143.3C280.712 143.711 281.116 144.308 281.395 145.09C281.676 145.869 281.817 146.809 281.817 147.909C281.817 149.016 281.678 149.961 281.4 150.743C281.121 151.522 280.718 152.117 280.191 152.528C279.664 152.935 279.026 153.139 278.277 153.139ZM278.277 152.045C279.02 152.045 279.596 151.687 280.007 150.972C280.418 150.256 280.624 149.235 280.624 147.909C280.624 147.027 280.529 146.277 280.341 145.657C280.155 145.037 279.886 144.565 279.535 144.24C279.187 143.915 278.768 143.753 278.277 143.753C277.542 143.753 276.967 144.116 276.552 144.842C276.138 145.564 275.931 146.587 275.931 147.909C275.931 148.791 276.024 149.54 276.209 150.156C276.395 150.773 276.662 151.242 277.01 151.563C277.361 151.885 277.783 152.045 278.277 152.045ZM290.647 154.273V141.545H291.462V154.273H290.647ZM293.391 145.364C293.331 144.86 293.089 144.469 292.665 144.19C292.241 143.912 291.721 143.773 291.104 143.773C290.653 143.773 290.259 143.846 289.921 143.991C289.586 144.137 289.324 144.338 289.135 144.593C288.95 144.848 288.857 145.138 288.857 145.463C288.857 145.735 288.922 145.969 289.051 146.164C289.183 146.356 289.352 146.517 289.558 146.646C289.763 146.772 289.979 146.877 290.204 146.96C290.43 147.039 290.637 147.104 290.826 147.153L291.86 147.432C292.125 147.501 292.42 147.598 292.745 147.72C293.073 147.843 293.386 148.01 293.684 148.222C293.986 148.431 294.234 148.7 294.43 149.028C294.626 149.356 294.723 149.759 294.723 150.236C294.723 150.786 294.579 151.283 294.291 151.727C294.006 152.171 293.588 152.524 293.038 152.786C292.491 153.048 291.827 153.179 291.044 153.179C290.315 153.179 289.684 153.061 289.15 152.826C288.62 152.591 288.202 152.263 287.897 151.842C287.596 151.421 287.425 150.932 287.385 150.375H288.658C288.691 150.759 288.82 151.078 289.046 151.33C289.275 151.578 289.563 151.764 289.911 151.886C290.262 152.006 290.64 152.065 291.044 152.065C291.515 152.065 291.938 151.989 292.312 151.837C292.687 151.681 292.983 151.465 293.202 151.19C293.421 150.912 293.53 150.587 293.53 150.216C293.53 149.878 293.436 149.603 293.247 149.391C293.058 149.179 292.809 149.006 292.501 148.874C292.193 148.741 291.86 148.625 291.502 148.526L290.249 148.168C289.453 147.939 288.824 147.612 288.36 147.188C287.896 146.764 287.664 146.209 287.664 145.523C287.664 144.953 287.818 144.455 288.126 144.031C288.438 143.604 288.855 143.272 289.379 143.037C289.906 142.798 290.494 142.679 291.144 142.679C291.8 142.679 292.383 142.797 292.894 143.032C293.404 143.264 293.809 143.582 294.107 143.987C294.408 144.391 294.568 144.85 294.584 145.364H293.391Z" fill="black"/>
<path d="M39.8239 191.909C39.8239 192.983 39.63 193.911 39.2422 194.693C38.8544 195.475 38.3224 196.079 37.6463 196.503C36.9702 196.927 36.1979 197.139 35.3295 197.139C34.4612 197.139 33.6889 196.927 33.0128 196.503C32.3366 196.079 31.8047 195.475 31.4169 194.693C31.0291 193.911 30.8352 192.983 30.8352 191.909C30.8352 190.835 31.0291 189.907 31.4169 189.125C31.8047 188.343 32.3366 187.74 33.0128 187.315C33.6889 186.891 34.4612 186.679 35.3295 186.679C36.1979 186.679 36.9702 186.891 37.6463 187.315C38.3224 187.74 38.8544 188.343 39.2422 189.125C39.63 189.907 39.8239 190.835 39.8239 191.909ZM38.6307 191.909C38.6307 191.027 38.4832 190.283 38.1882 189.677C37.8965 189.07 37.5005 188.611 37 188.3C36.5028 187.988 35.946 187.832 35.3295 187.832C34.7131 187.832 34.1546 187.988 33.6541 188.3C33.157 188.611 32.7609 189.07 32.4659 189.677C32.1742 190.283 32.0284 191.027 32.0284 191.909C32.0284 192.791 32.1742 193.535 32.4659 194.141C32.7609 194.748 33.157 195.207 33.6541 195.518C34.1546 195.83 34.7131 195.986 35.3295 195.986C35.946 195.986 36.5028 195.83 37 195.518C37.5005 195.207 37.8965 194.748 38.1882 194.141C38.4832 193.535 38.6307 192.791 38.6307 191.909ZM45.0589 189.364V190.358H41.1016V189.364H45.0589ZM42.255 187.534H43.4283V194.812C43.4283 195.144 43.4763 195.393 43.5724 195.558C43.6719 195.721 43.7978 195.83 43.9503 195.886C44.1061 195.939 44.2701 195.966 44.4425 195.966C44.5717 195.966 44.6778 195.959 44.7607 195.946C44.8435 195.929 44.9098 195.916 44.9595 195.906L45.1982 196.96C45.1186 196.99 45.0076 197.02 44.8651 197.05C44.7225 197.083 44.5419 197.099 44.3232 197.099C43.9917 197.099 43.6669 197.028 43.3487 196.886C43.0339 196.743 42.772 196.526 42.5632 196.234C42.3577 195.943 42.255 195.575 42.255 195.131V187.534ZM48.1612 192.406V197H46.9879V186.818H48.1612V190.557H48.2607C48.4396 190.162 48.7081 189.849 49.0661 189.617C49.4273 189.382 49.9079 189.264 50.5078 189.264C51.0282 189.264 51.4839 189.369 51.875 189.577C52.2661 189.783 52.5694 190.099 52.7848 190.527C53.0036 190.951 53.1129 191.491 53.1129 192.148V197H51.9396V192.227C51.9396 191.621 51.7822 191.152 51.4673 190.82C51.1558 190.486 50.7232 190.318 50.1697 190.318C49.7853 190.318 49.4406 190.399 49.1357 190.562C48.834 190.724 48.5954 190.961 48.4197 191.273C48.2474 191.584 48.1612 191.962 48.1612 192.406ZM58.4611 197.159C57.7253 197.159 57.0906 196.997 56.557 196.672C56.0267 196.344 55.6174 195.886 55.329 195.3C55.044 194.71 54.9015 194.024 54.9015 193.241C54.9015 192.459 55.044 191.77 55.329 191.173C55.6174 190.573 56.0184 190.106 56.5321 189.771C57.0492 189.433 57.6524 189.264 58.3418 189.264C58.7395 189.264 59.1323 189.33 59.5201 189.463C59.9078 189.596 60.2608 189.811 60.579 190.109C60.8972 190.404 61.1507 190.795 61.3397 191.283C61.5286 191.77 61.623 192.37 61.623 193.082V193.58H55.7367V192.565H60.4299C60.4299 192.134 60.3437 191.75 60.1713 191.412C60.0023 191.074 59.7604 190.807 59.4455 190.612C59.1339 190.416 58.766 190.318 58.3418 190.318C57.8745 190.318 57.4701 190.434 57.1287 190.666C56.7907 190.895 56.5305 191.193 56.3482 191.561C56.1659 191.929 56.0748 192.323 56.0748 192.744V193.42C56.0748 193.997 56.1742 194.486 56.373 194.887C56.5752 195.285 56.8553 195.588 57.2132 195.797C57.5712 196.002 57.9872 196.105 58.4611 196.105C58.7694 196.105 59.0478 196.062 59.2963 195.976C59.5482 195.886 59.7653 195.754 59.9476 195.578C60.1299 195.399 60.2708 195.177 60.3702 194.912L61.5037 195.23C61.3844 195.615 61.1839 195.953 60.9022 196.244C60.6204 196.533 60.2724 196.758 59.8581 196.92C59.4438 197.08 58.9782 197.159 58.4611 197.159ZM63.4078 197V189.364H64.5414V190.517H64.6209C64.7601 190.139 65.012 189.833 65.3766 189.597C65.7412 189.362 66.1522 189.244 66.6096 189.244C66.6957 189.244 66.8034 189.246 66.9327 189.249C67.062 189.253 67.1597 189.258 67.226 189.264V190.457C67.1863 190.447 67.0951 190.433 66.9526 190.413C66.8134 190.389 66.6659 190.378 66.5101 190.378C66.1389 190.378 65.8075 190.456 65.5158 190.612C65.2275 190.764 64.9988 190.976 64.8297 191.248C64.664 191.516 64.5811 191.823 64.5811 192.168V197H63.4078ZM75.9549 189.364V190.358H71.8384V189.364H75.9549ZM73.0714 197V188.31C73.0714 187.872 73.1741 187.508 73.3796 187.216C73.5851 186.924 73.8519 186.705 74.18 186.56C74.5082 186.414 74.8545 186.341 75.2191 186.341C75.5075 186.341 75.7428 186.364 75.9251 186.411C76.1074 186.457 76.2433 186.5 76.3327 186.54L75.9947 187.554C75.935 187.534 75.8522 187.509 75.7461 187.479C75.6433 187.45 75.5075 187.435 75.3384 187.435C74.9506 187.435 74.6706 187.532 74.4982 187.728C74.3292 187.924 74.2447 188.21 74.2447 188.588V197H73.0714ZM80.4865 197.159C79.7507 197.159 79.116 196.997 78.5824 196.672C78.0521 196.344 77.6428 195.886 77.3544 195.3C77.0694 194.71 76.9268 194.024 76.9268 193.241C76.9268 192.459 77.0694 191.77 77.3544 191.173C77.6428 190.573 78.0438 190.106 78.5575 189.771C79.0746 189.433 79.6778 189.264 80.3672 189.264C80.7649 189.264 81.1577 189.33 81.5455 189.463C81.9332 189.596 82.2862 189.811 82.6044 190.109C82.9226 190.404 83.1761 190.795 83.3651 191.283C83.554 191.77 83.6484 192.37 83.6484 193.082V193.58H77.7621V192.565H82.4553C82.4553 192.134 82.3691 191.75 82.1967 191.412C82.0277 191.074 81.7857 190.807 81.4709 190.612C81.1593 190.416 80.7914 190.318 80.3672 190.318C79.8999 190.318 79.4955 190.434 79.1541 190.666C78.8161 190.895 78.5559 191.193 78.3736 191.561C78.1913 191.929 78.1001 192.323 78.1001 192.744V193.42C78.1001 193.997 78.1996 194.486 78.3984 194.887C78.6006 195.285 78.8807 195.588 79.2386 195.797C79.5966 196.002 80.0125 196.105 80.4865 196.105C80.7947 196.105 81.0732 196.062 81.3217 195.976C81.5736 195.886 81.7907 195.754 81.973 195.578C82.1553 195.399 82.2962 195.177 82.3956 194.912L83.5291 195.23C83.4098 195.615 83.2093 195.953 82.9276 196.244C82.6458 196.533 82.2978 196.758 81.8835 196.92C81.4692 197.08 81.0036 197.159 80.4865 197.159ZM88.6349 197.159C87.8991 197.159 87.2644 196.997 86.7308 196.672C86.2005 196.344 85.7912 195.886 85.5028 195.3C85.2178 194.71 85.0753 194.024 85.0753 193.241C85.0753 192.459 85.2178 191.77 85.5028 191.173C85.7912 190.573 86.1922 190.106 86.706 189.771C87.223 189.433 87.8262 189.264 88.5156 189.264C88.9134 189.264 89.3061 189.33 89.6939 189.463C90.0817 189.596 90.4347 189.811 90.7528 190.109C91.071 190.404 91.3246 190.795 91.5135 191.283C91.7024 191.77 91.7969 192.37 91.7969 193.082V193.58H85.9105V192.565H90.6037C90.6037 192.134 90.5175 191.75 90.3452 191.412C90.1761 191.074 89.9342 190.807 89.6193 190.612C89.3078 190.416 88.9399 190.318 88.5156 190.318C88.0483 190.318 87.6439 190.434 87.3026 190.666C86.9645 190.895 86.7043 191.193 86.522 191.561C86.3397 191.929 86.2486 192.323 86.2486 192.744V193.42C86.2486 193.997 86.348 194.486 86.5469 194.887C86.7491 195.285 87.0291 195.588 87.3871 195.797C87.745 196.002 88.161 196.105 88.6349 196.105C88.9432 196.105 89.2216 196.062 89.4702 195.976C89.7221 195.886 89.9392 195.754 90.1214 195.578C90.3037 195.399 90.4446 195.177 90.544 194.912L91.6776 195.23C91.5582 195.615 91.3577 195.953 91.076 196.244C90.7943 196.533 90.4463 196.758 90.032 196.92C89.6177 197.08 89.152 197.159 88.6349 197.159ZM98.9908 191.074L97.9368 191.372C97.8705 191.196 97.7727 191.026 97.6435 190.86C97.5175 190.691 97.3452 190.552 97.1264 190.442C96.9077 190.333 96.6276 190.278 96.2862 190.278C95.8189 190.278 95.4295 190.386 95.1179 190.602C94.8097 190.814 94.6555 191.084 94.6555 191.412C94.6555 191.704 94.7616 191.934 94.9737 192.103C95.1858 192.272 95.5173 192.413 95.968 192.526L97.1016 192.804C97.7843 192.97 98.2931 193.223 98.6278 193.565C98.9626 193.903 99.13 194.339 99.13 194.872C99.13 195.31 99.004 195.701 98.7521 196.045C98.5036 196.39 98.1555 196.662 97.7081 196.861C97.2607 197.06 96.7403 197.159 96.147 197.159C95.3681 197.159 94.7235 196.99 94.2131 196.652C93.7027 196.314 93.3795 195.82 93.2436 195.17L94.3572 194.892C94.4633 195.303 94.6638 195.611 94.9588 195.817C95.2571 196.022 95.6465 196.125 96.1271 196.125C96.674 196.125 97.1082 196.009 97.4297 195.777C97.7545 195.542 97.9169 195.26 97.9169 194.932C97.9169 194.667 97.8241 194.445 97.6385 194.266C97.4529 194.083 97.1679 193.947 96.7834 193.858L95.5107 193.56C94.8113 193.394 94.2976 193.137 93.9695 192.789C93.6446 192.438 93.4822 191.999 93.4822 191.472C93.4822 191.041 93.6032 190.66 93.8452 190.328C94.0904 189.997 94.4235 189.737 94.8445 189.548C95.2687 189.359 95.7493 189.264 96.2862 189.264C97.0419 189.264 97.6352 189.43 98.0661 189.761C98.5002 190.093 98.8085 190.53 98.9908 191.074Z" fill="black"/>
<path d="M246.054 197V196.105L249.415 192.426C249.809 191.995 250.134 191.621 250.389 191.303C250.644 190.981 250.833 190.679 250.956 190.398C251.082 190.113 251.145 189.814 251.145 189.503C251.145 189.145 251.059 188.835 250.886 188.573C250.717 188.311 250.485 188.109 250.19 187.967C249.895 187.824 249.564 187.753 249.196 187.753C248.805 187.753 248.464 187.834 248.172 187.996C247.884 188.156 247.66 188.379 247.501 188.668C247.345 188.956 247.267 189.294 247.267 189.682H246.094C246.094 189.085 246.231 188.562 246.506 188.111C246.781 187.66 247.156 187.309 247.63 187.057C248.107 186.805 248.643 186.679 249.236 186.679C249.832 186.679 250.361 186.805 250.822 187.057C251.282 187.309 251.644 187.648 251.906 188.076C252.167 188.504 252.298 188.979 252.298 189.503C252.298 189.877 252.23 190.244 252.094 190.602C251.962 190.956 251.73 191.352 251.398 191.79C251.07 192.224 250.615 192.754 250.031 193.381L247.744 195.827V195.906H252.477V197H246.054ZM257.852 197.139C257.103 197.139 256.464 196.935 255.938 196.528C255.411 196.117 255.008 195.522 254.729 194.743C254.451 193.961 254.312 193.016 254.312 191.909C254.312 190.809 254.451 189.869 254.729 189.09C255.011 188.308 255.415 187.711 255.942 187.3C256.473 186.886 257.109 186.679 257.852 186.679C258.594 186.679 259.229 186.886 259.756 187.3C260.286 187.711 260.69 188.308 260.969 189.09C261.25 189.869 261.391 190.809 261.391 191.909C261.391 193.016 261.252 193.961 260.974 194.743C260.695 195.522 260.293 196.117 259.766 196.528C259.239 196.935 258.601 197.139 257.852 197.139ZM257.852 196.045C258.594 196.045 259.171 195.687 259.582 194.972C259.993 194.256 260.198 193.235 260.198 191.909C260.198 191.027 260.104 190.277 259.915 189.657C259.729 189.037 259.461 188.565 259.109 188.24C258.761 187.915 258.342 187.753 257.852 187.753C257.116 187.753 256.541 188.116 256.126 188.842C255.712 189.564 255.505 190.587 255.505 191.909C255.505 192.791 255.598 193.54 255.783 194.156C255.969 194.773 256.236 195.242 256.584 195.563C256.935 195.885 257.358 196.045 257.852 196.045ZM263.8 197.08C263.555 197.08 263.344 196.992 263.169 196.816C262.993 196.64 262.905 196.43 262.905 196.185C262.905 195.939 262.993 195.729 263.169 195.553C263.344 195.378 263.555 195.29 263.8 195.29C264.045 195.29 264.256 195.378 264.431 195.553C264.607 195.729 264.695 195.939 264.695 196.185C264.695 196.347 264.654 196.496 264.571 196.632C264.491 196.768 264.383 196.877 264.248 196.96C264.115 197.04 263.966 197.08 263.8 197.08ZM269.746 197.139C268.997 197.139 268.359 196.935 267.832 196.528C267.305 196.117 266.902 195.522 266.624 194.743C266.346 193.961 266.206 193.016 266.206 191.909C266.206 190.809 266.346 189.869 266.624 189.09C266.906 188.308 267.31 187.711 267.837 187.3C268.367 186.886 269.004 186.679 269.746 186.679C270.489 186.679 271.123 186.886 271.65 187.3C272.181 187.711 272.585 188.308 272.863 189.09C273.145 189.869 273.286 190.809 273.286 191.909C273.286 193.016 273.147 193.961 272.868 194.743C272.59 195.522 272.187 196.117 271.66 196.528C271.133 196.935 270.495 197.139 269.746 197.139ZM269.746 196.045C270.489 196.045 271.065 195.687 271.476 194.972C271.887 194.256 272.093 193.235 272.093 191.909C272.093 191.027 271.998 190.277 271.809 189.657C271.624 189.037 271.355 188.565 271.004 188.24C270.656 187.915 270.237 187.753 269.746 187.753C269.01 187.753 268.435 188.116 268.021 188.842C267.607 189.564 267.4 190.587 267.4 191.909C267.4 192.791 267.492 193.54 267.678 194.156C267.864 194.773 268.13 195.242 268.478 195.563C268.83 195.885 269.252 196.045 269.746 196.045ZM278.496 197.139C277.747 197.139 277.109 196.935 276.582 196.528C276.055 196.117 275.652 195.522 275.374 194.743C275.096 193.961 274.956 193.016 274.956 191.909C274.956 190.809 275.096 189.869 275.374 189.09C275.656 188.308 276.06 187.711 276.587 187.3C277.117 186.886 277.754 186.679 278.496 186.679C279.239 186.679 279.873 186.886 280.4 187.3C280.931 187.711 281.335 188.308 281.613 189.09C281.895 189.869 282.036 190.809 282.036 191.909C282.036 193.016 281.897 193.961 281.618 194.743C281.34 195.522 280.937 196.117 280.41 196.528C279.883 196.935 279.245 197.139 278.496 197.139ZM278.496 196.045C279.239 196.045 279.815 195.687 280.226 194.972C280.637 194.256 280.843 193.235 280.843 191.909C280.843 191.027 280.748 190.277 280.559 189.657C280.374 189.037 280.105 188.565 279.754 188.24C279.406 187.915 278.987 187.753 278.496 187.753C277.76 187.753 277.185 188.116 276.771 188.842C276.357 189.564 276.15 190.587 276.15 191.909C276.15 192.791 276.242 193.54 276.428 194.156C276.614 194.773 276.88 195.242 277.228 195.563C277.58 195.885 278.002 196.045 278.496 196.045ZM290.865 198.273V185.545H291.681V198.273H290.865ZM293.61 189.364C293.55 188.86 293.308 188.469 292.884 188.19C292.46 187.912 291.939 187.773 291.323 187.773C290.872 187.773 290.478 187.846 290.14 187.991C289.805 188.137 289.543 188.338 289.354 188.593C289.168 188.848 289.076 189.138 289.076 189.463C289.076 189.735 289.14 189.969 289.27 190.164C289.402 190.356 289.571 190.517 289.777 190.646C289.982 190.772 290.198 190.877 290.423 190.96C290.648 191.039 290.855 191.104 291.044 191.153L292.078 191.432C292.344 191.501 292.639 191.598 292.963 191.72C293.292 191.843 293.605 192.01 293.903 192.222C294.205 192.431 294.453 192.7 294.649 193.028C294.844 193.356 294.942 193.759 294.942 194.236C294.942 194.786 294.798 195.283 294.51 195.727C294.225 196.171 293.807 196.524 293.257 196.786C292.71 197.048 292.045 197.179 291.263 197.179C290.534 197.179 289.903 197.061 289.369 196.826C288.839 196.591 288.421 196.263 288.116 195.842C287.815 195.421 287.644 194.932 287.604 194.375H288.877C288.91 194.759 289.039 195.078 289.265 195.33C289.493 195.578 289.782 195.764 290.13 195.886C290.481 196.006 290.859 196.065 291.263 196.065C291.734 196.065 292.156 195.989 292.531 195.837C292.905 195.681 293.202 195.465 293.421 195.19C293.64 194.912 293.749 194.587 293.749 194.216C293.749 193.878 293.654 193.603 293.466 193.391C293.277 193.179 293.028 193.006 292.72 192.874C292.412 192.741 292.078 192.625 291.721 192.526L290.468 192.168C289.672 191.939 289.042 191.612 288.578 191.188C288.114 190.764 287.882 190.209 287.882 189.523C287.882 188.953 288.037 188.455 288.345 188.031C288.656 187.604 289.074 187.272 289.598 187.037C290.125 186.798 290.713 186.679 291.363 186.679C292.019 186.679 292.602 186.797 293.113 187.032C293.623 187.264 294.027 187.582 294.326 187.987C294.627 188.391 294.786 188.85 294.803 189.364H293.61Z" fill="black"/>
<path d="M30.7727 277.614V276.364H39.5V277.614H35.8409V288H34.4318V277.614H30.7727ZM43.7727 288.182C42.9848 288.182 42.2936 287.994 41.6989 287.619C41.108 287.244 40.6458 286.72 40.3125 286.045C39.983 285.371 39.8182 284.583 39.8182 283.682C39.8182 282.773 39.983 281.979 40.3125 281.301C40.6458 280.623 41.108 280.097 41.6989 279.722C42.2936 279.347 42.9848 279.159 43.7727 279.159C44.5606 279.159 45.25 279.347 45.8409 279.722C46.4356 280.097 46.8977 280.623 47.2273 281.301C47.5606 281.979 47.7273 282.773 47.7273 283.682C47.7273 284.583 47.5606 285.371 47.2273 286.045C46.8977 286.72 46.4356 287.244 45.8409 287.619C45.25 287.994 44.5606 288.182 43.7727 288.182ZM43.7727 286.977C44.3712 286.977 44.8636 286.824 45.25 286.517C45.6364 286.21 45.9223 285.807 46.108 285.307C46.2936 284.807 46.3864 284.265 46.3864 283.682C46.3864 283.098 46.2936 282.555 46.108 282.051C45.9223 281.547 45.6364 281.14 45.25 280.83C44.8636 280.519 44.3712 280.364 43.7727 280.364C43.1742 280.364 42.6818 280.519 42.2955 280.83C41.9091 281.14 41.6231 281.547 41.4375 282.051C41.2519 282.555 41.1591 283.098 41.1591 283.682C41.1591 284.265 41.2519 284.807 41.4375 285.307C41.6231 285.807 41.9091 286.21 42.2955 286.517C42.6818 286.824 43.1742 286.977 43.7727 286.977ZM53.5696 279.273V280.409H49.0469V279.273H53.5696ZM50.3651 277.182H51.706V285.5C51.706 285.879 51.7609 286.163 51.8707 286.352C51.9844 286.538 52.1283 286.663 52.3026 286.727C52.4806 286.788 52.6681 286.818 52.8651 286.818C53.0128 286.818 53.134 286.811 53.2287 286.795C53.3234 286.777 53.3991 286.761 53.456 286.75L53.7287 287.955C53.6378 287.989 53.5109 288.023 53.348 288.057C53.1851 288.095 52.9787 288.114 52.7287 288.114C52.3499 288.114 51.9787 288.032 51.6151 287.869C51.2552 287.706 50.956 287.458 50.7173 287.125C50.4825 286.792 50.3651 286.371 50.3651 285.864V277.182ZM58.1548 288.205C57.6018 288.205 57.0999 288.1 56.6491 287.892C56.1984 287.68 55.8404 287.375 55.5753 286.977C55.3101 286.576 55.1776 286.091 55.1776 285.523C55.1776 285.023 55.276 284.617 55.473 284.307C55.67 283.992 55.9332 283.746 56.2628 283.568C56.5923 283.39 56.956 283.258 57.3537 283.17C57.7552 283.08 58.1586 283.008 58.5639 282.955C59.0942 282.886 59.5241 282.835 59.8537 282.801C60.187 282.763 60.4295 282.701 60.581 282.614C60.7363 282.527 60.8139 282.375 60.8139 282.159V282.114C60.8139 281.553 60.6605 281.117 60.3537 280.807C60.0507 280.496 59.5904 280.341 58.973 280.341C58.3329 280.341 57.831 280.481 57.4673 280.761C57.1037 281.042 56.848 281.341 56.7003 281.659L55.4276 281.205C55.6548 280.674 55.9579 280.261 56.3366 279.966C56.7192 279.667 57.1359 279.458 57.5866 279.341C58.0412 279.22 58.4882 279.159 58.9276 279.159C59.2079 279.159 59.5298 279.193 59.8935 279.261C60.2609 279.326 60.6151 279.46 60.956 279.665C61.3007 279.869 61.5866 280.178 61.8139 280.591C62.0412 281.004 62.1548 281.557 62.1548 282.25V288H60.8139V286.818H60.7457C60.6548 287.008 60.5033 287.21 60.2912 287.426C60.0791 287.642 59.7969 287.826 59.4446 287.977C59.0923 288.129 58.6624 288.205 58.1548 288.205ZM58.3594 287C58.8897 287 59.3366 286.896 59.7003 286.688C60.0677 286.479 60.3442 286.21 60.5298 285.881C60.7192 285.551 60.8139 285.205 60.8139 284.841V283.614C60.7571 283.682 60.6321 283.744 60.4389 283.801C60.2495 283.854 60.0298 283.902 59.7798 283.943C59.5336 283.981 59.2931 284.015 59.0582 284.045C58.8272 284.072 58.6397 284.095 58.4957 284.114C58.1473 284.159 57.8215 284.233 57.5185 284.335C57.2192 284.434 56.9768 284.583 56.7912 284.784C56.6094 284.981 56.5185 285.25 56.5185 285.591C56.5185 286.057 56.6908 286.409 57.0355 286.648C57.384 286.883 57.8253 287 58.3594 287ZM65.9432 276.364V288H64.6023V276.364H65.9432Z" fill="black"/>
<path d="M235.068 288.159C234.591 288.152 234.114 288.061 233.636 287.886C233.159 287.712 232.723 287.419 232.33 287.006C231.936 286.589 231.619 286.027 231.381 285.318C231.142 284.606 231.023 283.712 231.023 282.636C231.023 281.606 231.119 280.693 231.312 279.898C231.506 279.098 231.786 278.426 232.153 277.881C232.521 277.331 232.964 276.915 233.483 276.631C234.006 276.347 234.595 276.205 235.25 276.205C235.902 276.205 236.481 276.335 236.989 276.597C237.5 276.854 237.917 277.214 238.239 277.676C238.561 278.138 238.769 278.67 238.864 279.273H237.477C237.348 278.75 237.098 278.316 236.727 277.972C236.356 277.627 235.864 277.455 235.25 277.455C234.348 277.455 233.638 277.847 233.119 278.631C232.604 279.415 232.345 280.515 232.341 281.932H232.432C232.644 281.61 232.896 281.335 233.188 281.108C233.483 280.877 233.809 280.699 234.165 280.574C234.521 280.449 234.898 280.386 235.295 280.386C235.962 280.386 236.572 280.553 237.125 280.886C237.678 281.216 238.121 281.672 238.455 282.256C238.788 282.835 238.955 283.5 238.955 284.25C238.955 284.97 238.794 285.629 238.472 286.227C238.15 286.822 237.697 287.295 237.114 287.648C236.534 287.996 235.852 288.167 235.068 288.159ZM235.068 286.909C235.545 286.909 235.973 286.79 236.352 286.551C236.735 286.312 237.036 285.992 237.256 285.591C237.479 285.189 237.591 284.742 237.591 284.25C237.591 283.769 237.483 283.331 237.267 282.938C237.055 282.54 236.761 282.223 236.386 281.989C236.015 281.754 235.591 281.636 235.114 281.636C234.754 281.636 234.419 281.708 234.108 281.852C233.797 281.992 233.525 282.186 233.29 282.432C233.059 282.678 232.877 282.96 232.744 283.278C232.612 283.593 232.545 283.924 232.545 284.273C232.545 284.735 232.653 285.167 232.869 285.568C233.089 285.97 233.388 286.294 233.767 286.54C234.15 286.786 234.583 286.909 235.068 286.909ZM241.189 288V286.977L245.03 282.773C245.481 282.28 245.852 281.852 246.143 281.489C246.435 281.121 246.651 280.777 246.791 280.455C246.935 280.129 247.007 279.788 247.007 279.432C247.007 279.023 246.909 278.669 246.712 278.369C246.518 278.07 246.253 277.839 245.916 277.676C245.579 277.513 245.2 277.432 244.78 277.432C244.333 277.432 243.943 277.525 243.609 277.71C243.28 277.892 243.024 278.148 242.842 278.477C242.664 278.807 242.575 279.193 242.575 279.636H241.234C241.234 278.955 241.392 278.356 241.706 277.841C242.02 277.326 242.448 276.924 242.99 276.636C243.536 276.348 244.147 276.205 244.825 276.205C245.507 276.205 246.111 276.348 246.638 276.636C247.164 276.924 247.577 277.312 247.876 277.801C248.176 278.29 248.325 278.833 248.325 279.432C248.325 279.86 248.248 280.278 248.092 280.688C247.941 281.093 247.676 281.545 247.297 282.045C246.922 282.542 246.401 283.148 245.734 283.864L243.121 286.659V286.75H248.53V288H241.189ZM254.967 276.364V288H253.558V277.841H253.49L250.649 279.727V278.295L253.558 276.364H254.967ZM258.626 288.091C258.346 288.091 258.106 287.991 257.905 287.79C257.704 287.589 257.604 287.348 257.604 287.068C257.604 286.788 257.704 286.547 257.905 286.347C258.106 286.146 258.346 286.045 258.626 286.045C258.907 286.045 259.147 286.146 259.348 286.347C259.549 286.547 259.649 286.788 259.649 287.068C259.649 287.254 259.602 287.424 259.507 287.58C259.416 287.735 259.293 287.86 259.138 287.955C258.986 288.045 258.816 288.091 258.626 288.091ZM265.422 288.159C264.566 288.159 263.837 287.926 263.234 287.46C262.632 286.991 262.172 286.311 261.854 285.42C261.536 284.527 261.376 283.447 261.376 282.182C261.376 280.924 261.536 279.85 261.854 278.96C262.176 278.066 262.638 277.384 263.24 276.915C263.846 276.441 264.573 276.205 265.422 276.205C266.27 276.205 266.996 276.441 267.598 276.915C268.204 277.384 268.666 278.066 268.984 278.96C269.306 279.85 269.467 280.924 269.467 282.182C269.467 283.447 269.308 284.527 268.99 285.42C268.672 286.311 268.212 286.991 267.609 287.46C267.007 287.926 266.278 288.159 265.422 288.159ZM265.422 286.909C266.27 286.909 266.929 286.5 267.399 285.682C267.869 284.864 268.104 283.697 268.104 282.182C268.104 281.174 267.996 280.316 267.78 279.608C267.568 278.9 267.261 278.36 266.859 277.989C266.462 277.617 265.982 277.432 265.422 277.432C264.581 277.432 263.924 277.847 263.45 278.676C262.977 279.502 262.74 280.67 262.74 282.182C262.74 283.189 262.846 284.045 263.058 284.75C263.27 285.455 263.575 285.991 263.973 286.358C264.375 286.725 264.857 286.909 265.422 286.909ZM275.422 288.159C274.566 288.159 273.837 287.926 273.234 287.46C272.632 286.991 272.172 286.311 271.854 285.42C271.536 284.527 271.376 283.447 271.376 282.182C271.376 280.924 271.536 279.85 271.854 278.96C272.176 278.066 272.638 277.384 273.24 276.915C273.846 276.441 274.573 276.205 275.422 276.205C276.27 276.205 276.996 276.441 277.598 276.915C278.204 277.384 278.666 278.066 278.984 278.96C279.306 279.85 279.467 280.924 279.467 282.182C279.467 283.447 279.308 284.527 278.99 285.42C278.672 286.311 278.212 286.991 277.609 287.46C277.007 287.926 276.278 288.159 275.422 288.159ZM275.422 286.909C276.27 286.909 276.929 286.5 277.399 285.682C277.869 284.864 278.104 283.697 278.104 282.182C278.104 281.174 277.996 280.316 277.78 279.608C277.568 278.9 277.261 278.36 276.859 277.989C276.462 277.617 275.982 277.432 275.422 277.432C274.581 277.432 273.924 277.847 273.45 278.676C272.977 279.502 272.74 280.67 272.74 282.182C272.74 283.189 272.846 284.045 273.058 284.75C273.27 285.455 273.575 285.991 273.973 286.358C274.375 286.725 274.857 286.909 275.422 286.909ZM289.558 289.455V274.909H290.49V289.455H289.558ZM292.695 279.273C292.626 278.697 292.35 278.25 291.865 277.932C291.38 277.614 290.786 277.455 290.081 277.455C289.566 277.455 289.115 277.538 288.729 277.705C288.346 277.871 288.047 278.1 287.831 278.392C287.619 278.684 287.513 279.015 287.513 279.386C287.513 279.697 287.587 279.964 287.734 280.188C287.886 280.407 288.079 280.591 288.314 280.739C288.549 280.883 288.795 281.002 289.053 281.097C289.31 281.187 289.547 281.261 289.763 281.318L290.945 281.636C291.248 281.716 291.585 281.826 291.956 281.966C292.331 282.106 292.689 282.297 293.03 282.54C293.375 282.778 293.659 283.085 293.882 283.46C294.106 283.835 294.217 284.295 294.217 284.841C294.217 285.47 294.053 286.038 293.723 286.545C293.397 287.053 292.92 287.456 292.291 287.756C291.666 288.055 290.907 288.205 290.013 288.205C289.179 288.205 288.458 288.07 287.848 287.801C287.242 287.532 286.765 287.157 286.416 286.676C286.071 286.195 285.876 285.636 285.831 285H287.286C287.323 285.439 287.471 285.803 287.729 286.091C287.99 286.375 288.32 286.587 288.717 286.727C289.119 286.864 289.551 286.932 290.013 286.932C290.551 286.932 291.034 286.845 291.462 286.67C291.89 286.492 292.229 286.246 292.479 285.932C292.729 285.614 292.854 285.242 292.854 284.818C292.854 284.432 292.746 284.117 292.53 283.875C292.314 283.633 292.03 283.436 291.678 283.284C291.325 283.133 290.945 283 290.536 282.886L289.104 282.477C288.195 282.216 287.475 281.843 286.945 281.358C286.414 280.873 286.149 280.239 286.149 279.455C286.149 278.803 286.325 278.235 286.678 277.75C287.034 277.261 287.511 276.883 288.109 276.614C288.712 276.341 289.384 276.205 290.126 276.205C290.876 276.205 291.543 276.339 292.126 276.608C292.71 276.873 293.172 277.237 293.513 277.699C293.857 278.161 294.039 278.686 294.058 279.273H292.695Z" fill="black"/>
<rect x="-67" y="249" width="1091" height="0.743258" fill="white" fill-opacity="0.5"/>
<rect x="-67" y="74" width="1091" height="0.743258" fill="white" fill-opacity="0.5"/>
</g>
<defs>
<filter id="filter0_f_0_277" x="-296" y="-250" width="727" height="816" filterUnits="userSpaceOnUse" color-interpolation-filters="sRGB">
<feFlood flood-opacity="0" result="BackgroundImageFix"/>
<feBlend mode="normal" in="SourceGraphic" in2="BackgroundImageFix" result="shape"/>
<feGaussianBlur stdDeviation="125" result="effect1_foregroundBlur_0_277"/>
</filter>
<clipPath id="clip0_0_277">
<rect width="326" height="323" rx="7" fill="white"/>
</clipPath>
</defs>
</svg>
