<svg width="498" height="261" viewBox="0 0 498 261" fill="none" xmlns="http://www.w3.org/2000/svg">
<rect width="498" height="261" rx="7" fill="white"/>
<path d="M24.44 203L22.78 200.15H21.68V203H20.77V196.03H23.02C23.5467 196.03 23.99 196.12 24.35 196.3C24.7167 196.48 24.99 196.723 25.17 197.03C25.35 197.337 25.44 197.687 25.44 198.08C25.44 198.56 25.3 198.983 25.02 199.35C24.7467 199.717 24.3333 199.96 23.78 200.08L25.53 203H24.44ZM21.68 199.42H23.02C23.5133 199.42 23.8833 199.3 24.13 199.06C24.3767 198.813 24.5 198.487 24.5 198.08C24.5 197.667 24.3767 197.347 24.13 197.12C23.89 196.893 23.52 196.78 23.02 196.78H21.68V199.42ZM31.854 200.05C31.854 200.223 31.844 200.407 31.824 200.6H27.444C27.4773 201.14 27.6607 201.563 27.994 201.87C28.334 202.17 28.744 202.32 29.224 202.32C29.6173 202.32 29.944 202.23 30.204 202.05C30.4707 201.863 30.6573 201.617 30.764 201.31H31.744C31.5973 201.837 31.304 202.267 30.864 202.6C30.424 202.927 29.8773 203.09 29.224 203.09C28.704 203.09 28.2373 202.973 27.824 202.74C27.4173 202.507 27.0973 202.177 26.864 201.75C26.6307 201.317 26.514 200.817 26.514 200.25C26.514 199.683 26.6273 199.187 26.854 198.76C27.0807 198.333 27.3973 198.007 27.804 197.78C28.2173 197.547 28.6907 197.43 29.224 197.43C29.744 197.43 30.204 197.543 30.604 197.77C31.004 197.997 31.3107 198.31 31.524 198.71C31.744 199.103 31.854 199.55 31.854 200.05ZM30.914 199.86C30.914 199.513 30.8373 199.217 30.684 198.97C30.5307 198.717 30.3207 198.527 30.054 198.4C29.794 198.267 29.504 198.2 29.184 198.2C28.724 198.2 28.3307 198.347 28.004 198.64C27.684 198.933 27.5007 199.34 27.454 199.86H30.914ZM35.0952 202.16L36.7952 197.52H37.7652L35.6152 203H34.5552L32.4052 197.52H33.3852L35.0952 202.16ZM43.6606 200.05C43.6606 200.223 43.6506 200.407 43.6306 200.6H39.2506C39.284 201.14 39.4673 201.563 39.8006 201.87C40.1406 202.17 40.5506 202.32 41.0306 202.32C41.424 202.32 41.7506 202.23 42.0106 202.05C42.2773 201.863 42.464 201.617 42.5706 201.31H43.5506C43.404 201.837 43.1106 202.267 42.6706 202.6C42.2306 202.927 41.684 203.09 41.0306 203.09C40.5106 203.09 40.044 202.973 39.6306 202.74C39.224 202.507 38.904 202.177 38.6706 201.75C38.4373 201.317 38.3206 200.817 38.3206 200.25C38.3206 199.683 38.434 199.187 38.6606 198.76C38.8873 198.333 39.204 198.007 39.6106 197.78C40.024 197.547 40.4973 197.43 41.0306 197.43C41.5506 197.43 42.0106 197.543 42.4106 197.77C42.8106 197.997 43.1173 198.31 43.3306 198.71C43.5506 199.103 43.6606 199.55 43.6606 200.05ZM42.7206 199.86C42.7206 199.513 42.644 199.217 42.4906 198.97C42.3373 198.717 42.1273 198.527 41.8606 198.4C41.6006 198.267 41.3106 198.2 40.9906 198.2C40.5306 198.2 40.1373 198.347 39.8106 198.64C39.4906 198.933 39.3073 199.34 39.2606 199.86H42.7206ZM47.5318 197.42C48.1985 197.42 48.7385 197.623 49.1518 198.03C49.5651 198.43 49.7718 199.01 49.7718 199.77V203H48.8718V199.9C48.8718 199.353 48.7351 198.937 48.4618 198.65C48.1885 198.357 47.8151 198.21 47.3418 198.21C46.8618 198.21 46.4785 198.36 46.1918 198.66C45.9118 198.96 45.7718 199.397 45.7718 199.97V203H44.8618V197.52H45.7718V198.3C45.9518 198.02 46.1951 197.803 46.5018 197.65C46.8151 197.497 47.1585 197.42 47.5318 197.42ZM56.1183 197.52V203H55.2083V202.19C55.0349 202.47 54.7916 202.69 54.4783 202.85C54.1716 203.003 53.8316 203.08 53.4583 203.08C53.0316 203.08 52.6483 202.993 52.3083 202.82C51.9683 202.64 51.6983 202.373 51.4983 202.02C51.3049 201.667 51.2083 201.237 51.2083 200.73V197.52H52.1083V200.61C52.1083 201.15 52.2449 201.567 52.5183 201.86C52.7916 202.147 53.1649 202.29 53.6383 202.29C54.1249 202.29 54.5083 202.14 54.7883 201.84C55.0683 201.54 55.2083 201.103 55.2083 200.53V197.52H56.1183ZM62.6548 200.05C62.6548 200.223 62.6448 200.407 62.6248 200.6H58.2448C58.2781 201.14 58.4614 201.563 58.7948 201.87C59.1348 202.17 59.5448 202.32 60.0248 202.32C60.4181 202.32 60.7448 202.23 61.0048 202.05C61.2714 201.863 61.4581 201.617 61.5648 201.31H62.5448C62.3981 201.837 62.1048 202.267 61.6648 202.6C61.2248 202.927 60.6781 203.09 60.0248 203.09C59.5048 203.09 59.0381 202.973 58.6248 202.74C58.2181 202.507 57.8981 202.177 57.6648 201.75C57.4314 201.317 57.3148 200.817 57.3148 200.25C57.3148 199.683 57.4281 199.187 57.6548 198.76C57.8814 198.333 58.1981 198.007 58.6048 197.78C59.0181 197.547 59.4914 197.43 60.0248 197.43C60.5448 197.43 61.0048 197.543 61.4048 197.77C61.8048 197.997 62.1114 198.31 62.3248 198.71C62.5448 199.103 62.6548 199.55 62.6548 200.05ZM61.7148 199.86C61.7148 199.513 61.6381 199.217 61.4848 198.97C61.3314 198.717 61.1214 198.527 60.8548 198.4C60.5948 198.267 60.3048 198.2 59.9848 198.2C59.5248 198.2 59.1314 198.347 58.8048 198.64C58.4848 198.933 58.3014 199.34 58.2548 199.86H61.7148Z" fill="#2E0068"/>
<path d="M116 208H20V210H116V208Z" fill="#2E0068" fill-opacity="0.05" mask="url(#path-2-inside-1_9_544)"/>
<path d="M25.424 233.192C24.6667 233.192 23.9733 233.053 23.344 232.776C22.7147 232.488 22.1813 232.099 21.744 231.608C21.3067 231.117 20.992 230.568 20.8 229.96L22.16 229.4C22.448 230.168 22.8747 230.76 23.44 231.176C24.016 231.581 24.688 231.784 25.456 231.784C25.9253 231.784 26.336 231.709 26.688 231.56C27.04 231.411 27.312 231.203 27.504 230.936C27.7067 230.659 27.808 230.339 27.808 229.976C27.808 229.475 27.664 229.08 27.376 228.792C27.0987 228.493 26.688 228.269 26.144 228.12L23.952 227.448C23.088 227.181 22.4267 226.76 21.968 226.184C21.5093 225.608 21.28 224.947 21.28 224.2C21.28 223.549 21.4347 222.979 21.744 222.488C22.064 221.987 22.5013 221.597 23.056 221.32C23.6213 221.032 24.2613 220.888 24.976 220.888C25.6907 220.888 26.336 221.016 26.912 221.272C27.4987 221.528 27.9947 221.875 28.4 222.312C28.8053 222.739 29.104 223.229 29.296 223.784L27.952 224.344C27.696 223.672 27.312 223.165 26.8 222.824C26.288 222.472 25.6853 222.296 24.992 222.296C24.5653 222.296 24.1867 222.371 23.856 222.52C23.536 222.659 23.2853 222.867 23.104 223.144C22.9333 223.411 22.848 223.731 22.848 224.104C22.848 224.541 22.9867 224.931 23.264 225.272C23.5413 225.613 23.9627 225.875 24.528 226.056L26.528 226.648C27.4667 226.936 28.176 227.347 28.656 227.88C29.136 228.413 29.376 229.075 29.376 229.864C29.376 230.515 29.2053 231.091 28.864 231.592C28.5333 232.093 28.0693 232.488 27.472 232.776C26.8853 233.053 26.2027 233.192 25.424 233.192ZM24.704 234.6V219.48H25.904V234.6H24.704ZM35.1574 233L39.2694 227.64L39.5574 227.672C39.3974 227.885 39.2214 228.056 39.0294 228.184C38.8374 228.301 38.624 228.387 38.3894 228.44C38.1654 228.493 37.92 228.52 37.6534 228.52C36.9494 228.52 36.3147 228.36 35.7494 228.04C35.1947 227.709 34.752 227.261 34.4214 226.696C34.1014 226.12 33.9414 225.464 33.9414 224.728C33.9414 223.992 34.112 223.336 34.4534 222.76C34.7947 222.184 35.264 221.731 35.8614 221.4C36.4587 221.059 37.1307 220.888 37.8774 220.888C38.6454 220.888 39.3227 221.059 39.9094 221.4C40.5067 221.731 40.976 222.195 41.3174 222.792C41.6587 223.379 41.8294 224.056 41.8294 224.824C41.8294 225.24 41.7814 225.651 41.6854 226.056C41.5894 226.461 41.4347 226.872 41.2214 227.288C41.0187 227.704 40.7467 228.136 40.4054 228.584L37.0454 233H35.1574ZM37.8774 227.144C38.336 227.144 38.7414 227.043 39.0934 226.84C39.456 226.627 39.7387 226.339 39.9414 225.976C40.144 225.603 40.2454 225.187 40.2454 224.728C40.2454 224.248 40.1387 223.827 39.9254 223.464C39.7227 223.101 39.4454 222.813 39.0934 222.6C38.7414 222.387 38.336 222.28 37.8774 222.28C37.4294 222.28 37.0294 222.387 36.6774 222.6C36.3254 222.813 36.0427 223.101 35.8294 223.464C35.6267 223.827 35.5254 224.248 35.5254 224.728C35.5254 225.187 35.6267 225.603 35.8294 225.976C36.032 226.339 36.3094 226.627 36.6614 226.84C37.024 227.043 37.4294 227.144 37.8774 227.144ZM44.7355 233L48.8475 227.64L49.1355 227.672C48.9755 227.885 48.7995 228.056 48.6075 228.184C48.4155 228.301 48.2022 228.387 47.9675 228.44C47.7435 228.493 47.4982 228.52 47.2315 228.52C46.5275 228.52 45.8928 228.36 45.3275 228.04C44.7728 227.709 44.3302 227.261 43.9995 226.696C43.6795 226.12 43.5195 225.464 43.5195 224.728C43.5195 223.992 43.6902 223.336 44.0315 222.76C44.3728 222.184 44.8422 221.731 45.4395 221.4C46.0368 221.059 46.7088 220.888 47.4555 220.888C48.2235 220.888 48.9008 221.059 49.4875 221.4C50.0848 221.731 50.5542 222.195 50.8955 222.792C51.2368 223.379 51.4075 224.056 51.4075 224.824C51.4075 225.24 51.3595 225.651 51.2635 226.056C51.1675 226.461 51.0128 226.872 50.7995 227.288C50.5968 227.704 50.3248 228.136 49.9835 228.584L46.6235 233H44.7355ZM47.4555 227.144C47.9142 227.144 48.3195 227.043 48.6715 226.84C49.0342 226.627 49.3168 226.339 49.5195 225.976C49.7222 225.603 49.8235 225.187 49.8235 224.728C49.8235 224.248 49.7168 223.827 49.5035 223.464C49.3008 223.101 49.0235 222.813 48.6715 222.6C48.3195 222.387 47.9142 222.28 47.4555 222.28C47.0075 222.28 46.6075 222.387 46.2555 222.6C45.9035 222.813 45.6208 223.101 45.4075 223.464C45.2048 223.827 45.1035 224.248 45.1035 224.728C45.1035 225.187 45.2048 225.603 45.4075 225.976C45.6102 226.339 45.8875 226.627 46.2395 226.84C46.6022 227.043 47.0075 227.144 47.4555 227.144ZM53.2674 235.224V234.504C53.598 234.419 53.8487 234.253 54.0194 234.008C54.19 233.763 54.286 233.427 54.3074 233H53.5874V231.08H55.1394V232.44C55.1394 233.208 54.9794 233.827 54.6594 234.296C54.35 234.765 53.886 235.075 53.2674 235.224ZM58.6886 233L62.8006 227.64L63.0886 227.672C62.9286 227.885 62.7526 228.056 62.5606 228.184C62.3686 228.301 62.1553 228.387 61.9206 228.44C61.6966 228.493 61.4513 228.52 61.1846 228.52C60.4806 228.52 59.846 228.36 59.2806 228.04C58.726 227.709 58.2833 227.261 57.9526 226.696C57.6326 226.12 57.4726 225.464 57.4726 224.728C57.4726 223.992 57.6433 223.336 57.9846 222.76C58.326 222.184 58.7953 221.731 59.3926 221.4C59.99 221.059 60.662 220.888 61.4086 220.888C62.1766 220.888 62.854 221.059 63.4406 221.4C64.038 221.731 64.5073 222.195 64.8486 222.792C65.19 223.379 65.3606 224.056 65.3606 224.824C65.3606 225.24 65.3126 225.651 65.2166 226.056C65.1206 226.461 64.966 226.872 64.7526 227.288C64.55 227.704 64.278 228.136 63.9366 228.584L60.5766 233H58.6886ZM61.4086 227.144C61.8673 227.144 62.2726 227.043 62.6246 226.84C62.9873 226.627 63.27 226.339 63.4726 225.976C63.6753 225.603 63.7766 225.187 63.7766 224.728C63.7766 224.248 63.67 223.827 63.4566 223.464C63.254 223.101 62.9766 222.813 62.6246 222.6C62.2726 222.387 61.8673 222.28 61.4086 222.28C60.9606 222.28 60.5606 222.387 60.2086 222.6C59.8566 222.813 59.574 223.101 59.3606 223.464C59.158 223.827 59.0566 224.248 59.0566 224.728C59.0566 225.187 59.158 225.603 59.3606 225.976C59.5633 226.339 59.8406 226.627 60.1926 226.84C60.5553 227.043 60.9606 227.144 61.4086 227.144ZM67.0828 233V231.912L70.3788 228.344C71.0294 227.651 71.5468 227.08 71.9308 226.632C72.3254 226.184 72.6134 225.784 72.7948 225.432C72.9761 225.08 73.0668 224.707 73.0668 224.312C73.0668 223.661 72.8748 223.16 72.4908 222.808C72.1068 222.456 71.6001 222.28 70.9708 222.28C70.3308 222.28 69.7868 222.467 69.3388 222.84C68.8908 223.203 68.5814 223.72 68.4108 224.392L66.9868 224.024C67.1254 223.384 67.3814 222.829 67.7548 222.36C68.1281 221.891 68.5921 221.528 69.1468 221.272C69.7014 221.016 70.3094 220.888 70.9708 220.888C71.6961 220.888 72.3308 221.032 72.8748 221.32C73.4294 221.597 73.8614 221.987 74.1708 222.488C74.4908 222.989 74.6508 223.571 74.6508 224.232C74.6508 224.669 74.5601 225.096 74.3788 225.512C74.1974 225.928 73.9308 226.371 73.5788 226.84C73.2268 227.299 72.7681 227.832 72.2028 228.44L69.2588 231.64H74.9068V233H67.0828ZM80.5969 233.192C79.9782 233.192 79.3969 233.085 78.8529 232.872C78.3089 232.648 77.8342 232.333 77.4289 231.928C77.0342 231.512 76.7462 231.027 76.5649 230.472L77.8449 229.928C78.0689 230.515 78.4315 230.973 78.9329 231.304C79.4449 231.624 79.9995 231.784 80.5969 231.784C81.0875 231.784 81.5195 231.677 81.8929 231.464C82.2769 231.24 82.5755 230.936 82.7889 230.552C83.0022 230.157 83.1089 229.72 83.1089 229.24C83.1089 228.739 82.9969 228.296 82.7729 227.912C82.5595 227.528 82.2662 227.229 81.8929 227.016C81.5195 226.792 81.0929 226.68 80.6129 226.68C80.1222 226.68 79.6742 226.792 79.2689 227.016C78.8635 227.24 78.5702 227.523 78.3889 227.864L77.1249 227.592L78.0369 221.08H84.2129V222.44H78.6289L79.2369 221.832L78.5329 226.888L77.9889 226.568C78.3409 226.12 78.7515 225.8 79.2209 225.608C79.7009 225.405 80.2182 225.304 80.7729 225.304C81.5515 225.304 82.2342 225.48 82.8209 225.832C83.4075 226.184 83.8662 226.653 84.1969 227.24C84.5275 227.827 84.6929 228.493 84.6929 229.24C84.6929 229.987 84.5115 230.659 84.1489 231.256C83.7969 231.853 83.3115 232.328 82.6929 232.68C82.0849 233.021 81.3862 233.192 80.5969 233.192Z" fill="#2E0068"/>
<circle cx="25" cy="19" r="5" fill="#F86156"/>
<circle cx="51" cy="19" r="5" fill="#F9CE53"/>
<circle cx="77" cy="19" r="5" fill="#5FCF65"/>
<rect x="20" y="42" width="94" height="44" rx="3" fill="#2E0068" fill-opacity="0.1"/>
<path d="M32.068 60.144C31.5 60.144 30.984 60.036 30.52 59.82C30.056 59.604 29.664 59.316 29.344 58.956C29.024 58.588 28.796 58.184 28.66 57.744L29.524 57.42C29.732 58.028 30.056 58.492 30.496 58.812C30.936 59.124 31.46 59.28 32.068 59.28C32.452 59.28 32.788 59.22 33.076 59.1C33.372 58.972 33.6 58.796 33.76 58.572C33.92 58.348 34 58.088 34 57.792C34 57.352 33.88 57.012 33.64 56.772C33.4 56.532 33.056 56.348 32.608 56.22L31 55.74C30.368 55.556 29.88 55.248 29.536 54.816C29.2 54.384 29.032 53.892 29.032 53.34C29.032 52.868 29.148 52.452 29.38 52.092C29.612 51.724 29.928 51.436 30.328 51.228C30.736 51.02 31.196 50.916 31.708 50.916C32.244 50.916 32.724 51.016 33.148 51.216C33.58 51.408 33.944 51.664 34.24 51.984C34.536 52.304 34.748 52.66 34.876 53.052L34.036 53.388C33.844 52.86 33.544 52.46 33.136 52.188C32.736 51.916 32.264 51.78 31.72 51.78C31.376 51.78 31.072 51.84 30.808 51.96C30.552 52.08 30.352 52.252 30.208 52.476C30.064 52.7 29.992 52.964 29.992 53.268C29.992 53.636 30.108 53.968 30.34 54.264C30.572 54.552 30.928 54.768 31.408 54.912L32.824 55.332C33.528 55.54 34.06 55.84 34.42 56.232C34.78 56.624 34.96 57.116 34.96 57.708C34.96 58.188 34.836 58.612 34.588 58.98C34.348 59.34 34.008 59.624 33.568 59.832C33.136 60.04 32.636 60.144 32.068 60.144ZM36.6818 62.4V53.568H37.5818V55.008L37.4378 54.756C37.6938 54.348 38.0338 54.024 38.4578 53.784C38.8898 53.544 39.3818 53.424 39.9338 53.424C40.5418 53.424 41.0818 53.572 41.5538 53.868C42.0338 54.156 42.4098 54.552 42.6818 55.056C42.9618 55.56 43.1018 56.136 43.1018 56.784C43.1018 57.424 42.9618 58 42.6818 58.512C42.4098 59.016 42.0338 59.416 41.5538 59.712C41.0818 60 40.5418 60.144 39.9338 60.144C39.3818 60.144 38.8818 60.02 38.4338 59.772C37.9938 59.516 37.6618 59.156 37.4378 58.692L37.5818 58.56V62.4H36.6818ZM39.8858 59.244C40.3178 59.244 40.7018 59.136 41.0378 58.92C41.3818 58.704 41.6498 58.412 41.8418 58.044C42.0418 57.668 42.1418 57.248 42.1418 56.784C42.1418 56.312 42.0418 55.892 41.8418 55.524C41.6498 55.156 41.3818 54.864 41.0378 54.648C40.7018 54.432 40.3178 54.324 39.8858 54.324C39.4538 54.324 39.0618 54.432 38.7098 54.648C38.3658 54.864 38.0898 55.16 37.8818 55.536C37.6818 55.904 37.5818 56.32 37.5818 56.784C37.5818 57.248 37.6818 57.668 37.8818 58.044C38.0898 58.412 38.3658 58.704 38.7098 58.92C39.0618 59.136 39.4538 59.244 39.8858 59.244ZM47.6137 60.144C47.0137 60.144 46.4697 60 45.9817 59.712C45.5017 59.416 45.1217 59.012 44.8417 58.5C44.5617 57.988 44.4217 57.408 44.4217 56.76C44.4217 56.112 44.5577 55.54 44.8297 55.044C45.1017 54.54 45.4697 54.144 45.9337 53.856C46.4057 53.568 46.9337 53.424 47.5177 53.424C47.9817 53.424 48.3937 53.512 48.7537 53.688C49.1217 53.856 49.4337 54.088 49.6897 54.384C49.9457 54.672 50.1417 55 50.2777 55.368C50.4137 55.728 50.4817 56.1 50.4817 56.484C50.4817 56.564 50.4777 56.656 50.4697 56.76C50.4617 56.856 50.4497 56.956 50.4337 57.06H44.9977V56.22H49.9177L49.4857 56.58C49.5577 56.14 49.5057 55.748 49.3297 55.404C49.1617 55.052 48.9177 54.776 48.5977 54.576C48.2777 54.368 47.9177 54.264 47.5177 54.264C47.1177 54.264 46.7457 54.368 46.4017 54.576C46.0657 54.784 45.8017 55.076 45.6097 55.452C45.4177 55.82 45.3417 56.26 45.3817 56.772C45.3417 57.284 45.4217 57.732 45.6217 58.116C45.8297 58.492 46.1097 58.784 46.4617 58.992C46.8217 59.2 47.2057 59.304 47.6137 59.304C48.0857 59.304 48.4817 59.192 48.8017 58.968C49.1217 58.744 49.3817 58.464 49.5817 58.128L50.3497 58.536C50.2217 58.824 50.0257 59.092 49.7617 59.34C49.4977 59.58 49.1817 59.776 48.8137 59.928C48.4537 60.072 48.0537 60.144 47.6137 60.144ZM52.0685 60V53.568H52.9685V54.816L52.7645 54.768C52.9245 54.352 53.1845 54.024 53.5445 53.784C53.9125 53.544 54.3365 53.424 54.8165 53.424C55.2725 53.424 55.6805 53.528 56.0405 53.736C56.4085 53.944 56.6965 54.232 56.9045 54.6C57.1205 54.96 57.2285 55.368 57.2285 55.824V60H56.3285V56.172C56.3285 55.78 56.2565 55.448 56.1125 55.176C55.9765 54.904 55.7805 54.696 55.5245 54.552C55.2765 54.4 54.9885 54.324 54.6605 54.324C54.3325 54.324 54.0405 54.4 53.7845 54.552C53.5285 54.696 53.3285 54.908 53.1845 55.188C53.0405 55.46 52.9685 55.788 52.9685 56.172V60H52.0685ZM61.8514 60.144C61.2514 60.144 60.7114 60 60.2314 59.712C59.7514 59.416 59.3714 59.016 59.0914 58.512C58.8194 58 58.6834 57.424 58.6834 56.784C58.6834 56.136 58.8194 55.56 59.0914 55.056C59.3714 54.552 59.7474 54.156 60.2194 53.868C60.6994 53.572 61.2434 53.424 61.8514 53.424C62.4034 53.424 62.8954 53.544 63.3274 53.784C63.7594 54.024 64.0994 54.348 64.3474 54.756L64.2034 55.008V50.916H65.1034V60H64.2034V58.56L64.3474 58.692C64.1234 59.156 63.7874 59.516 63.3394 59.772C62.8994 60.02 62.4034 60.144 61.8514 60.144ZM61.8994 59.244C62.3314 59.244 62.7194 59.136 63.0634 58.92C63.4154 58.704 63.6914 58.412 63.8914 58.044C64.0994 57.668 64.2034 57.248 64.2034 56.784C64.2034 56.32 64.0994 55.904 63.8914 55.536C63.6914 55.16 63.4154 54.864 63.0634 54.648C62.7194 54.432 62.3314 54.324 61.8994 54.324C61.4754 54.324 61.0914 54.432 60.7474 54.648C60.4034 54.864 60.1314 55.156 59.9314 55.524C59.7394 55.892 59.6434 56.312 59.6434 56.784C59.6434 57.248 59.7394 57.668 59.9314 58.044C60.1314 58.412 60.3994 58.704 60.7354 58.92C61.0794 59.136 61.4674 59.244 61.8994 59.244ZM66.9513 60V53.568H67.8513V60H66.9513ZM66.9513 52.38V51.06H67.8513V52.38H66.9513ZM69.6935 60V53.568H70.5935V54.816L70.3895 54.768C70.5495 54.352 70.8095 54.024 71.1695 53.784C71.5375 53.544 71.9615 53.424 72.4415 53.424C72.8975 53.424 73.3055 53.528 73.6655 53.736C74.0335 53.944 74.3215 54.232 74.5295 54.6C74.7455 54.96 74.8535 55.368 74.8535 55.824V60H73.9535V56.172C73.9535 55.78 73.8815 55.448 73.7375 55.176C73.6015 54.904 73.4055 54.696 73.1495 54.552C72.9015 54.4 72.6135 54.324 72.2855 54.324C71.9575 54.324 71.6655 54.4 71.4095 54.552C71.1535 54.696 70.9535 54.908 70.8095 55.188C70.6655 55.46 70.5935 55.788 70.5935 56.172V60H69.6935ZM79.6204 62.64C79.1804 62.64 78.7724 62.572 78.3964 62.436C78.0284 62.3 77.7084 62.112 77.4364 61.872C77.1724 61.64 76.9684 61.368 76.8244 61.056L77.6524 60.612C77.7804 60.916 78.0084 61.18 78.3364 61.404C78.6644 61.628 79.0844 61.74 79.5964 61.74C79.9884 61.74 80.3484 61.664 80.6764 61.512C81.0044 61.36 81.2684 61.136 81.4684 60.84C81.6684 60.544 81.7684 60.18 81.7684 59.748V58.32L81.9124 58.452C81.6884 58.916 81.3564 59.276 80.9164 59.532C80.4764 59.78 79.9964 59.904 79.4764 59.904C78.8764 59.904 78.3364 59.76 77.8564 59.472C77.3764 59.184 76.9964 58.796 76.7164 58.308C76.4444 57.812 76.3084 57.264 76.3084 56.664C76.3084 56.056 76.4444 55.508 76.7164 55.02C76.9964 54.532 77.3724 54.144 77.8444 53.856C78.3244 53.568 78.8684 53.424 79.4764 53.424C79.9964 53.424 80.4684 53.544 80.8924 53.784C81.3244 54.024 81.6644 54.348 81.9124 54.756L81.7684 55.008V53.568H82.6684V59.748C82.6684 60.3 82.5364 60.792 82.2724 61.224C82.0164 61.664 81.6564 62.008 81.1924 62.256C80.7364 62.512 80.2124 62.64 79.6204 62.64ZM79.5244 59.004C79.9404 59.004 80.3164 58.9 80.6524 58.692C80.9884 58.476 81.2564 58.192 81.4564 57.84C81.6644 57.48 81.7684 57.088 81.7684 56.664C81.7684 56.24 81.6644 55.852 81.4564 55.5C81.2564 55.14 80.9884 54.856 80.6524 54.648C80.3164 54.432 79.9404 54.324 79.5244 54.324C79.1004 54.324 78.7164 54.432 78.3724 54.648C78.0284 54.856 77.7564 55.136 77.5564 55.488C77.3644 55.84 77.2684 56.232 77.2684 56.664C77.2684 57.088 77.3644 57.48 77.5564 57.84C77.7564 58.192 78.0244 58.476 78.3604 58.692C78.7044 58.9 79.0924 59.004 79.5244 59.004ZM28.924 79.4V70.568H29.824V72.008L29.68 71.756C29.936 71.348 30.276 71.024 30.7 70.784C31.132 70.544 31.624 70.424 32.176 70.424C32.784 70.424 33.324 70.572 33.796 70.868C34.276 71.156 34.652 71.552 34.924 72.056C35.204 72.56 35.344 73.136 35.344 73.784C35.344 74.424 35.204 75 34.924 75.512C34.652 76.016 34.276 76.416 33.796 76.712C33.324 77 32.784 77.144 32.176 77.144C31.624 77.144 31.124 77.02 30.676 76.772C30.236 76.516 29.904 76.156 29.68 75.692L29.824 75.56V79.4H28.924ZM32.128 76.244C32.56 76.244 32.944 76.136 33.28 75.92C33.624 75.704 33.892 75.412 34.084 75.044C34.284 74.668 34.384 74.248 34.384 73.784C34.384 73.312 34.284 72.892 34.084 72.524C33.892 72.156 33.624 71.864 33.28 71.648C32.944 71.432 32.56 71.324 32.128 71.324C31.696 71.324 31.304 71.432 30.952 71.648C30.608 71.864 30.332 72.16 30.124 72.536C29.924 72.904 29.824 73.32 29.824 73.784C29.824 74.248 29.924 74.668 30.124 75.044C30.332 75.412 30.608 75.704 30.952 75.92C31.304 76.136 31.696 76.244 32.128 76.244ZM39.8559 77.144C39.2559 77.144 38.7119 77 38.2239 76.712C37.7439 76.416 37.3639 76.012 37.0839 75.5C36.8039 74.988 36.6639 74.408 36.6639 73.76C36.6639 73.112 36.7999 72.54 37.0719 72.044C37.3439 71.54 37.7119 71.144 38.1759 70.856C38.6479 70.568 39.1759 70.424 39.7599 70.424C40.2239 70.424 40.6359 70.512 40.9959 70.688C41.3639 70.856 41.6759 71.088 41.9319 71.384C42.1879 71.672 42.3839 72 42.5199 72.368C42.6559 72.728 42.7239 73.1 42.7239 73.484C42.7239 73.564 42.7199 73.656 42.7119 73.76C42.7039 73.856 42.6919 73.956 42.6759 74.06H37.2399V73.22H42.1599L41.7279 73.58C41.7999 73.14 41.7479 72.748 41.5719 72.404C41.4039 72.052 41.1599 71.776 40.8399 71.576C40.5199 71.368 40.1599 71.264 39.7599 71.264C39.3599 71.264 38.9879 71.368 38.6439 71.576C38.3079 71.784 38.0439 72.076 37.8519 72.452C37.6599 72.82 37.5839 73.26 37.6239 73.772C37.5839 74.284 37.6639 74.732 37.8639 75.116C38.0719 75.492 38.3519 75.784 38.7039 75.992C39.0639 76.2 39.4479 76.304 39.8559 76.304C40.3279 76.304 40.7239 76.192 41.0439 75.968C41.3639 75.744 41.6239 75.464 41.8239 75.128L42.5919 75.536C42.4639 75.824 42.2679 76.092 42.0039 76.34C41.7399 76.58 41.4239 76.776 41.0559 76.928C40.6959 77.072 40.2959 77.144 39.8559 77.144ZM44.3107 77V70.568H45.2107V71.624L45.0907 71.468C45.2427 71.164 45.4707 70.924 45.7747 70.748C46.0867 70.572 46.4627 70.484 46.9027 70.484H47.3107V71.384H46.7467C46.2827 71.384 45.9107 71.528 45.6307 71.816C45.3507 72.104 45.2107 72.512 45.2107 73.04V77H44.3107ZM49.0254 77V71.468H47.7414V70.568H49.0254V69.992C49.0254 69.544 49.1254 69.168 49.3254 68.864C49.5254 68.552 49.7894 68.316 50.1174 68.156C50.4454 67.996 50.7974 67.916 51.1734 67.916C51.2534 67.916 51.3454 67.924 51.4494 67.94C51.5534 67.948 51.6374 67.96 51.7014 67.976V68.792C51.6454 68.776 51.5694 68.768 51.4734 68.768C51.3774 68.76 51.3094 68.756 51.2694 68.756C50.8854 68.756 50.5654 68.848 50.3094 69.032C50.0534 69.216 49.9254 69.536 49.9254 69.992V70.568H51.4974V71.468H49.9254V77H49.0254ZM55.7251 77.144C55.1171 77.144 54.5651 77 54.0691 76.712C53.5731 76.416 53.1771 76.016 52.8811 75.512C52.5931 75 52.4491 74.42 52.4491 73.772C52.4491 73.132 52.5931 72.56 52.8811 72.056C53.1691 71.552 53.5571 71.156 54.0451 70.868C54.5411 70.572 55.1011 70.424 55.7251 70.424C56.3491 70.424 56.9051 70.568 57.3931 70.856C57.8891 71.144 58.2771 71.54 58.5571 72.044C58.8451 72.548 58.9891 73.124 58.9891 73.772C58.9891 74.428 58.8411 75.012 58.5451 75.524C58.2491 76.028 57.8531 76.424 57.3571 76.712C56.8691 77 56.3251 77.144 55.7251 77.144ZM55.7251 76.244C56.1571 76.244 56.5451 76.136 56.8891 75.92C57.2411 75.704 57.5171 75.408 57.7171 75.032C57.9251 74.656 58.0291 74.236 58.0291 73.772C58.0291 73.308 57.9251 72.892 57.7171 72.524C57.5171 72.156 57.2411 71.864 56.8891 71.648C56.5451 71.432 56.1571 71.324 55.7251 71.324C55.2931 71.324 54.9011 71.432 54.5491 71.648C54.2051 71.864 53.9291 72.156 53.7211 72.524C53.5131 72.892 53.4091 73.308 53.4091 73.772C53.4091 74.236 53.5131 74.656 53.7211 75.032C53.9291 75.408 54.2051 75.704 54.5491 75.92C54.9011 76.136 55.2931 76.244 55.7251 76.244ZM60.5763 77V70.568H61.4763V71.624L61.3563 71.468C61.5083 71.164 61.7363 70.924 62.0403 70.748C62.3523 70.572 62.7283 70.484 63.1683 70.484H63.5763V71.384H63.0123C62.5483 71.384 62.1763 71.528 61.8963 71.816C61.6163 72.104 61.4763 72.512 61.4763 73.04V77H60.5763ZM64.631 77V70.568H65.531V71.792L65.387 71.612C65.563 71.236 65.823 70.944 66.167 70.736C66.519 70.528 66.903 70.424 67.319 70.424C67.815 70.424 68.263 70.564 68.663 70.844C69.063 71.124 69.347 71.488 69.515 71.936L69.263 71.948C69.423 71.452 69.699 71.076 70.091 70.82C70.491 70.556 70.931 70.424 71.411 70.424C71.843 70.424 72.239 70.528 72.599 70.736C72.967 70.944 73.259 71.232 73.475 71.6C73.699 71.96 73.811 72.368 73.811 72.824V77H72.911V73.172C72.911 72.78 72.839 72.448 72.695 72.176C72.559 71.904 72.371 71.696 72.131 71.552C71.891 71.4 71.615 71.324 71.303 71.324C70.999 71.324 70.723 71.4 70.475 71.552C70.227 71.696 70.031 71.908 69.887 72.188C69.743 72.46 69.671 72.788 69.671 73.172V77H68.771V73.172C68.771 72.78 68.699 72.448 68.555 72.176C68.419 71.904 68.231 71.696 67.991 71.552C67.751 71.4 67.475 71.324 67.163 71.324C66.851 71.324 66.571 71.4 66.323 71.552C66.083 71.696 65.891 71.908 65.747 72.188C65.603 72.46 65.531 72.788 65.531 73.172V77H64.631ZM77.3895 77.144C76.9815 77.144 76.6175 77.068 76.2975 76.916C75.9775 76.756 75.7255 76.54 75.5415 76.268C75.3575 75.996 75.2655 75.684 75.2655 75.332C75.2655 74.996 75.3375 74.692 75.4815 74.42C75.6255 74.14 75.8495 73.904 76.1535 73.712C76.4575 73.52 76.8455 73.384 77.3175 73.304L79.8375 72.884V73.7L77.5335 74.084C77.0695 74.164 76.7335 74.312 76.5255 74.528C76.3255 74.744 76.2255 75 76.2255 75.296C76.2255 75.584 76.3375 75.828 76.5615 76.028C76.7935 76.228 77.0895 76.328 77.4495 76.328C77.8895 76.328 78.2735 76.236 78.6015 76.052C78.9295 75.86 79.1855 75.604 79.3695 75.284C79.5535 74.964 79.6455 74.608 79.6455 74.216V72.584C79.6455 72.2 79.5055 71.888 79.2255 71.648C78.9455 71.408 78.5815 71.288 78.1335 71.288C77.7415 71.288 77.3975 71.388 77.1015 71.588C76.8055 71.78 76.5855 72.032 76.4415 72.344L75.6255 71.9C75.7455 71.628 75.9335 71.38 76.1895 71.156C76.4535 70.932 76.7535 70.756 77.0895 70.628C77.4255 70.492 77.7735 70.424 78.1335 70.424C78.6055 70.424 79.0215 70.516 79.3815 70.7C79.7495 70.884 80.0335 71.14 80.2335 71.468C80.4415 71.788 80.5455 72.16 80.5455 72.584V77H79.6455V75.716L79.7775 75.848C79.6655 76.088 79.4895 76.308 79.2495 76.508C79.0175 76.7 78.7415 76.856 78.4215 76.976C78.1095 77.088 77.7655 77.144 77.3895 77.144ZM82.3967 77V70.568H83.2967V71.816L83.0927 71.768C83.2527 71.352 83.5127 71.024 83.8727 70.784C84.2407 70.544 84.6647 70.424 85.1447 70.424C85.6007 70.424 86.0087 70.528 86.3687 70.736C86.7367 70.944 87.0247 71.232 87.2327 71.6C87.4487 71.96 87.5567 72.368 87.5567 72.824V77H86.6567V73.172C86.6567 72.78 86.5847 72.448 86.4407 72.176C86.3047 71.904 86.1087 71.696 85.8527 71.552C85.6047 71.4 85.3167 71.324 84.9887 71.324C84.6607 71.324 84.3687 71.4 84.1127 71.552C83.8567 71.696 83.6567 71.908 83.5127 72.188C83.3687 72.46 83.2967 72.788 83.2967 73.172V77H82.3967ZM92.2156 77.144C91.5836 77.144 91.0276 76.996 90.5476 76.7C90.0676 76.404 89.6916 76.004 89.4196 75.5C89.1476 74.988 89.0116 74.412 89.0116 73.772C89.0116 73.132 89.1476 72.56 89.4196 72.056C89.6916 71.552 90.0676 71.156 90.5476 70.868C91.0276 70.572 91.5836 70.424 92.2156 70.424C92.6156 70.424 92.9916 70.496 93.3436 70.64C93.6956 70.784 94.0076 70.98 94.2796 71.228C94.5516 71.468 94.7556 71.748 94.8916 72.068L94.0756 72.488C93.9156 72.144 93.6716 71.864 93.3436 71.648C93.0156 71.432 92.6396 71.324 92.2156 71.324C91.7916 71.324 91.4076 71.432 91.0636 71.648C90.7276 71.856 90.4596 72.148 90.2596 72.524C90.0676 72.892 89.9716 73.312 89.9716 73.784C89.9716 74.248 90.0676 74.668 90.2596 75.044C90.4596 75.412 90.7276 75.704 91.0636 75.92C91.4076 76.136 91.7916 76.244 92.2156 76.244C92.6396 76.244 93.0116 76.136 93.3316 75.92C93.6596 75.704 93.9076 75.416 94.0756 75.056L94.8916 75.5C94.7556 75.812 94.5516 76.092 94.2796 76.34C94.0076 76.588 93.6956 76.784 93.3436 76.928C92.9916 77.072 92.6156 77.144 92.2156 77.144ZM99.3989 77.144C98.7989 77.144 98.2549 77 97.7669 76.712C97.2869 76.416 96.9069 76.012 96.6269 75.5C96.3469 74.988 96.2069 74.408 96.2069 73.76C96.2069 73.112 96.3429 72.54 96.6149 72.044C96.8869 71.54 97.2549 71.144 97.7189 70.856C98.1909 70.568 98.7189 70.424 99.3029 70.424C99.7669 70.424 100.179 70.512 100.539 70.688C100.907 70.856 101.219 71.088 101.475 71.384C101.731 71.672 101.927 72 102.063 72.368C102.199 72.728 102.267 73.1 102.267 73.484C102.267 73.564 102.263 73.656 102.255 73.76C102.247 73.856 102.235 73.956 102.219 74.06H96.7829V73.22H101.703L101.271 73.58C101.343 73.14 101.291 72.748 101.115 72.404C100.947 72.052 100.703 71.776 100.383 71.576C100.063 71.368 99.7029 71.264 99.3029 71.264C98.9029 71.264 98.5309 71.368 98.1869 71.576C97.8509 71.784 97.5869 72.076 97.3949 72.452C97.2029 72.82 97.1269 73.26 97.1669 73.772C97.1269 74.284 97.2069 74.732 97.4069 75.116C97.6149 75.492 97.8949 75.784 98.2469 75.992C98.6069 76.2 98.9909 76.304 99.3989 76.304C99.8709 76.304 100.267 76.192 100.587 75.968C100.907 75.744 101.167 75.464 101.367 75.128L102.135 75.536C102.007 75.824 101.811 76.092 101.547 76.34C101.283 76.58 100.967 76.776 100.599 76.928C100.239 77.072 99.8389 77.144 99.3989 77.144Z" fill="#2E0068" fill-opacity="0.5"/>
<line x1="153" y1="219.711" x2="153" y2="51.5001" stroke="#2E0068" stroke-opacity="0.5" stroke-miterlimit="16" stroke-linecap="round" stroke-linejoin="round" stroke-dasharray="0.18 5.27"/>
<path fill-rule="evenodd" clip-rule="evenodd" d="M148.5 173.211C148.5 170.45 150.739 168.211 153.5 168.211V168.211C156.261 168.211 158.5 170.45 158.5 173.211V215.211C158.5 217.972 156.261 220.211 153.5 220.211V220.211C150.739 220.211 148.5 217.972 148.5 215.211V173.211Z" fill="#E8EBFF"/>
<path d="M147.58 233.331C146.926 233.331 146.406 233.148 146.02 232.781C145.64 232.414 145.45 231.898 145.45 231.231H146.51C146.51 231.564 146.59 231.841 146.75 232.061C146.916 232.281 147.186 232.391 147.56 232.391C147.926 232.391 148.186 232.288 148.34 232.081C148.493 231.868 148.57 231.598 148.57 231.271V226.211H149.63V231.271C149.63 231.931 149.446 232.441 149.08 232.801C148.713 233.154 148.213 233.331 147.58 233.331ZM152.686 233.331C152.266 233.331 151.919 233.261 151.646 233.121C151.373 232.981 151.169 232.798 151.036 232.571C150.903 232.338 150.836 232.084 150.836 231.811C150.836 231.331 151.023 230.951 151.396 230.671C151.769 230.391 152.303 230.251 152.996 230.251H154.296V230.161C154.296 229.774 154.189 229.484 153.976 229.291C153.769 229.098 153.499 229.001 153.166 229.001C152.873 229.001 152.616 229.074 152.396 229.221C152.183 229.361 152.053 229.571 152.006 229.851H150.946C150.979 229.491 151.099 229.184 151.306 228.931C151.519 228.671 151.786 228.474 152.106 228.341C152.433 228.201 152.789 228.131 153.176 228.131C153.869 228.131 154.406 228.314 154.786 228.681C155.166 229.041 155.356 229.534 155.356 230.161V233.211H154.436L154.346 232.361C154.206 232.634 154.003 232.864 153.736 233.051C153.469 233.238 153.119 233.331 152.686 233.331ZM152.896 232.471C153.183 232.471 153.423 232.404 153.616 232.271C153.816 232.131 153.969 231.948 154.076 231.721C154.189 231.494 154.259 231.244 154.286 230.971H153.106C152.686 230.971 152.386 231.044 152.206 231.191C152.033 231.338 151.946 231.521 151.946 231.741C151.946 231.968 152.029 232.148 152.196 232.281C152.369 232.408 152.603 232.471 152.896 232.471ZM156.592 233.211V228.251H157.532L157.612 229.121C157.765 228.814 157.989 228.574 158.282 228.401C158.582 228.221 158.925 228.131 159.312 228.131C159.912 228.131 160.382 228.318 160.722 228.691C161.069 229.064 161.242 229.621 161.242 230.361V233.211H160.192V230.471C160.192 229.511 159.799 229.031 159.012 229.031C158.619 229.031 158.292 229.171 158.032 229.451C157.779 229.731 157.652 230.131 157.652 230.651V233.211H156.592Z" fill="#2E0068" fill-opacity="0.5"/>
<line x1="180.5" y1="219.711" x2="180.5" y2="51.5001" stroke="#2E0068" stroke-opacity="0.5" stroke-miterlimit="16" stroke-linecap="round" stroke-linejoin="round" stroke-dasharray="0.18 5.27"/>
<path fill-rule="evenodd" clip-rule="evenodd" d="M176 92.2109C176 89.4495 178.239 87.2109 181 87.2109V87.2109C183.761 87.2109 186 89.4495 186 92.2109V215.211C186 217.972 183.761 220.211 181 220.211V220.211C178.239 220.211 176 217.972 176 215.211V92.2109Z" fill="#E8EBFF"/>
<path d="M172.999 233.211V226.211H177.389V227.071H174.059V229.281H176.819V230.131H174.059V233.211H172.999ZM180.465 233.331C179.978 233.331 179.545 233.224 179.165 233.011C178.791 232.791 178.498 232.488 178.285 232.101C178.071 231.714 177.965 231.264 177.965 230.751C177.965 230.231 178.068 229.774 178.275 229.381C178.488 228.988 178.781 228.681 179.155 228.461C179.535 228.241 179.975 228.131 180.475 228.131C180.961 228.131 181.385 228.241 181.745 228.461C182.105 228.674 182.385 228.961 182.585 229.321C182.785 229.681 182.885 230.078 182.885 230.511C182.885 230.578 182.881 230.651 182.875 230.731C182.875 230.804 182.871 230.888 182.865 230.981H179.005C179.038 231.461 179.195 231.828 179.475 232.081C179.761 232.328 180.091 232.451 180.465 232.451C180.765 232.451 181.015 232.384 181.215 232.251C181.421 232.111 181.575 231.924 181.675 231.691H182.735C182.601 232.158 182.335 232.548 181.935 232.861C181.541 233.174 181.051 233.331 180.465 233.331ZM180.465 229.001C180.111 229.001 179.798 229.108 179.525 229.321C179.251 229.528 179.085 229.841 179.025 230.261H181.825C181.805 229.874 181.668 229.568 181.415 229.341C181.161 229.114 180.845 229.001 180.465 229.001ZM186.774 233.331C186.388 233.331 186.044 233.254 185.744 233.101C185.451 232.948 185.218 232.731 185.044 232.451L184.934 233.211H183.984V226.011H185.044V229.021C185.204 228.788 185.424 228.581 185.704 228.401C185.984 228.221 186.344 228.131 186.784 228.131C187.264 228.131 187.688 228.244 188.054 228.471C188.421 228.698 188.708 229.008 188.914 229.401C189.128 229.794 189.234 230.241 189.234 230.741C189.234 231.241 189.128 231.688 188.914 232.081C188.708 232.468 188.421 232.774 188.054 233.001C187.688 233.221 187.261 233.331 186.774 233.331ZM186.594 232.411C187.048 232.411 187.421 232.258 187.714 231.951C188.008 231.638 188.154 231.231 188.154 230.731C188.154 230.404 188.088 230.114 187.954 229.861C187.821 229.608 187.638 229.411 187.404 229.271C187.171 229.124 186.901 229.051 186.594 229.051C186.141 229.051 185.768 229.208 185.474 229.521C185.188 229.834 185.044 230.238 185.044 230.731C185.044 231.231 185.188 231.638 185.474 231.951C185.768 232.258 186.141 232.411 186.594 232.411Z" fill="#2E0068" fill-opacity="0.5"/>
<line x1="209" y1="219.711" x2="209" y2="51.5001" stroke="#2E0068" stroke-opacity="0.5" stroke-miterlimit="16" stroke-linecap="round" stroke-linejoin="round" stroke-dasharray="0.18 5.27"/>
<path fill-rule="evenodd" clip-rule="evenodd" d="M204.5 131.211C204.5 128.45 206.739 126.211 209.5 126.211V126.211C212.261 126.211 214.5 128.45 214.5 131.211V215.211C214.5 217.972 212.261 220.211 209.5 220.211V220.211C206.739 220.211 204.5 217.972 204.5 215.211V131.211Z" fill="#E8EBFF"/>
<path d="M201.191 233.211V226.211H202.441L204.811 230.871L207.171 226.211H208.421V233.211H207.361V228.041L205.221 232.211H204.401L202.251 228.051V233.211H201.191ZM211.484 233.331C211.064 233.331 210.717 233.261 210.444 233.121C210.17 232.981 209.967 232.798 209.834 232.571C209.7 232.338 209.634 232.084 209.634 231.811C209.634 231.331 209.82 230.951 210.194 230.671C210.567 230.391 211.1 230.251 211.794 230.251H213.094V230.161C213.094 229.774 212.987 229.484 212.774 229.291C212.567 229.098 212.297 229.001 211.964 229.001C211.67 229.001 211.414 229.074 211.194 229.221C210.98 229.361 210.85 229.571 210.804 229.851H209.744C209.777 229.491 209.897 229.184 210.104 228.931C210.317 228.671 210.584 228.474 210.904 228.341C211.23 228.201 211.587 228.131 211.974 228.131C212.667 228.131 213.204 228.314 213.584 228.681C213.964 229.041 214.154 229.534 214.154 230.161V233.211H213.234L213.144 232.361C213.004 232.634 212.8 232.864 212.534 233.051C212.267 233.238 211.917 233.331 211.484 233.331ZM211.694 232.471C211.98 232.471 212.22 232.404 212.414 232.271C212.614 232.131 212.767 231.948 212.874 231.721C212.987 231.494 213.057 231.244 213.084 230.971H211.904C211.484 230.971 211.184 231.044 211.004 231.191C210.83 231.338 210.744 231.521 210.744 231.741C210.744 231.968 210.827 232.148 210.994 232.281C211.167 232.408 211.4 232.471 211.694 232.471ZM215.39 233.211V228.251H216.34L216.43 229.191C216.603 228.864 216.843 228.608 217.15 228.421C217.463 228.228 217.84 228.131 218.28 228.131V229.241H217.99C217.696 229.241 217.433 229.291 217.2 229.391C216.973 229.484 216.79 229.648 216.65 229.881C216.516 230.108 216.45 230.424 216.45 230.831V233.211H215.39Z" fill="#2E0068" fill-opacity="0.5"/>
<line x1="237.5" y1="219.711" x2="237.5" y2="51.5001" stroke="#2E0068" stroke-opacity="0.5" stroke-miterlimit="16" stroke-linecap="round" stroke-linejoin="round" stroke-dasharray="0.18 5.27"/>
<path fill-rule="evenodd" clip-rule="evenodd" d="M233 99.2109C233 96.4495 235.239 94.2109 238 94.2109V94.2109C240.761 94.2109 243 96.4495 243 99.2109V215.211C243 217.972 240.761 220.211 238 220.211V220.211C235.239 220.211 233 217.972 233 215.211V99.2109Z" fill="#E8EBFF"/>
<path d="M229.749 233.211L232.329 226.211H233.489L236.049 233.211H234.929L234.329 231.501H231.469L230.869 233.211H229.749ZM231.769 230.661H234.029L232.899 227.471L231.769 230.661ZM236.985 235.411V228.251H237.935L238.045 229.021C238.205 228.788 238.425 228.581 238.705 228.401C238.985 228.221 239.345 228.131 239.785 228.131C240.265 228.131 240.689 228.244 241.055 228.471C241.422 228.698 241.709 229.008 241.915 229.401C242.129 229.794 242.235 230.241 242.235 230.741C242.235 231.241 242.129 231.688 241.915 232.081C241.709 232.468 241.422 232.774 241.055 233.001C240.689 233.221 240.262 233.331 239.775 233.331C239.389 233.331 239.045 233.254 238.745 233.101C238.452 232.948 238.219 232.731 238.045 232.451V235.411H236.985ZM239.595 232.411C240.049 232.411 240.422 232.258 240.715 231.951C241.009 231.638 241.155 231.231 241.155 230.731C241.155 230.404 241.089 230.114 240.955 229.861C240.822 229.608 240.639 229.411 240.405 229.271C240.172 229.124 239.902 229.051 239.595 229.051C239.142 229.051 238.769 229.208 238.475 229.521C238.189 229.834 238.045 230.238 238.045 230.731C238.045 231.231 238.189 231.638 238.475 231.951C238.769 232.258 239.142 232.411 239.595 232.411ZM243.382 233.211V228.251H244.332L244.422 229.191C244.595 228.864 244.835 228.608 245.142 228.421C245.455 228.228 245.832 228.131 246.272 228.131V229.241H245.982C245.689 229.241 245.425 229.291 245.192 229.391C244.965 229.484 244.782 229.648 244.642 229.881C244.509 230.108 244.442 230.424 244.442 230.831V233.211H243.382Z" fill="#2E0068" fill-opacity="0.5"/>
<line x1="266.5" y1="219.711" x2="266.5" y2="51.5001" stroke="#2E0068" stroke-opacity="0.5" stroke-miterlimit="16" stroke-linecap="round" stroke-linejoin="round" stroke-dasharray="0.18 5.27"/>
<path fill-rule="evenodd" clip-rule="evenodd" d="M262 146.211C262 143.45 264.239 141.211 267 141.211V141.211C269.761 141.211 272 143.45 272 146.211V215.211C272 217.972 269.761 220.211 267 220.211V220.211C264.239 220.211 262 217.972 262 215.211V146.211Z" fill="#E8EBFF"/>
<path d="M257.783 233.211V226.211H259.033L261.403 230.871L263.763 226.211H265.013V233.211H263.953V228.041L261.813 232.211H260.993L258.843 228.051V233.211H257.783ZM268.076 233.331C267.656 233.331 267.309 233.261 267.036 233.121C266.762 232.981 266.559 232.798 266.426 232.571C266.292 232.338 266.226 232.084 266.226 231.811C266.226 231.331 266.412 230.951 266.786 230.671C267.159 230.391 267.692 230.251 268.386 230.251H269.686V230.161C269.686 229.774 269.579 229.484 269.366 229.291C269.159 229.098 268.889 229.001 268.556 229.001C268.262 229.001 268.006 229.074 267.786 229.221C267.572 229.361 267.442 229.571 267.396 229.851H266.336C266.369 229.491 266.489 229.184 266.696 228.931C266.909 228.671 267.176 228.474 267.496 228.341C267.822 228.201 268.179 228.131 268.566 228.131C269.259 228.131 269.796 228.314 270.176 228.681C270.556 229.041 270.746 229.534 270.746 230.161V233.211H269.826L269.736 232.361C269.596 232.634 269.392 232.864 269.126 233.051C268.859 233.238 268.509 233.331 268.076 233.331ZM268.286 232.471C268.572 232.471 268.812 232.404 269.006 232.271C269.206 232.131 269.359 231.948 269.466 231.721C269.579 231.494 269.649 231.244 269.676 230.971H268.496C268.076 230.971 267.776 231.044 267.596 231.191C267.422 231.338 267.336 231.521 267.336 231.741C267.336 231.968 267.419 232.148 267.586 232.281C267.759 232.408 267.992 232.471 268.286 232.471ZM272.405 235.411L273.595 232.801H273.305L271.345 228.251H272.495L274.015 231.921L275.605 228.251H276.725L273.525 235.411H272.405Z" fill="#2E0068" fill-opacity="0.5"/>
<line x1="295" y1="219.711" x2="295" y2="51.5001" stroke="#2E0068" stroke-miterlimit="16" stroke-linecap="round" stroke-linejoin="round" stroke-dasharray="0.18 5.27"/>
<path fill-rule="evenodd" clip-rule="evenodd" d="M290.5 85.2109C290.5 82.4495 292.739 80.2109 295.5 80.2109V80.2109C298.261 80.2109 300.5 82.4495 300.5 85.2109V215.211C300.5 217.972 298.261 220.211 295.5 220.211V220.211C292.739 220.211 290.5 217.972 290.5 215.211V85.2109Z" fill="#2E0068"/>
<path d="M289.423 233.331C288.77 233.331 288.25 233.148 287.863 232.781C287.483 232.414 287.293 231.898 287.293 231.231H288.353C288.353 231.564 288.433 231.841 288.593 232.061C288.76 232.281 289.03 232.391 289.403 232.391C289.77 232.391 290.03 232.288 290.183 232.081C290.337 231.868 290.413 231.598 290.413 231.271V226.211H291.473V231.271C291.473 231.931 291.29 232.441 290.923 232.801C290.557 233.154 290.057 233.331 289.423 233.331ZM294.68 233.331C294.08 233.331 293.606 233.144 293.26 232.771C292.92 232.398 292.75 231.841 292.75 231.101V228.251H293.81V230.991C293.81 231.951 294.203 232.431 294.99 232.431C295.383 232.431 295.706 232.291 295.96 232.011C296.213 231.731 296.34 231.331 296.34 230.811V228.251H297.4V233.211H296.46L296.38 232.341C296.226 232.648 296 232.891 295.7 233.071C295.406 233.244 295.066 233.331 294.68 233.331ZM298.748 233.211V228.251H299.688L299.768 229.121C299.921 228.814 300.145 228.574 300.438 228.401C300.738 228.221 301.081 228.131 301.468 228.131C302.068 228.131 302.538 228.318 302.878 228.691C303.225 229.064 303.398 229.621 303.398 230.361V233.211H302.348V230.471C302.348 229.511 301.955 229.031 301.168 229.031C300.775 229.031 300.448 229.171 300.188 229.451C299.935 229.731 299.808 230.131 299.808 230.651V233.211H298.748Z" fill="#2E0068"/>
<line x1="320.5" y1="219.711" x2="320.5" y2="51.5001" stroke="#2E0068" stroke-opacity="0.5" stroke-miterlimit="16" stroke-linecap="round" stroke-linejoin="round" stroke-dasharray="0.18 5.27"/>
<path fill-rule="evenodd" clip-rule="evenodd" d="M316 154.211C316 151.45 318.239 149.211 321 149.211V149.211C323.761 149.211 326 151.45 326 154.211V215.211C326 217.972 323.761 220.211 321 220.211V220.211C318.239 220.211 316 217.972 316 215.211V154.211Z" fill="#E8EBFF"/>
<path d="M316.671 233.331C316.018 233.331 315.498 233.148 315.111 232.781C314.731 232.414 314.541 231.898 314.541 231.231H315.601C315.601 231.564 315.681 231.841 315.841 232.061C316.008 232.281 316.278 232.391 316.651 232.391C317.018 232.391 317.278 232.288 317.431 232.081C317.585 231.868 317.661 231.598 317.661 231.271V226.211H318.721V231.271C318.721 231.931 318.538 232.441 318.171 232.801C317.805 233.154 317.305 233.331 316.671 233.331ZM321.928 233.331C321.328 233.331 320.854 233.144 320.508 232.771C320.168 232.398 319.998 231.841 319.998 231.101V228.251H321.058V230.991C321.058 231.951 321.451 232.431 322.238 232.431C322.631 232.431 322.954 232.291 323.208 232.011C323.461 231.731 323.588 231.331 323.588 230.811V228.251H324.648V233.211H323.708L323.628 232.341C323.474 232.648 323.248 232.891 322.948 233.071C322.654 233.244 322.314 233.331 321.928 233.331ZM325.996 233.211V226.011H327.056V233.211H325.996Z" fill="#2E0068" fill-opacity="0.5"/>
<line x1="347" y1="219.711" x2="347" y2="51.5001" stroke="#2E0068" stroke-opacity="0.5" stroke-miterlimit="16" stroke-linecap="round" stroke-linejoin="round" stroke-dasharray="0.18 5.27"/>
<path fill-rule="evenodd" clip-rule="evenodd" d="M342.5 104.211C342.5 101.45 344.739 99.2109 347.5 99.2109V99.2109C350.261 99.2109 352.5 101.45 352.5 104.211V215.211C352.5 217.972 350.261 220.211 347.5 220.211V220.211C344.739 220.211 342.5 217.972 342.5 215.211V104.211Z" fill="#E8EBFF"/>
<path d="M338.649 233.211L341.229 226.211H342.389L344.949 233.211H343.829L343.229 231.501H340.369L339.769 233.211H338.649ZM340.669 230.661H342.929L341.799 227.471L340.669 230.661ZM347.607 233.331C347.007 233.331 346.534 233.144 346.187 232.771C345.847 232.398 345.677 231.841 345.677 231.101V228.251H346.737V230.991C346.737 231.951 347.131 232.431 347.917 232.431C348.311 232.431 348.634 232.291 348.887 232.011C349.141 231.731 349.267 231.331 349.267 230.811V228.251H350.327V233.211H349.387L349.307 232.341C349.154 232.648 348.927 232.891 348.627 233.071C348.334 233.244 347.994 233.331 347.607 233.331ZM353.706 231.691C353.446 231.691 353.206 231.661 352.986 231.601L352.556 232.021C352.629 232.068 352.719 232.108 352.826 232.141C352.933 232.174 353.083 232.204 353.276 232.231C353.469 232.258 353.733 232.284 354.066 232.311C354.726 232.371 355.203 232.531 355.496 232.791C355.789 233.044 355.936 233.384 355.936 233.811C355.936 234.104 355.856 234.381 355.696 234.641C355.543 234.908 355.299 235.121 354.966 235.281C354.639 235.448 354.219 235.531 353.706 235.531C353.013 235.531 352.449 235.398 352.016 235.131C351.589 234.871 351.376 234.474 351.376 233.941C351.376 233.734 351.429 233.528 351.536 233.321C351.649 233.121 351.826 232.931 352.066 232.751C351.926 232.691 351.803 232.628 351.696 232.561C351.596 232.488 351.506 232.414 351.426 232.341V232.101L352.286 231.221C351.899 230.888 351.706 230.451 351.706 229.911C351.706 229.584 351.783 229.288 351.936 229.021C352.096 228.748 352.326 228.531 352.626 228.371C352.926 228.211 353.286 228.131 353.706 228.131C353.986 228.131 354.246 228.171 354.486 228.251H356.336V228.951L355.456 229.001C355.616 229.274 355.696 229.578 355.696 229.911C355.696 230.244 355.616 230.544 355.456 230.811C355.303 231.078 355.076 231.291 354.776 231.451C354.483 231.611 354.126 231.691 353.706 231.691ZM353.706 230.861C354.013 230.861 354.259 230.781 354.446 230.621C354.639 230.454 354.736 230.221 354.736 229.921C354.736 229.614 354.639 229.381 354.446 229.221C354.259 229.061 354.013 228.981 353.706 228.981C353.393 228.981 353.139 229.061 352.946 229.221C352.759 229.381 352.666 229.614 352.666 229.921C352.666 230.221 352.759 230.454 352.946 230.621C353.139 230.781 353.393 230.861 353.706 230.861ZM352.376 233.841C352.376 234.128 352.503 234.341 352.756 234.481C353.009 234.628 353.326 234.701 353.706 234.701C354.073 234.701 354.369 234.621 354.596 234.461C354.823 234.308 354.936 234.101 354.936 233.841C354.936 233.648 354.859 233.481 354.706 233.341C354.553 233.208 354.263 233.124 353.836 233.091C353.516 233.071 353.233 233.041 352.986 233.001C352.753 233.128 352.593 233.264 352.506 233.411C352.419 233.558 352.376 233.701 352.376 233.841Z" fill="#2E0068" fill-opacity="0.5"/>
<line x1="376" y1="219.711" x2="376" y2="51.5001" stroke="#2E0068" stroke-opacity="0.5" stroke-miterlimit="16" stroke-linecap="round" stroke-linejoin="round" stroke-dasharray="0.18 5.27"/>
<path fill-rule="evenodd" clip-rule="evenodd" d="M371.5 192.211C371.5 189.45 373.739 187.211 376.5 187.211V187.211C379.261 187.211 381.5 189.45 381.5 192.211V215.211C381.5 217.972 379.261 220.211 376.5 220.211V220.211C373.739 220.211 371.5 217.972 371.5 215.211V192.211Z" fill="#E8EBFF"/>
<path d="M370.462 233.331C369.949 233.331 369.499 233.241 369.112 233.061C368.726 232.881 368.422 232.624 368.202 232.291C367.989 231.958 367.879 231.561 367.872 231.101H368.992C368.999 231.474 369.129 231.791 369.382 232.051C369.636 232.311 369.992 232.441 370.452 232.441C370.859 232.441 371.176 232.344 371.402 232.151C371.636 231.951 371.752 231.698 371.752 231.391C371.752 231.144 371.696 230.944 371.582 230.791C371.476 230.638 371.326 230.511 371.132 230.411C370.946 230.311 370.729 230.221 370.482 230.141C370.236 230.061 369.976 229.974 369.702 229.881C369.162 229.701 368.756 229.468 368.482 229.181C368.216 228.894 368.082 228.518 368.082 228.051C368.076 227.658 368.166 227.314 368.352 227.021C368.546 226.728 368.812 226.501 369.152 226.341C369.499 226.174 369.902 226.091 370.362 226.091C370.816 226.091 371.212 226.174 371.552 226.341C371.899 226.508 372.169 226.741 372.362 227.041C372.556 227.334 372.656 227.678 372.662 228.071H371.542C371.542 227.891 371.496 227.721 371.402 227.561C371.309 227.394 371.172 227.258 370.992 227.151C370.812 227.044 370.592 226.991 370.332 226.991C369.999 226.984 369.722 227.068 369.502 227.241C369.289 227.414 369.182 227.654 369.182 227.961C369.182 228.234 369.262 228.444 369.422 228.591C369.582 228.738 369.802 228.861 370.082 228.961C370.362 229.054 370.682 229.164 371.042 229.291C371.389 229.404 371.699 229.541 371.972 229.701C372.246 229.861 372.462 230.071 372.622 230.331C372.789 230.591 372.872 230.921 372.872 231.321C372.872 231.674 372.782 232.004 372.602 232.311C372.422 232.611 372.152 232.858 371.792 233.051C371.432 233.238 370.989 233.331 370.462 233.331ZM376.311 233.331C375.825 233.331 375.391 233.224 375.011 233.011C374.638 232.791 374.345 232.488 374.131 232.101C373.918 231.714 373.811 231.264 373.811 230.751C373.811 230.231 373.915 229.774 374.121 229.381C374.335 228.988 374.628 228.681 375.001 228.461C375.381 228.241 375.821 228.131 376.321 228.131C376.808 228.131 377.231 228.241 377.591 228.461C377.951 228.674 378.231 228.961 378.431 229.321C378.631 229.681 378.731 230.078 378.731 230.511C378.731 230.578 378.728 230.651 378.721 230.731C378.721 230.804 378.718 230.888 378.711 230.981H374.851C374.885 231.461 375.041 231.828 375.321 232.081C375.608 232.328 375.938 232.451 376.311 232.451C376.611 232.451 376.861 232.384 377.061 232.251C377.268 232.111 377.421 231.924 377.521 231.691H378.581C378.448 232.158 378.181 232.548 377.781 232.861C377.388 233.174 376.898 233.331 376.311 233.331ZM376.311 229.001C375.958 229.001 375.645 229.108 375.371 229.321C375.098 229.528 374.931 229.841 374.871 230.261H377.671C377.651 229.874 377.515 229.568 377.261 229.341C377.008 229.114 376.691 229.001 376.311 229.001ZM379.831 235.411V228.251H380.781L380.891 229.021C381.051 228.788 381.271 228.581 381.551 228.401C381.831 228.221 382.191 228.131 382.631 228.131C383.111 228.131 383.534 228.244 383.901 228.471C384.268 228.698 384.554 229.008 384.761 229.401C384.974 229.794 385.081 230.241 385.081 230.741C385.081 231.241 384.974 231.688 384.761 232.081C384.554 232.468 384.268 232.774 383.901 233.001C383.534 233.221 383.108 233.331 382.621 233.331C382.234 233.331 381.891 233.254 381.591 233.101C381.298 232.948 381.064 232.731 380.891 232.451V235.411H379.831ZM382.441 232.411C382.894 232.411 383.268 232.258 383.561 231.951C383.854 231.638 384.001 231.231 384.001 230.731C384.001 230.404 383.934 230.114 383.801 229.861C383.668 229.608 383.484 229.411 383.251 229.271C383.018 229.124 382.748 229.051 382.441 229.051C381.988 229.051 381.614 229.208 381.321 229.521C381.034 229.834 380.891 230.238 380.891 230.731C380.891 231.231 381.034 231.638 381.321 231.951C381.614 232.258 381.988 232.411 382.441 232.411Z" fill="#2E0068" fill-opacity="0.5"/>
<line x1="404.5" y1="219.711" x2="404.5" y2="51.5001" stroke="#2E0068" stroke-opacity="0.5" stroke-miterlimit="16" stroke-linecap="round" stroke-linejoin="round" stroke-dasharray="0.18 5.27"/>
<path fill-rule="evenodd" clip-rule="evenodd" d="M400 120.211C400 117.45 402.239 115.211 405 115.211V115.211C407.761 115.211 410 117.45 410 120.211V215.211C410 217.972 407.761 220.211 405 220.211V220.211C402.239 220.211 400 217.972 400 215.211V120.211Z" fill="#E8EBFF"/>
<path d="M400.102 233.331C399.409 233.331 398.802 233.178 398.282 232.871C397.762 232.564 397.355 232.141 397.062 231.601C396.769 231.054 396.622 230.424 396.622 229.711C396.622 228.998 396.769 228.371 397.062 227.831C397.355 227.284 397.762 226.858 398.282 226.551C398.802 226.244 399.409 226.091 400.102 226.091C400.795 226.091 401.402 226.244 401.922 226.551C402.442 226.858 402.845 227.284 403.132 227.831C403.425 228.371 403.572 228.998 403.572 229.711C403.572 230.424 403.425 231.054 403.132 231.601C402.845 232.141 402.442 232.564 401.922 232.871C401.402 233.178 400.795 233.331 400.102 233.331ZM400.102 232.381C400.582 232.381 400.999 232.274 401.352 232.061C401.712 231.848 401.992 231.541 402.192 231.141C402.392 230.741 402.492 230.264 402.492 229.711C402.492 229.158 402.392 228.681 402.192 228.281C401.992 227.881 401.712 227.574 401.352 227.361C400.999 227.148 400.582 227.041 400.102 227.041C399.622 227.041 399.202 227.148 398.842 227.361C398.482 227.574 398.202 227.881 398.002 228.281C397.809 228.681 397.712 229.158 397.712 229.711C397.712 230.264 397.809 230.741 398.002 231.141C398.202 231.541 398.482 231.848 398.842 232.061C399.202 232.274 399.622 232.381 400.102 232.381ZM407.063 233.331C406.576 233.331 406.14 233.221 405.753 233.001C405.373 232.781 405.073 232.478 404.853 232.091C404.64 231.698 404.533 231.244 404.533 230.731C404.533 230.218 404.64 229.768 404.853 229.381C405.073 228.988 405.373 228.681 405.753 228.461C406.14 228.241 406.576 228.131 407.063 228.131C407.676 228.131 408.19 228.291 408.603 228.611C409.023 228.931 409.293 229.364 409.413 229.911H408.303C408.236 229.638 408.09 229.424 407.863 229.271C407.636 229.118 407.37 229.041 407.063 229.041C406.803 229.041 406.563 229.108 406.343 229.241C406.123 229.368 405.946 229.558 405.813 229.811C405.68 230.058 405.613 230.364 405.613 230.731C405.613 231.098 405.68 231.408 405.813 231.661C405.946 231.908 406.123 232.098 406.343 232.231C406.563 232.364 406.803 232.431 407.063 232.431C407.37 232.431 407.636 232.354 407.863 232.201C408.09 232.048 408.236 231.831 408.303 231.551H409.413C409.3 232.084 409.033 232.514 408.613 232.841C408.193 233.168 407.676 233.331 407.063 233.331ZM412.545 233.211C412.058 233.211 411.672 233.094 411.385 232.861C411.098 232.621 410.955 232.198 410.955 231.591V229.141H410.105V228.251H410.955L411.085 226.991H412.015V228.251H413.415V229.141H412.015V231.591C412.015 231.864 412.072 232.054 412.185 232.161C412.305 232.261 412.508 232.311 412.795 232.311H413.365V233.211H412.545Z" fill="#2E0068" fill-opacity="0.5"/>
<line x1="433" y1="219.711" x2="433" y2="51.5001" stroke="#2E0068" stroke-opacity="0.5" stroke-miterlimit="16" stroke-linecap="round" stroke-linejoin="round" stroke-dasharray="0.18 5.27"/>
<path fill-rule="evenodd" clip-rule="evenodd" d="M428.5 77.2109C428.5 74.4495 430.739 72.2109 433.5 72.2109V72.2109C436.261 72.2109 438.5 74.4495 438.5 77.2109V215.211C438.5 217.972 436.261 220.211 433.5 220.211V220.211C430.739 220.211 428.5 217.972 428.5 215.211V77.2109Z" fill="#E8EBFF"/>
<path d="M425.133 233.211V226.211H426.193L429.703 231.481V226.211H430.763V233.211H429.703L426.193 227.941V233.211H425.133ZM434.464 233.331C433.99 233.331 433.564 233.224 433.184 233.011C432.81 232.791 432.514 232.488 432.294 232.101C432.074 231.708 431.964 231.251 431.964 230.731C431.964 230.211 432.074 229.758 432.294 229.371C432.52 228.978 432.824 228.674 433.204 228.461C433.584 228.241 434.007 228.131 434.474 228.131C434.947 228.131 435.37 228.241 435.744 228.461C436.124 228.674 436.424 228.978 436.644 229.371C436.87 229.758 436.984 230.211 436.984 230.731C436.984 231.251 436.87 231.708 436.644 232.101C436.424 232.488 436.124 232.791 435.744 233.011C435.364 233.224 434.937 233.331 434.464 233.331ZM434.464 232.421C434.717 232.421 434.95 232.358 435.164 232.231C435.384 232.104 435.56 231.918 435.694 231.671C435.827 231.418 435.894 231.104 435.894 230.731C435.894 230.358 435.827 230.048 435.694 229.801C435.567 229.548 435.394 229.358 435.174 229.231C434.96 229.104 434.727 229.041 434.474 229.041C434.22 229.041 433.984 229.104 433.764 229.231C433.55 229.358 433.377 229.548 433.244 229.801C433.11 230.048 433.044 230.358 433.044 230.731C433.044 231.104 433.11 231.418 433.244 231.671C433.377 231.918 433.55 232.104 433.764 232.231C433.977 232.358 434.21 232.421 434.464 232.421ZM439.266 233.211L437.406 228.251H438.516L439.896 232.201L441.276 228.251H442.376L440.526 233.211H439.266Z" fill="#2E0068" fill-opacity="0.5"/>
<line x1="461.5" y1="219.711" x2="461.5" y2="51.5001" stroke="#2E0068" stroke-opacity="0.5" stroke-miterlimit="16" stroke-linecap="round" stroke-linejoin="round" stroke-dasharray="0.18 5.27"/>
<path fill-rule="evenodd" clip-rule="evenodd" d="M457 143.211C457 140.45 459.239 138.211 462 138.211V138.211C464.761 138.211 467 140.45 467 143.211V215.211C467 217.972 464.761 220.211 462 220.211V220.211C459.239 220.211 457 217.972 457 215.211V143.211Z" fill="#E8EBFF"/>
<path d="M453.716 233.211V226.211H455.986C456.806 226.211 457.479 226.354 458.006 226.641C458.539 226.928 458.933 227.334 459.186 227.861C459.446 228.381 459.576 229.001 459.576 229.721C459.576 230.434 459.446 231.054 459.186 231.581C458.933 232.101 458.539 232.504 458.006 232.791C457.479 233.071 456.806 233.211 455.986 233.211H453.716ZM454.776 232.311H455.946C456.579 232.311 457.079 232.208 457.446 232.001C457.819 231.794 458.086 231.498 458.246 231.111C458.413 230.724 458.496 230.261 458.496 229.721C458.496 229.181 458.413 228.714 458.246 228.321C458.086 227.928 457.819 227.628 457.446 227.421C457.079 227.208 456.579 227.101 455.946 227.101H454.776V232.311ZM463.027 233.331C462.54 233.331 462.107 233.224 461.727 233.011C461.354 232.791 461.06 232.488 460.847 232.101C460.634 231.714 460.527 231.264 460.527 230.751C460.527 230.231 460.63 229.774 460.837 229.381C461.05 228.988 461.344 228.681 461.717 228.461C462.097 228.241 462.537 228.131 463.037 228.131C463.524 228.131 463.947 228.241 464.307 228.461C464.667 228.674 464.947 228.961 465.147 229.321C465.347 229.681 465.447 230.078 465.447 230.511C465.447 230.578 465.444 230.651 465.437 230.731C465.437 230.804 465.434 230.888 465.427 230.981H461.567C461.6 231.461 461.757 231.828 462.037 232.081C462.324 232.328 462.654 232.451 463.027 232.451C463.327 232.451 463.577 232.384 463.777 232.251C463.984 232.111 464.137 231.924 464.237 231.691H465.297C465.164 232.158 464.897 232.548 464.497 232.861C464.104 233.174 463.614 233.331 463.027 233.331ZM463.027 229.001C462.674 229.001 462.36 229.108 462.087 229.321C461.814 229.528 461.647 229.841 461.587 230.261H464.387C464.367 229.874 464.23 229.568 463.977 229.341C463.724 229.114 463.407 229.001 463.027 229.001ZM468.527 233.331C467.9 233.331 467.384 233.178 466.977 232.871C466.57 232.564 466.337 232.158 466.277 231.651H467.347C467.4 231.878 467.527 232.074 467.727 232.241C467.927 232.401 468.19 232.481 468.517 232.481C468.837 232.481 469.07 232.414 469.217 232.281C469.364 232.148 469.437 231.994 469.437 231.821C469.437 231.568 469.334 231.398 469.127 231.311C468.927 231.218 468.647 231.134 468.287 231.061C468.007 231.001 467.727 230.921 467.447 230.821C467.174 230.721 466.944 230.581 466.757 230.401C466.577 230.214 466.487 229.964 466.487 229.651C466.487 229.218 466.654 228.858 466.987 228.571C467.32 228.278 467.787 228.131 468.387 228.131C468.94 228.131 469.387 228.264 469.727 228.531C470.074 228.798 470.277 229.174 470.337 229.661H469.317C469.284 229.448 469.184 229.281 469.017 229.161C468.857 229.041 468.64 228.981 468.367 228.981C468.1 228.981 467.894 229.038 467.747 229.151C467.6 229.258 467.527 229.398 467.527 229.571C467.527 229.744 467.627 229.881 467.827 229.981C468.034 230.081 468.304 230.171 468.637 230.251C468.97 230.324 469.277 230.411 469.557 230.511C469.844 230.604 470.074 230.744 470.247 230.931C470.42 231.118 470.507 231.391 470.507 231.751C470.514 232.204 470.337 232.581 469.977 232.881C469.624 233.181 469.14 233.331 468.527 233.331Z" fill="#2E0068" fill-opacity="0.5"/>
</svg>
