<svg width="80" height="80" viewBox="0 0 80 80" fill="none" xmlns="http://www.w3.org/2000/svg">
<path d="M73.75 69.1501H61.3625V54.6001C61.3617 53.6058 60.9664 52.6524 60.2633 51.9493C59.5602 51.2462 58.6068 50.8509 57.6125 50.8501H52.0125C51.5199 50.8495 51.0319 50.946 50.5767 51.1342C50.1214 51.3224 49.7077 51.5986 49.3594 51.947C49.011 52.2953 48.7348 52.709 48.5466 53.1643C48.3584 53.6195 48.2618 54.1075 48.2625 54.6001V69.1501H43.0125V44.3251C43.0117 43.3308 42.6164 42.3774 41.9133 41.6743C41.2102 40.9712 40.2568 40.5759 39.2625 40.5751H33.6625C32.6688 40.578 31.7167 40.9741 31.0141 41.6767C30.3115 42.3793 29.9154 43.3314 29.9125 44.3251V69.1501H24.675V28.8376C24.6721 27.8439 24.2761 26.8918 23.5734 26.1892C22.8708 25.4865 21.9187 25.0905 20.925 25.0876H15.325C14.3313 25.0905 13.3792 25.4865 12.6766 26.1892C11.9739 26.8918 11.5779 27.8439 11.575 28.8376V69.1501H7.5V10.4876C7.49395 10.1601 7.35958 9.84801 7.12581 9.61853C6.89204 9.38905 6.57754 9.26048 6.24995 9.2605C5.92237 9.26051 5.60787 9.3891 5.37412 9.6186C5.14036 9.8481 5.00603 10.1602 5 10.4877V70.4001C5.00099 70.7313 5.133 71.0487 5.36721 71.2829C5.60142 71.5171 5.91878 71.6491 6.25 71.6501C10.1626 71.6492 73.75 71.6501 73.75 71.6501C74.0782 71.645 74.3912 71.5111 74.6214 71.2772C74.8517 71.0434 74.9808 70.7283 74.9808 70.4001C74.9808 70.0719 74.8517 69.7569 74.6214 69.523C74.3912 69.2891 74.0782 69.1552 73.75 69.1501Z" fill="url(#paint0_linear_0_1216)"/>
<path d="M54.0625 39.2751C58.1619 39.2701 62.0919 37.6394 64.9906 34.7407C67.8893 31.842 69.52 27.9119 69.525 23.8126C68.6741 3.29971 39.4477 3.30568 38.6 23.8127C38.605 27.912 40.2357 31.8421 43.1344 34.7407C46.0331 37.6394 49.9631 39.2701 54.0625 39.2751ZM54.075 25.0626C52.9102 25.0534 51.7878 24.6239 50.9145 23.8531C50.0412 23.0822 49.4757 22.0219 49.3221 20.8672C49.1685 19.7126 49.437 18.5412 50.0784 17.5689C50.7197 16.5965 51.6907 15.8884 52.8126 15.5751L52.8125 13.4376C52.8125 13.106 52.9442 12.7881 53.1786 12.5537C53.413 12.3193 53.731 12.1876 54.0625 12.1876C54.394 12.1876 54.7119 12.3193 54.9464 12.5537C55.1808 12.7881 55.3125 13.106 55.3125 13.4376V15.5751C56.3395 15.8504 57.2473 16.4562 57.8957 17.2989C58.5441 18.1416 58.897 19.1743 58.9 20.2376C58.9 20.5691 58.7683 20.887 58.5339 21.1214C58.2994 21.3559 57.9815 21.4876 57.65 21.4876C57.3185 21.4876 57.0005 21.3559 56.7661 21.1214C56.5317 20.887 56.4 20.5691 56.4 20.2376C56.4012 19.7765 56.2657 19.3254 56.0106 18.9413C55.7554 18.5573 55.3921 18.2575 54.9666 18.0799C54.5411 17.9023 54.0725 17.8549 53.6201 17.9437C53.1676 18.0324 52.7516 18.2533 52.4247 18.5785C52.0978 18.9036 51.8747 19.3184 51.7835 19.7704C51.6923 20.2224 51.7373 20.6912 51.9126 21.1177C52.0879 21.5441 52.3857 21.909 52.7684 22.1662C53.151 22.4234 53.6014 22.5613 54.0625 22.5626C55.2357 22.5611 56.3695 22.9865 57.2521 23.7596C58.1346 24.5326 58.7058 25.6005 58.8588 26.7637C59.0119 27.9269 58.7364 29.1061 58.0838 30.0812C57.4313 31.0562 56.4462 31.7605 55.3125 32.0626V34.2001C55.3125 34.5316 55.1808 34.8495 54.9464 35.0839C54.7119 35.3184 54.394 35.4501 54.0625 35.4501C53.731 35.4501 53.413 35.3184 53.1786 35.0839C52.9442 34.8495 52.8125 34.5316 52.8125 34.2001V32.0501C51.7877 31.7769 50.8817 31.173 50.2353 30.3322C49.5889 29.4914 49.2381 28.4606 49.2375 27.4001C49.2358 27.0685 49.3659 26.7499 49.5992 26.5143C49.8324 26.2788 50.1497 26.1455 50.4812 26.1438C50.8127 26.1422 51.1313 26.2723 51.3669 26.5055C51.6025 26.7388 51.7358 27.056 51.7375 27.3876C51.7362 27.8486 51.8718 28.2997 52.1269 28.6838C52.382 29.0678 52.7453 29.3676 53.1708 29.5452C53.5963 29.7228 54.0649 29.7702 54.5174 29.6815C54.9699 29.5927 55.3858 29.3718 55.7127 29.0467C56.0396 28.7215 56.2628 28.3067 56.3539 27.8547C56.4451 27.4028 56.4002 26.9339 56.2249 26.5075C56.0496 26.081 55.7518 25.7161 55.3691 25.4589C54.9864 25.2017 54.536 25.0638 54.075 25.0626Z" fill="url(#paint1_linear_0_1216)"/>
<defs>
<linearGradient id="paint0_linear_0_1216" x1="39.9904" y1="9.2605" x2="39.9904" y2="71.6501" gradientUnits="userSpaceOnUse">
<stop stop-color="#2E0068"/>
<stop offset="1" stop-color="#50E5FA"/>
</linearGradient>
<linearGradient id="paint1_linear_0_1216" x1="54.0625" y1="8.43018" x2="54.0625" y2="39.2751" gradientUnits="userSpaceOnUse">
<stop stop-color="#2E0068"/>
<stop offset="1" stop-color="#50E5FA"/>
</linearGradient>
</defs>
</svg>
