<svg width="303" height="161" viewBox="0 0 303 161" fill="none" xmlns="http://www.w3.org/2000/svg">
<g clip-path="url(#clip0_0_1430)">
<rect width="303" height="161" rx="7" fill="white"/>
<g filter="url(#filter0_f_0_1430)">
<rect x="-4" width="316" height="68" fill="#2E0068"/>
</g>
<path d="M25.44 46.24C24.3733 46.24 23.3867 46.0467 22.48 45.66C21.5867 45.2733 20.8 44.7333 20.12 44.04C19.4533 43.3467 18.9333 42.5333 18.56 41.6C18.1867 40.6667 18 39.6467 18 38.54C18 37.4333 18.18 36.4133 18.54 35.48C18.9133 34.5333 19.4333 33.72 20.1 33.04C20.78 32.3467 21.5733 31.8133 22.48 31.44C23.3867 31.0533 24.3733 30.86 25.44 30.86C26.5067 30.86 27.46 31.04 28.3 31.4C29.1533 31.76 29.8733 32.24 30.46 32.84C31.0467 33.4267 31.4667 34.0733 31.72 34.78L29.28 35.92C29 35.1733 28.5267 34.56 27.86 34.08C27.1933 33.5867 26.3867 33.34 25.44 33.34C24.5067 33.34 23.68 33.56 22.96 34C22.2533 34.44 21.7 35.0467 21.3 35.82C20.9133 36.5933 20.72 37.5 20.72 38.54C20.72 39.58 20.9133 40.4933 21.3 41.28C21.7 42.0533 22.2533 42.66 22.96 43.1C23.68 43.54 24.5067 43.76 25.44 43.76C26.3867 43.76 27.1933 43.52 27.86 43.04C28.5267 42.5467 29 41.9267 29.28 41.18L31.72 42.32C31.4667 43.0267 31.0467 43.68 30.46 44.28C29.8733 44.8667 29.1533 45.34 28.3 45.7C27.46 46.06 26.5067 46.24 25.44 46.24ZM38.833 46.24C37.7663 46.24 36.793 45.9933 35.913 45.5C35.0463 45.0067 34.353 44.3333 33.833 43.48C33.3263 42.6267 33.073 41.6533 33.073 40.56C33.073 39.4667 33.3263 38.4933 33.833 37.64C34.353 36.7867 35.0463 36.1133 35.913 35.62C36.7796 35.1267 37.753 34.88 38.833 34.88C39.8996 34.88 40.8663 35.1267 41.733 35.62C42.5996 36.1133 43.2863 36.7867 43.793 37.64C44.313 38.48 44.573 39.4533 44.573 40.56C44.573 41.6533 44.313 42.6267 43.793 43.48C43.273 44.3333 42.5796 45.0067 41.713 45.5C40.8463 45.9933 39.8863 46.24 38.833 46.24ZM38.833 43.84C39.4196 43.84 39.933 43.7 40.373 43.42C40.8263 43.14 41.1796 42.7533 41.433 42.26C41.6996 41.7533 41.833 41.1867 41.833 40.56C41.833 39.92 41.6996 39.36 41.433 38.88C41.1796 38.3867 40.8263 38 40.373 37.72C39.933 37.4267 39.4196 37.28 38.833 37.28C38.233 37.28 37.7063 37.4267 37.253 37.72C36.7996 38 36.4396 38.3867 36.173 38.88C35.9196 39.36 35.793 39.92 35.793 40.56C35.793 41.1867 35.9196 41.7533 36.173 42.26C36.4396 42.7533 36.7996 43.14 37.253 43.42C37.7063 43.7 38.233 43.84 38.833 43.84ZM46.5598 46V35.12H49.0198V37.64L48.7398 37.22C48.9398 36.4333 49.3398 35.8467 49.9398 35.46C50.5398 35.0733 51.2465 34.88 52.0598 34.88C52.9532 34.88 53.7398 35.1133 54.4198 35.58C55.0998 36.0467 55.5398 36.66 55.7398 37.42L54.9998 37.48C55.3332 36.6133 55.8332 35.9667 56.4998 35.54C57.1665 35.1 57.9332 34.88 58.7998 34.88C59.5732 34.88 60.2598 35.0533 60.8598 35.4C61.4732 35.7467 61.9532 36.2333 62.2998 36.86C62.6465 37.4733 62.8198 38.1867 62.8198 39V46H60.1998V39.62C60.1998 39.14 60.1132 38.7267 59.9398 38.38C59.7665 38.0333 59.5265 37.7667 59.2198 37.58C58.9132 37.38 58.5398 37.28 58.0998 37.28C57.6865 37.28 57.3198 37.38 56.9998 37.58C56.6798 37.7667 56.4332 38.0333 56.2598 38.38C56.0865 38.7267 55.9998 39.14 55.9998 39.62V46H53.3798V39.62C53.3798 39.14 53.2932 38.7267 53.1198 38.38C52.9465 38.0333 52.6998 37.7667 52.3798 37.58C52.0732 37.38 51.7065 37.28 51.2798 37.28C50.8665 37.28 50.4998 37.38 50.1798 37.58C49.8598 37.7667 49.6132 38.0333 49.4398 38.38C49.2665 38.7267 49.1798 39.14 49.1798 39.62V46H46.5598ZM65.0364 50V35.12H67.4964V37.28L67.2564 36.74C67.6297 36.1533 68.1364 35.7 68.7764 35.38C69.4164 35.0467 70.1564 34.88 70.9964 34.88C72.0231 34.88 72.9497 35.1333 73.7764 35.64C74.6031 36.1467 75.2564 36.8267 75.7364 37.68C76.2297 38.5333 76.4764 39.4933 76.4764 40.56C76.4764 41.6133 76.2364 42.5733 75.7564 43.44C75.2764 44.3067 74.6231 44.9933 73.7964 45.5C72.9697 45.9933 72.0297 46.24 70.9764 46.24C70.1897 46.24 69.4631 46.0867 68.7964 45.78C68.1431 45.46 67.6231 45.0067 67.2364 44.42L67.6564 43.9V50H65.0364ZM70.6764 43.84C71.2764 43.84 71.8097 43.7 72.2764 43.42C72.7431 43.14 73.1031 42.7533 73.3564 42.26C73.6231 41.7667 73.7564 41.2 73.7564 40.56C73.7564 39.92 73.6231 39.36 73.3564 38.88C73.1031 38.3867 72.7431 38 72.2764 37.72C71.8097 37.4267 71.2764 37.28 70.6764 37.28C70.1031 37.28 69.5831 37.42 69.1164 37.7C68.6631 37.98 68.3031 38.3733 68.0364 38.88C67.7831 39.3733 67.6564 39.9333 67.6564 40.56C67.6564 41.2 67.7831 41.7667 68.0364 42.26C68.3031 42.7533 68.6631 43.14 69.1164 43.42C69.5831 43.7 70.1031 43.84 70.6764 43.84ZM81.7739 46.24C81.0139 46.24 80.3539 46.1133 79.7939 45.86C79.2339 45.6067 78.8006 45.2467 78.4939 44.78C78.1872 44.3 78.0339 43.7467 78.0339 43.12C78.0339 42.52 78.1672 41.9867 78.4339 41.52C78.7006 41.04 79.1139 40.64 79.6739 40.32C80.2339 40 80.9406 39.7733 81.7939 39.64L85.3539 39.06V41.06L82.2939 41.58C81.7739 41.6733 81.3872 41.84 81.1339 42.08C80.8806 42.32 80.7539 42.6333 80.7539 43.02C80.7539 43.3933 80.8939 43.6933 81.1739 43.92C81.4672 44.1333 81.8272 44.24 82.2539 44.24C82.8006 44.24 83.2806 44.1267 83.6939 43.9C84.1206 43.66 84.4472 43.3333 84.6739 42.92C84.9139 42.5067 85.0339 42.0533 85.0339 41.56V38.76C85.0339 38.2933 84.8472 37.9067 84.4739 37.6C84.1139 37.28 83.6339 37.12 83.0339 37.12C82.4739 37.12 81.9739 37.2733 81.5339 37.58C81.1072 37.8733 80.7939 38.2667 80.5939 38.76L78.4539 37.72C78.6672 37.1467 79.0006 36.6533 79.4539 36.24C79.9206 35.8133 80.4672 35.48 81.0939 35.24C81.7206 35 82.4006 34.88 83.1339 34.88C84.0272 34.88 84.8139 35.0467 85.4939 35.38C86.1739 35.7 86.7006 36.1533 87.0739 36.74C87.4606 37.3133 87.6539 37.9867 87.6539 38.76V46H85.1739V44.14L85.7339 44.1C85.4539 44.5667 85.1206 44.96 84.7339 45.28C84.3472 45.5867 83.9072 45.8267 83.4139 46C82.9206 46.16 82.3739 46.24 81.7739 46.24ZM90.0755 46V35.12H92.5355V37.54L92.3355 37.18C92.5888 36.3667 92.9821 35.8 93.5155 35.48C94.0621 35.16 94.7155 35 95.4755 35H96.1155V37.32H95.1755C94.4288 37.32 93.8288 37.5533 93.3755 38.02C92.9221 38.4733 92.6955 39.1133 92.6955 39.94V46H90.0755ZM102.716 46.24C101.596 46.24 100.616 45.9867 99.7759 45.48C98.9359 44.9733 98.2826 44.2867 97.8159 43.42C97.3493 42.5533 97.1159 41.5933 97.1159 40.54C97.1159 39.4467 97.3493 38.48 97.8159 37.64C98.2959 36.7867 98.9426 36.1133 99.7559 35.62C100.583 35.1267 101.503 34.88 102.516 34.88C103.369 34.88 104.116 35.02 104.756 35.3C105.409 35.58 105.963 35.9667 106.416 36.46C106.869 36.9533 107.216 37.52 107.456 38.16C107.696 38.7867 107.816 39.4667 107.816 40.2C107.816 40.3867 107.803 40.58 107.776 40.78C107.763 40.98 107.729 41.1533 107.676 41.3H99.2759V39.3H106.196L104.956 40.24C105.076 39.6267 105.043 39.08 104.856 38.6C104.683 38.12 104.389 37.74 103.976 37.46C103.576 37.18 103.089 37.04 102.516 37.04C101.969 37.04 101.483 37.18 101.056 37.46C100.629 37.7267 100.303 38.1267 100.076 38.66C99.8626 39.18 99.7826 39.8133 99.8359 40.56C99.7826 41.2267 99.8693 41.82 100.096 42.34C100.336 42.8467 100.683 43.24 101.136 43.52C101.603 43.8 102.136 43.94 102.736 43.94C103.336 43.94 103.843 43.8133 104.256 43.56C104.683 43.3067 105.016 42.9667 105.256 42.54L107.376 43.58C107.163 44.1 106.829 44.56 106.376 44.96C105.923 45.36 105.383 45.6733 104.756 45.9C104.143 46.1267 103.463 46.24 102.716 46.24ZM114.677 50.42C114.383 50.42 114.097 50.3933 113.817 50.34C113.537 50.3 113.283 50.2267 113.057 50.12V47.92C113.23 47.96 113.437 48 113.677 48.04C113.93 48.08 114.163 48.1 114.377 48.1C114.977 48.1 115.41 47.96 115.677 47.68C115.957 47.4 116.203 47.0333 116.417 46.58L117.137 44.9L117.097 47.1L112.357 35.12H115.177L118.497 43.96H117.497L120.797 35.12H123.637L118.897 47.1C118.617 47.8067 118.277 48.4067 117.877 48.9C117.477 49.3933 117.01 49.7667 116.477 50.02C115.957 50.2867 115.357 50.42 114.677 50.42ZM130.2 46.24C129.133 46.24 128.16 45.9933 127.28 45.5C126.413 45.0067 125.72 44.3333 125.2 43.48C124.693 42.6267 124.44 41.6533 124.44 40.56C124.44 39.4667 124.693 38.4933 125.2 37.64C125.72 36.7867 126.413 36.1133 127.28 35.62C128.147 35.1267 129.12 34.88 130.2 34.88C131.267 34.88 132.233 35.1267 133.1 35.62C133.967 36.1133 134.653 36.7867 135.16 37.64C135.68 38.48 135.94 39.4533 135.94 40.56C135.94 41.6533 135.68 42.6267 135.16 43.48C134.64 44.3333 133.947 45.0067 133.08 45.5C132.213 45.9933 131.253 46.24 130.2 46.24ZM130.2 43.84C130.787 43.84 131.3 43.7 131.74 43.42C132.193 43.14 132.547 42.7533 132.8 42.26C133.067 41.7533 133.2 41.1867 133.2 40.56C133.2 39.92 133.067 39.36 132.8 38.88C132.547 38.3867 132.193 38 131.74 37.72C131.3 37.4267 130.787 37.28 130.2 37.28C129.6 37.28 129.073 37.4267 128.62 37.72C128.167 38 127.807 38.3867 127.54 38.88C127.287 39.36 127.16 39.92 127.16 40.56C127.16 41.1867 127.287 41.7533 127.54 42.26C127.807 42.7533 128.167 43.14 128.62 43.42C129.073 43.7 129.6 43.84 130.2 43.84ZM141.807 46.24C140.967 46.24 140.234 46.0533 139.607 45.68C138.994 45.3067 138.52 44.7867 138.187 44.12C137.867 43.4533 137.707 42.6733 137.707 41.78V35.12H140.327V41.56C140.327 42.0133 140.414 42.4133 140.587 42.76C140.774 43.0933 141.034 43.36 141.367 43.56C141.714 43.7467 142.1 43.84 142.527 43.84C142.954 43.84 143.334 43.7467 143.667 43.56C144 43.36 144.26 43.0867 144.447 42.74C144.634 42.3933 144.727 41.98 144.727 41.5V35.12H147.347V46H144.867V43.86L145.087 44.24C144.834 44.9067 144.414 45.4067 143.827 45.74C143.254 46.0733 142.58 46.24 141.807 46.24ZM149.783 46V35.12H152.243V37.54L152.043 37.18C152.296 36.3667 152.689 35.8 153.223 35.48C153.769 35.16 154.423 35 155.183 35H155.823V37.32H154.883C154.136 37.32 153.536 37.5533 153.083 38.02C152.629 38.4733 152.403 39.1133 152.403 39.94V46H149.783ZM160.818 50V35.12H163.278V37.28L163.038 36.74C163.411 36.1533 163.918 35.7 164.558 35.38C165.198 35.0467 165.938 34.88 166.778 34.88C167.804 34.88 168.731 35.1333 169.558 35.64C170.384 36.1467 171.038 36.8267 171.518 37.68C172.011 38.5333 172.258 39.4933 172.258 40.56C172.258 41.6133 172.018 42.5733 171.538 43.44C171.058 44.3067 170.404 44.9933 169.578 45.5C168.751 45.9933 167.811 46.24 166.758 46.24C165.971 46.24 165.244 46.0867 164.578 45.78C163.924 45.46 163.404 45.0067 163.018 44.42L163.438 43.9V50H160.818ZM166.458 43.84C167.058 43.84 167.591 43.7 168.058 43.42C168.524 43.14 168.884 42.7533 169.138 42.26C169.404 41.7667 169.538 41.2 169.538 40.56C169.538 39.92 169.404 39.36 169.138 38.88C168.884 38.3867 168.524 38 168.058 37.72C167.591 37.4267 167.058 37.28 166.458 37.28C165.884 37.28 165.364 37.42 164.898 37.7C164.444 37.98 164.084 38.3733 163.818 38.88C163.564 39.3733 163.438 39.9333 163.438 40.56C163.438 41.2 163.564 41.7667 163.818 42.26C164.084 42.7533 164.444 43.14 164.898 43.42C165.364 43.7 165.884 43.84 166.458 43.84ZM174.255 46V35.12H176.715V37.54L176.515 37.18C176.768 36.3667 177.162 35.8 177.695 35.48C178.242 35.16 178.895 35 179.655 35H180.295V37.32H179.355C178.608 37.32 178.008 37.5533 177.555 38.02C177.102 38.4733 176.875 39.1133 176.875 39.94V46H174.255ZM187.056 46.24C185.989 46.24 185.016 45.9933 184.136 45.5C183.269 45.0067 182.576 44.3333 182.056 43.48C181.549 42.6267 181.296 41.6533 181.296 40.56C181.296 39.4667 181.549 38.4933 182.056 37.64C182.576 36.7867 183.269 36.1133 184.136 35.62C185.002 35.1267 185.976 34.88 187.056 34.88C188.122 34.88 189.089 35.1267 189.956 35.62C190.822 36.1133 191.509 36.7867 192.016 37.64C192.536 38.48 192.796 39.4533 192.796 40.56C192.796 41.6533 192.536 42.6267 192.016 43.48C191.496 44.3333 190.802 45.0067 189.936 45.5C189.069 45.9933 188.109 46.24 187.056 46.24ZM187.056 43.84C187.642 43.84 188.156 43.7 188.596 43.42C189.049 43.14 189.402 42.7533 189.656 42.26C189.922 41.7533 190.056 41.1867 190.056 40.56C190.056 39.92 189.922 39.36 189.656 38.88C189.402 38.3867 189.049 38 188.596 37.72C188.156 37.4267 187.642 37.28 187.056 37.28C186.456 37.28 185.929 37.4267 185.476 37.72C185.022 38 184.662 38.3867 184.396 38.88C184.142 39.36 184.016 39.92 184.016 40.56C184.016 41.1867 184.142 41.7533 184.396 42.26C184.662 42.7533 185.022 43.14 185.476 43.42C185.929 43.7 186.456 43.84 187.056 43.84ZM195.808 46V37.46H193.888V35.12H195.808V34.76C195.808 33.9333 195.975 33.2333 196.308 32.66C196.655 32.0733 197.135 31.6267 197.748 31.32C198.361 31.0133 199.088 30.86 199.928 30.86C200.088 30.86 200.261 30.8733 200.448 30.9C200.648 30.9133 200.815 30.9333 200.948 30.96V33.22C200.815 33.1933 200.688 33.18 200.568 33.18C200.461 33.1667 200.361 33.16 200.268 33.16C199.681 33.16 199.228 33.2933 198.908 33.56C198.588 33.8133 198.428 34.2133 198.428 34.76V35.12H203.188V37.46H198.428V46H195.808ZM202.208 46V35.12H204.848V46H202.208ZM211.989 46.12C210.762 46.12 209.809 45.7867 209.129 45.12C208.462 44.44 208.129 43.4867 208.129 42.26V37.46H206.249V35.12H206.449C206.982 35.12 207.395 34.98 207.689 34.7C207.982 34.42 208.129 34.0133 208.129 33.48V32.64H210.749V35.12H213.249V37.46H210.749V42.12C210.749 42.48 210.809 42.7867 210.929 43.04C211.062 43.2933 211.262 43.4867 211.529 43.62C211.809 43.7533 212.162 43.82 212.589 43.82C212.682 43.82 212.789 43.8133 212.909 43.8C213.042 43.7867 213.169 43.7733 213.289 43.76V46C213.102 46.0267 212.889 46.0533 212.649 46.08C212.409 46.1067 212.189 46.12 211.989 46.12Z" fill="#2E0068"/>
<path d="M31.816 79.256C32.2213 79.32 32.5893 79.4853 32.92 79.752C33.2613 80.0187 33.528 80.3493 33.72 80.744C33.9227 81.1387 34.024 81.56 34.024 82.008C34.024 82.5733 33.88 83.0853 33.592 83.544C33.304 83.992 32.8827 84.3493 32.328 84.616C31.784 84.872 31.1387 85 30.392 85H26.232V73.848H30.232C30.9893 73.848 31.6347 73.976 32.168 74.232C32.7013 74.4773 33.1013 74.8133 33.368 75.24C33.6347 75.6667 33.768 76.1467 33.768 76.68C33.768 77.3413 33.5867 77.8907 33.224 78.328C32.872 78.7547 32.4027 79.064 31.816 79.256ZM27.688 78.664H30.136C30.8187 78.664 31.3467 78.504 31.72 78.184C32.0933 77.864 32.28 77.4213 32.28 76.856C32.28 76.2907 32.0933 75.848 31.72 75.528C31.3467 75.208 30.808 75.048 30.104 75.048H27.688V78.664ZM30.264 83.8C30.9893 83.8 31.5547 83.6293 31.96 83.288C32.3653 82.9467 32.568 82.472 32.568 81.864C32.568 81.2453 32.3547 80.76 31.928 80.408C31.5013 80.0453 30.9307 79.864 30.216 79.864H27.688V83.8H30.264ZM44.0445 80.28C44.0445 80.5573 44.0285 80.8507 43.9965 81.16H36.9885C37.0418 82.024 37.3352 82.7013 37.8685 83.192C38.4125 83.672 39.0685 83.912 39.8365 83.912C40.4658 83.912 40.9885 83.768 41.4045 83.48C41.8312 83.1813 42.1298 82.7867 42.3005 82.296H43.8685C43.6338 83.1387 43.1645 83.8267 42.4605 84.36C41.7565 84.8827 40.8818 85.144 39.8365 85.144C39.0045 85.144 38.2578 84.9573 37.5965 84.584C36.9458 84.2107 36.4338 83.6827 36.0605 83C35.6872 82.3067 35.5005 81.5067 35.5005 80.6C35.5005 79.6933 35.6818 78.8987 36.0445 78.216C36.4072 77.5333 36.9138 77.0107 37.5645 76.648C38.2258 76.2747 38.9832 76.088 39.8365 76.088C40.6685 76.088 41.4045 76.2693 42.0445 76.632C42.6845 76.9947 43.1752 77.496 43.5165 78.136C43.8685 78.7653 44.0445 79.48 44.0445 80.28ZM42.5405 79.976C42.5405 79.4213 42.4178 78.9467 42.1725 78.552C41.9272 78.1467 41.5912 77.8427 41.1645 77.64C40.7485 77.4267 40.2845 77.32 39.7725 77.32C39.0365 77.32 38.4072 77.5547 37.8845 78.024C37.3725 78.4933 37.0792 79.144 37.0045 79.976H42.5405ZM49.5344 77.432H47.6944V85H46.2384V77.432H45.1024V76.232H46.2384V75.608C46.2384 74.6267 46.489 73.912 46.9904 73.464C47.5024 73.0053 48.3184 72.776 49.4384 72.776V73.992C48.7984 73.992 48.345 74.12 48.0784 74.376C47.8224 74.6213 47.6944 75.032 47.6944 75.608V76.232H49.5344V77.432ZM55.056 85.144C54.2347 85.144 53.488 84.9573 52.816 84.584C52.1547 84.2107 51.632 83.6827 51.248 83C50.8747 82.3067 50.688 81.5067 50.688 80.6C50.688 79.704 50.88 78.9147 51.264 78.232C51.6587 77.5387 52.192 77.0107 52.864 76.648C53.536 76.2747 54.288 76.088 55.12 76.088C55.952 76.088 56.704 76.2747 57.376 76.648C58.048 77.0107 58.576 77.5333 58.96 78.216C59.3547 78.8987 59.552 79.6933 59.552 80.6C59.552 81.5067 59.3493 82.3067 58.944 83C58.5493 83.6827 58.0107 84.2107 57.328 84.584C56.6453 84.9573 55.888 85.144 55.056 85.144ZM55.056 83.864C55.5787 83.864 56.0693 83.7413 56.528 83.496C56.9867 83.2507 57.3547 82.8827 57.632 82.392C57.92 81.9013 58.064 81.304 58.064 80.6C58.064 79.896 57.9253 79.2987 57.648 78.808C57.3707 78.3173 57.008 77.9547 56.56 77.72C56.112 77.4747 55.6267 77.352 55.104 77.352C54.5707 77.352 54.08 77.4747 53.632 77.72C53.1947 77.9547 52.8427 78.3173 52.576 78.808C52.3093 79.2987 52.176 79.896 52.176 80.6C52.176 81.3147 52.304 81.9173 52.56 82.408C52.8267 82.8987 53.1787 83.2667 53.616 83.512C54.0533 83.7467 54.5333 83.864 55.056 83.864ZM62.9224 77.656C63.1784 77.1547 63.541 76.7653 64.0104 76.488C64.4904 76.2107 65.0717 76.072 65.7544 76.072V77.576H65.3704C63.7384 77.576 62.9224 78.4613 62.9224 80.232V85H61.4664V76.232H62.9224V77.656ZM75.4351 80.28C75.4351 80.5573 75.4191 80.8507 75.3871 81.16H68.3791C68.4325 82.024 68.7258 82.7013 69.2591 83.192C69.8031 83.672 70.4591 83.912 71.2271 83.912C71.8565 83.912 72.3791 83.768 72.7951 83.48C73.2218 83.1813 73.5205 82.7867 73.6911 82.296H75.2591C75.0245 83.1387 74.5551 83.8267 73.8511 84.36C73.1471 84.8827 72.2725 85.144 71.2271 85.144C70.3951 85.144 69.6485 84.9573 68.9871 84.584C68.3365 84.2107 67.8245 83.6827 67.4511 83C67.0778 82.3067 66.8911 81.5067 66.8911 80.6C66.8911 79.6933 67.0725 78.8987 67.4351 78.216C67.7978 77.5333 68.3045 77.0107 68.9551 76.648C69.6165 76.2747 70.3738 76.088 71.2271 76.088C72.0591 76.088 72.7951 76.2693 73.4351 76.632C74.0751 76.9947 74.5658 77.496 74.9071 78.136C75.2591 78.7653 75.4351 79.48 75.4351 80.28ZM73.9311 79.976C73.9311 79.4213 73.8085 78.9467 73.5631 78.552C73.3178 78.1467 72.9818 77.8427 72.5551 77.64C72.1391 77.4267 71.6751 77.32 71.1631 77.32C70.4271 77.32 69.7978 77.5547 69.2751 78.024C68.7631 78.4933 68.4698 79.144 68.3951 79.976H73.9311Z" fill="#2E0068" fill-opacity="0.5"/>
<path d="M32.824 124.52H27.96L27.064 127H25.528L29.56 115.912H31.24L35.256 127H33.72L32.824 124.52ZM32.408 123.336L30.392 117.704L28.376 123.336H32.408ZM40.5813 119.432H38.7413V127H37.2853V119.432H36.1493V118.232H37.2853V117.608C37.2853 116.627 37.5359 115.912 38.0373 115.464C38.5493 115.005 39.3653 114.776 40.4852 114.776V115.992C39.8453 115.992 39.3919 116.12 39.1253 116.376C38.8693 116.621 38.7413 117.032 38.7413 117.608V118.232H40.5813V119.432ZM44.0549 119.432V124.6C44.0549 125.027 44.1455 125.331 44.3269 125.512C44.5082 125.683 44.8229 125.768 45.2709 125.768H46.3429V127H45.0309C44.2202 127 43.6122 126.813 43.2069 126.44C42.8015 126.067 42.5989 125.453 42.5989 124.6V119.432H41.4629V118.232H42.5989V116.024H44.0549V118.232H46.3429V119.432H44.0549ZM56.107 122.28C56.107 122.557 56.091 122.851 56.059 123.16H49.051C49.1043 124.024 49.3977 124.701 49.931 125.192C50.475 125.672 51.131 125.912 51.899 125.912C52.5283 125.912 53.051 125.768 53.467 125.48C53.8937 125.181 54.1923 124.787 54.363 124.296H55.931C55.6963 125.139 55.227 125.827 54.523 126.36C53.819 126.883 52.9443 127.144 51.899 127.144C51.067 127.144 50.3203 126.957 49.659 126.584C49.0083 126.211 48.4963 125.683 48.123 125C47.7497 124.307 47.563 123.507 47.563 122.6C47.563 121.693 47.7443 120.899 48.107 120.216C48.4697 119.533 48.9763 119.011 49.627 118.648C50.2883 118.275 51.0457 118.088 51.899 118.088C52.731 118.088 53.467 118.269 54.107 118.632C54.747 118.995 55.2377 119.496 55.579 120.136C55.931 120.765 56.107 121.48 56.107 122.28ZM54.603 121.976C54.603 121.421 54.4803 120.947 54.235 120.552C53.9897 120.147 53.6537 119.843 53.227 119.64C52.811 119.427 52.347 119.32 51.835 119.32C51.099 119.32 50.4697 119.555 49.947 120.024C49.435 120.493 49.1417 121.144 49.067 121.976H54.603ZM59.4849 119.656C59.7409 119.155 60.1035 118.765 60.5729 118.488C61.0529 118.211 61.6342 118.072 62.3169 118.072V119.576H61.9329C60.3009 119.576 59.4849 120.461 59.4849 122.232V127H58.0289V118.232H59.4849V119.656Z" fill="#2E0068" fill-opacity="0.5"/>
<rect x="96" y="68" width="190" height="24" rx="5" fill="#F3F1F4"/>
<rect x="96" y="68" width="86" height="24" rx="5" fill="#50E5FA"/>
<rect x="96" y="110" width="187" height="24" rx="5" fill="#F3F1F4"/>
<rect x="96" y="110" width="157" height="24" rx="5" fill="#2E0068"/>
</g>
<defs>
<filter id="filter0_f_0_1430" x="-244" y="-240" width="796" height="548" filterUnits="userSpaceOnUse" color-interpolation-filters="sRGB">
<feFlood flood-opacity="0" result="BackgroundImageFix"/>
<feBlend mode="normal" in="SourceGraphic" in2="BackgroundImageFix" result="shape"/>
<feGaussianBlur stdDeviation="120" result="effect1_foregroundBlur_0_1430"/>
</filter>
<clipPath id="clip0_0_1430">
<rect width="303" height="161" rx="7" fill="white"/>
</clipPath>
</defs>
</svg>
