<svg width="41" height="31" viewBox="0 0 41 31" fill="none" xmlns="http://www.w3.org/2000/svg">
<g clip-path="url(#clip0_805_526)">
<path d="M15.1152 0.986328H3.86523C1.79736 0.986328 0.115234 2.66846 0.115234 4.73633V15.9863C0.115234 18.0542 1.79736 19.7363 3.86523 19.7363H8.91101L7.01342 29.4977C6.94201 29.8645 7.03844 30.2435 7.27587 30.5316C7.51329 30.8197 7.86669 30.9863 8.24023 30.9863H12.2899C13.3769 30.9863 14.3431 30.2752 14.6721 29.2456L18.311 20.614C18.3317 20.5646 18.3494 20.5139 18.3635 20.4626C18.6967 19.2651 18.8652 18.0267 18.8652 16.7822V4.73633C18.8652 2.66846 17.1831 0.986328 15.1152 0.986328Z" fill="url(#paint0_linear_805_526)"/>
<path d="M36.3652 0.986328H25.1152C23.0473 0.986328 21.3652 2.66846 21.3652 4.73633V15.9863C21.3652 18.0542 23.0473 19.7363 25.1152 19.7363H30.1616L28.2634 29.4977C28.1914 29.8645 28.2878 30.2435 28.5258 30.5316C28.7627 30.8197 29.1167 30.9863 29.4902 30.9863H33.5405C34.6281 30.9863 35.5937 30.2752 35.9221 29.245L39.561 20.614C39.5817 20.5645 39.5988 20.5139 39.6135 20.4626C39.9467 19.2639 40.1152 18.0255 40.1152 16.7822V4.73633C40.1152 2.66846 38.4331 0.986328 36.3652 0.986328Z" fill="url(#paint1_linear_805_526)"/>
</g>
<defs>
<linearGradient id="paint0_linear_805_526" x1="9.49023" y1="0.986328" x2="9.49023" y2="30.9863" gradientUnits="userSpaceOnUse">
<stop stop-color="#2E0068"/>
<stop offset="1" stop-color="#50E5FA"/>
</linearGradient>
<linearGradient id="paint1_linear_805_526" x1="30.7402" y1="0.986328" x2="30.7402" y2="30.9863" gradientUnits="userSpaceOnUse">
<stop stop-color="#2E0068"/>
<stop offset="1" stop-color="#50E5FA"/>
</linearGradient>
<clipPath id="clip0_805_526">
<rect width="40" height="30" fill="white" transform="translate(0.115234 0.986328)"/>
</clipPath>
</defs>
</svg>
