<svg width="101" height="21" viewBox="0 0 101 21" fill="none" xmlns="http://www.w3.org/2000/svg">
<path d="M9.1644 3.11383C9.46376 2.19252 10.7672 2.19252 11.0666 3.11383L12.1361 6.40563C12.27 6.81765 12.654 7.09661 13.0872 7.09661H16.5484C17.5171 7.09661 17.9199 8.33623 17.1362 8.90563L14.336 10.9401C13.9855 11.1947 13.8389 11.6461 13.9727 12.0581L15.0423 15.3499C15.3416 16.2712 14.2872 17.0374 13.5035 16.468L10.7033 14.4335C10.3528 14.1789 9.87816 14.1789 9.52767 14.4335L6.7275 16.468C5.94379 17.0374 4.88931 16.2712 5.18866 15.3499L6.25823 12.0581C6.39211 11.6461 6.24545 11.1947 5.89496 10.9401L3.09479 8.90563C2.31108 8.33623 2.71385 7.09661 3.68258 7.09661H7.14378C7.577 7.09661 7.96096 6.81765 8.09483 6.40563L9.1644 3.11383Z" fill="#2E0068"/>
<path d="M29.1341 3.11383C29.4335 2.19252 30.7369 2.19252 31.0363 3.11383L32.1058 6.40563C32.2397 6.81765 32.6237 7.09661 33.0569 7.09661H36.5181C37.4868 7.09661 37.8896 8.33623 37.1059 8.90563L34.3057 10.9401C33.9552 11.1947 33.8086 11.6461 33.9424 12.0581L35.012 15.3499C35.3113 16.2712 34.2569 17.0374 33.4732 16.468L30.673 14.4335C30.3225 14.1789 29.8479 14.1789 29.4974 14.4335L26.6972 16.468C25.9135 17.0374 24.8591 16.2712 25.1584 15.3499L26.228 12.0581C26.3618 11.6461 26.2152 11.1947 25.8647 10.9401L23.0645 8.90563C22.2808 8.33623 22.6836 7.09661 23.6523 7.09661H27.1135C27.5467 7.09661 27.9307 6.81765 28.0646 6.40563L29.1341 3.11383Z" fill="#2E0068"/>
<path d="M49.1038 3.11383C49.4032 2.19252 50.7066 2.19252 51.006 3.11383L52.0755 6.40563C52.2094 6.81765 52.5934 7.09661 53.0266 7.09661H56.4878C57.4565 7.09661 57.8593 8.33623 57.0756 8.90563L54.2754 10.9401C53.9249 11.1947 53.7783 11.6461 53.9121 12.0581L54.9817 15.3499C55.281 16.2712 54.2266 17.0374 53.4429 16.468L50.6427 14.4335C50.2922 14.1789 49.8176 14.1789 49.4671 14.4335L46.6669 16.468C45.8832 17.0374 44.8288 16.2712 45.1281 15.3499L46.1977 12.0581C46.3315 11.6461 46.1849 11.1947 45.8344 10.9401L43.0342 8.90563C42.2505 8.33623 42.6533 7.09661 43.622 7.09661H47.0832C47.5164 7.09661 47.9004 6.81765 48.0343 6.40563L49.1038 3.11383Z" fill="#2E0068"/>
<path d="M69.0726 3.11383C69.372 2.19252 70.6754 2.19252 70.9748 3.11383L72.0443 6.40563C72.1782 6.81765 72.5622 7.09661 72.9954 7.09661H76.4566C77.4253 7.09661 77.8281 8.33623 77.0444 8.90563L74.2442 10.9401C73.8937 11.1947 73.7471 11.6461 73.8809 12.0581L74.9505 15.3499C75.2498 16.2712 74.1954 17.0374 73.4117 16.468L70.6115 14.4335C70.261 14.1789 69.7864 14.1789 69.4359 14.4335L66.6357 16.468C65.852 17.0374 64.7976 16.2712 65.0969 15.3499L66.1665 12.0581C66.3003 11.6461 66.1537 11.1947 65.8032 10.9401L63.003 8.90563C62.2193 8.33623 62.6221 7.09661 63.5908 7.09661H67.052C67.4852 7.09661 67.8692 6.81765 68.0031 6.40563L69.0726 3.11383Z" fill="#2E0068"/>
<path d="M89.0423 3.11383C89.3417 2.19252 90.6451 2.19252 90.9445 3.11383L92.014 6.40563C92.1479 6.81765 92.5319 7.09661 92.9651 7.09661H96.4263C97.395 7.09661 97.7978 8.33623 97.0141 8.90563L94.2139 10.9401C93.8634 11.1947 93.7168 11.6461 93.8506 12.0581L94.9202 15.3499C95.2195 16.2712 94.1651 17.0374 93.3814 16.468L90.5812 14.4335C90.2307 14.1789 89.7561 14.1789 89.4056 14.4335L86.6054 16.468C85.8217 17.0374 84.7673 16.2712 85.0666 15.3499L86.1362 12.0581C86.27 11.6461 86.1234 11.1947 85.7729 10.9401L82.9727 8.90563C82.189 8.33623 82.5918 7.09661 83.5605 7.09661H87.0217C87.4549 7.09661 87.8389 6.81765 87.9728 6.40563L89.0423 3.11383Z" fill="#2E0068"/>
</svg>
