<svg width="16" height="15" viewBox="0 0 16 15" fill="none" xmlns="http://www.w3.org/2000/svg">
<path d="M7.23887 0.926822C7.53823 0.00551236 8.84163 0.00551236 9.14103 0.926822L10.2105 4.21862C10.3444 4.63064 10.7284 4.9096 11.1616 4.9096H14.6228C15.5915 4.9096 15.9943 6.14922 15.2106 6.71862L12.4104 8.75307C12.0599 9.00767 11.9133 9.45907 12.0471 9.87107L13.1167 13.1629C13.416 14.0842 12.3616 14.8504 11.5779 14.281L8.77773 12.2465C8.42723 11.9919 7.95263 11.9919 7.60214 12.2465L4.80197 14.281C4.01826 14.8504 2.96378 14.0842 3.26313 13.1629L4.3327 9.87107C4.46658 9.45907 4.31992 9.00767 3.96943 8.75307L1.16926 6.71862C0.385547 6.14922 0.788317 4.9096 1.75705 4.9096H5.21825C5.65147 4.9096 6.03543 4.63064 6.1693 4.21862L7.23887 0.926822Z" fill="#50E5FA"/>
</svg>
