<svg width="16" height="15" viewBox="0 0 16 15" fill="none" xmlns="http://www.w3.org/2000/svg">
<path d="M7.04893 0.867008C7.34829 -0.0543021 8.65169 -0.0543021 8.95109 0.867008L10.0206 4.15881C10.1545 4.57083 10.5385 4.84979 10.9717 4.84979H14.4329C15.4016 4.84979 15.8044 6.08941 15.0207 6.65881L12.2205 8.69326C11.87 8.94786 11.7234 9.39926 11.8572 9.81126L12.9268 13.1031C13.2261 14.0244 12.1717 14.7906 11.388 14.2212L8.58779 12.1867C8.23729 11.9321 7.76269 11.9321 7.4122 12.1867L4.61203 14.2212C3.82832 14.7906 2.77384 14.0244 3.07319 13.1031L4.14276 9.81126C4.27664 9.39926 4.12998 8.94786 3.77949 8.69326L0.979316 6.65881C0.195606 6.08941 0.598376 4.84979 1.56711 4.84979H5.02831C5.46153 4.84979 5.84549 4.57083 5.97936 4.15881L7.04893 0.867008Z" fill="#2E0068"/>
</svg>
