<svg width="26" height="26" viewBox="0 0 26 26" fill="none" xmlns="http://www.w3.org/2000/svg">
<mask id="mask0_0_24" style="mask-type:luminance" maskUnits="userSpaceOnUse" x="0" y="0" width="26" height="26">
<path d="M25.9199 0.800049H0.919922V25.8H25.9199V0.800049Z" fill="white"/>
</mask>
<g mask="url(#mask0_0_24)">
<path d="M23.2185 25.8H3.62132C2.12942 25.8 0.919922 24.5905 0.919922 23.0986V3.50143C0.919922 2.00952 2.12942 0.800049 3.62132 0.800049H23.2185C24.7104 0.800049 25.9199 2.00952 25.9199 3.50143V23.0986C25.9199 24.5905 24.7104 25.8 23.2185 25.8Z" fill="#0E021E"/>
<path fill-rule="evenodd" clip-rule="evenodd" d="M22.9926 13.4394C22.9926 12.0799 22.3341 11.0071 21.0755 11.0071C19.8116 11.0071 19.0469 12.0799 19.0469 13.4288C19.0469 15.0273 19.9497 15.8345 21.2455 15.8345C21.8774 15.8345 22.3553 15.6911 22.7165 15.4893V14.4272C22.3553 14.6078 21.9411 14.7193 21.4154 14.7193C20.9003 14.7193 20.4435 14.5387 20.3851 13.9121H22.982C22.982 13.843 22.9926 13.5669 22.9926 13.4394ZM20.3692 12.9349C20.3692 12.3348 20.7356 12.0852 21.0702 12.0852C21.3942 12.0852 21.7393 12.3348 21.7393 12.9349H20.3692Z" fill="white"/>
<path fill-rule="evenodd" clip-rule="evenodd" d="M16.997 11.0071C16.4765 11.0071 16.1421 11.2514 15.9562 11.4213L15.8871 11.0921H14.7188V17.2843L16.0464 17.0028L16.0518 15.4999C16.243 15.638 16.5243 15.8345 16.9917 15.8345C17.9423 15.8345 18.8079 15.0698 18.8079 13.3863C18.8026 11.8462 17.9264 11.0071 16.997 11.0071ZM16.6783 14.6661C16.365 14.6661 16.1792 14.5546 16.0518 14.4165L16.0464 12.4463C16.1844 12.2923 16.3756 12.1861 16.6783 12.1861C17.1616 12.1861 17.4963 12.7278 17.4963 13.4234C17.4963 14.1351 17.1669 14.6661 16.6783 14.6661Z" fill="white"/>
<path fill-rule="evenodd" clip-rule="evenodd" d="M12.8923 10.6942L14.2253 10.4074V9.32935L12.8923 9.6108V10.6942Z" fill="white"/>
<path fill-rule="evenodd" clip-rule="evenodd" d="M12.8923 11.0977H14.2253V15.7445H12.8923V11.0977Z" fill="white"/>
<path fill-rule="evenodd" clip-rule="evenodd" d="M11.4645 11.4911L11.3795 11.0981H10.2324V15.7449H11.56V12.5958C11.8734 12.1868 12.4044 12.2612 12.5691 12.3196V11.0981C12.3991 11.0344 11.7778 10.9176 11.4645 11.4911Z" fill="white"/>
<path fill-rule="evenodd" clip-rule="evenodd" d="M8.80891 9.94556L7.51311 10.2217L7.50781 14.4755C7.50781 15.2615 8.09731 15.8403 8.88321 15.8403C9.31871 15.8403 9.63741 15.7606 9.81261 15.665V14.587C9.64271 14.656 8.80362 14.9003 8.80362 14.1144V12.2291H9.81261V11.0979H8.80362L8.80891 9.94556Z" fill="white"/>
<path fill-rule="evenodd" clip-rule="evenodd" d="M5.2186 12.4463C5.2186 12.2392 5.3885 12.1595 5.67 12.1595C6.0736 12.1595 6.5834 12.2817 6.987 12.4994V11.2514C6.5462 11.0762 6.1107 11.0071 5.67 11.0071C4.5919 11.0071 3.875 11.57 3.875 12.5101C3.875 13.9758 5.893 13.7421 5.893 14.3741C5.893 14.6184 5.6806 14.698 5.3832 14.698C4.9424 14.698 4.3795 14.5175 3.9334 14.2732V15.5371C4.4273 15.7495 4.9265 15.8398 5.3832 15.8398C6.4878 15.8398 7.2473 15.2928 7.2473 14.3422C7.2419 12.7596 5.2186 13.0411 5.2186 12.4463Z" fill="white"/>
</g>
</svg>
