<svg width="21" height="21" viewBox="0 0 21 21" fill="none" xmlns="http://www.w3.org/2000/svg">
<g clip-path="url(#clip0_805_459)">
<path d="M20.1155 10.3261L17.8514 7.81237L18.2059 4.44709L14.8951 3.74624L13.2064 0.8125L10.1155 2.19391L9.69824 10.3261L10.1155 18.4582L13.2064 19.8397L14.8951 16.906L18.2059 16.2051L17.8514 12.8398L20.1155 10.3261Z" fill="#50E5FA"/>
<path d="M7.02429 0.8125L5.33555 3.74624L2.02483 4.44713L2.37932 7.81237L0.115234 10.3261L2.37932 12.8398L2.02483 16.2051L5.33555 16.906L7.02433 19.8397L10.1152 18.4582V2.19391L7.02429 0.8125Z" fill="#50E5FA"/>
<path d="M14.3077 8.13678L13.4324 7.35547L10.1154 11.0716L9.69824 11.9951L10.1154 12.8335L14.3077 8.13678Z" fill="black"/>
<path d="M6.62942 9.44238L5.7998 10.272L9.28785 13.7601L10.1152 12.8332V11.0712L9.23943 12.0524L6.62942 9.44238Z" fill="black"/>
</g>
<defs>
<clipPath id="clip0_805_459">
<rect width="20" height="20" fill="white" transform="translate(0.115234 0.326172)"/>
</clipPath>
</defs>
</svg>
