<svg width="26" height="26" viewBox="0 0 26 26" fill="none" xmlns="http://www.w3.org/2000/svg">
<mask id="mask0_0_19" style="mask-type:luminance" maskUnits="userSpaceOnUse" x="0" y="0" width="26" height="26">
<path d="M25.9199 0.800049H0.919922V25.8H25.9199V0.800049Z" fill="white"/>
</mask>
<g mask="url(#mask0_0_19)">
<path d="M23.6003 0.800049H3.23952C2.62433 0.800049 2.03433 1.04443 1.59932 1.47944C1.16431 1.91446 0.919922 2.50446 0.919922 3.11965V23.4804C0.919922 24.0956 1.16431 24.6856 1.59932 25.1206C2.03433 25.5556 2.62433 25.8 3.23952 25.8H23.6003C24.2155 25.8 24.8055 25.5556 25.2405 25.1206C25.6755 24.6856 25.9199 24.0956 25.9199 23.4804V3.11965C25.9199 2.50446 25.6755 1.91446 25.2405 1.47944C24.8055 1.04443 24.2155 0.800049 23.6003 0.800049ZM21.2324 9.96056C21.1656 11.4335 20.1145 13.4577 18.1529 16.0102C16.2409 18.4889 14.7154 19.7091 13.4199 19.9761C13.2478 20.0108 13.0727 20.0285 12.8972 20.0287C11.552 20.0287 10.2424 16.2616 9.37873 13.0997C8.92702 11.4719 8.54634 10.7887 8.10884 10.8099C7.70543 10.8227 7.16992 11.202 6.60174 11.604L6.58469 11.6182C6.49718 11.6797 6.38934 11.7052 6.28354 11.6893C6.17774 11.6735 6.08211 11.6175 6.01651 11.533L5.69265 11.1153C5.63012 11.0304 5.60132 10.9253 5.61182 10.8203C5.62231 10.7154 5.67136 10.6181 5.74947 10.5472L6.02077 10.3171C7.76651 8.79579 9.89293 7.05005 10.8461 7.05005C12.0975 7.05005 12.2906 7.73471 12.6756 9.09693C12.694 9.16227 13.035 10.6694 13.4199 12.1679C13.8048 13.6665 14.2381 15.175 14.4242 15.175C14.5364 15.175 14.9256 14.6778 15.6287 13.5741C16.2068 12.6651 16.6727 11.8085 16.7651 11.4875C16.8716 11.1082 16.8531 10.817 16.7054 10.6239C16.5137 10.3753 16.1287 10.3171 15.8347 10.3171C15.6103 10.3182 15.3872 10.3498 15.1713 10.4108C15.1149 10.4262 15.0553 10.4258 14.9991 10.4095C14.9429 10.3933 14.8923 10.3618 14.8528 10.3187C14.8133 10.2755 14.7865 10.2223 14.7753 10.1649C14.764 10.1075 14.7689 10.0481 14.7892 9.99323C15.5705 7.85261 16.971 6.79721 18.9526 6.86823C19.6543 6.88954 20.2011 7.10545 20.579 7.51454C21.0605 8.02448 21.2764 8.84835 21.2324 9.96056Z" fill="#2E0068"/>
</g>
</svg>
