<svg width="147" height="61" viewBox="0 0 147 61" fill="none" xmlns="http://www.w3.org/2000/svg">
<g filter="url(#filter0_d_0_1445)">
<rect x="4" y="4" width="139" height="53" rx="5" fill="#F3F1F4"/>
<g clip-path="url(#clip0_0_1445)">
<path d="M26.739 25.7442L33.1175 24.0032L32.7797 23.3204C32.5587 22.8766 32.0197 22.6933 31.5759 22.9143L25.8658 25.7442H26.739Z" fill="url(#paint0_linear_0_1445)"/>
<path d="M35.0975 24.0535C35.0184 24.0535 34.9394 24.0642 34.8603 24.0858L33.3618 24.4955L28.7855 25.7442H33.9799H36.2438L35.9635 24.7165C35.8557 24.3158 35.4928 24.0535 35.0975 24.0535Z" fill="url(#paint1_linear_0_1445)"/>
<path d="M37.1799 26.373H36.9751H36.6966H36.4181H34.2925H26.4821H25.4579H24.5955H24.4356H23.9002C23.6163 26.373 23.3629 26.5042 23.1976 26.7108C23.1222 26.8061 23.0647 26.9157 23.0323 27.036C23.0126 27.1115 23 27.1906 23 27.2714V27.3792V28.4034V37.2811C23 37.777 23.4025 38.1794 23.8984 38.1794H37.1781C37.674 38.1794 38.0765 37.777 38.0765 37.2811V34.7746H32.7455C31.9029 34.7746 31.2183 34.0901 31.2183 33.2474V32.4245V32.146V31.8675V31.2494C31.2183 30.8362 31.3836 30.4607 31.6513 30.1858C31.8885 29.9414 32.2065 29.7761 32.5623 29.7348C32.6216 29.7276 32.6827 29.724 32.7437 29.724H37.329H37.6075H37.886H38.0765V27.2714C38.0783 26.7755 37.6758 26.373 37.1799 26.373Z" fill="url(#paint2_linear_0_1445)"/>
<path d="M38.7071 30.5828C38.6173 30.5001 38.5113 30.4372 38.3927 30.3959C38.3011 30.3654 38.204 30.3474 38.1016 30.3474H38.0783H38.0603H37.7818H36.7774H32.7455C32.2496 30.3474 31.8472 30.7499 31.8472 31.2458V31.6932V31.9717V32.2501V33.2455C31.8472 33.7414 32.2496 34.1439 32.7455 34.1439H38.0783H38.1016C38.204 34.1439 38.3011 34.1259 38.3927 34.0954C38.5113 34.0559 38.6173 33.9912 38.7071 33.9085C38.8868 33.745 39 33.5079 39 33.2456V31.2458C39 30.9834 38.8868 30.7463 38.7071 30.5828ZM34.6213 32.4244C34.6213 32.6724 34.4201 32.8736 34.1722 32.8736H33.8739C33.6259 32.8736 33.4247 32.6724 33.4247 32.4244V32.1262C33.4247 31.9824 33.4912 31.8548 33.5972 31.774C33.6745 31.7147 33.7697 31.677 33.8739 31.677H33.9494H34.1722C34.4201 31.677 34.6213 31.8782 34.6213 32.1262V32.4244Z" fill="url(#paint3_linear_0_1445)"/>
</g>
<path d="M46.8864 36H45.4091L49.6818 24.3636H51.1364L55.4091 36H53.9318L50.4545 26.2045H50.3636L46.8864 36ZM47.4318 31.4545H53.3864V32.7045H47.4318V31.4545ZM60.3352 36.1818C59.608 36.1818 58.9659 35.9981 58.4091 35.6307C57.8523 35.2595 57.4167 34.7367 57.1023 34.0625C56.7879 33.3845 56.6307 32.5833 56.6307 31.6591C56.6307 30.7424 56.7879 29.947 57.1023 29.2727C57.4167 28.5985 57.8542 28.0777 58.4148 27.7102C58.9754 27.3428 59.6231 27.1591 60.358 27.1591C60.9261 27.1591 61.375 27.2538 61.7045 27.4432C62.0379 27.6288 62.2917 27.8409 62.4659 28.0795C62.6439 28.3144 62.7822 28.5076 62.8807 28.6591H62.9943V24.3636H64.3352V36H63.0398V34.6591H62.8807C62.7822 34.8182 62.642 35.0189 62.4602 35.2614C62.2784 35.5 62.0189 35.714 61.6818 35.9034C61.3447 36.089 60.8958 36.1818 60.3352 36.1818ZM60.517 34.9773C61.0549 34.9773 61.5095 34.8371 61.8807 34.5568C62.2519 34.2727 62.5341 33.8807 62.7273 33.3807C62.9205 32.8769 63.017 32.2955 63.017 31.6364C63.017 30.9848 62.9223 30.4148 62.733 29.9261C62.5436 29.4337 62.2633 29.0511 61.892 28.7784C61.5208 28.5019 61.0625 28.3636 60.517 28.3636C59.9489 28.3636 59.4754 28.5095 59.0966 28.8011C58.7216 29.089 58.4394 29.4811 58.25 29.9773C58.0644 30.4697 57.9716 31.0227 57.9716 31.6364C57.9716 32.2576 58.0663 32.822 58.2557 33.3295C58.4489 33.8333 58.733 34.2348 59.108 34.5341C59.4867 34.8295 59.9564 34.9773 60.517 34.9773ZM70.2727 36.1818C69.5455 36.1818 68.9034 35.9981 68.3466 35.6307C67.7898 35.2595 67.3542 34.7367 67.0398 34.0625C66.7254 33.3845 66.5682 32.5833 66.5682 31.6591C66.5682 30.7424 66.7254 29.947 67.0398 29.2727C67.3542 28.5985 67.7917 28.0777 68.3523 27.7102C68.9129 27.3428 69.5606 27.1591 70.2955 27.1591C70.8636 27.1591 71.3125 27.2538 71.642 27.4432C71.9754 27.6288 72.2292 27.8409 72.4034 28.0795C72.5814 28.3144 72.7197 28.5076 72.8182 28.6591H72.9318V24.3636H74.2727V36H72.9773V34.6591H72.8182C72.7197 34.8182 72.5795 35.0189 72.3977 35.2614C72.2159 35.5 71.9564 35.714 71.6193 35.9034C71.2822 36.089 70.8333 36.1818 70.2727 36.1818ZM70.4545 34.9773C70.9924 34.9773 71.447 34.8371 71.8182 34.5568C72.1894 34.2727 72.4716 33.8807 72.6648 33.3807C72.858 32.8769 72.9545 32.2955 72.9545 31.6364C72.9545 30.9848 72.8598 30.4148 72.6705 29.9261C72.4811 29.4337 72.2008 29.0511 71.8295 28.7784C71.4583 28.5019 71 28.3636 70.4545 28.3636C69.8864 28.3636 69.4129 28.5095 69.0341 28.8011C68.6591 29.089 68.3769 29.4811 68.1875 29.9773C68.0019 30.4697 67.9091 31.0227 67.9091 31.6364C67.9091 32.2576 68.0038 32.822 68.1932 33.3295C68.3864 33.8333 68.6705 34.2348 69.0455 34.5341C69.4242 34.8295 69.8939 34.9773 70.4545 34.9773ZM83.392 36L80.733 27.2727H82.142L84.0284 33.9545H84.1193L85.983 27.2727H87.4148L89.2557 33.9318H89.3466L91.233 27.2727H92.642L89.983 36H88.6648L86.7557 29.2955H86.6193L84.7102 36H83.392ZM96.983 36.2045C96.4299 36.2045 95.928 36.1004 95.4773 35.892C95.0265 35.6799 94.6686 35.375 94.4034 34.9773C94.1383 34.5758 94.0057 34.0909 94.0057 33.5227C94.0057 33.0227 94.1042 32.6174 94.3011 32.3068C94.4981 31.9924 94.7614 31.7462 95.0909 31.5682C95.4205 31.3902 95.7841 31.2576 96.1818 31.1705C96.5833 31.0795 96.9867 31.0076 97.392 30.9545C97.9223 30.8864 98.3523 30.8352 98.6818 30.8011C99.0152 30.7633 99.2576 30.7008 99.4091 30.6136C99.5644 30.5265 99.642 30.375 99.642 30.1591V30.1136C99.642 29.553 99.4886 29.1174 99.1818 28.8068C98.8788 28.4962 98.4186 28.3409 97.8011 28.3409C97.161 28.3409 96.6591 28.4811 96.2955 28.7614C95.9318 29.0417 95.6761 29.3409 95.5284 29.6591L94.2557 29.2045C94.483 28.6742 94.786 28.2614 95.1648 27.9659C95.5473 27.6667 95.964 27.4583 96.4148 27.3409C96.8693 27.2197 97.3163 27.1591 97.7557 27.1591C98.036 27.1591 98.358 27.1932 98.7216 27.2614C99.089 27.3258 99.4432 27.4602 99.7841 27.6648C100.129 27.8693 100.415 28.178 100.642 28.5909C100.869 29.0038 100.983 29.5568 100.983 30.25V36H99.642V34.8182H99.5739C99.483 35.0076 99.3314 35.2102 99.1193 35.4261C98.9072 35.642 98.625 35.8258 98.2727 35.9773C97.9205 36.1288 97.4905 36.2045 96.983 36.2045ZM97.1875 35C97.7178 35 98.1648 34.8958 98.5284 34.6875C98.8958 34.4792 99.1723 34.2102 99.358 33.8807C99.5473 33.5511 99.642 33.2045 99.642 32.8409V31.6136C99.5852 31.6818 99.4602 31.7443 99.267 31.8011C99.0777 31.8542 98.858 31.9015 98.608 31.9432C98.3617 31.9811 98.1212 32.0152 97.8864 32.0455C97.6553 32.072 97.4678 32.0947 97.3239 32.1136C96.9754 32.1591 96.6496 32.233 96.3466 32.3352C96.0473 32.4337 95.8049 32.5833 95.6193 32.7841C95.4375 32.9811 95.3466 33.25 95.3466 33.5909C95.3466 34.0568 95.5189 34.4091 95.8636 34.6477C96.2121 34.8826 96.6534 35 97.1875 35ZM104.771 24.3636V36H103.43V24.3636H104.771ZM108.568 24.3636V36H107.227V24.3636H108.568ZM114.683 36.1818C113.842 36.1818 113.117 35.9962 112.507 35.625C111.901 35.25 111.433 34.7273 111.104 34.0568C110.778 33.3826 110.615 32.5985 110.615 31.7045C110.615 30.8106 110.778 30.0227 111.104 29.3409C111.433 28.6553 111.892 28.1212 112.479 27.7386C113.07 27.3523 113.759 27.1591 114.547 27.1591C115.001 27.1591 115.45 27.2348 115.893 27.3864C116.337 27.5379 116.74 27.7841 117.104 28.125C117.467 28.4621 117.757 28.9091 117.973 29.4659C118.189 30.0227 118.297 30.7083 118.297 31.5227V32.0909H111.57V30.9318H116.933C116.933 30.4394 116.835 30 116.638 29.6136C116.445 29.2273 116.168 28.9223 115.808 28.6989C115.452 28.4754 115.032 28.3636 114.547 28.3636C114.013 28.3636 113.551 28.4962 113.161 28.7614C112.774 29.0227 112.477 29.3636 112.268 29.7841C112.06 30.2045 111.956 30.6553 111.956 31.1364V31.9091C111.956 32.5682 112.07 33.1269 112.297 33.5852C112.528 34.0398 112.848 34.3864 113.257 34.625C113.666 34.8598 114.142 34.9773 114.683 34.9773C115.036 34.9773 115.354 34.928 115.638 34.8295C115.926 34.7273 116.174 34.5758 116.382 34.375C116.59 34.1705 116.751 33.9167 116.865 33.6136L118.161 33.9773C118.024 34.4167 117.795 34.803 117.473 35.1364C117.151 35.4659 116.753 35.7235 116.28 35.9091C115.806 36.0909 115.274 36.1818 114.683 36.1818ZM124.132 27.2727V28.4091H119.609V27.2727H124.132ZM120.928 25.1818H122.268V33.5C122.268 33.8788 122.323 34.1629 122.433 34.3523C122.547 34.5379 122.691 34.6629 122.865 34.7273C123.043 34.7879 123.231 34.8182 123.428 34.8182C123.575 34.8182 123.696 34.8106 123.791 34.7955C123.886 34.7765 123.962 34.7614 124.018 34.75L124.291 35.9545C124.2 35.9886 124.073 36.0227 123.911 36.0568C123.748 36.0947 123.541 36.1136 123.291 36.1136C122.912 36.1136 122.541 36.0322 122.178 35.8693C121.818 35.7064 121.518 35.4583 121.28 35.125C121.045 34.7917 120.928 34.3712 120.928 33.8636V25.1818Z" fill="black"/>
</g>
<defs>
<filter id="filter0_d_0_1445" x="0" y="0" width="147" height="61" filterUnits="userSpaceOnUse" color-interpolation-filters="sRGB">
<feFlood flood-opacity="0" result="BackgroundImageFix"/>
<feColorMatrix in="SourceAlpha" type="matrix" values="0 0 0 0 0 0 0 0 0 0 0 0 0 0 0 0 0 0 127 0" result="hardAlpha"/>
<feOffset/>
<feGaussianBlur stdDeviation="2"/>
<feComposite in2="hardAlpha" operator="out"/>
<feColorMatrix type="matrix" values="0 0 0 0 0 0 0 0 0 0 0 0 0 0 0 0 0 0 0.05 0"/>
<feBlend mode="normal" in2="BackgroundImageFix" result="effect1_dropShadow_0_1445"/>
<feBlend mode="normal" in="SourceGraphic" in2="effect1_dropShadow_0_1445" result="shape"/>
</filter>
<linearGradient id="paint0_linear_0_1445" x1="29.4916" y1="22.8206" x2="29.4916" y2="25.7442" gradientUnits="userSpaceOnUse">
<stop stop-color="#2E0068"/>
<stop offset="1" stop-color="#50E5FA"/>
</linearGradient>
<linearGradient id="paint1_linear_0_1445" x1="32.5147" y1="24.0535" x2="32.5147" y2="25.7442" gradientUnits="userSpaceOnUse">
<stop stop-color="#2E0068"/>
<stop offset="1" stop-color="#50E5FA"/>
</linearGradient>
<linearGradient id="paint2_linear_0_1445" x1="30.5382" y1="26.373" x2="30.5382" y2="38.1794" gradientUnits="userSpaceOnUse">
<stop stop-color="#2E0068"/>
<stop offset="1" stop-color="#50E5FA"/>
</linearGradient>
<linearGradient id="paint3_linear_0_1445" x1="35.4236" y1="30.3474" x2="35.4236" y2="34.1439" gradientUnits="userSpaceOnUse">
<stop stop-color="#2E0068"/>
<stop offset="1" stop-color="#50E5FA"/>
</linearGradient>
<clipPath id="clip0_0_1445">
<rect width="16" height="16" fill="white" transform="translate(23 22.5)"/>
</clipPath>
</defs>
</svg>
